<svg xmlns="http://www.w3.org/2000/svg" xmlns:xlink="http://www.w3.org/1999/xlink" width="334" height="64" viewBox="0 0 334 64">
    <defs>
        <path id="a" d="M0 63.999h334.4V0H0z"/>
    </defs>
    <g fill="none" fill-rule="evenodd">
        <mask id="b" fill="#fff">
            <use xlink:href="#a"/>
        </mask>
        <g fill="#111" mask="url(#b)">
            <path d="M76 22h6.372v1.842H78.31v3.429h3.881v1.841H78.31V34.6H76zM88.097 32.997c1.445 0 1.77-1.661 1.77-3.214 0-1.552-.325-3.195-1.77-3.195-1.443 0-1.786 1.643-1.786 3.195 0 1.553.343 3.214 1.786 3.214zm0-7.997c1.896 0 4.081.992 4.081 4.783 0 3.9-2.185 4.803-4.081 4.803-1.895 0-4.097-.903-4.097-4.803C84 25.992 86.202 25 88.097 25zM97.097 32.997c1.445 0 1.77-1.661 1.77-3.214 0-1.552-.325-3.195-1.77-3.195-1.443 0-1.786 1.643-1.786 3.195 0 1.553.343 3.214 1.786 3.214m0-7.997c1.896 0 4.081.992 4.081 4.783 0 3.9-2.185 4.803-4.081 4.803-1.895 0-4.097-.903-4.097-4.803C93 25.992 95.202 25 97.097 25M106.88 33.04c1.318 0 1.769-1.426 1.769-3.178 0-1.804-.506-3.122-1.734-3.122-1.245 0-1.677 1.209-1.677 3.069 0 2.148.344 3.231 1.642 3.231zM110.887 21v11.95c0 .667.018 1.245.072 1.588h-2.093c-.037-.27-.072-.811-.072-1.443h-.055c-.36.794-1.028 1.589-2.473 1.589-2.31 0-3.266-2.204-3.266-4.786 0-3.032 1.209-4.8 3.212-4.8 1.336 0 2.076.757 2.401 1.479h.036V21h2.238zM122.343 29.892h-.199c-1.914 0-3.051.397-3.051 1.751 0 .849.561 1.426 1.427 1.426 1.336 0 1.823-.992 1.823-2.654v-.523zm-4.405-4.206c.633-.289 1.517-.686 2.944-.686 2.888 0 3.556 1.409 3.556 3.737v4.061c0 .669.072 1.282.126 1.643h-2.023c-.108-.361-.126-.812-.126-1.263h-.036c-.56.758-1.263 1.408-2.599 1.408-1.445 0-2.78-.993-2.78-2.726 0-2.528 2.058-3.159 4.891-3.159h.452v-.344c0-.92-.452-1.769-1.733-1.769-1.12 0-2.111.542-2.545.903l-.127-1.805zM127.072 26.679c0-.578-.019-1.12-.072-1.535h2.093c.019.47.072.957.072 1.427h.037c.325-.561.956-1.571 2.473-1.571 2.111 0 2.744 1.571 2.744 3.448v5.993h-2.239v-5.578c0-1.426-.361-2.022-1.282-2.022-1.172 0-1.587.993-1.587 2.185v5.415h-2.239v-7.762zM139.881 33.04c1.318 0 1.769-1.426 1.769-3.178 0-1.804-.506-3.122-1.734-3.122-1.245 0-1.678 1.209-1.678 3.069 0 2.148.344 3.231 1.643 3.231zM143.888 21v11.95c0 .667.018 1.245.072 1.588h-2.093c-.037-.27-.072-.811-.072-1.443h-.055c-.36.794-1.028 1.589-2.473 1.589-2.311 0-3.267-2.204-3.267-4.786 0-3.032 1.209-4.8 3.213-4.8 1.336 0 2.076.757 2.401 1.479h.036V21h2.238zM155.057 29.798l-1.588-5.884h-.036l-1.732 5.884h3.356zm.488 1.769h-4.332l-.902 3.033H148l4.225-12.6h2.526l4.062 12.6h-2.383l-.885-3.033zM163.772 32.798c1.408 0 1.967-1.011 1.967-3.123 0-1.949-.74-2.996-1.805-2.979-1.173.018-1.623 1.102-1.623 2.998 0 2.183.703 3.104 1.461 3.104zm-3.231 3.087c.524.289 1.57.795 2.744.795 2.111 0 2.454-1.463 2.454-2.925v-.885h-.035c-.362.723-.993 1.571-2.456 1.571-1.299 0-3.248-.867-3.248-4.622 0-2.563.921-4.819 3.357-4.819 1.354 0 1.985.776 2.454 1.588h.072c0-.487.056-.957.074-1.444h2.021c-.035.487-.072.975-.072 1.463v6.86c0 2.905-.884 4.981-4.297 4.981a9.333 9.333 0 0 1-3.193-.578l.125-1.985zM170.072 26.679c0-.578-.019-1.12-.072-1.535h2.021c.018.56.072 1.138.072 1.697h.037c.271-.722.974-1.841 2.363-1.841.146 0 .253.035.38.054v2.094a2.337 2.337 0 0 0-.633-.09c-.92 0-1.929.559-1.929 2.292v5.091h-2.239v-7.762zM177.035 34.249h2.239v-9.297h-2.239v9.297zM177 23.202h2.311V21H177v2.202zM187.57 34.206a6.346 6.346 0 0 1-2.202.38c-3.069 0-4.368-2.149-4.368-4.785 0-2.654 1.371-4.801 4.494-4.801.704 0 1.535.217 1.951.379l-.128 1.768c-.397-.198-.956-.451-1.57-.451-1.697 0-2.437 1.138-2.437 3.123 0 1.734.831 3.07 2.545 3.07.541 0 1.281-.253 1.59-.452l.125 1.769zM196.347 32.763c0 .578.018 1.119.072 1.534h-2.095c-.019-.469-.072-.956-.072-1.426l-.053-.017.018.017c-.433.687-1.011 1.572-2.473 1.572-2.112 0-2.744-1.572-2.744-3.449V25h2.239v5.578c0 1.427.397 2.023 1.335 2.023 1.191 0 1.534-1.084 1.534-2.276V25h2.239v7.763zM198 34.538h2.239V21H198zM203.48 22.687l2.239-.687v2.599h1.859v1.643h-1.859v4.82c0 .993.36 1.282 1.01 1.282.397 0 .686-.108.849-.199v1.589c-.344.162-.831.307-1.499.307-1.661 0-2.599-.758-2.599-2.708v-5.091H202v-1.643h1.48v-1.912zM216.347 32.763c0 .578.017 1.119.072 1.534h-2.094c-.019-.469-.073-.956-.073-1.426l-.053-.017.018.017c-.433.687-1.011 1.572-2.474 1.572-2.111 0-2.743-1.572-2.743-3.449V25h2.239v5.578c0 1.427.397 2.023 1.334 2.023 1.192 0 1.535-1.084 1.535-2.276V25h2.239v7.763zM219.072 26.679c0-.578-.019-1.12-.072-1.535h2.021c.018.56.072 1.138.072 1.697h.037c.271-.722.974-1.841 2.363-1.841.146 0 .253.035.38.054v2.094a2.33 2.33 0 0 0-.633-.09c-.918 0-1.929.559-1.929 2.292v5.091h-2.239v-7.762zM230.38 28.989c0-1.643-.542-2.474-1.554-2.474-1.172 0-1.659 1.246-1.659 2.474h3.213zm1.696 5a6.904 6.904 0 0 1-2.779.597c-2.998 0-4.297-2.149-4.297-4.659 0-2.78 1.462-4.927 3.826-4.927 2.004 0 3.719 1.173 3.719 4.964v.433h-5.378c0 1.588.631 2.545 2.364 2.545 1.371 0 2.021-.415 2.436-.722l.109 1.769zM243.018 32.191c1.462 0 2.635-1.246 2.635-4.712 0-3.466-1.173-4.711-2.635-4.711-1.462 0-2.636 1.245-2.636 4.711s1.174 4.712 2.636 4.712m0-11.191c2.617 0 5.018 1.949 5.018 6.479 0 4.531-2.401 6.482-5.018 6.482S238 32.01 238 27.479c0-4.53 2.401-6.479 5.018-6.479M250.072 26.679c0-.578-.019-1.12-.072-1.535h2.021c.018.56.072 1.138.072 1.697h.037c.271-.722.975-1.841 2.364-1.841.146 0 .253.035.38.054v2.094a2.33 2.33 0 0 0-.633-.09c-.919 0-1.93.559-1.93 2.292v5.091h-2.239v-7.762zM259.772 32.798c1.408 0 1.967-1.011 1.967-3.123 0-1.949-.74-2.996-1.804-2.979-1.174.018-1.624 1.102-1.624 2.998 0 2.183.703 3.104 1.461 3.104zm-3.231 3.087c.523.289 1.57.795 2.744.795 2.111 0 2.454-1.463 2.454-2.925v-.885h-.035c-.362.723-.993 1.571-2.456 1.571-1.299 0-3.248-.867-3.248-4.622 0-2.563.92-4.819 3.357-4.819 1.354 0 1.985.776 2.454 1.588h.073c0-.487.054-.957.073-1.444h2.021a19.87 19.87 0 0 0-.072 1.463v6.86c0 2.905-.884 4.981-4.296 4.981a9.342 9.342 0 0 1-3.195-.578l.126-1.985zM271.342 29.892h-.199c-1.913 0-3.051.397-3.051 1.751 0 .849.562 1.426 1.427 1.426 1.336 0 1.823-.992 1.823-2.654v-.523zm-4.405-4.206c.633-.289 1.517-.686 2.944-.686 2.887 0 3.556 1.409 3.556 3.737v4.061c0 .669.072 1.282.125 1.643h-2.022c-.108-.361-.126-.812-.126-1.263h-.037c-.559.758-1.262 1.408-2.598 1.408-1.445 0-2.779-.993-2.779-2.726 0-2.528 2.057-3.159 4.89-3.159h.452v-.344c0-.92-.452-1.769-1.732-1.769-1.121 0-2.112.542-2.545.903l-.128-1.805zM275.072 26.679c0-.578-.019-1.12-.072-1.535h2.093c.019.47.072.957.072 1.427h.037c.325-.561.956-1.571 2.473-1.571 2.111 0 2.744 1.571 2.744 3.448v5.993h-2.239v-5.578c0-1.426-.362-2.022-1.282-2.022-1.172 0-1.587.993-1.587 2.185v5.415h-2.239v-7.762zM285.035 34.249h2.239v-9.297h-2.239v9.297zM285 23.202h2.311V21H285v2.202zM289 32.366l3.971-5.669h-3.846V25h6.085v1.914l-3.9 5.686h4.025v1.697H289zM301.342 29.892h-.199c-1.912 0-3.05.397-3.05 1.751 0 .849.559 1.426 1.426 1.426 1.336 0 1.823-.992 1.823-2.654v-.523zm-4.404-4.206c.633-.289 1.516-.686 2.943-.686 2.888 0 3.556 1.409 3.556 3.737v4.061c0 .669.072 1.282.126 1.643h-2.022c-.109-.361-.127-.812-.127-1.263h-.037c-.559.758-1.263 1.408-2.598 1.408-1.444 0-2.779-.993-2.779-2.726 0-2.528 2.057-3.159 4.89-3.159h.452v-.344c0-.92-.452-1.769-1.733-1.769-1.12 0-2.112.542-2.544.903l-.127-1.805zM306.48 22.687l2.239-.687v2.599h1.858v1.643h-1.858v4.82c0 .993.359 1.282 1.009 1.282.397 0 .686-.108.849-.199v1.589c-.344.162-.831.307-1.499.307-1.66 0-2.598-.758-2.598-2.708v-5.091H305v-1.643h1.48v-1.912zM312.035 34.249h2.239v-9.297h-2.239v9.297zM312 23.202h2.311V21H312v2.202zM320.097 32.997c1.445 0 1.77-1.661 1.77-3.214 0-1.552-.325-3.195-1.77-3.195-1.443 0-1.787 1.643-1.787 3.195 0 1.553.344 3.214 1.787 3.214m0-7.997c1.896 0 4.081.992 4.081 4.783 0 3.9-2.185 4.803-4.081 4.803-1.896 0-4.097-.903-4.097-4.803 0-3.791 2.201-4.783 4.097-4.783M326.072 26.679c0-.578-.019-1.12-.072-1.535h2.093c.018.47.071.957.071 1.427h.037c.325-.561.956-1.571 2.474-1.571 2.111 0 2.744 1.571 2.744 3.448v5.993h-2.239v-5.578c0-1.426-.361-2.022-1.282-2.022-1.173 0-1.588.993-1.588 2.185v5.415h-2.238v-7.762zM80.096 52.997c1.445 0 1.77-1.661 1.77-3.214 0-1.552-.325-3.194-1.77-3.194-1.443 0-1.787 1.642-1.787 3.194 0 1.553.344 3.214 1.787 3.214m0-7.997c1.896 0 4.081.993 4.081 4.783 0 3.9-2.185 4.803-4.081 4.803-1.895 0-4.096-.903-4.096-4.803C76 45.993 78.201 45 80.096 45M86.551 47.102H85v-1.643h1.551v-1.895c0-1.335.631-2.564 2.672-2.564.595 0 1.173.126 1.606.217l-.09 1.625c-.27-.072-.559-.144-.884-.144-.65 0-1.065.451-1.065 1.155v1.606h1.696v1.643H88.79v7.653h-2.239v-7.653zM97.48 43.687L99.718 43v2.6h1.859v1.643h-1.859v4.819c0 .993.361 1.282 1.011 1.282.396 0 .686-.108.848-.199v1.589c-.343.162-.83.307-1.498.307-1.662 0-2.599-.758-2.599-2.708v-5.09H96V45.6h1.48v-1.913zM103 41h2.239v5.434h.053c.396-.579.92-1.336 2.31-1.336 2.112 0 2.744 1.571 2.744 3.447v5.993h-2.238V48.96c0-1.425-.362-2.021-1.283-2.021-1.171 0-1.586.993-1.586 2.184v5.415H103V41zM117.379 48.989c0-1.643-.542-2.473-1.554-2.473-1.172 0-1.659 1.246-1.659 2.473h3.213zm1.696 5a6.908 6.908 0 0 1-2.779.597c-2.997 0-4.296-2.149-4.296-4.659 0-2.779 1.462-4.927 3.825-4.927 2.004 0 3.719 1.173 3.719 4.964v.433h-5.378c0 1.588.631 2.545 2.364 2.545 1.371 0 2.021-.415 2.436-.722l.109 1.769zM128.311 42v8.159c0 2.094.631 2.78 1.985 2.78 1.318 0 1.968-.686 1.968-2.78V42h2.311v8.159c0 3.321-1.914 4.622-4.279 4.622-2.382 0-4.296-1.301-4.296-4.622V42h2.311zM137.072 46.679c0-.577-.019-1.119-.072-1.534h2.093c.018.47.072.957.072 1.427h.036c.326-.561.957-1.572 2.474-1.572 2.111 0 2.744 1.572 2.744 3.448v5.993h-2.239v-5.578c0-1.425-.361-2.021-1.282-2.021-1.172 0-1.588.992-1.588 2.184v5.415h-2.238v-7.762zM146.035 54.25h2.239v-9.296h-2.239v9.296zM146 43.202h2.311V41H146v2.202zM151.48 43.687l2.238-.687v2.6h1.859v1.643h-1.859v4.819c0 .993.36 1.282 1.01 1.282.397 0 .686-.108.849-.199v1.589c-.344.162-.831.307-1.499.307-1.661 0-2.598-.758-2.598-2.708v-5.09H150V45.6h1.48v-1.913zM162.38 48.989c0-1.643-.542-2.473-1.554-2.473-1.172 0-1.659 1.246-1.659 2.473h3.213zm1.695 5a6.898 6.898 0 0 1-2.778.597c-2.998 0-4.297-2.149-4.297-4.659 0-2.779 1.462-4.927 3.826-4.927 2.004 0 3.718 1.173 3.718 4.964v.433h-5.377c0 1.588.631 2.545 2.364 2.545 1.371 0 2.02-.415 2.435-.722l.109 1.769zM169.881 53.04c1.317 0 1.768-1.426 1.768-3.177 0-1.804-.505-3.123-1.733-3.123-1.246 0-1.678 1.21-1.678 3.069 0 2.148.343 3.231 1.643 3.231zM173.887 41v11.95c0 .667.018 1.245.072 1.588h-2.093c-.036-.27-.071-.811-.071-1.443h-.056c-.359.794-1.027 1.589-2.473 1.589-2.31 0-3.266-2.204-3.266-4.786 0-3.031 1.209-4.8 3.213-4.8 1.336 0 2.076.757 2.401 1.48h.035V41h2.238zM181 42h2.744l4.187 9.893h.037V42h2.093v12.6H187.3l-4.171-9.82h-.035v9.82H181zM197.343 49.892h-.199c-1.912 0-3.051.397-3.051 1.751 0 .849.56 1.426 1.427 1.426 1.336 0 1.823-.992 1.823-2.653v-.524zm-4.405-4.205c.633-.289 1.517-.687 2.944-.687 2.888 0 3.556 1.409 3.556 3.737v4.061c0 .669.072 1.282.126 1.643h-2.022c-.108-.361-.127-.812-.127-1.263h-.036c-.56.758-1.263 1.408-2.599 1.408-1.445 0-2.78-.993-2.78-2.726 0-2.528 2.058-3.159 4.891-3.159h.452v-.344c0-.919-.452-1.768-1.733-1.768-1.12 0-2.113.541-2.545.903l-.127-1.805zM202.479 43.687l2.238-.687v2.6h1.859v1.643h-1.859v4.819c0 .993.361 1.282 1.011 1.282.396 0 .686-.108.848-.199v1.589c-.343.162-.83.307-1.498.307-1.662 0-2.599-.758-2.599-2.708v-5.09H201V45.6h1.479v-1.913zM208.035 54.25h2.239v-9.296h-2.239v9.296zM208 43.202h2.311V41H208v2.202zM216.098 52.997c1.445 0 1.77-1.661 1.77-3.214 0-1.552-.325-3.194-1.77-3.194-1.443 0-1.787 1.642-1.787 3.194 0 1.553.344 3.214 1.787 3.214m0-7.997c1.896 0 4.081.993 4.081 4.783 0 3.9-2.185 4.803-4.081 4.803-1.896 0-4.098-.903-4.098-4.803 0-3.79 2.202-4.783 4.098-4.783M222.072 46.679c0-.577-.019-1.119-.072-1.534h2.093c.019.47.072.957.072 1.427h.037c.325-.561.956-1.572 2.473-1.572 2.111 0 2.744 1.572 2.744 3.448v5.993h-2.238v-5.578c0-1.425-.362-2.021-1.283-2.021-1.172 0-1.587.992-1.587 2.184v5.415h-2.239v-7.762zM231.108 52.275c.36.144 1.281.613 2.329.613.812 0 1.443-.199 1.443-.921 0-.361-.18-.704-.992-1.173l-.921-.542c-.938-.559-1.967-1.156-1.967-2.617 0-1.281 1.245-2.635 3.212-2.635 1.192 0 2.113.306 2.33.379l-.127 1.733c-.56-.217-1.156-.415-1.968-.415-.902 0-1.281.343-1.281.902 0 .505.397.776 1.046 1.192l1.103.704c1.154.739 1.732 1.262 1.732 2.346 0 1.714-1.444 2.745-3.466 2.745-1.155 0-2.113-.272-2.581-.453l.108-1.858zM52.456 37.824l.814.423-.081.096c-.265.321-.384.487-.509.848-.061.165-.136.481-.012.72.06.125.169.218.324.267.362.123.674-.193 1.032-.558.501-.509 1.121-1.138 2.124-.8 1.019.346 1.366 1.253.944 2.488-.128.377-.361.699-.576.996l-.05.064-.842-.392.085-.098c.1-.118.452-.53.583-.938.128-.357.115-.965-.43-1.148-.451-.157-.792.193-1.187.6-.481.505-1.032 1.076-1.941.766-.399-.135-.698-.389-.866-.727-.205-.413-.213-.94-.022-1.491.121-.372.326-.755.563-1.052l.047-.064zM50.4 42.378l4.745 2.752-.482.833-4.771-2.76.508-.825zm-1.873 2.727l4.097 3.656-.737.864s-3.842-1.121-4.425-1.278c.433.414 2.817 2.927 2.817 2.927l-.72.65-3.861-3.923.907-.812s3.707 1.106 4.29 1.26c-.433-.411-2.991-2.611-2.991-2.611l.623-.733zm-4.829 8.391c.14-.068.505-.267.867-.484.323-.197.582-.359.713-.463-.191-.144-1.658-1.26-1.963-1.496.062.383.345 2.204.383 2.443zm-.539-3.648l4.698 3.443-.835.588s-.943-.718-1.037-.787c-.056.03-.54.373-1.062.682-.492.298-1.026.561-1.079.592.023.122.207 1.274.207 1.274l-.898.429-.788-5.761.794-.46zm-5.243 3.258c.046.159.445 1.435.492 1.59.199-.058.632-.196.632-.196.144-.042.483-.177.645-.487a.708.708 0 0 0 .081-.331.988.988 0 0 0-.047-.278.698.698 0 0 0-.346-.42c-.292-.156-.685-.117-.932-.043l-.525.165zm2.012-.983c.356.186.614.517.754.987.063.199.097.389.097.572 0 .757-.53 1.352-1.487 1.653 0 0-.482.149-.626.192.057.172.626 2.007.626 2.007l-.95.246-1.611-5.22 1.44-.447c.72-.224 1.318-.221 1.757.01zm-17.115-1.091s.879.438 2.125.863c.851.295 1.573.525 2.281.681l-.247.825s-.675-.12-1.775-.458l-1.492 4.267-.979-.34 1.486-4.27c-1.026-.382-1.737-.762-1.737-.762l.338-.806zm-5.83.325c.098.082.45.367.814.627.37.259.742.503.85.553.053-.239.434-2.124.511-2.474l-2.175 1.294zm2.403-2.433l.822.588-1.065 5.731-.944-.543s.237-1.168.265-1.281c-.047-.036-.595-.366-1.129-.741-.541-.387-1.068-.822-1.118-.856-.102.062-1.146.678-1.146.678l-.807-.69 5.069-2.856.053-.03zm-3.851-3.645l.661.798-4.157 3.475-.673-.797 4.119-3.442.05-.034zm-3.003-4.872s.42.895.763 1.529c.339.635.804 1.401.804 1.401l-.751.438s-.571-.95-1.094-2.047c-.143.074-1.044.542-1.193.617.087.159 1.009 1.936 1.009 1.936l-.76.438-1.016-1.971c-.162.08-2.103 1.082-2.103 1.082l-.464-.922 4.752-2.474.053-.027zm47.932-8.405c0-8.498-3.745-16.131-9.662-21.356L39.398 39.623c.758 4.734-.645 8.535-4.05 9.662-2.206.732-2.328 1.848-2.328 5.151v.396c0 2.347.178 4.351.34 5.598 15.065-.71 27.104-13.189 27.104-28.428zm-28.36-.8l.134-1.079c.552-2.507 2.371-2.194 3.634-4.654l.022-.038c.037-.091 6.221-13.36 8.802-18.9a28.289 28.289 0 0 0-12.695-2.995c-4.558 0-8.87 1.082-12.696 2.995a13189.136 13189.136 0 0 0 8.83 18.938c1.256 2.46 3.072 2.147 3.624 4.654l.134 1.079h.211zm-.121 3.362c-1.923-.429-4.319-2.339-4.63-4.797-.112-.934-.203-1.195-.065-3.051l-8.744-19.79a29.48 29.48 0 0 0-2.062 1.229c2.615 5.874 10.606 23.818 10.612 23.841 1.265 2.663 3.484 2.715 4.25 4.303.461.94.503 1.782.508 1.85h.293c.006-.068.053-.91.508-1.85.769-1.588 2.988-1.64 4.25-4.303.006-.023 8.001-17.967 10.612-23.841a26.582 26.582 0 0 0-2.063-1.229l-8.733 19.79c.137 1.856.047 2.117-.075 3.051-.312 2.458-2.708 4.368-4.62 4.797h-.041zm.006 7.391c-4.533-1.058-6.216-5.188-6.216-8.856L15.796 8.614c-.651.451-1.283.932-1.894 1.431 2.195 5.2 12.042 28.57 12.055 28.603 1.742 4.198 4.914 2.808 5.68 6.274.184.839.196 1.207.196 1.207h.34s.007-.368.196-1.207c.767-3.466 3.929-2.076 5.674-6.274l12.052-28.603c-.611-.499-1.24-.98-1.895-1.431l-9.973 24.485c0 3.668-1.686 7.798-6.22 8.856h-.018zM30.637 60.43c.171-1.247.34-3.251.34-5.598v-.396c0-3.303-.122-4.419-2.328-5.151-3.405-1.127-4.798-4.928-4.051-9.662L13.205 10.646c-5.927 5.225-9.666 12.858-9.666 21.356 0 15.239 12.043 27.718 27.098 28.428zm19.236-33.098c0-2.476.608-4.49 2.359-4.49 1.757 0 2.39 2.014 2.39 4.49 0 2.475-.633 4.492-2.39 4.492-1.751 0-2.359-2.017-2.359-4.492zm-3.109 0c0 3.79 1.757 6.671 5.468 6.671 3.721 0 5.497-2.881 5.497-6.671 0-3.791-1.776-6.671-5.497-6.671-3.711 0-5.468 2.88-5.468 6.671zM33.245 14.703h-2.683l1.25-5.61h.205l1.228 5.61zm1.28 5.068h3.079L34.026 6.87h-3.934l-3.708 12.901h2.85l.82-2.883h3.733l.738 2.883zM7.783 33.782h2.92v-5.394h4.904v-2.257h-4.904v-2.998h5.065v-2.252H7.783v12.901zm24.096-14.399c.042 0 2.6 2.739 2.6 4.933 0 2.375-1.851 2.943-2.478 2.943-.031 0-.068-.004-.108-.007h-.025c-.04.003-.082.007-.109.007-.623 0-2.477-.568-2.477-2.943 0-2.194 2.551-4.933 2.597-4.933zM32.001 64C14.357 64 0 49.646 0 32.002 0 14.357 14.357 0 32.001 0 49.646 0 64 14.357 64 32.002 64 49.646 49.646 64 32.001 64z"/>
        </g>
    </g>
</svg>
