<svg xmlns="http://www.w3.org/2000/svg" width="285.756" height="50" viewBox="0 0 285.756 50">
  <g id="Group_10356" data-name="Group 10356" transform="translate(-82.988 -82.685)">
    <g id="Group_10354" data-name="Group 10354" transform="translate(82.988 82.685)">
      <path id="Path_13344" data-name="Path 13344" d="M107.988,132.685a25,25,0,1,1,25-25A25.028,25.028,0,0,1,107.988,132.685Zm-.094-34.857c.031,0,2.03,2.142,2.03,3.854a2.108,2.108,0,0,1-1.936,2.3.828.828,0,0,1-.085-.006h-.019c-.032,0-.064.006-.085.006a2.109,2.109,0,0,1-1.936-2.3C105.864,99.969,107.857,97.828,107.894,97.828ZM89.068,109.078h2.281v-4.216H95.18V103.1H91.348v-2.341h3.958V99H89.068Zm20.893-10.948h2.4l-2.8-10.078H106.5l-2.9,10.078h2.226l.641-2.253h2.916Zm-1-3.957h-2.095l.976-4.383H108Zm10.563,9.866c0,2.959,1.372,5.209,4.272,5.209s4.293-2.25,4.293-5.209-1.387-5.212-4.293-5.212S119.522,101.078,119.522,104.039Zm2.429,0c0-1.937.475-3.507,1.843-3.507s1.866,1.57,1.866,3.507-.494,3.509-1.866,3.509S121.951,105.974,121.951,104.039Zm-15.028,25.855a33.906,33.906,0,0,0,.265-4.375v-.308c0-2.582-.1-3.452-1.818-4.022-2.661-.884-3.748-3.852-3.165-7.551L93.3,91a22.224,22.224,0,0,0,13.62,38.891Zm1.056-14.434c-3.542-.823-4.856-4.05-4.856-6.919L95.328,89.417q-.763.527-1.48,1.119c1.715,4.059,9.409,22.315,9.418,22.345,1.36,3.278,3.839,2.19,4.437,4.9a5.894,5.894,0,0,1,.154.94h.265a5.439,5.439,0,0,1,.153-.94c.6-2.711,3.071-1.623,4.433-4.9.01-.03,7.7-18.285,9.416-22.345-.477-.393-.969-.767-1.481-1.119l-7.79,19.125c0,2.869-1.317,6.1-4.86,6.919Zm0-5.772a4.881,4.881,0,0,1-3.617-3.747,8.582,8.582,0,0,1-.051-2.386L97.476,88.1c-.551.3-1.087.618-1.612.96,2.043,4.593,8.287,18.611,8.291,18.626.988,2.083,2.722,2.124,3.32,3.36a4.048,4.048,0,0,1,.4,1.45h.228a4.133,4.133,0,0,1,.4-1.45c.6-1.237,2.334-1.277,3.319-3.36.006-.015,6.252-14.033,8.291-18.626-.518-.342-1.059-.663-1.612-.96l-6.822,15.46a8.2,8.2,0,0,1-.06,2.386,4.884,4.884,0,0,1-3.608,3.747Zm.094-2.626.106-.845c.431-1.955,1.852-1.713,2.837-3.636.006-.008.017-.03.017-.03.029-.069,4.86-10.434,6.876-14.766a22.222,22.222,0,0,0-19.836,0c2.015,4.331,6.845,14.7,6.884,14.766,0,0,.009.022.014.03.981,1.923,2.4,1.68,2.832,3.636l.1.845Zm22.157.622A22.2,22.2,0,0,0,122.677,91l-8.91,22.635c.592,3.7-.5,6.667-3.164,7.551-1.724.57-1.818,1.44-1.818,4.022v.308a35.012,35.012,0,0,0,.265,4.375A22.264,22.264,0,0,0,130.225,107.685Zm-37.448,6.567s.33.7.6,1.2.628,1.094.628,1.094l-.587.344s-.446-.743-.854-1.6c-.112.057-.815.425-.933.482.069.125.789,1.515.789,1.515l-.594.343s-.73-1.421-.795-1.542c-.126.064-1.642.844-1.642.844l-.363-.72,3.712-1.931Zm2.347,3.806.517.626L92.393,121.4l-.526-.623,3.218-2.688Zm3.009,2.848.643.459-.834,4.476-.738-.424s.186-.913.207-1c-.036-.033-.464-.287-.881-.583s-.835-.642-.874-.667l-.9.53-.63-.538,3.961-2.231Zm-1.876,1.9c.076.065.35.286.635.489s.579.393.665.434c.042-.19.338-1.662.4-1.932C97.714,121.941,96.426,122.7,96.256,122.807Zm4.554-.255a14.885,14.885,0,0,0,1.659.675,16.207,16.207,0,0,0,1.782.531l-.191.644a13.167,13.167,0,0,1-1.388-.355c-.048.143-1.166,3.333-1.166,3.333l-.765-.265s1.113-3.2,1.162-3.335a12.672,12.672,0,0,1-1.36-.6Zm13.37.854a1.224,1.224,0,0,1,.589.77,1.493,1.493,0,0,1,.076.446c0,.592-.415,1.058-1.162,1.29,0,0-.377.117-.489.154.044.133.489,1.568.489,1.568l-.742.191-1.259-4.076,1.125-.35A1.792,1.792,0,0,1,114.181,123.406Zm-1.572.768c.037.125.347,1.117.383,1.24.156-.045.494-.15.494-.15a.857.857,0,0,0,.505-.383.552.552,0,0,0,.063-.259.781.781,0,0,0-.038-.218.545.545,0,0,0-.269-.325,1.021,1.021,0,0,0-.728-.034Zm4.1-2.545,3.671,2.688-.652.457s-.739-.558-.811-.616c-.044.028-.423.293-.832.535-.384.232-.8.44-.842.464.017.093.162.993.162.993l-.7.336-.617-4.5Zm.421,2.846c.109-.053.394-.206.676-.376a6.017,6.017,0,0,0,.557-.363c-.149-.111-1.3-.984-1.533-1.167C116.877,122.87,117.1,124.292,117.127,124.476Zm3.773-6.552,3.2,2.856-.578.676s-3-.878-3.456-1c.338.324,2.2,2.285,2.2,2.285l-.562.51-3.017-3.066.709-.632s2.9.864,3.352.981c-.337-.318-2.337-2.037-2.337-2.037Zm1.464-2.131,3.707,2.147-.379.654-3.725-2.156Zm1.606-3.556.636.329-.064.074a1.8,1.8,0,0,0-.4.663.739.739,0,0,0-.01.561.392.392,0,0,0,.254.211c.281.1.525-.151.805-.438a1.523,1.523,0,0,1,1.661-.622c.8.271,1.066.979.737,1.944a2.976,2.976,0,0,1-.45.775l-.039.051-.657-.3.066-.077a2.527,2.527,0,0,0,.456-.733.668.668,0,0,0-.337-.9c-.351-.122-.618.151-.926.47-.376.4-.806.84-1.517.6a1.141,1.141,0,0,1-.678-.568,1.517,1.517,0,0,1-.017-1.163,2.787,2.787,0,0,1,.441-.825Z" transform="translate(-82.988 -82.685)" fill="#555"/>
    </g>
    <g id="Group_10355" data-name="Group 10355" transform="translate(142.552 88.46)">
      <path id="Path_13345" data-name="Path 13345" d="M327.967,106.248h6.557v9.843h-1.819v-8.4h-2.919v8.4h-1.819Z" transform="translate(-327.487 -106.248)" fill="#555"/>
      <path id="Path_13346" data-name="Path 13346" d="M363.406,118.389c0-.662-.014-1.592-.07-2.114h1.649c.042.325.056.748.07,1.072h.03a1.91,1.91,0,0,1,1.861-1.254c1.65,0,2.679,1.55,2.679,3.764,0,2.186-.986,3.849-2.621,3.849a1.873,1.873,0,0,1-1.835-1.128h-.027c.027.381.042,1.17.042,1.705v2.229h-1.777Zm4.4,1.509c0-1.424-.451-2.453-1.325-2.453s-1.41,1.114-1.41,2.5c0,1.353.508,2.439,1.41,2.439C367.326,122.38,367.805,121.282,367.805,119.9Z" transform="translate(-354.187 -113.679)" fill="#555"/>
      <path id="Path_13347" data-name="Path 13347" d="M394.62,119.9c0-2.269,1.185-3.806,3.2-3.806s3.146,1.55,3.146,3.806c0,2.272-1.155,3.808-3.173,3.808C395.791,123.706,394.62,122.155,394.62,119.9Zm4.527.014c0-1.493-.451-2.481-1.354-2.481-.875,0-1.339.973-1.339,2.481,0,1.467.436,2.427,1.366,2.427C398.71,122.339,399.147,121.409,399.147,119.912Z" transform="translate(-377.803 -113.679)" fill="#555"/>
      <path id="Path_13348" data-name="Path 13348" d="M424.231,122.7h.72a8.031,8.031,0,0,0,.663-3.709v-2.158h5.317V122.7h.86v3.243h-1.565v-1.863H425.8v1.863h-1.566Zm4.95,0v-4.485h-1.888v1.045a8.219,8.219,0,0,1-.579,3.44Z" transform="translate(-400.157 -114.241)" fill="#555"/>
      <path id="Path_13349" data-name="Path 13349" d="M459.146,119.9c0-2.269,1.185-3.806,3.2-3.806s3.144,1.55,3.144,3.806c0,2.272-1.155,3.808-3.172,3.808S459.146,122.155,459.146,119.9Zm4.527.014c0-1.493-.45-2.481-1.353-2.481-.875,0-1.34.973-1.34,2.481,0,1.467.438,2.427,1.368,2.427C463.237,122.339,463.673,121.409,463.673,119.912Z" transform="translate(-426.514 -113.679)" fill="#555"/>
      <path id="Path_13350" data-name="Path 13350" d="M492.1,116.836h3.187c1.355,0,2.3.649,2.3,1.832a1.617,1.617,0,0,1-1.3,1.637,1.706,1.706,0,0,1,1.454,1.721c0,1.367-.987,2.058-2.5,2.058H492.1Zm2.849,2.9a.832.832,0,1,0,0-1.663h-1.114v1.663Zm.085,3.118a.821.821,0,0,0,.916-.918.86.86,0,0,0-.916-.945h-1.2v1.862Z" transform="translate(-451.39 -114.241)" fill="#555"/>
      <path id="Path_13351" data-name="Path 13351" d="M520.908,119.9c0-2.269,1.185-3.806,3.2-3.806s3.145,1.55,3.145,3.806c0,2.272-1.157,3.808-3.173,3.808S520.908,122.155,520.908,119.9Zm4.527.014c0-1.493-.45-2.481-1.353-2.481-.875,0-1.339.973-1.339,2.481,0,1.467.436,2.427,1.367,2.427C525,122.339,525.435,121.409,525.435,119.912Z" transform="translate(-473.138 -113.679)" fill="#555"/>
      <path id="Path_13352" data-name="Path 13352" d="M550.3,124.056l.1-1.353a1.26,1.26,0,0,0,.424.07c.888,0,1.085-.635,1.1-5.937h5.188v7.248h-1.748v-5.866h-1.805c-.1,4.8-.453,5.965-2.258,5.965A5.094,5.094,0,0,1,550.3,124.056Z" transform="translate(-495.33 -114.241)" fill="#555"/>
      <path id="Path_13353" data-name="Path 13353" d="M586.645,116.836h1.749v2.651h1.34a2.215,2.215,0,0,1,2.483,2.3c0,1.536-.988,2.3-2.765,2.3h-2.807Zm2.821,6.007a1,1,0,0,0,1.1-1.058.938.938,0,0,0-1.044-1.044h-1.172v2.1Z" transform="translate(-522.763 -114.241)" fill="#555"/>
      <path id="Path_13354" data-name="Path 13354" d="M614.541,120.067a3.419,3.419,0,0,1,3.539-3.751,4.31,4.31,0,0,1,1.156.127l-.127,1.368a2.622,2.622,0,0,0-.832-.113c-1.2,0-1.9,1-1.9,2.34,0,1.383.705,2.369,1.974,2.369a2.712,2.712,0,0,0,.818-.113l.112,1.354a4.559,4.559,0,0,1-1.24.154C615.882,123.8,614.541,122.31,614.541,120.067Z" transform="translate(-543.822 -113.848)" fill="#555"/>
      <path id="Path_13355" data-name="Path 13355" d="M639.478,118.218h-1.932v-1.382h5.584v1.382h-1.9v5.866h-1.748Z" transform="translate(-561.189 -114.241)" fill="#555"/>
      <path id="Path_13356" data-name="Path 13356" d="M666.01,116.836H669.2c1.354,0,2.3.649,2.3,1.832a1.617,1.617,0,0,1-1.3,1.637,1.706,1.706,0,0,1,1.454,1.721c0,1.367-.987,2.058-2.5,2.058H666.01Zm2.849,2.9a.832.832,0,1,0,0-1.663h-1.114v1.663Zm.085,3.118a.82.82,0,0,0,.916-.918.859.859,0,0,0-.916-.945h-1.2v1.862Z" transform="translate(-582.676 -114.241)" fill="#555"/>
      <path id="Path_13357" data-name="Path 13357" d="M694.772,119.843c0-2.286,1.24-3.751,3.158-3.751s2.878,1.282,2.878,3.651c0,.183-.013.508-.029.663h-4.287a1.914,1.914,0,0,0,2.072,1.933,3.994,3.994,0,0,0,1.679-.354l.057,1.4a5.408,5.408,0,0,1-1.876.325C696.042,123.706,694.772,122.224,694.772,119.843Zm4.414-.622c0-1.212-.425-1.944-1.256-1.944-.775,0-1.366.76-1.438,1.944Z" transform="translate(-604.389 -113.679)" fill="#555"/>
      <path id="Path_13358" data-name="Path 13358" d="M726.512,116.836h1.75v2.807h2.284v-2.807h1.749v7.248h-1.749v-3.031h-2.284v3.031h-1.75Z" transform="translate(-628.349 -114.241)" fill="#555"/>
      <path id="Path_13359" data-name="Path 13359" d="M758.662,116.836h1.749v2.807H762.7v-2.807h1.749v7.248H762.7v-3.031h-2.285v3.031h-1.749Z" transform="translate(-652.619 -114.241)" fill="#555"/>
      <path id="Path_13360" data-name="Path 13360" d="M789.543,121.409c0-1.58,1.212-2.427,3.3-2.427.24,0,.607.013.9.042v-.056c0-1.043-.493-1.593-1.5-1.593a3.682,3.682,0,0,0-1.959.578l-.07-1.383a5.591,5.591,0,0,1,2.312-.478c2.088,0,2.82,1.17,2.82,2.96,0,.705-.027,1.805-.027,2.229,0,.845.027,1.691.07,2.24h-1.48a5.532,5.532,0,0,1-.028-.563c0-.155,0-.367.014-.565h-.029a2.159,2.159,0,0,1-2.1,1.254A2.077,2.077,0,0,1,789.543,121.409Zm4.217-1.327a5.509,5.509,0,0,0-.578-.028c-1.34,0-2.044.438-2.044,1.312a1.013,1.013,0,0,0,1.056,1.086C793.322,122.452,793.76,121.449,793.76,120.081Z" transform="translate(-675.931 -113.679)" fill="#555"/>
      <path id="Path_13361" data-name="Path 13361" d="M820.806,121.278a2.138,2.138,0,0,1-1.41-2.13c0-1.564.93-2.312,2.875-2.312h2.694v7.248h-1.72v-2.608h-.776l-1.383,2.608H819.1Zm2.467-1.03v-2.129h-.986c-.776,0-1.228.31-1.228,1.016a1.092,1.092,0,0,0,1.228,1.113Z" transform="translate(-698.242 -114.241)" fill="#555"/>
      <path id="Path_13362" data-name="Path 13362" d="M865.451,116.836h1.678v2.749c0,.663-.042,1.664-.056,2.285l2.257-5.035h2v7.248h-1.678v-3c0-.776.028-1.368.055-1.933l-2.283,4.936h-1.975Z" transform="translate(-733.234 -114.241)" fill="#555"/>
      <path id="Path_13363" data-name="Path 13363" d="M326.008,185.081a3.42,3.42,0,0,1,3.539-3.751,4.346,4.346,0,0,1,1.158.126l-.128,1.369a2.612,2.612,0,0,0-.832-.113c-1.2,0-1.9,1-1.9,2.34,0,1.383.705,2.368,1.974,2.368a2.729,2.729,0,0,0,.819-.113l.112,1.354a4.534,4.534,0,0,1-1.241.155C327.349,188.818,326.008,187.323,326.008,185.081Z" transform="translate(-326.008 -162.928)" fill="#555"/>
      <path id="Path_13364" data-name="Path 13364" d="M349.758,184.853c0-2.285,1.241-3.751,3.159-3.751s2.878,1.282,2.878,3.651c0,.183-.015.509-.03.663h-4.286a1.912,1.912,0,0,0,2.072,1.933A4,4,0,0,0,355.23,187l.057,1.394a5.384,5.384,0,0,1-1.876.326C351.028,188.717,349.758,187.235,349.758,184.853Zm4.414-.622c0-1.213-.424-1.945-1.255-1.945-.776,0-1.366.762-1.438,1.945Z" transform="translate(-343.937 -162.755)" fill="#555"/>
      <path id="Path_13365" data-name="Path 13365" d="M377.94,189.067l.1-1.354a1.263,1.263,0,0,0,.424.07c.887,0,1.085-.635,1.1-5.937h5.189v7.249H383v-5.866H381.2c-.1,4.793-.45,5.965-2.256,5.965A5.224,5.224,0,0,1,377.94,189.067Z" transform="translate(-365.212 -163.317)" fill="#555"/>
      <path id="Path_13366" data-name="Path 13366" d="M414.289,181.846h1.748V184.5h1.341a2.215,2.215,0,0,1,2.481,2.3c0,1.537-.988,2.3-2.763,2.3h-2.807Zm2.821,6.008a1,1,0,0,0,1.1-1.059.938.938,0,0,0-1.044-1.043H416v2.1Z" transform="translate(-392.651 -163.317)" fill="#555"/>
      <path id="Path_13367" data-name="Path 13367" d="M442.182,185.081a3.42,3.42,0,0,1,3.54-3.751,4.355,4.355,0,0,1,1.158.126l-.129,1.369a2.612,2.612,0,0,0-.831-.113c-1.2,0-1.9,1-1.9,2.34,0,1.383.7,2.368,1.974,2.368a2.74,2.74,0,0,0,.819-.113l.113,1.354a4.543,4.543,0,0,1-1.241.155C443.522,188.818,442.182,187.323,442.182,185.081Z" transform="translate(-413.708 -162.928)" fill="#555"/>
      <path id="Path_13368" data-name="Path 13368" d="M468.059,181.846h1.75V185l2.184-3.159h1.933l-2.426,3.413,2.651,3.835h-2.031l-2.312-3.4v3.4h-1.75Z" transform="translate(-433.243 -163.317)" fill="#555"/>
      <path id="Path_13369" data-name="Path 13369" d="M495.148,184.909c0-2.271,1.185-3.807,3.2-3.807s3.144,1.551,3.144,3.807c0,2.271-1.155,3.808-3.172,3.808S495.148,187.166,495.148,184.909Zm4.527.014c0-1.494-.45-2.482-1.352-2.482-.875,0-1.34.973-1.34,2.482,0,1.468.438,2.426,1.368,2.426C499.239,187.349,499.675,186.419,499.675,184.923Z" transform="translate(-453.692 -162.755)" fill="#555"/>
      <path id="Path_13370" data-name="Path 13370" d="M526.712,185.272l-2.017-3.426h1.989c.733,1.537,1,2.144,1.155,2.554h.027c.156-.41.41-1,1.158-2.554h1.819l-1.961,3.442,2.1,3.807h-1.946c-.846-1.748-1.172-2.439-1.3-2.792h-.028c-.141.366-.439,1.044-1.3,2.792H524.54Z" transform="translate(-475.88 -163.317)" fill="#555"/>
      <path id="Path_13371" data-name="Path 13371" d="M554.269,184.909c0-2.271,1.185-3.807,3.2-3.807s3.145,1.551,3.145,3.807c0,2.271-1.156,3.808-3.173,3.808S554.269,187.166,554.269,184.909Zm4.528.014c0-1.494-.451-2.482-1.354-2.482-.875,0-1.339.973-1.339,2.482,0,1.468.436,2.426,1.366,2.426C558.359,187.349,558.8,186.419,558.8,184.923Z" transform="translate(-498.323 -162.755)" fill="#555"/>
      <path id="Path_13372" data-name="Path 13372" d="M584.639,188.38l.126-1.409a4.3,4.3,0,0,0,1.679.4c.831,0,1.4-.352,1.4-1,0-.775-.578-.875-1.269-.875-.126,0-.423,0-.663.015v-1.3c.254.015.536.015.622.015.6,0,1.3-.2,1.3-.917,0-.6-.551-.79-1.172-.79a4.043,4.043,0,0,0-1.778.48l-.07-1.4a6.54,6.54,0,0,1,2.243-.436c1.438,0,2.454.521,2.454,1.946a1.661,1.661,0,0,1-1.185,1.649,1.659,1.659,0,0,1,1.283,1.763c0,1.524-1.17,2.214-2.708,2.214A6.606,6.606,0,0,1,584.639,188.38Z" transform="translate(-521.249 -162.801)" fill="#555"/>
      <path id="Path_13373" data-name="Path 13373" d="M611.59,186.288a2.138,2.138,0,0,1-1.41-2.129c0-1.564.93-2.313,2.877-2.313h2.693v7.249h-1.72v-2.609h-.775l-1.383,2.609h-1.988Zm2.467-1.029V183.13h-.985c-.776,0-1.228.31-1.228,1.015a1.092,1.092,0,0,0,1.228,1.114Z" transform="translate(-540.306 -163.317)" fill="#555"/>
      <path id="Path_13374" data-name="Path 13374" d="M642.371,172.509h1.679v2.749c0,.664-.042,1.665-.058,2.285l2.258-5.035h2v7.249h-1.679v-3c0-.775.029-1.368.056-1.932l-2.284,4.936h-1.975Zm.846-2.68.734-.351a1.392,1.392,0,0,0,2.679,0l.734.351a2.1,2.1,0,0,1-4.147,0Z" transform="translate(-564.831 -153.98)" fill="#555"/>
      <path id="Path_13375" data-name="Path 13375" d="M673.375,185.081a3.419,3.419,0,0,1,3.539-3.751,4.341,4.341,0,0,1,1.157.126l-.127,1.369a2.618,2.618,0,0,0-.833-.113c-1.2,0-1.9,1-1.9,2.34,0,1.383.705,2.368,1.973,2.368a2.742,2.742,0,0,0,.82-.113l.112,1.354a4.55,4.55,0,0,1-1.242.155C674.715,188.818,673.375,187.323,673.375,185.081Z" transform="translate(-588.236 -162.928)" fill="#555"/>
      <path id="Path_13376" data-name="Path 13376" d="M698.307,183.228h-1.932v-1.382h5.586v1.382h-1.9v5.866h-1.75Z" transform="translate(-605.599 -163.317)" fill="#555"/>
      <path id="Path_13377" data-name="Path 13377" d="M724.848,181.846h3.188c1.354,0,2.3.65,2.3,1.833a1.616,1.616,0,0,1-1.3,1.636,1.707,1.707,0,0,1,1.454,1.721c0,1.368-.987,2.059-2.5,2.059h-3.146Zm2.849,2.905a.833.833,0,1,0,0-1.664h-1.114v1.664Zm.085,3.117a.819.819,0,0,0,.917-.916.861.861,0,0,0-.917-.947h-1.2v1.863Z" transform="translate(-627.093 -163.317)" fill="#555"/>
      <path id="Path_13378" data-name="Path 13378" d="M753.6,184.853c0-2.285,1.243-3.751,3.159-3.751,1.933,0,2.878,1.282,2.878,3.651,0,.183-.015.509-.029.663h-4.287a1.914,1.914,0,0,0,2.073,1.933,3.989,3.989,0,0,0,1.678-.353l.057,1.394a5.372,5.372,0,0,1-1.875.326C754.872,188.717,753.6,187.235,753.6,184.853Zm4.414-.622c0-1.213-.422-1.945-1.255-1.945-.775,0-1.366.762-1.438,1.945Z" transform="translate(-648.799 -162.755)" fill="#555"/>
      <path id="Path_13379" data-name="Path 13379" d="M785.35,181.846H787.1v2.807h2.285v-2.807h1.749v7.249h-1.749v-3.032H787.1v3.032H785.35Z" transform="translate(-672.766 -163.317)" fill="#555"/>
      <path id="Path_13380" data-name="Path 13380" d="M817.5,181.846h1.749v2.807h2.285v-2.807h1.748v7.249H821.53v-3.032h-2.285v3.032H817.5Z" transform="translate(-697.033 -163.317)" fill="#555"/>
      <path id="Path_13381" data-name="Path 13381" d="M848.377,186.419c0-1.58,1.213-2.426,3.3-2.426.239,0,.606.013.9.041v-.055c0-1.043-.494-1.594-1.495-1.594a3.674,3.674,0,0,0-1.959.579l-.071-1.382a5.562,5.562,0,0,1,2.313-.479c2.088,0,2.82,1.17,2.82,2.961,0,.7-.027,1.805-.027,2.228,0,.846.027,1.692.069,2.242h-1.482c-.013-.113-.027-.353-.027-.563,0-.156,0-.367.015-.565h-.029a2.16,2.16,0,0,1-2.1,1.254A2.077,2.077,0,0,1,848.377,186.419Zm4.217-1.326a5.368,5.368,0,0,0-.579-.029c-1.339,0-2.044.438-2.044,1.313a1.012,1.012,0,0,0,1.056,1.084C852.157,187.46,852.594,186.459,852.594,185.092Z" transform="translate(-720.345 -162.755)" fill="#555"/>
      <path id="Path_13382" data-name="Path 13382" d="M879.645,186.288a2.137,2.137,0,0,1-1.41-2.129c0-1.564.93-2.313,2.876-2.313H883.8v7.249h-1.72v-2.609h-.776l-1.383,2.609h-1.988Zm2.467-1.029V183.13h-.987c-.775,0-1.227.31-1.227,1.015a1.092,1.092,0,0,0,1.227,1.114Z" transform="translate(-742.661 -163.317)" fill="#555"/>
      <path id="Path_13383" data-name="Path 13383" d="M922.789,184.909c0-2.271,1.185-3.807,3.2-3.807s3.146,1.551,3.146,3.807c0,2.271-1.156,3.808-3.173,3.808C923.96,188.717,922.789,187.166,922.789,184.909Zm4.527.014c0-1.494-.451-2.482-1.354-2.482-.875,0-1.34.973-1.34,2.482,0,1.468.438,2.426,1.368,2.426C926.88,187.349,927.316,186.419,927.316,184.923Z" transform="translate(-776.519 -162.755)" fill="#555"/>
      <path id="Path_13384" data-name="Path 13384" d="M955.471,183.4c0-.664-.013-1.593-.071-2.115h1.65c.043.325.056.749.07,1.071h.03a1.91,1.91,0,0,1,1.861-1.254c1.649,0,2.679,1.551,2.679,3.765,0,2.186-.988,3.849-2.623,3.849a1.87,1.87,0,0,1-1.834-1.129h-.027c.027.382.042,1.17.042,1.705v2.23h-1.777Zm4.4,1.509c0-1.424-.45-2.453-1.325-2.453s-1.409,1.114-1.409,2.5c0,1.354.508,2.439,1.409,2.439C959.391,187.39,959.869,186.291,959.869,184.909Z" transform="translate(-801.137 -162.755)" fill="#555"/>
      <path id="Path_13385" data-name="Path 13385" d="M988.178,181.846h4.47v1.382h-2.722v5.866h-1.748Z" transform="translate(-825.881 -163.317)" fill="#555"/>
      <path id="Path_13386" data-name="Path 13386" d="M1009.684,186.419c0-1.58,1.213-2.426,3.3-2.426.239,0,.606.013.9.041v-.055c0-1.043-.494-1.594-1.495-1.594a3.68,3.68,0,0,0-1.959.579l-.071-1.382a5.566,5.566,0,0,1,2.313-.479c2.088,0,2.821,1.17,2.821,2.961,0,.7-.028,1.805-.028,2.228,0,.846.028,1.692.069,2.242h-1.481c-.013-.113-.028-.353-.028-.563,0-.156,0-.367.015-.565h-.029a2.16,2.16,0,0,1-2.1,1.254A2.077,2.077,0,0,1,1009.684,186.419Zm4.217-1.326a5.369,5.369,0,0,0-.579-.029c-1.339,0-2.044.438-2.044,1.313a1.012,1.012,0,0,0,1.056,1.084C1013.464,187.46,1013.9,186.459,1013.9,185.092Z" transform="translate(-842.116 -162.755)" fill="#555"/>
      <path id="Path_13387" data-name="Path 13387" d="M1041.54,181.846h1.749v2.807h2.285v-2.807h1.748v7.249h-1.748v-3.032h-2.285v3.032h-1.749Z" transform="translate(-866.164 -163.317)" fill="#555"/>
      <path id="Path_13388" data-name="Path 13388" d="M1073.685,181.846h1.678V184.6c0,.664-.043,1.665-.056,2.285l2.256-5.035h2v7.249h-1.677v-3c0-.775.028-1.368.055-1.932l-2.283,4.936h-1.975Z" transform="translate(-890.431 -163.317)" fill="#555"/>
      <path id="Path_13389" data-name="Path 13389" d="M1104.225,188.38l.127-1.409a4.286,4.286,0,0,0,1.678.4c.831,0,1.4-.352,1.4-1,0-.775-.579-.875-1.27-.875-.126,0-.421,0-.663.015v-1.3c.254.015.536.015.622.015.606,0,1.3-.2,1.3-.917,0-.6-.551-.79-1.171-.79a4.033,4.033,0,0,0-1.777.48l-.07-1.4a6.53,6.53,0,0,1,2.242-.436c1.438,0,2.455.521,2.455,1.946a1.661,1.661,0,0,1-1.185,1.649,1.66,1.66,0,0,1,1.283,1.763c0,1.524-1.171,2.214-2.708,2.214A6.608,6.608,0,0,1,1104.225,188.38Z" transform="translate(-913.485 -162.801)" fill="#555"/>
      <path id="Path_13390" data-name="Path 13390" d="M1130.506,186.419c0-1.58,1.213-2.426,3.3-2.426.24,0,.607.013.9.041v-.055c0-1.043-.493-1.594-1.5-1.594a3.687,3.687,0,0,0-1.96.579l-.07-1.382a5.57,5.57,0,0,1,2.313-.479c2.087,0,2.819,1.17,2.819,2.961,0,.7-.028,1.805-.028,2.228,0,.846.028,1.692.07,2.242h-1.48a5.631,5.631,0,0,1-.027-.563c0-.156,0-.367.014-.565h-.029a2.159,2.159,0,0,1-2.1,1.254A2.077,2.077,0,0,1,1130.506,186.419Zm4.218-1.326a5.4,5.4,0,0,0-.579-.029c-1.339,0-2.044.438-2.044,1.313a1.011,1.011,0,0,0,1.056,1.084C1134.286,187.46,1134.724,186.459,1134.724,185.092Z" transform="translate(-933.325 -162.755)" fill="#555"/>
      <path id="Path_13391" data-name="Path 13391" d="M1167.347,189.095h-4.977v-7.249h1.748v5.867h2.2v-5.867h1.749v5.867h.86v3.244h-1.58Z" transform="translate(-957.379 -163.317)" fill="#555"/>
      <path id="Path_13392" data-name="Path 13392" d="M1194.69,181.846h1.678V184.6c0,.664-.043,1.665-.056,2.285l2.255-5.035h2v7.249h-1.678v-3c0-.775.029-1.368.056-1.932l-2.283,4.936h-1.975Z" transform="translate(-981.777 -163.317)" fill="#555"/>
      <path id="Path_13393" data-name="Path 13393" d="M1226.645,186.288a2.138,2.138,0,0,1-1.41-2.129c0-1.564.93-2.313,2.877-2.313h2.693v7.249h-1.72v-2.609h-.775l-1.383,2.609h-1.988Zm2.467-1.029V183.13h-.985c-.777,0-1.228.31-1.228,1.015a1.092,1.092,0,0,0,1.228,1.114Z" transform="translate(-1004.613 -163.317)" fill="#555"/>
      <path id="Path_13394" data-name="Path 13394" d="M326.416,240.684c0-3.117,1.452-5.162,4.032-5.162,2.5,0,3.921,2.03,3.921,5.078,0,3.187-1.424,5.133-3.975,5.133S326.416,243.772,326.416,240.684Zm6.063-.015c0-2.354-.761-3.722-2.087-3.722s-2.1,1.4-2.1,3.694c0,2.228.776,3.624,2.1,3.624C331.69,244.265,332.479,242.884,332.479,240.669Z" transform="translate(-326.316 -203.837)" fill="#555"/>
      <path id="Path_13395" data-name="Path 13395" d="M365.459,239.482c0-2.115.156-3.962,1.213-5.119,1.269-1.383,3.357-.817,4.822-1.31l-.1,1.593c-1.113.354-2.777.014-3.693.735a3.479,3.479,0,0,0-1.086,2.79,2.3,2.3,0,0,1,2.269-1.706c1.749,0,2.891,1.382,2.891,3.638,0,2.018-1.015,3.737-3.13,3.737C366.193,243.839,365.459,241.923,365.459,239.482Zm4.5.677c0-1.3-.38-2.4-1.339-2.4s-1.311,1.029-1.311,2.384c0,1.41.423,2.34,1.311,2.34C369.563,242.487,369.958,241.471,369.958,240.16Z" transform="translate(-355.79 -201.973)" fill="#555"/>
      <path id="Path_13396" data-name="Path 13396" d="M396.43,248.242h-1.58v-1.383h3.329v2.651h1.339a2.215,2.215,0,0,1,2.482,2.3c0,1.536-.987,2.3-2.764,2.3H396.43Zm2.819,4.626a1,1,0,0,0,1.1-1.059.937.937,0,0,0-1.043-1.044h-1.171v2.1Z" transform="translate(-377.977 -212.395)" fill="#555"/>
      <path id="Path_13397" data-name="Path 13397" d="M429.18,249.861c0-2.285,1.242-3.752,3.159-3.752,1.933,0,2.878,1.284,2.878,3.652,0,.184-.015.51-.029.663H430.9a1.911,1.911,0,0,0,2.072,1.932,3.989,3.989,0,0,0,1.678-.352l.057,1.4a5.4,5.4,0,0,1-1.875.326C430.45,253.725,429.18,252.243,429.18,249.861Zm4.414-.621c0-1.213-.423-1.946-1.255-1.946-.775,0-1.367.761-1.437,1.946Z" transform="translate(-403.893 -211.829)" fill="#555"/>
      <path id="Path_13398" data-name="Path 13398" d="M457.6,252.725h.719a8.027,8.027,0,0,0,.662-3.708v-2.158h5.317v5.866h.86v3.244h-1.565v-1.862h-4.428v1.862H457.6Zm4.949,0v-4.484h-1.889v1.043a8.218,8.218,0,0,1-.579,3.44Z" transform="translate(-425.344 -212.395)" fill="#555"/>
      <path id="Path_13399" data-name="Path 13399" d="M494,246.859h1.679v2.749c0,.664-.042,1.664-.058,2.285l2.258-5.035h2v7.248H498.2v-3c0-.776.029-1.369.056-1.931l-2.284,4.935H494Z" transform="translate(-452.822 -212.395)" fill="#555"/>
      <path id="Path_13400" data-name="Path 13400" d="M526.55,246.859H528.3v2.807h2.285v-2.807h1.749v7.248h-1.749v-3.031H528.3v3.031H526.55Z" transform="translate(-477.397 -212.395)" fill="#555"/>
      <path id="Path_13401" data-name="Path 13401" d="M557.146,249.861c0-2.285,1.24-3.752,3.158-3.752s2.878,1.284,2.878,3.652c0,.184-.014.51-.029.663h-4.287a1.913,1.913,0,0,0,2.074,1.932,3.988,3.988,0,0,0,1.677-.352l.057,1.4a5.406,5.406,0,0,1-1.876.326C558.416,253.725,557.146,252.243,557.146,249.861Zm4.414-.621c0-1.213-.425-1.946-1.257-1.946-.775,0-1.366.761-1.438,1.946Z" transform="translate(-500.494 -211.829)" fill="#555"/>
      <path id="Path_13402" data-name="Path 13402" d="M588.884,246.859h1.75v2.807h2.285v-2.807h1.748v7.248h-1.748v-3.031h-2.285v3.031h-1.75Z" transform="translate(-524.453 -212.395)" fill="#555"/>
      <path id="Path_13403" data-name="Path 13403" d="M621.035,246.859h1.749v2.807h2.285v-2.807h1.749v7.248h-1.749v-3.031h-2.285v3.031h-1.749Z" transform="translate(-548.724 -212.395)" fill="#555"/>
      <path id="Path_13404" data-name="Path 13404" d="M653.181,246.859h1.749v2.651h1.34a2.215,2.215,0,0,1,2.482,2.3c0,1.536-.988,2.3-2.764,2.3h-2.807ZM656,252.867a1,1,0,0,0,1.1-1.059.938.938,0,0,0-1.044-1.044h-1.17v2.1Zm3.611-6.008h1.748v7.248h-1.748Z" transform="translate(-572.992 -212.395)" fill="#555"/>
      <path id="Path_13405" data-name="Path 13405" d="M694.283,250.286l-2.016-3.427h1.989c.733,1.537,1,2.143,1.156,2.553h.028c.156-.41.408-1,1.156-2.553h1.82l-1.961,3.441,2.1,3.807H696.61c-.848-1.747-1.171-2.439-1.3-2.792h-.028c-.142.368-.439,1.045-1.3,2.792h-1.877Z" transform="translate(-602.38 -212.395)" fill="#555"/>
      <path id="Path_13406" data-name="Path 13406" d="M738.178,236.272H740v4.019h2.988v-4.019h1.82v9.843h-1.82v-4.357H740v4.357h-1.819Z" transform="translate(-637.156 -204.403)" fill="#555"/>
      <path id="Path_13407" data-name="Path 13407" d="M772.915,251.426c0-1.58,1.213-2.425,3.3-2.425.239,0,.606.013.9.041v-.056c0-1.043-.494-1.593-1.5-1.593a3.686,3.686,0,0,0-1.96.578l-.07-1.382a5.575,5.575,0,0,1,2.313-.48c2.088,0,2.819,1.172,2.819,2.962,0,.705-.027,1.805-.027,2.229,0,.845.027,1.691.07,2.241h-1.481c-.013-.112-.027-.353-.027-.563,0-.155,0-.368.015-.565h-.029a2.161,2.161,0,0,1-2.1,1.255A2.077,2.077,0,0,1,772.915,251.426Zm4.217-1.325a5.046,5.046,0,0,0-.579-.03c-1.339,0-2.044.439-2.044,1.312a1.013,1.013,0,0,0,1.057,1.085C776.7,252.469,777.132,251.468,777.132,250.1Z" transform="translate(-663.379 -211.829)" fill="#555"/>
      <path id="Path_13408" data-name="Path 13408" d="M809.749,254.107h-4.978v-7.248h1.749v5.866h2.2v-5.866h1.748v5.866h.861v3.244h-1.58Z" transform="translate(-687.427 -212.395)" fill="#555"/>
      <path id="Path_13409" data-name="Path 13409" d="M837.09,246.859h1.678v2.749c0,.664-.041,1.664-.055,2.285l2.255-5.035h2v7.248h-1.679v-3c0-.776.03-1.369.058-1.931l-2.285,4.935H837.09Z" transform="translate(-711.825 -212.395)" fill="#555"/>
      <path id="Path_13410" data-name="Path 13410" d="M869.645,237.522h1.677v2.749c0,.664-.041,1.664-.055,2.285l2.256-5.035h2v7.248h-1.678v-3c0-.776.028-1.369.056-1.931l-2.284,4.935h-1.975Zm.846-2.68.734-.351a1.391,1.391,0,0,0,2.679,0l.733.351a2.1,2.1,0,0,1-4.146,0Z" transform="translate(-736.401 -203.058)" fill="#555"/>
    </g>
  </g>
</svg>
