<svg xmlns="http://www.w3.org/2000/svg" width="30" height="30" viewBox="0 0 30 30">
  <path id="_02_IconRegional" data-name="02_IconRegional" d="M14.379.424a15,15,0,1,0,15,15A15.005,15.005,0,0,0,14.379.424Zm-12,15a12.042,12.042,0,0,1,.315-2.67l7.17,7.17v1.5a3.009,3.009,0,0,0,3,3v2.9A12.017,12.017,0,0,1,2.379,15.424Zm20.835,8.1a2.989,2.989,0,0,0-2.85-2.1h-1.5v-4.5a1.5,1.5,0,0,0-1.5-1.5h-9v-3h3a1.5,1.5,0,0,0,1.5-1.5v-3h3a3.009,3.009,0,0,0,3-3V4.309a11.966,11.966,0,0,1,4.35,19.215Z" transform="translate(0.621 -0.424)" fill="#fff"/>
</svg>
