<svg xmlns="http://www.w3.org/2000/svg" style="display: none;"><symbol id="small-up" viewBox="0 0 16 16"><title>small-up</title><g><g class="icon-wrapper"><polygon fill="currentColor" points="12,11.4 8,7.4 4,11.4 2.6,10 8,4.6 13.4,10 "/></g></g></symbol><symbol id="small-right" viewBox="0 0 16 16"><title>small-right</title><g><g class="icon-wrapper"><polygon fill="currentColor" points="6,13.4 4.6,12 8.6,8 4.6,4 6,2.6 11.4,8 "/></g></g></symbol><symbol id="small-left" viewBox="0 0 16 16"><title>small-left</title><g><g class="icon-wrapper"><polygon fill="currentColor" points="10,13.4 4.6,8 10,2.6 11.4,4 7.4,8 11.4,12 "/></g></g></symbol><symbol id="small-down" viewBox="0 0 16 16"><title>small-down</title><g><g class="icon-wrapper"><polygon fill="currentColor" points="8,11.4 2.6,6 4,4.6 8,8.6 12,4.6 13.4,6 "/></g></g></symbol><symbol id="small-add" viewBox="0 0 16 16"><title>small-add</title><g><g class="icon-wrapper"><polygon fill="currentColor" points="9,4 7,4 7,7 4,7 4,9 7,9 7,12 9,12 9,9 12,9 12,7 9,7 "/></g></g></symbol><symbol id="circle-add" viewBox="0 0 16 16"><title>circle-add</title><g><g class="icon-wrapper"><path fill="currentColor" d="M8,0C3.6,0,0,3.6,0,8s3.6,8,8,8s8-3.6,8-8S12.4,0,8,0z M12,9H9v3H7V9H4V7h3V4h2v3h3V9z"/></g></g></symbol><symbol id="alert" viewBox="0 0 16 16"><title>alert</title><g><g class="icon-wrapper"><path fill="currentColor" d="M15.216,13.529L8.882,1.654c-0.376-0.706-1.388-0.706-1.765,0L0.784,13.529C0.429,14.195,0.912,15,1.667,15 h12.667C15.088,15,15.571,14.195,15.216,13.529z M8,13c-0.552,0-1-0.448-1-1c0-0.552,0.448-1,1-1s1,0.448,1,1 C9,12.552,8.552,13,8,13z M9,10H7V6h2V10z"/></g></g></symbol><symbol id="chat-46" viewBox="0 0 24 24"><title>chat-46</title><g><g class="icon-wrapper"><path fill="currentColor" d="M20,6v8c0,0.552-0.448,1-1,1h-7.359L7,19h7l6,4v-4h3c0.552,0,1-0.448,1-1V7 c0-0.552-0.448-1-1-1H20z"/> <path fill="currentColor" d="M17,0H1C0.448,0,0,0.448,0,1v11c0,0.552,0.448,1,1,1h3v5.469L11,13h6c0.552,0,1-0.448,1-1V1 C18,0.448,17.552,0,17,0z"/></g></g></symbol><symbol id="remove" viewBox="0 0 16 16"><title>remove</title><g><g class="icon-wrapper" fill="currentColor"><title>remove</title><path fill="currentColor" stroke="none" stroke-width="1" fill-rule="evenodd" d="M8 6.58578644L4.46446609 3.05025253 3.05025253 4.46446609 6.58578644 8 3.05025253 11.5355339 4.46446609 12.9497475 8 9.41421356 11.5355339 12.9497475 12.9497475 11.5355339 9.41421356 8 12.9497475 4.46446609 11.5355339 3.05025253z"/></g></g></symbol></svg>
