<svg xmlns="http://www.w3.org/2000/svg" style="display: none;">
    <symbol id="video" viewBox="0 0 24 24">
        <title>ondemand video</title>
        <g class="nc-icon-wrapper">
            <path d="M9 7v8l7-4-7-4zm12-4H3c-1.1 0-2 .9-2 2v12c0 1.1.9 2 2 2h5v2h8v-2h5c1.1 0 2-.9 2-2V5c0-1.1-.9-2-2-2zm0 14H3V5h18v12z"
                  fill="currentColor" stroke="none"></path>
        </g>
    </symbol>
    <symbol id="content_copy" viewBox="0 0 32 32">
        <path d="M1 11h20v20h-20v-20zM11 1v5h15v15h5v-20h-20z"></path>
    </symbol>
    <symbol id="text_fields" viewBox="0 0 24 24">
        <title>text fields</title>
        <g class="nc-icon-wrapper">
            <path d="M2.5 4v3h5v12h3V7h5V4h-13zm19 5h-9v3h3v7h3v-7h3V9z" fill="currentColor" stroke="none"></path>
        </g>
    </symbol>
    <symbol id="insert_link" viewBox="0 0 24 24">
        <title>insert link</title>
        <g class="nc-icon-wrapper">
            <path d="M3.9 12c0-1.71 1.39-3.1 3.1-3.1h4V7H7c-2.76 0-5 2.24-5 5s2.24 5 5 5h4v-1.9H7c-1.71 0-3.1-1.39-3.1-3.1zM8 13h8v-2H8v2zm9-6h-4v1.9h4c1.71 0 3.1 1.39 3.1 3.1 0 1.71-1.39 3.1-3.1 3.1h-4V17h4c2.76 0 5-2.24 5-5s-2.24-5-5-5z"
                  fill="currentColor" stroke="none"></path>
        </g>
    </symbol>
    <symbol id="small-down" viewBox="0 0 24 24">
        <g id="SVGRepo_bgCarrier" stroke-width="0"></g>
        <g id="SVGRepo_tracerCarrier" stroke-linecap="round" stroke-linejoin="round"></g>
        <g id="SVGRepo_iconCarrier">
            <path fill-rule="evenodd" clip-rule="evenodd"
                  d="M4.29289 8.29289C4.68342 7.90237 5.31658 7.90237 5.70711 8.29289L12 14.5858L18.2929 8.29289C18.6834 7.90237 19.3166 7.90237 19.7071 8.29289C20.0976 8.68342 20.0976 9.31658 19.7071 9.70711L12.7071 16.7071C12.3166 17.0976 11.6834 17.0976 11.2929 16.7071L4.29289 9.70711C3.90237 9.31658 3.90237 8.68342 4.29289 8.29289Z"
                  fill="currentColor"></path>
        </g>
    </symbol>
    <symbol id="small-left" viewBox="0 0 16 16">
        <title>small left</title>
        <g>
            <g class="icon-wrapper">
                <polygon fill="currentColor" points="10,13.4 4.6,8 10,2.6 11.4,4 7.4,8 11.4,12 "/>
            </g>
        </g>
    </symbol>
    <symbol id="small-right" viewBox="0 0 16 16">
        <title>small right</title>
        <g>
            <g class="icon-wrapper">
                <polygon fill="currentColor" points="6,13.4 4.6,12 8.6,8 4.6,4 6,2.6 11.4,8 "/>
            </g>
        </g>
    </symbol>
    <symbol id="small-up" viewBox="0 0 16 16">
        <title>small up</title>
        <g>
            <g class="icon-wrapper">
                <polygon fill="currentColor" points="12,11.4 8,7.4 4,11.4 2.6,10 8,4.6 13.4,10 "/>
            </g>
        </g>
    </symbol>
    <symbol id="circle-add" viewBox="0 0 16 16">
        <title>circle add</title>
        <g>
            <g class="icon-wrapper">
                <path fill="currentColor"
                      d="M8,0C3.6,0,0,3.6,0,8s3.6,8,8,8s8-3.6,8-8S12.4,0,8,0z M12,9H9v3H7V9H4V7h3V4h2v3h3V9z"/>
            </g>
        </g>
    </symbol>
    <symbol id="alert" viewBox="0 0 16 16">
        <title>alert</title>
        <g>
            <g class="icon-wrapper">
                <path fill="currentColor"
                      d="M15.216,13.529L8.882,1.654c-0.376-0.706-1.388-0.706-1.765,0L0.784,13.529C0.429,14.195,0.912,15,1.667,15 h12.667C15.088,15,15.571,14.195,15.216,13.529z M8,13c-0.552,0-1-0.448-1-1c0-0.552,0.448-1,1-1s1,0.448,1,1 C9,12.552,8.552,13,8,13z M9,10H7V6h2V10z"/>
            </g>
        </g>
    </symbol>
    <symbol id="flag" viewBox="0 0 16 16">
        <title>flag</title>
        <g>
            <g class="icon-wrapper">
                <path fill="currentColor" d="M15,1H3c0-0.6-0.4-1-1-1S1,0.4,1,1v14c0,0.6,0.4,1,1,1s1-0.4,1-1v-5h12V1z"/>
            </g>
        </g>
    </symbol>
    <symbol id="chat-46" viewBox="0 0 24 24">
        <title>chat 46</title>
        <g>
            <g class="icon-wrapper">
                <path fill="currentColor"
                      d="M20,6v8c0,0.552-0.448,1-1,1h-7.359L7,19h7l6,4v-4h3c0.552,0,1-0.448,1-1V7 c0-0.552-0.448-1-1-1H20z"/>
                <path fill="currentColor"
                      d="M17,0H1C0.448,0,0,0.448,0,1v11c0,0.552,0.448,1,1,1h3v5.469L11,13h6c0.552,0,1-0.448,1-1V1 C18,0.448,17.552,0,17,0z"/>
            </g>
        </g>
    </symbol>
    <symbol id="remove" viewBox="0 0 16 16">
        <title>remove</title>
        <g>
            <g class="icon-wrapper" fill="currentColor">
                <title>remove</title>
                <path fill="currentColor" stroke="none" stroke-width="1" fill-rule="evenodd"
                      d="M8 6.58578644L4.46446609 3.05025253 3.05025253 4.46446609 6.58578644 8 3.05025253 11.5355339 4.46446609 12.9497475 8 9.41421356 11.5355339 12.9497475 12.9497475 11.5355339 9.41421356 8 12.9497475 4.46446609 11.5355339 3.05025253z"/>
            </g>
        </g>
    </symbol>
    <symbol id="hit-down" viewBox="0 0 512 512">
        <g id="SVGRepo_bgCarrier" stroke-width="0"></g>
        <g id="SVGRepo_tracerCarrier" stroke-linecap="round" stroke-linejoin="round"></g>
        <g id="SVGRepo_iconCarrier">
            <style type="text/css">.st0{fill:#000000;}</style>
            <g>
                <polygon class="st0"
                         points="47.916,340.624 166.242,340.624 166.242,512 345.774,512 345.774,340.624 464.1,340.624 256.015,88.146 "></polygon>
                <rect x="23.574" class="st0" width="464.851" height="72.132"></rect>
            </g>
        </g>
    </symbol>
    <symbol id="small-add" viewBox="0 0 16 16">
        <title>small add</title>
        <g>
            <g class="icon-wrapper" fill="currentColor">
                <title>small-add</title>
                <path d="M9 3H7v4H3v2h4v4h2V9h4V7H9z" fill-rule="nonzero" fill="currentColor" stroke="none"
                      stroke-width="1"/>
            </g>
        </g>
    </symbol>
    <symbol id="collapse" viewBox="0 0 16 16">
        <title>collapse</title>
        <g>
            <g class="icon-wrapper" fill="currentColor">
                <title>collapse</title>
                <path d="M8.5 2L12 7H5l3.5-5zm0 12L5 9h7l-3.5 5z" fill-rule="nonzero" fill="currentColor" stroke="none"
                      stroke-width="1"/>
            </g>
        </g>
    </symbol>
    <symbol id="checkbox" viewBox="0 0 16 16">
        <title>checkbox</title>
        <g>
            <g class="icon-wrapper" fill="currentColor">
                <title>checkbox</title>
                <path d="M5 8V4H3v6h10V8H5z" transform="rotate(-45 8 7)" fill="currentColor" stroke="none"
                      stroke-width="1" fill-rule="evenodd"/>
            </g>
        </g>
    </symbol>
    <symbol id="pencil" viewBox="0 0 16 16">
        <title>pencil</title>
        <g>
            <g class="icon-wrapper" fill="currentColor">
                <title>pencil</title>
                <path d="M10.775 2.225c-.3-.3-.75-.3-1.05 0l-7.5 7.5A.68.68 0 0 0 2 10.25v3c0 .45.3.75.75.75h3a.68.68 0 0 0 .525-.225l7.5-7.5c.3-.3.3-.75 0-1.05l-3-3zM5.45 12.5H3.5v-1.95L8 6.05 9.95 8l-4.5 4.5zM11 6.95L9.05 5l1.2-1.2 1.95 1.95-1.2 1.2z"
                      fill-rule="nonzero" fill="currentColor" stroke="none" stroke-width="1"/>
            </g>
        </g>
    </symbol>
    <symbol id="check-circle-08" viewBox="0 0 16 16">
        <title>check circle 08</title>
        <g>
            <g class="icon-wrapper">
                <path fill="currentColor"
                      d="M8,0C3.6,0,0,3.6,0,8s3.6,8,8,8s8-3.6,8-8S12.4,0,8,0z M7,11.4L3.6,8L5,6.6l2,2l4-4L12.4,6L7,11.4z"/>
            </g>
        </g>
    </symbol>
    <symbol id="menu-left" viewBox="0 0 24 24">
        <path d="M1.2 13.2h21.6c0.662 0 1.2-0.538 1.2-1.2s-0.538-1.2-1.2-1.2h-21.6c-0.662 0-1.2 0.538-1.2 1.2s0.538 1.2 1.2 1.2zM1.2 6h21.6c0.662 0 1.2-0.538 1.2-1.2s-0.538-1.2-1.2-1.2h-21.6c-0.662 0-1.2 0.538-1.2 1.2s0.538 1.2 1.2 1.2zM1.2 20.4h21.6c0.662 0 1.2-0.538 1.2-1.2s-0.538-1.2-1.2-1.2h-21.6c-0.662 0-1.2 0.538-1.2 1.2s0.538 1.2 1.2 1.2z"></path>
    </symbol>
    <symbol id="round-e-info" viewBox="0 0 16 16">
        <title>round e info</title>
        <g>
            <g class="icon-wrapper">
                <path fill="currentColor"
                      d="M8,0C3.6,0,0,3.6,0,8s3.6,8,8,8s8-3.6,8-8S12.4,0,8,0z M8,14c-3.3,0-6-2.7-6-6s2.7-6,6-6s6,2.7,6,6 S11.3,14,8,14z"/>
                <rect fill="currentColor" x="7" y="7" width="2" height="5"/>
                <circle fill="currentColor" cx="8" cy="5" r="1"/>
            </g>
        </g>
    </symbol>
    <symbol id="single-folded-content" viewBox="0 0 24 24">
        <title>single folded content</title>
        <g>
            <g class="icon-wrapper">
                <path fill="currentColor"
                      d="M15,0H2C1.448,0,1,0.448,1,1v22c0,0.552,0.448,1,1,1h20c0.552,0,1-0.448,1-1V8h-7c-0.552,0-1-0.448-1-1V0z M5,17h14v2H5V17z M5,12h14v2H5V12z M11,9H5V7h6V9z"/>
                <polygon fill="currentColor" points="22.414,6 17,6 17,0.586 "/>
            </g>
        </g>
    </symbol>
    <symbol id="small-print" viewBox="0 0 16 16">
        <title>small print</title>
        <g>
            <g class="icon-wrapper">
                <rect x="4" fill="currentColor" width="8" height="3"></rect>
                <path fill="currentColor"
                      d="M12,5H4C1.8,5,0,6.8,0,9v3c0,0.6,0.4,1,1,1h2v2c0,0.6,0.4,1,1,1h8c0.6,0,1-0.4,1-1v-2h2c0.6,0,1-0.4,1-1V9 C16,6.8,14.2,5,12,5z M11,14H5v-4h6V14z"></path>
            </g>
        </g>
    </symbol>
    <symbol id="hit-up" viewBox="0 0 16 16">
        <title>hit up</title>
        <g>
            <g class="icon-wrapper">
                <path fill="currentColor"
                      d="M7.3,4.3L1.6,10L3,11.4l4-4V16h2V7.4l4,4l1.4-1.4L8.7,4.3C8.3,3.9,7.7,3.9,7.3,4.3z"></path>
                <rect data-color="color-2" x="1" fill="currentColor" width="14" height="2"></rect>
            </g>
        </g>
    </symbol>
    <symbol id="trash-simple" viewBox="0 0 32 32">
        <!--        <path d="M7.25 30h17.5l1.75-19.25h-21zM19.5 5.5v-3.5h-7v3.5h-8.75v5.25l1.75-1.75h21l1.75 1.75v-5.25h-8.75zM17.75 5.5h-3.5v-1.75h3.5v1.75z"></path>-->
        <!--        <path d="M7.875 29h16.25l1.625-17.875h-19.5zM19.25 6.25v-3.25h-6.5v3.25h-8.125v4.875l1.625-1.625h19.5l1.625 1.625v-4.875h-8.125zM17.625 6.25h-3.25v-1.625h3.25v1.625z"></path>-->
        <path d="M7.25 29h17.5l1.75-19.25h-21zM19.5 4.5v-3.5h-7v3.5h-8.75v5.25l1.75-1.75h21l1.75 1.75v-5.25h-8.75zM17.75 4.5h-3.5v-1.75h3.5v1.75z"></path>
    </symbol>
    <symbol id="lock-circle-open" viewBox="0 0 16 16">
        <title>lock circle open</title>
        <g>
            <g class="icon-wrapper">
                <path fill="currentColor"
                      d="M8,2c0.6,0,1.1,0.2,1.5,0.7l0.7,0.7l1.5-1.3L11,1.3C10.2,0.5,9.1,0,8,0C5.8,0,4,1.8,4,4v1.5 C2.8,6.6,2,8.2,2,10c0,3.3,2.7,6,6,6s6-2.7,6-6s-2.7-6-6-6C7.3,4,6.6,4.1,6,4.4V4C6,2.9,6.9,2,8,2z M8,7c1.1,0,2,0.9,2,2 c0,0.7-0.4,1.4-1,1.7V13H7v-2.3c-0.6-0.3-1-1-1-1.7C6,7.9,6.9,7,8,7z"></path>
            </g>
        </g>
    </symbol>
    <symbol id="lock-circle" viewBox="0 0 16 16">
        <title>lock circle open</title>
        <g>
            <g class="icon-wrapper">
                <path fill="currentColor"
                      d="M8,0C5.8,0,4,1.8,4,4v1.5C2.8,6.6,2,8.2,2,10c0,3.3,2.7,6,6,6s6-2.7,6-6c0-1.8-0.8-3.4-2-4.5V4 C12,1.8,10.2,0,8,0z M9,10.7V13H7v-2.3c-0.6-0.3-1-1-1-1.7c0-1.1,0.9-2,2-2s2,0.9,2,2C10,9.7,9.6,10.4,9,10.7z M10,4.4 C9.4,4.1,8.7,4,8,4S6.6,4.1,6,4.4V4c0-1.1,0.9-2,2-2s2,0.9,2,2V4.4z"></path>
            </g>
        </g>
    </symbol>
    <symbol id="icon-table2" viewBox="0 0 16 16">
        <title>table2</title>
        <g>
            <g class="icon-wrapper">
                <path fill="currentColor"
                      d="M0 1v14h16v-14h-16zM6 10v-3h4v3h-4zM10 11v3h-4v-3h4zM10 3v3h-4v-3h4zM5 3v3h-4v-3h4zM1 7h4v3h-4v-3zM11 7h4v3h-4v-3zM11 6v-3h4v3h-4zM1 11h4v3h-4v-3zM11 14v-3h4v3h-4z"></path>
            </g>
        </g>
    </symbol>
    <symbol id="icon-bar-chart" viewBox="0 0 20 20">
        <path d="M1 10h3v10h-3v-10zM6 0h3v20h-3v-20zM11 8h3v12h-3v-12zM16 4h3v16h-3v-16z"></path>
    </symbol>
    <symbol id="unfold" viewBox="0 0 52 52">
        <g id="SVGRepo_bgCarrier" stroke-width="0"></g>
        <g id="SVGRepo_tracerCarrier" stroke-linecap="round" stroke-linejoin="round"></g>
        <g id="SVGRepo_iconCarrier">
            <path d="M48,9.5C48,8.7,47.3,8,46.5,8h-41C4.7,8,4,8.7,4,9.5v3C4,13.3,4.7,14,5.5,14h41c0.8,0,1.5-0.7,1.5-1.5V9.5z"></path>
            <path d="M48,39.5c0-0.8-0.7-1.5-1.5-1.5h-41C4.7,38,4,38.7,4,39.5v3C4,43.3,4.7,44,5.5,44h41c0.8,0,1.5-0.7,1.5-1.5 V39.5z"></path>
            <path d="M34.5,29c0.8,0,1.5-0.7,1.5-1.5v-3c0-0.8-0.7-1.5-1.5-1.5h-17c-0.8,0-1.5,0.7-1.5,1.5v3 c0,0.8,0.7,1.5,1.5,1.5H34.5z"></path>
        </g>
    </symbol>
    <symbol id="icon-paper-plane" viewBox="0 0 20 20">
        <path d="M19.449 1.995c-0.374 0.132-18.826 6.634-19.19 6.763-0.309 0.109-0.377 0.375-0.011 0.521 0.436 0.175 4.126 1.653 4.126 1.653v0l2.445 0.979c0 0 11.78-8.649 11.938-8.767 0.161-0.117 0.346 0.103 0.229 0.229-0.116 0.127-8.555 9.253-8.555 9.253v0.002l-0.491 0.547 0.651 0.35c0 0 5.054 2.722 5.415 2.915 0.316 0.17 0.726 0.029 0.817-0.363 0.108-0.463 3.092-13.326 3.158-13.613 0.086-0.373-0.161-0.6-0.534-0.468zM6.798 17.785c0 0.267 0.151 0.342 0.36 0.153 0.273-0.249 3.098-2.783 3.098-2.783l-3.457-1.787v4.417z"></path>
    </symbol>
    <symbol id="icon-eye" viewBox="0 0 20 20">
        <path d="M10 4.4c-6.561 0-10 4.832-10 5.6 0 0.766 3.439 5.6 10 5.6s10-4.834 10-5.6c0-0.768-3.44-5.6-10-5.6zM10 14.307c-2.455 0-4.445-1.928-4.445-4.307s1.99-4.309 4.445-4.309c2.455 0 4.444 1.93 4.444 4.309s-1.989 4.307-4.444 4.307zM10 10c-0.407-0.447 0.663-2.154 0-2.154-1.228 0-2.223 0.965-2.223 2.154s0.995 2.154 2.223 2.154c1.227 0 2.223-0.965 2.223-2.154 0-0.547-1.877 0.379-2.223 0z"></path>
    </symbol>
    <symbol id="external-link" viewBox="0 0 24 24">
        <path d="M17.5 13.1v6.6c0 0.304-0.122 0.578-0.322 0.778s-0.474 0.322-0.778 0.322h-12.1c-0.304 0-0.577-0.122-0.778-0.322s-0.322-0.474-0.322-0.778v-12.1c0-0.304 0.122-0.577 0.322-0.778s0.474-0.322 0.778-0.322h6.6c0.607 0 1.1-0.493 1.1-1.1s-0.493-1.1-1.1-1.1h-6.6c-0.911 0-1.738 0.371-2.333 0.967s-0.967 1.422-0.967 2.333v12.1c0 0.911 0.371 1.738 0.967 2.333s1.422 0.967 2.333 0.967h12.1c0.911 0 1.738-0.371 2.333-0.967s0.967-1.422 0.967-2.333v-6.6c0-0.607-0.493-1.1-1.1-1.1s-1.1 0.493-1.1 1.1zM10.578 14.978l10.222-10.222v3.945c0 0.607 0.493 1.1 1.1 1.1s1.1-0.493 1.1-1.1v-6.6c0-0.15-0.030-0.292-0.084-0.421s-0.133-0.251-0.238-0.355c-0.001-0.001-0.001-0.001-0.002-0.002-0.101-0.101-0.222-0.183-0.355-0.238-0.13-0.054-0.272-0.084-0.421-0.084h-6.6c-0.607 0-1.1 0.493-1.1 1.1s0.493 1.1 1.1 1.1h3.945l-10.222 10.222c-0.43 0.43-0.43 1.126 0 1.555s1.126 0.43 1.555 0z"></path>
    </symbol>
    <symbol id="sort-amount-asc" viewBox="0 0 32 32">
        <path d="M9.29 24.774v-24.774h-4.129v24.774h-5.161l7.226 7.226 7.226-7.226h-5.161z"></path>
        <path d="M13.419 18.581h18.581v4.129h-18.581v-4.129z"></path>
        <path d="M13.419 12.387h14.452v4.129h-14.452v-4.129z"></path>
        <path d="M13.419 6.194h10.323v4.129h-10.323v-4.129z"></path>
        <path d="M13.419 0h6.194v4.129h-6.194v-4.129z"></path>
    </symbol>
    <symbol id="sort-amount-desc" viewBox="0 0 32 32">
        <path d="M9.29 24.774v-24.774h-4.129v24.774h-5.161l7.226 7.226 7.226-7.226h-5.161z"></path>
        <path d="M13.419 0h18.581v4.129h-18.581v-4.129z"></path>
        <path d="M13.419 6.194h14.452v4.129h-14.452v-4.129z"></path>
        <path d="M13.419 12.387h10.323v4.129h-10.323v-4.129z"></path>
        <path d="M13.419 18.581h6.194v4.129h-6.194v-4.129z"></path>
    </symbol>
    <symbol id="icon-files" viewBox="0 0 24 24">
        <path d="M5 0v3h-3v21h17v-3h3v-21h-17zM17 22h-13v-17h1v16h12v1zM20 19h-13v-17h13v17zM15 5h-6v2h6v-2zM18 8h-9v1h9v-1zM18 10h-9v1h9v-1zM18 12h-9v1h9v-1zM12 14h-3v1h3v-1z"></path>
    </symbol>
    <symbol id="floppy-disk" viewBox="0 0 32 32">
        <path d="M25.75 3h-22.75v26h26v-22.75l-3.25-3.25zM16 6.25h3.25v6.5h-3.25v-6.5zM25.75 25.75h-19.5v-19.5h1.625v8.125h14.625v-8.125h1.904l1.346 1.346v18.154z"></path>
    </symbol>
    <symbol id="redo" viewBox="0 0 32 32">
        <path d="M17.392 8.277v-7.277l11.25 11.25-11.25 11.25v-7.436c-13.088-0.307-12.527 8.9-9.195 14.936-8.224-8.889-6.478-23.132 9.195-22.723z"></path>
    </symbol>
    <symbol id="undo" viewBox="0 0 32 32">
        <path d="M23.803 31c3.332-6.036 3.893-15.243-9.195-14.936v7.436l-11.25-11.25 11.25-11.25v7.277c15.673-0.408 17.419 13.834 9.195 22.723z"></path>
    </symbol>
    <symbol id="github" viewBox="0 0 98 96">
        <path fill-rule="evenodd" clip-rule="evenodd"
              d="M48.854 0C21.839 0 0 22 0 49.217c0 21.756 13.993 40.172 33.405 46.69 2.427.49 3.316-1.059 3.316-2.362 0-1.141-.08-5.052-.08-9.127-13.59 2.934-16.42-5.867-16.42-5.867-2.184-5.704-5.42-7.17-5.42-7.17-4.448-3.015.324-3.015.324-3.015 4.934.326 7.523 5.052 7.523 5.052 4.367 7.496 11.404 5.378 14.235 4.074.404-3.178 1.699-5.378 3.074-6.6-10.839-1.141-22.243-5.378-22.243-24.283 0-5.378 1.94-9.778 5.014-13.2-.485-1.222-2.184-6.275.486-13.038 0 0 4.125-1.304 13.426 5.052a46.97 46.97 0 0 1 12.214-1.63c4.125 0 8.33.571 12.213 1.63 9.302-6.356 13.427-5.052 13.427-5.052 2.67 6.763.97 11.816.485 13.038 3.155 3.422 5.015 7.822 5.015 13.2 0 18.905-11.404 23.06-22.324 24.283 1.78 1.548 3.316 4.481 3.316 9.126 0 6.6-.08 11.897-.08 13.526 0 1.304.89 2.853 3.316 2.364 19.412-6.52 33.405-24.935 33.405-46.691C97.707 22 75.788 0 48.854 0z"
              fill="#24292f"/>
    </symbol>
    <symbol id="icon-select-arrows" viewBox="0 0 20 20">
        <path d="M10 1l-5 7h10l-5-7zM10 19l5-7h-10l5 7z"></path>
    </symbol>
    <symbol id="home" viewBox="0 0 64 64">
        <g>
            <g id="Layer_1">
                <g>
                    <g id="Artboard_4">
                        <g id="Group_528" transform="translate(196.242 -3.315)">
                            <g id="Component_51_2" transform="translate(11.025 9.46)">
                                <g id="Group_195" transform="translate(0 3.023)">
                                    <path id="Path_263" d="M-174.918,38.863h-15.071c-0.028,0.002-0.055,0.002-0.083,0c-1.407-0.195-2.765-0.655-4-1.357
									c-2.599-1.415-4.177-4.175-4.08-7.132c0-4.619,2.377-6.824,3.634-7.667c-0.708-1.418-2.009-4.689-0.785-7.7
									c0.972-2.257,2.836-4.01,5.148-4.841c0.289-1.303,0.769-2.556,1.425-3.718c1.365-2.673,4.121-4.347,7.122-4.327
									c3.042,0.012,5.844,1.653,7.344,4.3c0.734,1.172,1.295,2.444,1.665,3.777c1.133,0.508,4.316,2.187,4.936,5.251
									c0.319,2.303-0.079,4.649-1.141,6.717c1.163,1.122,4.038,4.28,3.939,8.009c0.017,2.327-0.916,4.561-2.582,6.185
									C-169.52,38.128-172.198,39.025-174.918,38.863z M-189.942,37.281h15.024c2.319,0.153,4.608-0.593,6.392-2.083
									c1.354-1.338,2.107-3.169,2.083-5.073c0.1-3.8-3.81-7.156-3.85-7.189c-0.292-0.248-0.365-0.668-0.174-1
									c0.018-0.031,1.849-3.249,1.257-6.18c-0.568-2.811-4.3-4.233-4.333-4.247c-0.255-0.094-0.444-0.313-0.5-0.579
									c-0.326-1.31-0.859-2.559-1.579-3.7c-1.211-2.171-3.5-3.519-5.985-3.525c-2.419-0.023-4.641,1.333-5.728,3.494
									c-0.652,1.147-1.107,2.395-1.348,3.692c-0.048,0.311-0.275,0.565-0.579,0.646c-2.034,0.641-3.698,2.12-4.573,4.065
									c-1.279,3.148,1.032,6.95,1.056,6.989c0.23,0.371,0.116,0.859-0.255,1.089c-0.034,0.021-0.069,0.039-0.106,0.055
									c-0.135,0.06-3.428,1.578-3.428,6.641c0.003,5.93,6.028,6.831,6.626,6.909V37.281z M-189.462,10.767"/>
                                </g>
                                <g id="Group_196" transform="translate(16.186 11.619)">
                                    <path id="Path_264" d="M-197.356,37.508c-0.437,0-0.791-0.354-0.791-0.791l0,0V2.908c0-0.437,0.354-0.791,0.791-0.791
									s0.791,0.354,0.791,0.791v33.809C-196.565,37.154-196.919,37.508-197.356,37.508L-197.356,37.508z"/>
                                </g>
                                <g id="Group_197" transform="translate(9.042 16.866)">
                                    <path id="Path_265" d="M-190.211,10.844c-0.21,0-0.412-0.083-0.56-0.232l-7.145-7.145c-0.309-0.309-0.309-0.81,0-1.119
									c0.309-0.309,0.81-0.309,1.119,0l7.145,7.145c0.309,0.309,0.308,0.81-0.001,1.119c-0.148,0.148-0.35,0.231-0.559,0.231
									L-190.211,10.844z"/>
                                </g>
                                <g id="Group_198" transform="translate(10.606 27.196)">
                                    <path id="Path_266" d="M-191.774,10.254c-0.17,0-0.336-0.055-0.473-0.157l-5.582-4.159c-0.35-0.261-0.423-0.757-0.161-1.108
									c0.261-0.35,0.757-0.423,1.107-0.161l5.033,3.75l6.071-6.071c0.303-0.314,0.804-0.323,1.118-0.019
									c0.314,0.304,0.323,0.804,0.019,1.119c-0.007,0.007-0.013,0.013-0.02,0.02l-6.554,6.555
									C-191.363,10.17-191.564,10.254-191.774,10.254z"/>
                                </g>
                                <g id="Group_199" transform="translate(28.14 37.965)">
                                    <path id="Path_267" d="M-197.356,10.967c-0.437,0-0.791-0.354-0.791-0.791l0,0V2.909c0-0.437,0.354-0.791,0.791-0.791
									s0.791,0.354,0.791,0.791v7.267C-196.565,10.613-196.919,10.967-197.356,10.967L-197.356,10.967z"/>
                                </g>
                                <g id="Group_200" transform="translate(1.674 45.232)">
                                    <path id="Path_268" d="M-157.946,4.067l-0.009,0l-39.407-0.289c-0.437,0-0.791-0.355-0.79-0.792
									c0.001-0.437,0.355-0.791,0.792-0.79l0.009,0l39.407,0.288c0.437,0.001,0.79,0.355,0.79,0.792
									C-157.155,3.713-157.51,4.066-157.946,4.067L-157.946,4.067L-157.946,4.067z"/>
                                </g>
                                <g id="Group_201" transform="translate(22.741)">
                                    <path id="Path_269" d="M-175.75,41.619h-16.23c-0.437,0-0.791-0.354-0.791-0.791s0.354-0.791,0.791-0.791h14.71
									l-8.109-11.583c-0.251-0.358-0.164-0.851,0.194-1.102c0.133-0.093,0.292-0.143,0.454-0.143h4.075l-7.183-11.507
									c-0.231-0.371-0.119-0.859,0.252-1.09c0.126-0.078,0.271-0.12,0.419-0.12h3.122l-7.865-10.309l-4.833,5.9
									c-0.29,0.327-0.79,0.356-1.117,0.066c-0.308-0.273-0.354-0.737-0.107-1.066l5.468-6.674c0.154-0.186,0.384-0.293,0.626-0.29
									c0.242,0.004,0.468,0.119,0.615,0.311l9.441,12.375c0.265,0.347,0.198,0.844-0.149,1.109
									c-0.138,0.105-0.307,0.162-0.48,0.162h-3.294l7.183,11.507c0.231,0.371,0.119,0.859-0.252,1.09
									c-0.126,0.078-0.271,0.12-0.419,0.12h-3.987l8.11,11.583c0.251,0.358,0.164,0.851-0.194,1.102
									c-0.133,0.093-0.292,0.143-0.454,0.143L-175.75,41.619z"/>
                                </g>
                            </g>
                        </g>
                    </g>
                </g>
            </g>
            <g id="Layer_2" display="none">
                <g display="inline">
                    <line fill="none" stroke="#FF0000" stroke-miterlimit="10" x1="79.5" y1="-6.5" x2="0" y2="64"/>
                    <line fill="none" stroke="#FF0000" stroke-miterlimit="10" x1="0" y1="-6.5" x2="79.5" y2="64"/>
                </g>
            </g>
        </g>
    </symbol>
    <symbol id="radar" viewBox="0 0 100.00 100.00">
        <g id="SVGRepo_bgCarrier" stroke-width="0"></g>
        <g id="SVGRepo_tracerCarrier" stroke-linecap="round" stroke-linejoin="round"></g>
        <g id="SVGRepo_iconCarrier">
            <path d="M32.103 24.707a4.813 4.813 0 0 0-1.766 6.59l3.17 5.493l-3.613.74l-29.445 17l12.5 21.65l29.445-17l2.448-2.76l3.17 5.493a4.813 4.813 0 0 0 6.59 1.766l13.295-7.676a4.813 4.813 0 0 0 1.766-6.59l-3.17-5.492l3.613-.74l29.445-17l-12.5-21.651l-29.445 17l-2.448 2.76l-3.17-5.493a4.813 4.813 0 0 0-6.59-1.765zM7.279 56.36l25.98-15l7.5 12.99l-25.98 15zm51.961-30l25.981-15l7.5 12.99l-25.98 15zm11 38.554a7.45 7.45 0 0 1-9.14 5.313l-1.27 4.836c6.625 1.743 13.477-2.241 15.242-8.86zM58.51 79.886l-1.27 4.835c12.003 3.157 24.362-3.973 27.546-15.917l-4.83-1.286C77.47 76.842 67.921 82.361 58.51 79.886zm-2.577 9.665l-1.271 4.837c17.356 4.564 35.192-5.727 39.794-22.989l-4.83-1.288c-3.904 14.64-18.929 23.323-33.693 19.44z"
                  fill="currentColor"></path>
        </g>
    </symbol>
    <symbol id="layers" viewBox="0 0 32 32">
        <path d="M-0.031 22l16.001 4 15.999-4v4l-15.999 4-16.001-4zM-0.031 14l16.001 4 15.999-4v4l-15.999 4-16.001-4zM-0.031 6l16.001-4 15.999 4v4l-15.999 4-16.001-4z"></path>
    </symbol>
    <symbol id="earth" viewBox="0 0 32 32">
        <path d="M16 32c-8.836 0-16-7.164-16-16s7.164-16 16-16c8.836 0 16 7.164 16 16s-7.164 16-16 16zM28.968 14.659c0.026-0.013 0.040-0.035 0.050-0.070 0.021 0.111 0.072 0.209 0.154 0.281 0.002 0.010-0.003 0.008 0.002 0.022 0.008 0 0.014-0.006 0.021-0.006 0.084 0.068 0.188 0.114 0.305 0.114 0.18 0 0.33-0.1 0.418-0.241 0.006 0.007 0.016 0.016 0.021 0.024-0.001-0.016-0.003-0.032-0.005-0.048 0.039-0.071 0.066-0.149 0.066-0.235 0-0.276-0.225-0.5-0.5-0.5-0.176 0-0.322 0.096-0.412 0.232-0.004-0.003 0-0.015-0.011-0.011 0.013-0.038-0.022-0.135-0.077-0.239v0.518c0 0.057-0.016 0.108-0.032 0.159zM5.992 14.509c0-0.151-0.344-0.408-0.433-0.408 0-0.027-0.14-0.335-0.193-0.335 0-0.104-0.365-0.571-0.423-0.367-0.038 0.132 0.279 0.31 0.279 0.463 0.059 0 0.307 0.47 0.356 0.552 0.542 0.916-0.405 0.29-0.405-0.098-0.121-0.060-0.312-0.521-0.312-0.647-0.071-0.057-0.281-0.502-0.264-0.502 0-0.292-0.161-0.432-0.481-0.432-0.015-0.029-0.284-0.407-0.289-0.407 0-0.12-0.216-0.492-0.336-0.551 0-0.249-0.128-0.556-0.071-0.814 0-0.271-0.014-0.578-0.106-0.856-0.835 1.793-1.314 3.785-1.314 5.893 0 6.041 3.834 11.174 9.196 13.137 0.006-0.496 0.043-1.090 0.156-1.090 0-0.074 0.063-0.384 0.12-0.384 0-0.19 0.023-0.419 0-0.647-0.071-0.143 0.094-0.326 0.144-0.551 0.277-0.139 0.081-1.533 0.29-1.533 0-0.697 0.156-1.103 0.047-1.749 0.053 0-0.315-0.391-0.312-0.384-0.353 0-0.6-0.566-0.6-0.814-0.034-0.109-0.121-0.272-0.121-0.407 0.081 0-0.505-0.856-0.505-0.839-0.31-0.172 0.017-0.412 0.048-0.694-0.269-0.089 0.003-0.815 0.12-0.815 0.012-0.092 0.060-0.155 0.145-0.191 0.060 0.239 0.339-0.119 0.12-0.119 0-0.158-0.018-0.496 0-0.575 0-0.244-0.216-0.722-0.384-0.216-0.18-0.089-0.634-0.073-0.673-0.359 0.028-0.141-0.259-0.429-0.36-0.479 0.094-0.246-0.487-0.575-0.697-0.575 0-0.053-0.111-0.029-0.144-0.096-0.214 0-0.263-0.288-0.505-0.288-0.279 0-0.56-0.191-0.817-0.191-0.086-0.171-0.485-0.104-0.577-0.288-0.209 0-0.291-0.396-0.297-0.542-0.009-0.18-0.152-0.802-0.402-0.802zM26.248 6.484c-0.002 0.006 0.002 0.002-0.008 0.022 0.015 0 0.033 0.017 0.050 0.024-0.015-0.015-0.028-0.030-0.042-0.046zM26.549 6.815c0.035 0.068 0.061 0.131 0.053 0.17 0.035 0.001 0.052-0.018 0.080-0.025-0.043-0.049-0.090-0.095-0.133-0.145zM27.418 11.371c0.016-0.432-0.36-0.36-0.479-0.6-0.124 0-0.169-0.096-0.337-0.096-0.109-0.037-0.195-0.011-0.258 0.078-0.257 0.098-0.102-0.125-0.295-0.125 0.009-0.247-0.089-0.315-0.361-0.288-0.156 0.352-0.396 0.563-0.36 0.959 0.115 0.026 0.095 0.052 0.072 0.167 0.153 0.008 1.081-0.048 1.081-0.144 0.032 0 0.193 0.331 0.193 0.048 0.129 0 0.197 0.303 0.505 0.215 0 0.062 0.514-0.214 0.239-0.214zM27.467 16.474c0.018-0.088-0.044-0.127-0.096-0.216 0.137 0-0.433-1.057-0.433-1.222-0.087-0.043-0.198-0.345-0.218-0.455-0.117-0.078-0.238-0.334-0.288-0.479-0.119-0.079-0.409-0.433-0.456-0.599 0.172 0.019 0.432 0.054 0.432-0.168-0.116 0-0.133-0.143-0.023-0.143-0.036-0.147 0.078-0.253 0.103-0.368 0.030-0.139 0.089-0.353 0.089-0.519-0.165 0-0.205 0.028-0.336 0.072 0 0.097-0.293-0.024-0.336-0.024-0.063-0.126-0.52 0.164-0.648-0.096-0.207-0.187-0.151-0.331-0.218-0.595-0.034-0.134-0.217-0.142-0.328-0.164-0.313-0.061-0.087 0.373-0.104 0.472 0.192 0-0.121 0.238-0.121 0.359-0.324-0.070-0.216-0.431-0.407-0.527-0.057-0.096-0.012-0.168-0.145-0.168 0-0.128 0.068-0.36-0.072-0.407 0-0.062-0.272-0.087-0.312-0.168-0.172 0-0.572-0.65-0.695-0.431-0.077 0.14 0.065 0.174 0.094 0.288 0.249-0.049 0.225 0.41 0.529 0.359 0 0.064 0.008 0.129 0.023 0.192 0.225-0.053 0.199 0.167 0.312 0.167-0.082 0.109-0.342-0.174-0.271 0.064 0.041 0.138 0.018 0.256-0.161 0.391 0-0.149-0.012-0.551-0.168-0.551-0.106-0.212-0.421-0.161-0.554-0.359-0.108 0-0.15-0.336-0.336-0.359-0.035 0.049-0.166 0.096-0.217 0.096-0.101 0.203-0.672 0.021-0.672 0.048-0.009 0.002-0.32 0.762-0.338 0.862-0.035 0.215-0.208 0.219-0.26 0.423-0.026 0.102-0.653 0.054-0.653 0.129-0.271-0.090-0.505-0.28-0.505-0.575-0.022 0 0.051-0.753 0.097-0.863 0.055 0.015 0.066 0.034 0.097 0.096 0.166-0.062 0.553 0.041 0.553-0.144 0.161 0.004 0.209 0.068 0.144 0.192 0.15 0.028 0.409 0.066 0.409-0.144-0.088 0-0.097-0.008-0.097-0.096 0.288-0.299-0.216-0.569-0.216-0.718-0.102-0.034-0.31-0.255-0.162-0.172 0.125 0.069 0.582 0.212 0.402-0.092 0.012-0.004 0.020-0.012 0.023-0.023 0.051 0.036 0.266 0.257 0.266 0.048 0.059 0 0.287-0.144 0.096-0.144 0.018-0.108 0.014-0.198 0.023-0.264 0.305 0.164 0.135-0.112 0.289-0.215 0 0.199 0.164-0.096 0.264-0.096 0.119-0.177 0.391-0.040 0.457-0.24-0.147-0.048-0.12-0.416-0.12-0.55 0.177 0.029 0.374-0.239 0.401-0.055 0.010 0.071 0.019 0.267 0.055 0.294 0.263 0.138 0.193-0.079 0.193-0.215-0.088 0-0.205-0.308-0.217-0.456-0.072 0.010-0.188 0.040-0.217 0.095-0.262 0-0.44-0.095-0.648-0.095-0.016-0.032-0.266-0.312-0.24-0.312-0.146-0.251 0.146-0.178 0.192-0.19 0-0.238 0.991-0.196 1.034-0.576-0.326 0 0.336-0.552 0.336-0.55 0.221-0.189 0.338-0.352 0.613-0.373 0.116-0.008 1.406-0.364 1.406-0.203 0.052 0.002 0.224 0.004 0.402 0.010-2.497-2.322-5.834-3.752-9.513-3.752-3.563 0-6.806 1.342-9.277 3.535 0.022 0.050 0.039 0.098 0.038 0.132 0.131-0.009 0.319-0.093 0.361 0.073-0.065-0.001-0.13-0.009-0.192-0.025 0.046 0.371-0.162 0.144-0.336 0.144 0-0.009-0.077-0.040-0.159-0.062-0.053 0.050-0.109 0.097-0.162 0.147 0.006 0.016-0.003 0.017 0.007 0.035 0.056 0 0.027 0.087 0.187 0.14 0.185 0.063 0.388 0.098 0.583 0.129 0.158 0.025 0.249-0.029 0.384-0.029 0-0.020 0.33-0.167 0.097-0.167 0.032-0.132-0.027-0.165-0.169-0.167 0.012-0.14 0.345-0.048 0.481-0.048 0.104-0.175 0.003-0.154 0.095-0.313 0.11-0.195 0.241-0.026 0.313-0.213 0.109 0.040 0.206 0.099 0.241 0.237 0.087 0.072 0.529 0.724 0.529 0.263 0.158 0.053 0.237 0.349 0.24 0.504 0.287-0.042 0.312-0.257 0.312-0.48 0.066 0-0.024-0.107-0.024-0.144 0.107-0.039 0.241 0.102 0.241-0.047 0.046 0 0.048 0.046 0.048 0.096 0.149 0.029 0.245-0.017 0.336 0.015 0.063 0.022 0.031 0.349 0.002 0.464-0.036 0.146-0.315 0.148-0.315 0.216-0.316 0.236 0.373 0.359 0.481 0.503-0.065 0-0.312-0.032-0.312-0.047-0.156 0-0.534 0.165-0.673 0.047 0.194 0 0.259-0.233 0.289-0.455-0.179-0.067-0.39 0.043-0.44 0.221-0.084 0.294-0.279-0.012-0.377 0.186-0.038 0.012-0.385 0.173-0.385 0.119-0.39 0.055-0.288 0.386-0.288 0.743 0.155 0.093 0.47 0.358 0.456 0.503 0.35 0.062 0.478 0.099 0.793 0.144 0.026 0.051 0.13 0.099 0.193 0.119 0 0.206 0.187 0.169 0.36 0.169 0-0.263 0.306 0.219 0.336 0.311-0.042 0 0.072 0.269 0.096 0.36-0.048-0.017-0.063 0-0.048 0.048 0.152 0.056 0.393 0.040 0.433-0.12-0.146 0-0.097-0.167-0.097-0.264-0.15-0.1-0.127-0.293 0.024-0.335 0 0.136 0.495-0.085 0.216-0.191 0.068-0.153 0.114-0.388 0.003-0.521-0.071-0.084-0.16 0-0.195-0.126 0.189-0.047 0.050-0.407 0.048-0.575 0.060-0.023 0.216 0.038 0.216 0 0.185 0 0.493 0.234 0.601-0.049 0.309 0.141 0.063 0.275 0.385 0.168 0 0.076 0.363 0.431 0.409 0.431 0 0.017-0.009 0.12 0.071 0.12 0 0.077-0.048-0.044-0.048 0.095 0.045 0.005 0.289 0.049 0.289-0.047 0.155 0 0.264-0.19 0.264-0.335 0.097-0.063 0.267 0.527 0.384 0.527 0.086 0.134 0.361 0.329 0.361 0.455 0.058 0.059 0.119 0.043 0.119 0.216 0.073 0 0.217-0.287 0.217-0.024 0.068 0 0.266 0.146 0.289 0.263-0.173 0-0.009 0.168-0.098 0.168 0 0.166-0.371 0.034-0.455 0.024-0.115 0.515-0.809 0.145-1.229 0.278-0.221 0.070-0.648 0.557-0.671 0.8 0.268 0.003 0.386-0.232 0.625-0.312 0.195 0 0.233-0.118 0.409-0.167 0 0.049 0.048 0.023 0.048 0.072-0.342 0-0.134 0.221-0.034 0.382 0.062 0.1 0.133 0.148 0.212 0.179-0.033 0.058-0.060 0.116-0.081 0.181 0 0.001-0.001 0-0.001 0.001-0.065 0.022-0.192 0.069-0.217 0.12-0.387 0.043-0.196 0.017-0.17-0.076 0.014 0.033 0.153 0.003 0.147 0.004-0.023-0.116-0.058-0.1-0.024-0.167-0.21 0-0.312 0.096-0.481 0.096-0.028 0.057-0.175 0.192-0.24 0.192-0.049 0.148-0.16 0.417-0.289 0.503 0-0.039-0.342 0.215-0.312 0.215-0.076 0.123-0.159 0.119-0.193 0.311-0.023 0.012-0.12 0.333-0.12 0.383-0.149 0.099-0.204 0.503-0.457 0.503-0.155 0.308-0.433 0.267-0.433 0.671 0.094 0.096 0.13 0.521 0.159 0.657 0.036 0.169 0.092 0.345-0.134 0.349-0.016-0.025-0.174-0.264-0.145-0.264 0-0.099-0.121-0.416-0.192-0.515-0.095-0.133-0.271 0.021-0.409-0.037-0.059-0.118-0.458-0.144-0.6-0.144 0.023 0.089 0.088 0.117 0.096 0.216-0.118 0.048-0.186 0.102-0.308 0.085-0.209-0.029-0.184-0.192-0.414-0.169-0.368 0.037-0.625 0.342-0.625 0.707-0.041 0-0.041 0.719 0 0.719 0 0.203 0.168 0.35 0.168 0.503 0.163 0 0.346 0.359 0.505 0.359 0.018 0.127-0.080 0.147 0.192 0.145 0-0.014 0.148-0.093 0.168-0.192-0.188-0.046-0.001-0.288 0.12-0.335 0 0.171 0.24-0.057 0.24-0.072 0.027-0.011 0.265-0.096 0.265-0.096 0-0.194 0.181 0.019 0.048 0.096-0.13 0-0.12 0.216-0.192 0.216-0.031 0.154-0.092 0.288-0.128 0.438-0.046 0.185 0.104 0.204 0.056 0.377 0.191 0.036 0.384 0.001 0.577 0 0.001-0.034-0.006-0.067-0.024-0.096 0.279 0 0.024 0.527 0.193 0.527 0 0.199 0.096 0.354 0.096 0.479 0.13 0.086 0.208 0.201 0.168 0.359 0.16 0.021 0.504 0.062 0.504-0.144 0.243 0 0.26 0.165 0.242 0.335 0.484 0 0.181-0.479 0.383-0.479 0.019-0.079 0.052-0.093 0.099-0.041 0.099 0.053 0.174-0.099 0.253-0.147 0.025-0.017 0.113-0.068 0.129-0.068 0.068 0.041 0.074 0.029 0.104 0.075 0.132-0.001 0.265-0.075 0.378-0.153 0.173 0.021 0.117 0.393 0.441 0.416 0.13 0.009 0.431 0.045 0.543-0.032 0.028-0.019 0.131 0.065 0.142 0.101 0.108 0 0.1 0.094 0.146 0.092 0.011 0.021 0.027 0.029 0.049 0.023 0.014 0.041 0.1 0.053 0.145 0.167 0 0.104 0.216 0.122 0.216 0.191 0.155 0.078-0.053 0.099 0.185 0.171 0.131 0.041 0.252 0.107 0.393 0.117 0.045-0.171 0.191 0.023 0.265 0.023 0.038 0.078 0.058 0.019 0.095 0.096 0.223 0.186 0.076 0.114 0.168 0.312 0.107 0.070 0.141 0.314 0.17 0.455-0.086 0-0.025 0.329-0.025 0.36-0.104 0 0.266 0.197 0.266-0.049 0.152 0.025 0.252 0.191 0.36 0.191-0.063 0.145 0.168 0.254 0.168 0.025 0.228 0.023 0.167 0.363 0.145 0.479 0.169 0 0.218-0.094 0.362-0.112 0.156-0.099 0.33-0.171 0.527-0.171 0.553 0 1 0.447 1 1 0 0.498-0.371 0.893-0.848 0.969-0.064 0.073-0.122 0.136-0.126 0.136 0 0.048-0.011 0.526-0.025 0.526 0 0.096-0.073 0.623-0.144 0.623 0 0.271-0.177 0.32-0.24 0.575-0.146 0.108-0.541 0.288-0.602 0.407-0.113 0-0.197 0.096-0.312 0.096-0.016 0.033-0.261 0.264-0.217 0.264-0.018 0.17 0.013 0.57-0.079 0.682-0.062 0.074-0.151 0.066-0.112 0.182-0.135 0 0.008 0.096-0.205 0.096-0.134 0-0.373 0.191-0.38 0.353-0.009 0.198-0.062 0.341-0.232 0.462 0 0.068-0.312 0.088-0.312 0.264 0.029 0 0 0.326 0 0.359-0.093-0.003-0.321 0.090-0.36 0.167-0.314 0-0.276 0.032-0.48 0.168 0 0.042-0.029 0.191-0.072 0.191 0 0.243-0.173 0.022-0.313 0.145 0.055 0 0.125 0.239 0.096 0.239 0 0.211-0.131 0.229-0.264 0.384-0.063 0.042-0.123 0.216-0.168 0.216 0 0.142-0.071 0.271-0.071 0.407 0.030 0 0.002 0.061 0.023 0.118 0.067-0.019 0.069-0.095 0.096-0.095 0-0.12 0.191 0.071 0.072 0.071-0.099 0.15-0.206 0.153-0.265 0.36-0.060 0-0.112 0.058-0.156 0.126 1.178 0.321 2.414 0.509 3.696 0.509 4.924 0 9.246-2.548 11.742-6.393 0.015-0.354 0.070-0.692 0.109-0.809 0.098 0.072 0.171 0.207 0.24 0-0.173-0.034-0.131-0.094-0.072-0.239 0.066 0.040 0.199 0.089 0.307 0.082 0.033-0.062 0.059-0.128 0.092-0.19-0.098-0.076 0.037-0.273 0.084-0.177 0.025-0.048 0.047-0.098 0.070-0.146-0.011-0.003-0.008 0.004-0.024-0.001 0-0.087 0.016-0.076 0.073-0.12 0.001 0.009 0 0.009 0.002 0.017 0.873-1.827 1.377-3.864 1.377-6.024 0-0.071-0.010-0.139-0.011-0.21-0.026 0.098-0.075 0.204-0.144 0.228 0 0.063-0.715 0.374-0.672 0.503-0.126 0-0.568 0.126-0.649 0.287-0.089 0-0.448 0.127-0.481 0.192-0.446 0.001-0.361-0.526-0.576-0.526zM29.5 11h-0.531c-0.004-0.005-0.008-0.006-0.012-0.013-0.027 0-0.14-0.254-0.096-0.312 0.043 0 0.063 0.004 0.086 0.006-0.045-0.11-0.094-0.218-0.143-0.327-0.108 0.074-0.203 0.168-0.352 0.177 0 0.041-0.213 0.455 0 0.455 0 0.008 0.004 0.014 0.006 0.021-0.255 0.024-0.458 0.232-0.458 0.493 0 0.276 0.224 0.5 0.5 0.5h0.197c0.012 0.091 0.061 0.17 0.236 0.209 0.055 0.231 0.467 0.313 0.529 0.071-0.174 0-0.117-0.167-0.102-0.28h0.14c0.275 0 0.5-0.224 0.5-0.5s-0.225-0.5-0.5-0.5zM28.043 17.502c0.035 0.002 0.266-0.004 0.266-0.045 0.209 0 0.492-0.029 0.697-0.097 0 0.31-0.261 0.483-0.217 0.791-0.173 0-0.097 0.178-0.097 0.239-0.112 0.069-0.129 0.195-0.264 0.264 0 0.139-0.312 0.369-0.404 0.488-0.104 0.133-0.417 0.364-0.458 0.533 0.011-0.040-0.572 0.607-0.436 0.607 0 0.121-0.164 1.078 0.048 1.078 0 0.084 0.181 0.887 0.071 0.887 0 0.258-0.168 0.416-0.168 0.622-0.082 0.056-0.199 0.087-0.24 0.169-0.147 0-0.218 0.312-0.288 0.312 0 0.333-0.097 0.58-0.097 0.958 0.027 0-0.192 0.539-0.192 0.574-0.177 0.119-0.625 0.546-0.625 0.768 0 0-0.312 0.438-0.36 0.503-0.094 0-0.818 0.136-0.818 0.192-0.154 0-0.552 0.121-0.648-0.024 0-0.152-0.083-0.345-0.096-0.552-0.074 0-0.086-0.311-0.168-0.311 0-0.066-0.459-0.983-0.385-0.983 0-0.095-0.082-0.407-0.096-0.407 0-0.33-0.241-0.605-0.241-0.91-0.071 0-0.218-0.67-0.144-0.67 0-0.352 0.123-0.582 0.174-0.973 0.057-0.429-0.027-0.69-0.102-0.993-0.041 0-0.179-0.229-0.193-0.287-0.193-0.128-0.264-0.382-0.264-0.622 0.126-0.144 0.176-0.685 0.145-0.863-0.243-0.115-0.34-0.072-0.602-0.072-0.155-0.311-1.196-0.119-1.491-0.119 0 0.17-0.725-0.033-0.793-0.168-0.177 0-0.528-0.376-0.528-0.551-0.194-0.129-0.504-0.771-0.504-0.982-0.168-0.084-0.117-0.408-0.025-0.408 0.023-0.090-0.059-0.374-0.098-0.509-0.029-0.101 0.098-0.21 0.098-0.33 0-0.334 0.008-0.488 0.195-0.845 0.059-0.112 0.134-0.217 0.189-0.357 0.1-0.251 0.13-0.012 0.265-0.236 0.129-0.064 0.204-0.278 0.337-0.383 0.058-0.077 0.060-0.109 0-0.168 0.026 0 0.168-0.369 0.168-0.454 0.188-0.261 0.055-0.142 0.24-0.12 0.068-0.074 0.181-0.264 0.288-0.264 0.047-0.093 0.165-0.144 0.265-0.144 0 0.144 0.392-0.047 0.433-0.047 0.067-0.135 0.499-0.288 0.601-0.288 0-0.164 0.852 0.046 0.986 0.024 0-0.024 0-0.048 0-0.072 0.182 0.043 0.514 0.773 0.48 0.935 0.14 0 0.27-0.023 0.361 0 0 0.155 0.292 0.193 0.425 0.2 0.185 0.009 0.728-0.019 0.728-0.272 0.143 0 0.27 0.1 0.242 0.263 0.162 0.018 1.125 0.037 1.057 0.239 0.141 0 0.177 0.241 0.312 0.241-0.027 0.166 0.168 0.599 0.312 0.599 0 0.144 0.090 0.409 0.217 0.502 0.068 0.206 0.293 0.64 0.504 0.767-0.090 0.17 0.137 0.31 0.193 0.479-0.013 0 0.049 0.251 0.119 0.288 0 0.17 0.358 0.863 0.554 0.863 0.013 0.084-0.184 0.122 0.072 0.141zM22.852 12.137c0.037-0.143 0.121-0.032 0.199-0.006 0.185 0.060 0.121-0.003 0.258-0.065 0 0.39-0.224 0.094-0.457 0.071zM22.346 11.418c0.098 0 0.125 0.44-0.144 0.359 0-0.109-0.069-0.311 0.073-0.311 0.041 0.17 0.071 0.101 0.071-0.048zM22.227 11.131c0.111 0.048 0.16 0.032 0.144-0.048 0.146 0.048-0.019 0.152-0.048 0.264-0.075-0.074-0.052-0.1-0.096-0.216zM19.654 8.998c-0.236-0.061 0.243-0.131 0.264-0.191-0.080 0-0.135-0.083-0.104-0.153 0.036-0.083 0.095 0.099 0.177 0.058 0.097-0.010 0.288-0.155 0.19 0.125-0.1 0.284-0.191 0.492-0.551 0.497-0.129-0.13-0.005-0.198 0.024-0.336zM20.544 8.016c0.194 0 0.024 0.144-0.019 0.144 0.033 0.013-0.006 0.129-0.006 0.167 0.18-0.002 0.183-0.112 0.312-0.144-0.027 0.161-0.207 0.192-0.031 0.33 0.093 0.073 0.188 0.159 0.151 0.27 0.229 0 0.263 0.22 0.216 0.479 0.127 0 0.121 0.006 0.121-0.121 0.123 0.034 0.114 0.145 0 0.145-0.114 0.225-0.413 0.215-0.625 0.215-0.002-0.174-0.035-0.185-0.196-0.136-0.22 0.067-0.048-0.175-0.044-0.295 0.024 0 0.499 0.022 0.216-0.072-0.015-0.258-0.073-0.335-0.312-0.335 0-0.176-0.062-0.163-0.091-0.356-0.041-0.285 0.223 0.020 0.308-0.291zM20.471 9.573c0 0.059-0.12 0.106-0.144 0.023 0.023 0.008 0.032 0 0.023-0.023 0.041 0 0.082 0 0.121 0zM18.5 7h-1c-0.276 0-0.5-0.224-0.5-0.5s0.224-0.5 0.5-0.5h1c0.276 0 0.5 0.224 0.5 0.5s-0.224 0.5-0.5 0.5zM12.674 15.85c0.056 0 0.121 0.022 0.121 0.072-0.073 0-0.167 0.069-0.121-0.072zM11.762 15.899c-0.040 0.076-0.364 0.063-0.409-0.025 0.12 0 0.213 0.049 0.336 0 0-0.066-0.055-0.119-0.096-0.191 0.131 0 0.278 0.1 0.457 0.096 0-0.111-0.049 0.024 0-0.12 0.075 0.019 0.256 0.191 0.264 0.263-0.263-0.028-0.275-0.023-0.552-0.023zM10.704 15.324c-0.123 0-0.36-0.107-0.433-0.216 0.119 0.005 0.237 0.054 0.312-0.072 0.305 0.031 0.332 0.241 0.577 0.241 0.046 0.081 0.308 0.267 0.055 0.291-0.191 0.018-0.431-0.086-0.511-0.244zM10.896 15.995c-0.089 0-0.236 0.039-0.168-0.145 0.118 0.016 0.174 0.065 0.168 0.145zM11.064 15.971c-0.048 0.008-0.096 0.016-0.144 0.024 0.014-0.111 0.119-0.235 0.144-0.024zM11.953 17.024c-0.019 0.067-0.016 0.071-0.095 0.071 0.008-0.031 0.015-0.062 0.023-0.095 0.025 0.008 0.048 0.016 0.072 0.024zM9.79 15.036c0.023 0.008 0.048 0.017 0.072 0.024 0.031 0.119 0.096 0.060 0.168 0.024 0 0.139-0.322 0.179-0.24-0.048z"></path>
    </symbol>
</svg>
