<svg xmlns="http://www.w3.org/2000/svg" width="31.199" height="31.189" viewBox="0 0 31.199 31.189">
  <g id="_03_IconCountries" data-name="03_IconCountries" transform="translate(0.791 0.6)">
    <path id="Path_13067" data-name="Path 13067" d="M-1734.083-25.96a15.011,15.011,0,0,1-14.98-15.215,15.031,15.031,0,0,1,14.889-14.773,15.01,15.01,0,0,1,15.11,14.954A14.993,14.993,0,0,1-1734.083-25.96Zm-11.285-7.512,4.143-1.328a27,27,0,0,1-.666-5.424h-5.667A13.49,13.49,0,0,0-1745.368-33.472Zm-2.191-8.212h5.668a27.938,27.938,0,0,1,.644-5.4l-4.12-1.354A13.52,13.52,0,0,0-1747.559-41.684Zm20.714,6.888c.07.022.154.046.237.073,1.183.387,2.37.763,3.546,1.171.251.087.357.04.481-.171a12.718,12.718,0,0,0,1.609-3.842c.184-.869.311-1.75.469-2.651h-5.7c-.073.918-.119,1.819-.224,2.713S-1726.7-35.707-1726.845-34.8Zm6.292-6.884c-.037-.334-.071-.641-.106-.948a13.284,13.284,0,0,0-1.984-5.635c-.105-.167-.2-.17-.366-.107-.678.256-1.358.51-2.046.737-.594.2-1.2.358-1.788.53.14.9.3,1.8.41,2.7s.154,1.81.227,2.721Zm-12.769,1.456a.417.417,0,0,0-.019.07c0,1.426,0,2.852-.007,4.277,0,.178.088.192.23.2.909.065,1.819.12,2.725.216.692.074,1.377.2,2.089.31a24.8,24.8,0,0,0,.625-5.075Zm5.018-6.524c-.832.119-1.607.253-2.388.338s-1.567.135-2.353.172c-.25.012-.307.091-.305.325.01,1.319.006,2.637.006,3.955v.278h5.667A24.867,24.867,0,0,0-1728.3-46.747Zm-12.143,6.517a24.837,24.837,0,0,0,.626,5.074l5.025-.556v-4.519Zm.62-6.484a24.419,24.419,0,0,0-.618,5.029h5.657v-4.479Zm6.5,19.159c.144-.043.254-.07.358-.11a4.812,4.812,0,0,0,1.869-1.365,11.556,11.556,0,0,0,2.092-3.7c.122-.326.224-.659.342-1.009a26.715,26.715,0,0,0-4.66-.5Zm0-20.105a27.046,27.046,0,0,0,4.632-.5.505.505,0,0,0,0-.11,15.217,15.217,0,0,0-1.4-3.226,6.848,6.848,0,0,0-2.178-2.391,10.953,10.953,0,0,0-1.051-.514Zm-6.148-.519a28.942,28.942,0,0,0,4.68.5v-6.649a3.923,3.923,0,0,0-1.76.983,9.431,9.431,0,0,0-2.15,3.19C-1738.988-49.516-1739.217-48.858-1739.479-48.18Zm4.678,20.66v-6.7a31.091,31.091,0,0,0-4.625.5c.017.079.023.139.042.2a14.255,14.255,0,0,0,1.4,3.171,6.625,6.625,0,0,0,2.27,2.409C-1735.439-27.782-1735.133-27.672-1734.8-27.52Zm4.852-26.255a15.181,15.181,0,0,1,2.68,5.284,25.563,25.563,0,0,0,3.539-1.147A13.271,13.271,0,0,0-1729.948-53.775Zm2.754,20.341c-.411.99-.767,1.912-1.175,2.811a11.438,11.438,0,0,1-1.585,2.5,13.23,13.23,0,0,0,6.256-4.191Zm-10.98-20.344a13.3,13.3,0,0,0-6.235,4.159l3.551,1.139A15.207,15.207,0,0,1-1738.175-53.778Zm.045,25.7a14.668,14.668,0,0,1-2.736-5.335l-3.543,1.133A13.622,13.622,0,0,0-1738.13-28.083Z" transform="translate(1748.873 55.948)" fill="#fff" stroke="#fff" stroke-width="1.2"/>
    <g id="Ellipse_291" data-name="Ellipse 291" transform="translate(17.081 4.194)" fill="#fff" stroke="#fff" stroke-miterlimit="10" stroke-width="1">
      <ellipse cx="3.5" cy="3.5" rx="3.5" ry="3.5" stroke="none"/>
      <ellipse cx="3.5" cy="3.5" rx="3" ry="3" fill="none"/>
    </g>
    <g id="Ellipse_294" data-name="Ellipse 294" transform="translate(3.699 11.119)" fill="#fff" stroke="#fff" stroke-miterlimit="10" stroke-width="1">
      <ellipse cx="3.5" cy="3.5" rx="3.5" ry="3.5" stroke="none"/>
      <ellipse cx="3.5" cy="3.5" rx="3" ry="3" fill="none"/>
    </g>
    <g id="Ellipse_295" data-name="Ellipse 295" transform="translate(11.309 17.525)" fill="#fff" stroke="#fff" stroke-miterlimit="10" stroke-width="1">
      <ellipse cx="3.5" cy="3.5" rx="3.5" ry="3.5" stroke="none"/>
      <ellipse cx="3.5" cy="3.5" rx="3" ry="3" fill="none"/>
    </g>
  </g>
</svg>
