<svg xmlns="http://www.w3.org/2000/svg" style="display: none;"><symbol id="small-up" viewBox="0 0 16 16"><title>small-up</title><g><g class="icon-wrapper"><polygon fill="currentColor" points="12,11.4 8,7.4 4,11.4 2.6,10 8,4.6 13.4,10 "/></g></g></symbol><symbol id="small-right" viewBox="0 0 16 16"><title>small-right</title><g><g class="icon-wrapper"><polygon fill="currentColor" points="6,13.4 4.6,12 8.6,8 4.6,4 6,2.6 11.4,8 "/></g></g></symbol><symbol id="small-left" viewBox="0 0 16 16"><title>small-left</title><g><g class="icon-wrapper"><polygon fill="currentColor" points="10,13.4 4.6,8 10,2.6 11.4,4 7.4,8 11.4,12 "/></g></g></symbol><symbol id="small-down" viewBox="0 0 16 16"><title>small-down</title><g><g class="icon-wrapper"><polygon fill="currentColor" points="8,11.4 2.6,6 4,4.6 8,8.6 12,4.6 13.4,6 "/></g></g></symbol><symbol id="small-add" viewBox="0 0 16 16"><title>small-add</title><g><g class="icon-wrapper"><polygon fill="currentColor" points="9,4 7,4 7,7 4,7 4,9 7,9 7,12 9,12 9,9 12,9 12,7 9,7 "/></g></g></symbol><symbol id="circle-add" viewBox="0 0 16 16"><title>circle-add</title><g><g class="icon-wrapper"><path fill="currentColor" d="M8,0C3.6,0,0,3.6,0,8s3.6,8,8,8s8-3.6,8-8S12.4,0,8,0z M12,9H9v3H7V9H4V7h3V4h2v3h3V9z"/></g></g></symbol><symbol id="alert" viewBox="0 0 16 16"><title>alert</title><g><g class="icon-wrapper"><path fill="currentColor" d="M15.216,13.529L8.882,1.654c-0.376-0.706-1.388-0.706-1.765,0L0.784,13.529C0.429,14.195,0.912,15,1.667,15 h12.667C15.088,15,15.571,14.195,15.216,13.529z M8,13c-0.552,0-1-0.448-1-1c0-0.552,0.448-1,1-1s1,0.448,1,1 C9,12.552,8.552,13,8,13z M9,10H7V6h2V10z"/></g></g></symbol><symbol id="small-remove-2" viewBox="0 0 24 24"><title>small-remove-2</title><g><g class="icon-wrapper"><path fill="currentColor" d="M16.7,7.3c-0.4-0.4-1-0.4-1.4,0L12,10.6L8.7,7.3c-0.4-0.4-1-0.4-1.4,0s-0.4,1,0,1.4l3.3,3.3l-3.3,3.3 c-0.4,0.4-0.4,1,0,1.4C7.5,16.9,7.7,17,8,17s0.5-0.1,0.7-0.3l3.3-3.3l3.3,3.3c0.2,0.2,0.5,0.3,0.7,0.3s0.5-0.1,0.7-0.3 c0.4-0.4,0.4-1,0-1.4L13.4,12l3.3-3.3C17.1,8.3,17.1,7.7,16.7,7.3z"/></g></g></symbol><symbol id="small-remove" viewBox="0 0 16 16"><title>small-remove</title><g><g class="icon-wrapper"><polygon fill="currentColor" points="10.1,4.5 8,6.6 5.9,4.5 4.5,5.9 6.6,8 4.5,10.1 5.9,11.5 8,9.4 10.1,11.5 11.5,10.1 9.4,8 11.5,5.9 "/></g></g></symbol></svg>
