<svg style="display: none;" xmlns="http://www.w3.org/2000/svg" xmlns:xlink="http://www.w3.org/1999/xlink"><symbol id="icon-small-left" viewBox="0 0 16 16"><title>small left</title><g ><polygon points="10,13.4 4.6,8 10,2.6 11.4,4 7.4,8 11.4,12 "/></g></symbol><symbol id="icon-small-right" viewBox="0 0 16 16"><title>small right</title><g ><polygon points="6,13.4 4.6,12 8.6,8 4.6,4 6,2.6 11.4,8 "/></g></symbol><symbol id="icon-small-down" viewBox="0 0 16 16"><title>small down</title><g ><polygon points="8,11.4 2.6,6 4,4.6 8,8.6 12,4.6 13.4,6 "/></g></symbol><symbol id="icon-small-up" viewBox="0 0 16 16"><title>small up</title><g ><polygon points="12,11.4 8,7.4 4,11.4 2.6,10 8,4.6 13.4,10 "/></g></symbol><symbol id="icon-share-26" viewBox="0 0 16 16"><title>share 26</title><g ><path data-color="color-2" fill="currentColor" d="M15,0H8v2h4.6L6.3,8.3l1.4,1.4L14,3.4V8h2V1C16,0.4,15.6,0,15,0z"/><path d="M14,16H1c-0.6,0-1-0.4-1-1V2c0-0.6,0.4-1,1-1h4v2H2v11h11v-3h2v4C15,15.6,14.6,16,14,16z"/></g></symbol><symbol id="icon-world" viewBox="0 0 16 16"><title>world</title><g ><path d="M8,0C3.6,0,0,3.6,0,8s3.6,8,8,8s8-3.6,8-8S12.4,0,8,0z M8,14c-1.5,0-2.8-0.5-3.9-1.4&#10;&#9;c0.6-0.8,0.7-1.8,0.1-2.6C3.7,9.3,2.9,8.6,2.9,8c0-0.8,1.9-1.1,2.5-1.9C6.1,5.3,5.4,3.8,4.7,3c0.8-0.5,1.7-0.9,2.8-1&#10;&#9;c0.2,0.5,0.9,1.1,1.2,1.5c0.5,0.8,0.6,1.3,1.3,1.3c0.2,0,2,0,3-0.3C13.6,5.5,14,6.7,14,8C14,11.3,11.3,14,8,14z"/><path data-color="color-2" fill="currentColor" d="M10.2,6.7C9,6.7,7.9,7.5,8,8.6c0.3,2.5-0.5,3.4,0.6,3.9c1.3,0.5,3.9-1.9,3.8-3.9&#10;&#9;C12.4,7.5,11.5,6.7,10.2,6.7z"/></g></symbol><symbol id="icon-tree-03" viewBox="0 0 16 16"><title>tree 03</title><g ><polygon points="15,13 8,0 1,13 7,13 7,16 9,16 9,13 "/></g></symbol><symbol id="icon-check-small" viewBox="0 0 16 16"><title>check small</title><g ><polygon points="12.4,6 11,4.6 7,8.6 5,6.6 3.6,8 7,11.4 "/></g></symbol><symbol id="icon-settings-gear-64" viewBox="0 0 16 16"><title>settings gear 64</title><g ><path d="M13.3,5.2l1.1-2.1l-1.4-1.4l-2.1,1.1c-0.3-0.2-0.7-0.3-1.1-0.4L9,0H7L6.2,2.3C5.9,2.4,5.5,2.5,5.2,2.7&#10;&#9;L3.1,1.6L1.6,3.1l1.1,2.1C2.5,5.5,2.4,5.9,2.3,6.2L0,7v2l2.3,0.8c0.1,0.4,0.3,0.7,0.4,1.1l-1.1,2.1l1.4,1.4l2.1-1.1&#10;&#9;c0.3,0.2,0.7,0.3,1.1,0.4L7,16h2l0.8-2.3c0.4-0.1,0.7-0.3,1.1-0.4l2.1,1.1l1.4-1.4l-1.1-2.1c0.2-0.3,0.3-0.7,0.4-1.1L16,9V7&#10;&#9;l-2.3-0.8C13.6,5.9,13.5,5.5,13.3,5.2z M8,11c-1.7,0-3-1.3-3-3s1.3-3,3-3s3,1.3,3,3S9.7,11,8,11z"/></g></symbol><symbol id="icon-small-add" viewBox="0 0 16 16"><title>small add</title><g ><polygon points="9,4 7,4 7,7 4,7 4,9 7,9 7,12 9,12 9,9 12,9 12,7 9,7 "/></g></symbol><symbol id="icon-small-delete" viewBox="0 0 16 16"><title>small delete</title><g ><rect x="4" y="7" width="8" height="2"/></g></symbol><symbol id="icon-small-remove" viewBox="0 0 16 16"><title>small remove</title><g ><polygon points="10.1,4.5 8,6.6 5.9,4.5 4.5,5.9 6.6,8 4.5,10.1 5.9,11.5 8,9.4 10.1,11.5 11.5,10.1 9.4,8 11.5,5.9 &#10;&#9;"/></g></symbol><symbol id="icon-alert" viewBox="0 0 16 16"><title>alert</title><g ><path d="M15.216,13.529L8.882,1.654c-0.376-0.706-1.388-0.706-1.765,0L0.784,13.529C0.429,14.195,0.912,15,1.667,15&#10;&#9;h12.667C15.088,15,15.571,14.195,15.216,13.529z M8,13c-0.552,0-1-0.448-1-1c0-0.552,0.448-1,1-1s1,0.448,1,1&#10;&#9;C9,12.552,8.552,13,8,13z M9,10H7V6h2V10z"/></g></symbol><symbol id="icon-chat-45" viewBox="0 0 16 16"><title>chat 45</title><g ><path d="M1,0h14c0.552,0,1,0.448,1,1v10c0,0.552-0.448,1-1,1h-5l-6,4v-4H1c-0.552,0-1-0.448-1-1V1&#10;&#9;C0,0.448,0.448,0,1,0z"/></g></symbol><symbol id="icon-round-e-info" viewBox="0 0 16 16"><title>round e info</title><g ><path d="M8,0C3.6,0,0,3.6,0,8s3.6,8,8,8s8-3.6,8-8S12.4,0,8,0z M8,14c-3.3,0-6-2.7-6-6s2.7-6,6-6s6,2.7,6,6&#10;&#9;S11.3,14,8,14z"/><rect data-color="color-2" x="7" y="7" fill="currentColor" width="2" height="5"/><circle data-color="color-2" fill="currentColor" cx="8" cy="5" r="1"/></g></symbol><symbol id="icon-circle-add" viewBox="0 0 24 24"><title>circle add</title><g ><path d="M12,0C5.4,0,0,5.4,0,12s5.4,12,12,12s12-5.4,12-12S18.6,0,12,0z M17,13h-4v4c0,0.6-0.4,1-1,1s-1-0.4-1-1v-4&#10;&#9;H7c-0.6,0-1-0.4-1-1s0.4-1,1-1h4V7c0-0.6,0.4-1,1-1s1,0.4,1,1v4h4c0.6,0,1,0.4,1,1S17.6,13,17,13z"/></g></symbol></svg>
