<svg xmlns="http://www.w3.org/2000/svg" width="30" height="30" viewBox="0 0 30 30">
  <path id="_01_IconGlobal" data-name="01_IconGlobal" d="M16.985,2A15,15,0,1,0,32,17,14.993,14.993,0,0,0,16.985,2ZM27.38,11H22.955a23.474,23.474,0,0,0-2.07-5.34A12.045,12.045,0,0,1,27.38,11ZM17,5.06A21.13,21.13,0,0,1,19.865,11h-5.73A21.13,21.13,0,0,1,17,5.06ZM5.39,20a11.733,11.733,0,0,1,0-6h5.07a24.773,24.773,0,0,0-.21,3,24.773,24.773,0,0,0,.21,3Zm1.23,3h4.425a23.473,23.473,0,0,0,2.07,5.34A11.98,11.98,0,0,1,6.62,23Zm4.425-12H6.62a11.98,11.98,0,0,1,6.495-5.34A23.474,23.474,0,0,0,11.045,11ZM17,28.94A21.13,21.13,0,0,1,14.135,23h5.73A21.13,21.13,0,0,1,17,28.94ZM20.51,20H13.49a22.069,22.069,0,0,1-.24-3,21.877,21.877,0,0,1,.24-3h7.02a21.878,21.878,0,0,1,.24,3A22.07,22.07,0,0,1,20.51,20Zm.375,8.34A23.474,23.474,0,0,0,22.955,23H27.38A12.044,12.044,0,0,1,20.885,28.34ZM23.54,20a24.772,24.772,0,0,0,.21-3,24.772,24.772,0,0,0-.21-3h5.07a11.733,11.733,0,0,1,0,6Z" transform="translate(-2 -2)" fill="#fff"/>
</svg>
