<svg xmlns="http://www.w3.org/2000/svg" style="display: none;">
    <symbol id="video" viewBox="0 0 24 24">
        <title>ondemand video</title>
        <g class="nc-icon-wrapper">
            <path d="M9 7v8l7-4-7-4zm12-4H3c-1.1 0-2 .9-2 2v12c0 1.1.9 2 2 2h5v2h8v-2h5c1.1 0 2-.9 2-2V5c0-1.1-.9-2-2-2zm0 14H3V5h18v12z" fill="currentColor" stroke="none"></path>
        </g>
    </symbol>
    <symbol id="content_copy" viewBox="0 0 24 24">
        <title>content copy</title>
        <g class="nc-icon-wrapper">
            <path d="M16 1H4c-1.1 0-2 .9-2 2v14h2V3h12V1zm3 4H8c-1.1 0-2 .9-2 2v14c0 1.1.9 2 2 2h11c1.1 0 2-.9 2-2V7c0-1.1-.9-2-2-2zm0 16H8V7h11v14z" fill="currentColor" stroke="none"></path>
        </g>
    </symbol>
    <symbol id="text_fields" viewBox="0 0 24 24">
        <title>text fields</title>
        <g class="nc-icon-wrapper">
            <path d="M2.5 4v3h5v12h3V7h5V4h-13zm19 5h-9v3h3v7h3v-7h3V9z" fill="currentColor" stroke="none"></path>
        </g>
    </symbol>
    <symbol id="insert_link" viewBox="0 0 24 24">
        <title>insert link</title>
        <g class="nc-icon-wrapper">
            <path d="M3.9 12c0-1.71 1.39-3.1 3.1-3.1h4V7H7c-2.76 0-5 2.24-5 5s2.24 5 5 5h4v-1.9H7c-1.71 0-3.1-1.39-3.1-3.1zM8 13h8v-2H8v2zm9-6h-4v1.9h4c1.71 0 3.1 1.39 3.1 3.1 0 1.71-1.39 3.1-3.1 3.1h-4V17h4c2.76 0 5-2.24 5-5s-2.24-5-5-5z" fill="currentColor" stroke="none"></path>
        </g>
    </symbol>
    <symbol id="small-down" viewBox="0 0 16 16">
        <title>small down</title>
        <g>
            <g class="icon-wrapper">
                <polygon fill="currentColor" points="8,11.4 2.6,6 4,4.6 8,8.6 12,4.6 13.4,6 "/>
            </g>
        </g>
    </symbol>
    <symbol id="small-left" viewBox="0 0 16 16">
        <title>small left</title>
        <g>
            <g class="icon-wrapper">
                <polygon fill="currentColor" points="10,13.4 4.6,8 10,2.6 11.4,4 7.4,8 11.4,12 "/>
            </g>
        </g>
    </symbol>
    <symbol id="small-right" viewBox="0 0 16 16">
        <title>small right</title>
        <g>
            <g class="icon-wrapper">
                <polygon fill="currentColor" points="6,13.4 4.6,12 8.6,8 4.6,4 6,2.6 11.4,8 "/>
            </g>
        </g>
    </symbol>
    <symbol id="small-up" viewBox="0 0 16 16">
        <title>small up</title>
        <g>
            <g class="icon-wrapper">
                <polygon fill="currentColor" points="12,11.4 8,7.4 4,11.4 2.6,10 8,4.6 13.4,10 "/>
            </g>
        </g>
    </symbol>
    <symbol id="circle-add" viewBox="0 0 16 16">
        <title>circle add</title>
        <g>
            <g class="icon-wrapper">
                <path fill="currentColor"
                      d="M8,0C3.6,0,0,3.6,0,8s3.6,8,8,8s8-3.6,8-8S12.4,0,8,0z M12,9H9v3H7V9H4V7h3V4h2v3h3V9z"/>
            </g>
        </g>
    </symbol>
    <symbol id="alert" viewBox="0 0 16 16">
        <title>alert</title>
        <g>
            <g class="icon-wrapper">
                <path fill="currentColor"
                      d="M15.216,13.529L8.882,1.654c-0.376-0.706-1.388-0.706-1.765,0L0.784,13.529C0.429,14.195,0.912,15,1.667,15 h12.667C15.088,15,15.571,14.195,15.216,13.529z M8,13c-0.552,0-1-0.448-1-1c0-0.552,0.448-1,1-1s1,0.448,1,1 C9,12.552,8.552,13,8,13z M9,10H7V6h2V10z"/>
            </g>
        </g>
    </symbol>
    <symbol id="flag" viewBox="0 0 16 16">
        <title>flag</title>
        <g>
            <g class="icon-wrapper">
                <path fill="currentColor" d="M15,1H3c0-0.6-0.4-1-1-1S1,0.4,1,1v14c0,0.6,0.4,1,1,1s1-0.4,1-1v-5h12V1z"/>
            </g>
        </g>
    </symbol>
    <symbol id="chat-46" viewBox="0 0 24 24">
        <title>chat 46</title>
        <g>
            <g class="icon-wrapper">
                <path fill="currentColor"
                      d="M20,6v8c0,0.552-0.448,1-1,1h-7.359L7,19h7l6,4v-4h3c0.552,0,1-0.448,1-1V7 c0-0.552-0.448-1-1-1H20z"/>
                <path fill="currentColor"
                      d="M17,0H1C0.448,0,0,0.448,0,1v11c0,0.552,0.448,1,1,1h3v5.469L11,13h6c0.552,0,1-0.448,1-1V1 C18,0.448,17.552,0,17,0z"/>
            </g>
        </g>
    </symbol>
    <symbol id="remove" viewBox="0 0 16 16">
        <title>remove</title>
        <g>
            <g class="icon-wrapper" fill="currentColor">
                <title>remove</title>
                <path fill="currentColor" stroke="none" stroke-width="1" fill-rule="evenodd"
                      d="M8 6.58578644L4.46446609 3.05025253 3.05025253 4.46446609 6.58578644 8 3.05025253 11.5355339 4.46446609 12.9497475 8 9.41421356 11.5355339 12.9497475 12.9497475 11.5355339 9.41421356 8 12.9497475 4.46446609 11.5355339 3.05025253z"/>
            </g>
        </g>
    </symbol>
    <symbol id="hit-down" viewBox="0 0 16 16">
        <title>hit down</title>
        <g>
            <g class="icon-wrapper">
                <path fill="currentColor"
                      d="M8,12c0.3,0,0.5-0.1,0.7-0.3L14.4,6L13,4.6l-4,4V0H7v8.6l-4-4L1.6,6l5.7,5.7C7.5,11.9,7.7,12,8,12z"/>
                <rect fill="currentColor" x="1" y="14" width="14" height="2"/>
            </g>
        </g>
    </symbol>
    <symbol id="small-add" viewBox="0 0 16 16">
        <title>small add</title>
        <g>
            <g class="icon-wrapper" fill="currentColor">
                <title>small-add</title>
                <path d="M9 3H7v4H3v2h4v4h2V9h4V7H9z" fill-rule="nonzero" fill="currentColor" stroke="none"
                      stroke-width="1"/>
            </g>
        </g>
    </symbol>
    <symbol id="collapse" viewBox="0 0 16 16">
        <title>collapse</title>
        <g>
            <g class="icon-wrapper" fill="currentColor">
                <title>collapse</title>
                <path d="M8.5 2L12 7H5l3.5-5zm0 12L5 9h7l-3.5 5z" fill-rule="nonzero" fill="currentColor" stroke="none"
                      stroke-width="1"/>
            </g>
        </g>
    </symbol>
    <symbol id="checkbox" viewBox="0 0 16 16">
        <title>checkbox</title>
        <g>
            <g class="icon-wrapper" fill="currentColor">
                <title>checkbox</title>
                <path d="M5 8V4H3v6h10V8H5z" transform="rotate(-45 8 7)" fill="currentColor" stroke="none"
                      stroke-width="1" fill-rule="evenodd"/>
            </g>
        </g>
    </symbol>
    <symbol id="pencil" viewBox="0 0 16 16">
        <title>pencil</title>
        <g>
            <g class="icon-wrapper" fill="currentColor">
                <title>pencil</title>
                <path d="M10.775 2.225c-.3-.3-.75-.3-1.05 0l-7.5 7.5A.68.68 0 0 0 2 10.25v3c0 .45.3.75.75.75h3a.68.68 0 0 0 .525-.225l7.5-7.5c.3-.3.3-.75 0-1.05l-3-3zM5.45 12.5H3.5v-1.95L8 6.05 9.95 8l-4.5 4.5zM11 6.95L9.05 5l1.2-1.2 1.95 1.95-1.2 1.2z"
                      fill-rule="nonzero" fill="currentColor" stroke="none" stroke-width="1"/>
            </g>
        </g>
    </symbol>
    <symbol id="check-circle-08" viewBox="0 0 16 16">
        <title>check circle 08</title>
        <g>
            <g class="icon-wrapper">
                <path fill="currentColor"
                      d="M8,0C3.6,0,0,3.6,0,8s3.6,8,8,8s8-3.6,8-8S12.4,0,8,0z M7,11.4L3.6,8L5,6.6l2,2l4-4L12.4,6L7,11.4z"/>
            </g>
        </g>
    </symbol>
    <symbol id="menu-left" viewBox="0 0 16 16">
        <title>menu left</title>
        <g>
            <g class="icon-wrapper">
                <path fill="currentColor"
                      d="M8,14H1c-0.552,0-1-0.448-1-1v0c0-0.552,0.448-1,1-1h7c0.552,0,1,0.448,1,1v0C9,13.552,8.552,14,8,14z"/>
                <path fill="currentColor"
                      d="M15,4H1C0.448,4,0,3.552,0,3v0c0-0.552,0.448-1,1-1h14c0.552,0,1,0.448,1,1v0C16,3.552,15.552,4,15,4z"/>
                <path fill="currentColor"
                      d="M15,9H1C0.448,9,0,8.552,0,8v0c0-0.552,0.448-1,1-1h14c0.552,0,1,0.448,1,1v0 C16,8.552,15.552,9,15,9z"/>
            </g>
        </g>
    </symbol>
    <symbol id="round-e-info" viewBox="0 0 16 16">
        <title>round e info</title>
        <g>
            <g class="icon-wrapper">
                <path fill="currentColor"
                      d="M8,0C3.6,0,0,3.6,0,8s3.6,8,8,8s8-3.6,8-8S12.4,0,8,0z M8,14c-3.3,0-6-2.7-6-6s2.7-6,6-6s6,2.7,6,6 S11.3,14,8,14z"/>
                <rect fill="currentColor" x="7" y="7" width="2" height="5"/>
                <circle fill="currentColor" cx="8" cy="5" r="1"/>
            </g>
        </g>
    </symbol>
    <symbol id="single-folded-content" viewBox="0 0 24 24">
        <title>single folded content</title>
        <g>
            <g class="icon-wrapper">
                <path fill="currentColor"
                      d="M15,0H2C1.448,0,1,0.448,1,1v22c0,0.552,0.448,1,1,1h20c0.552,0,1-0.448,1-1V8h-7c-0.552,0-1-0.448-1-1V0z M5,17h14v2H5V17z M5,12h14v2H5V12z M11,9H5V7h6V9z"/>
                <polygon fill="currentColor" points="22.414,6 17,6 17,0.586 "/>
            </g>
        </g>
    </symbol>
    <symbol id="small-print" viewBox="0 0 16 16">
        <title>small print</title>
        <g>
            <g class="icon-wrapper">
                <rect x="4" fill="currentColor" width="8" height="3"></rect>
                <path fill="currentColor"
                      d="M12,5H4C1.8,5,0,6.8,0,9v3c0,0.6,0.4,1,1,1h2v2c0,0.6,0.4,1,1,1h8c0.6,0,1-0.4,1-1v-2h2c0.6,0,1-0.4,1-1V9 C16,6.8,14.2,5,12,5z M11,14H5v-4h6V14z"></path>
            </g>
        </g>
    </symbol>
    <symbol id="hit-up" viewBox="0 0 16 16">
        <title>hit up</title>
        <g>
            <g class="icon-wrapper">
                <path fill="currentColor"
                      d="M7.3,4.3L1.6,10L3,11.4l4-4V16h2V7.4l4,4l1.4-1.4L8.7,4.3C8.3,3.9,7.7,3.9,7.3,4.3z"></path>
                <rect data-color="color-2" x="1" fill="currentColor" width="14" height="2"></rect>
            </g>
        </g>
    </symbol>
    <symbol id="trash-simple" viewBox="0 0 16 16">
        <title>trash simple</title>
        <g>
            <g class="icon-wrapper">
                <rect data-color="color-2" x="5" y="7" fill="currentColor" width="2" height="6"></rect>
                <rect data-color="color-2" x="9" y="7" fill="currentColor" width="2" height="6"></rect>
                <path fill="currentColor"
                      d="M12,1c0-0.6-0.4-1-1-1H5C4.4,0,4,0.4,4,1v2H0v2h1v10c0,0.6,0.4,1,1,1h12c0.6,0,1-0.4,1-1V5h1V3h-4V1z M6,2h4 v1H6V2z M13,5v9H3V5H13z"></path>
            </g>
        </g>
    </symbol>
    <symbol id="lock-circle-open" viewBox="0 0 16 16">
        <title>lock circle open</title>
        <g>
            <g class="icon-wrapper">
                <path fill="currentColor"
                      d="M8,2c0.6,0,1.1,0.2,1.5,0.7l0.7,0.7l1.5-1.3L11,1.3C10.2,0.5,9.1,0,8,0C5.8,0,4,1.8,4,4v1.5 C2.8,6.6,2,8.2,2,10c0,3.3,2.7,6,6,6s6-2.7,6-6s-2.7-6-6-6C7.3,4,6.6,4.1,6,4.4V4C6,2.9,6.9,2,8,2z M8,7c1.1,0,2,0.9,2,2 c0,0.7-0.4,1.4-1,1.7V13H7v-2.3c-0.6-0.3-1-1-1-1.7C6,7.9,6.9,7,8,7z"></path>
            </g>
        </g>
    </symbol>
    <symbol id="lock-circle" viewBox="0 0 16 16">
        <title>lock circle open</title>
        <g>
            <g class="icon-wrapper">
                <path fill="currentColor"
                      d="M8,0C5.8,0,4,1.8,4,4v1.5C2.8,6.6,2,8.2,2,10c0,3.3,2.7,6,6,6s6-2.7,6-6c0-1.8-0.8-3.4-2-4.5V4 C12,1.8,10.2,0,8,0z M9,10.7V13H7v-2.3c-0.6-0.3-1-1-1-1.7c0-1.1,0.9-2,2-2s2,0.9,2,2C10,9.7,9.6,10.4,9,10.7z M10,4.4 C9.4,4.1,8.7,4,8,4S6.6,4.1,6,4.4V4c0-1.1,0.9-2,2-2s2,0.9,2,2V4.4z"></path>
            </g>
        </g>
    </symbol>
    <symbol id="icon-table2" viewBox="0 0 16 16">
        <title>table2</title>
        <g>
            <g class="icon-wrapper">
                <path fill="currentColor"
                      d="M0 1v14h16v-14h-16zM6 10v-3h4v3h-4zM10 11v3h-4v-3h4zM10 3v3h-4v-3h4zM5 3v3h-4v-3h4zM1 7h4v3h-4v-3zM11 7h4v3h-4v-3zM11 6v-3h4v3h-4zM1 11h4v3h-4v-3zM11 14v-3h4v3h-4z"></path>
            </g>
        </g>
    </symbol>
    <symbol id="icon-bar-chart" viewBox="0 0 32 32">
        <title>bar-chart</title>
        <g>
            <g class="icon-wrapper">
                <path fill="currentColor"
                      d="M1.215 1.231h-1.215v29.538h32v-1.185l-30.764-0.062-0.021-28.292zM17.231 2.462c0-0.681-0.551-1.231-1.231-1.231h-3.692c-0.681 0-1.231 0.55-1.231 1.231v24.615h6.154v-24.615zM9.846 9.846c0-0.679-0.551-1.231-1.231-1.231h-3.692c-0.681 0-1.231 0.551-1.231 1.231v17.231h6.154v-17.231zM24.615 17.231c0-0.681-0.551-1.231-1.231-1.231h-3.692c-0.681 0-1.231 0.55-1.231 1.231v9.846h6.154v-9.846zM30.769 23.385h-3.692c-0.681 0-1.231 0.55-1.231 1.231v2.462h6.154v-2.462c0-0.681-0.551-1.231-1.231-1.231z"></path>
            </g>
        </g>
    </symbol>
    <symbol id="unfold" viewBox="0 0 24 24" width="24">
        <title>unfold</title>
        <g class="icon-wrapper">
            <path fill="currentColor"
                  clip-rule="evenodd"
                  d="m4 9c.28 0 .53-.11.71-.29l5.29-5.3 5.29 5.29c.18.19.43.3.71.3.55 0 1-.45 1-1 0-.28-.11-.53-.29-.71l-6-6c-.18-.18-.43-.29-.71-.29s-.53.11-.71.29l-6 6c-.18.18-.29.43-.29.71 0 .55.45 1 1 1zm12 2c-.28 0-.53.11-.71.29l-5.29 5.3-5.29-5.29c-.18-.19-.43-.3-.71-.3-.55 0-1 .45-1 1 0 .28.11.53.29.71l6 6c.18.18.43.29.71.29s.53-.11.71-.29l6-6c.18-.18.29-.43.29-.71 0-.55-.45-1-1-1z"
                  fill-rule="evenodd"/>
        </g>
    </symbol>
    <symbol id="icon-paper-plane" viewBox="0 0 20 20">
        <path d="M19.449 1.995c-0.374 0.132-18.826 6.634-19.19 6.763-0.309 0.109-0.377 0.375-0.011 0.521 0.436 0.175 4.126 1.653 4.126 1.653v0l2.445 0.979c0 0 11.78-8.649 11.938-8.767 0.161-0.117 0.346 0.103 0.229 0.229-0.116 0.127-8.555 9.253-8.555 9.253v0.002l-0.491 0.547 0.651 0.35c0 0 5.054 2.722 5.415 2.915 0.316 0.17 0.726 0.029 0.817-0.363 0.108-0.463 3.092-13.326 3.158-13.613 0.086-0.373-0.161-0.6-0.534-0.468zM6.798 17.785c0 0.267 0.151 0.342 0.36 0.153 0.273-0.249 3.098-2.783 3.098-2.783l-3.457-1.787v4.417z"></path>
    </symbol>
</svg>
