<svg xmlns="http://www.w3.org/2000/svg" width="194.791" height="68.627" viewBox="0 0 194.791 68.627">
  <g id="Trees_04" transform="translate(0 0)">
    <line id="Line_306" data-name="Line 306" x2="194.791" transform="translate(0 68.127)" fill="none" stroke="#707070" stroke-width="1"/>
    <g id="Group_10455" data-name="Group 10455" transform="translate(52.988 0)">
      <g id="Group_10413" data-name="Group 10413" transform="translate(35.348 0)">
        <path id="Path_15291" data-name="Path 15291" d="M189.707,458.764c2.353,1.459,12.315,1.8,12.315,1.8-5.395-1.686-11.721-8.056-11.721-8.056,2.419,2.061,11.721,1.686,11.721,1.686-4.651-1.5-13.395-10.122-13.395-10.122,2.6,1.307,9.116,0,9.116,0-4.093-.755-9.116-7.676-9.116-7.676,2.233,1.873,7.814.75,7.814.75-3.907-1.651-11.163-10.491-11.163-10.491,2.418,2.061,8.558,1.873,8.558,1.873-4.837-1.5-17.116-15.924-17.116-15.924s-12.278,14.425-17.115,15.924c0,0,6.139.187,8.557-1.873,0,0-7.255,8.84-11.162,10.491,0,0,5.581,1.124,7.814-.75,0,0-5.024,6.921-9.117,7.676,0,0,6.512,1.307,9.117,0,0,0-8.745,8.623-13.4,10.122,0,0,9.3.375,11.721-1.686,0,0-6.326,6.37-11.721,8.056,0,0,9.963-.336,12.316-1.8-1.783,1.408-10.353,8.037-14.177,8.539a10.3,10.3,0,0,0,9.488,0l6.326,2.436,5.209-3.185,5.395,3.185.744-.656.744.656,5.4-3.185,5.208,3.185,6.326-2.436a10.3,10.3,0,0,0,9.488,0C200.06,466.8,191.49,460.172,189.707,458.764Z" transform="translate(-149.559 -412.6)" fill="#bdba3e"/>
        <rect id="Rectangle_2923" data-name="Rectangle 2923" width="3.209" height="60.277" transform="translate(25.953 8.103)" fill="#bdba3e"/>
      </g>
      <g id="Group_10414" data-name="Group 10414" transform="translate(0 5.347)">
        <path id="Path_15292" data-name="Path 15292" d="M131.3,455.83a7.866,7.866,0,0,1,.262,1.017c.354,1.823.472,5.431-4.251,5.114-6.3-.423-6.089-6.131-6.089-6.131s-3.779,8.053-11.337,3.075c0,0-4.2-6.035,3.99-8.995,0,0-5.669,2.114-7.769-2.748s6.089-7.4,9.448-7.4c0,0-5.669-1.517-4.409-5.113s7.489-4.694,12.562-3.6c0,0-6.123-6.09,0-8.2,0,0,.035-4.017,6.963-3.594s6.088,4.017,6.088,4.017,2.939-.846,3.779,0l.839.845-1.47,2.115a5.434,5.434,0,0,1,6.089,1.691c2.939,3.13,1.049,5.708,0,5.708h1.049s4.829-1.691,6.3,3.806-5.459,4.862-5.459,4.862,9.028,2.326,7.558,6.554-5.249,4.017-8.608,2.96c0,0,6.509,4.44,1.05,7.4s-14.2-.661-16.441-2.974" transform="translate(-105.764 -419.224)" fill="#bdba3e"/>
        <rect id="Rectangle_2924" data-name="Rectangle 2924" width="4.829" height="27.484" transform="translate(22.804 35.549)" fill="#bdba3e"/>
      </g>
      <g id="Group_10415" data-name="Group 10415" transform="translate(27.449 37.69)">
        <ellipse id="Ellipse_346" data-name="Ellipse 346" cx="11.428" cy="9.801" rx="11.428" ry="9.801" transform="translate(3.882 2.955)" fill="#bdba3e"/>
        <ellipse id="Ellipse_347" data-name="Ellipse 347" cx="6.698" cy="5.745" rx="6.698" ry="5.745" transform="translate(0 9.911)" fill="#bdba3e"/>
        <ellipse id="Ellipse_348" data-name="Ellipse 348" cx="6.698" cy="5.745" rx="6.698" ry="5.745" transform="translate(17.388 9.911)" fill="#bdba3e"/>
        <ellipse id="Ellipse_349" data-name="Ellipse 349" cx="6.698" cy="5.745" rx="6.698" ry="5.745" transform="translate(8.311)" fill="#bdba3e"/>
        <rect id="Rectangle_2925" data-name="Rectangle 2925" width="2.734" height="9.36" transform="translate(14.053 21.125)" fill="#bdba3e"/>
      </g>
    </g>
  </g>
</svg>
