<svg xmlns="http://www.w3.org/2000/svg" width="194.791" height="69.076" viewBox="0 0 194.791 69.076">
  <g id="Trees_02" transform="translate(0 0)">
    <line id="Line_304" data-name="Line 304" x2="194.791" transform="translate(0 68.576)" fill="none" stroke="#707070" stroke-width="1"/>
    <g id="Group_10451" data-name="Group 10451" transform="translate(31.793 0)">
      <g id="Group_10394" data-name="Group 10394" transform="translate(83.081 16.335)">
        <path id="Path_15253" data-name="Path 15253" d="M248.878,225.227a6.41,6.41,0,0,1,.214.829c.289,1.486.385,4.425-3.463,4.166a4.894,4.894,0,0,1-4.96-4.995s-3.079,6.56-9.236,2.505c0,0-3.421-4.916,3.25-7.328,0,0-4.618,1.722-6.328-2.239s4.96-6.028,7.7-6.028c0,0-4.618-1.236-3.592-4.165s6.1-3.824,10.234-2.929c0,0-4.988-4.961,0-6.683,0,0,.028-3.273,5.673-2.928s4.96,3.273,4.96,3.273,2.395-.689,3.079,0l.684.689-1.2,1.722a4.425,4.425,0,0,1,4.96,1.378c2.395,2.55.855,4.65,0,4.65h.855s3.933-1.378,5.131,3.1-4.447,3.961-4.447,3.961,7.355,1.9,6.157,5.339-4.276,3.273-7.013,2.411c0,0,5.3,3.617.855,6.028s-11.566-.539-13.394-2.422" transform="translate(-228.078 -195.406)" fill="#34aabf"/>
        <rect id="Rectangle_2906" data-name="Rectangle 2906" width="3.934" height="22.389" transform="translate(18.577 28.96)" fill="#34aabf"/>
      </g>
      <g id="Group_10395" data-name="Group 10395" transform="translate(29.016 14.122)">
        <path id="Path_15254" data-name="Path 15254" d="M177.606,228.55c1.861,1.155,9.741,1.42,9.741,1.42-4.267-1.333-9.269-6.371-9.269-6.371,1.913,1.63,9.269,1.333,9.269,1.333-3.678-1.185-10.594-8-10.594-8,2.059,1.034,7.209,0,7.209,0-3.237-.6-7.209-6.07-7.209-6.07,1.765,1.481,6.18.592,6.18.592-3.09-1.305-8.828-8.3-8.828-8.3,1.913,1.63,6.768,1.481,6.768,1.481-3.826-1.185-13.536-12.594-13.536-12.594s-9.711,11.409-13.537,12.594c0,0,4.855.149,6.768-1.481,0,0-5.738,6.992-8.828,8.3,0,0,4.414.889,6.18-.592,0,0-3.972,5.474-7.209,6.07,0,0,5.15,1.034,7.209,0,0,0-6.915,6.82-10.594,8,0,0,7.356.3,9.269-1.333,0,0-5,5.038-9.269,6.371,0,0,7.88-.265,9.741-1.42-1.41,1.113-8.188,6.356-11.212,6.754a8.151,8.151,0,0,0,7.5,0l5,1.926,4.119-2.519,4.267,2.519.589-.519.589.519,4.267-2.519,4.119,2.519,5-1.926a8.151,8.151,0,0,0,7.5,0C185.794,234.907,179.017,229.663,177.606,228.55Z" transform="translate(-145.854 -192.04)" fill="#34aabf"/>
        <rect id="Rectangle_2907" data-name="Rectangle 2907" width="2.538" height="47.671" transform="translate(20.526 6.408)" fill="#34aabf"/>
      </g>
      <g id="Group_10396" data-name="Group 10396" transform="translate(51.994 12.657)">
        <path id="Path_15255" data-name="Path 15255" d="M201.485,189.812l-9.377,7.493h18.754Z" transform="translate(-184.672 -189.812)" fill="#34aabf"/>
        <path id="Path_15256" data-name="Path 15256" d="M199.882,200.676l-12.456,9.953h24.912Z" transform="translate(-183.069 -193.532)" fill="#34aabf"/>
        <path id="Path_15257" data-name="Path 15257" d="M198.345,215.376l-15.406,12.311h30.812Z" transform="translate(-181.532 -198.567)" fill="#34aabf"/>
        <path id="Path_15258" data-name="Path 15258" d="M197.612,231.327,180.8,244.762h33.626Z" transform="translate(-180.8 -204.029)" fill="#34aabf"/>
        <rect id="Rectangle_2908" data-name="Rectangle 2908" width="3.207" height="52.701" transform="translate(14.774 2.068)" fill="#34aabf"/>
      </g>
      <g id="Group_10397" data-name="Group 10397" transform="translate(60.717 0.172)">
        <path id="Path_15259" data-name="Path 15259" d="M220.052,170.824l-11.78,9.414h23.56Z" transform="translate(-198.93 -170.824)" fill="#34aabf"/>
        <path id="Path_15260" data-name="Path 15260" d="M218.037,184.472l-15.648,12.5h31.3Z" transform="translate(-196.916 -175.498)" fill="#34aabf"/>
        <path id="Path_15261" data-name="Path 15261" d="M216.107,202.94l-19.354,15.466h38.708Z" transform="translate(-194.986 -181.822)" fill="#34aabf"/>
        <path id="Path_15262" data-name="Path 15262" d="M215.186,222.978l-21.121,16.878h42.242Z" transform="translate(-194.065 -188.685)" fill="#34aabf"/>
        <rect id="Rectangle_2909" data-name="Rectangle 2909" width="4.029" height="66.206" transform="translate(18.559 2.598)" fill="#34aabf"/>
      </g>
      <g id="Group_10398" data-name="Group 10398" transform="translate(9.3)">
        <rect id="Rectangle_2910" data-name="Rectangle 2910" width="3.207" height="55.156" transform="translate(17.574 12.4)" fill="#34aabf"/>
        <path id="Path_15263" data-name="Path 15263" d="M141.286,198.684l-1.961.961-9.263-19.163,1.961-.961Z" transform="translate(-120.73 -173.63)" fill="#34aabf"/>
        <path id="Path_15264" data-name="Path 15264" d="M141.286,229.722l-1.961.961-9.263-19.164,1.961-.961Z" transform="translate(-120.73 -184.26)" fill="#34aabf"/>
        <path id="Path_15265" data-name="Path 15265" d="M143.718,212.238l1.961.961,9.263-19.163-1.961-.961Z" transform="translate(-125.407 -178.272)" fill="#34aabf"/>
        <path id="Path_15266" data-name="Path 15266" d="M151.839,207.533l-.77-1.342,10.665-6.2.77,1.342Z" transform="translate(-127.924 -180.641)" fill="#34aabf"/>
        <path id="Path_15267" data-name="Path 15267" d="M145.99,194.534l-1.088-1.1,8.708-8.768,1.088,1.1Z" transform="translate(-125.812 -175.394)" fill="#34aabf"/>
        <path id="Path_15268" data-name="Path 15268" d="M145.4,186.592l-1.409-.625,4.966-11.347,1.409.625Z" transform="translate(-125.501 -171.952)" fill="#34aabf"/>
        <path id="Path_15269" data-name="Path 15269" d="M139.056,187.872l-1.491-.387,3.073-12.008,1.491.387Z" transform="translate(-123.3 -172.246)" fill="#34aabf"/>
        <path id="Path_15270" data-name="Path 15270" d="M138.453,199.175h0a.768.768,0,0,1-1.009.411l-9.92-4.237a.777.777,0,0,1-.408-1.016h0a.768.768,0,0,1,1.009-.41l9.919,4.237A.777.777,0,0,1,138.453,199.175Z" transform="translate(-119.7 -178.541)" fill="#34aabf"/>
        <ellipse id="Ellipse_296" data-name="Ellipse 296" cx="3.463" cy="3.488" rx="3.463" ry="3.488" transform="translate(20.909 0.129)" fill="#34aabf"/>
        <ellipse id="Ellipse_297" data-name="Ellipse 297" cx="3.463" cy="3.488" rx="3.463" ry="3.488" transform="translate(24.628 6.716)" fill="#34aabf"/>
        <ellipse id="Ellipse_298" data-name="Ellipse 298" cx="3.463" cy="3.488" rx="3.463" ry="3.488" transform="translate(14.495)" fill="#34aabf"/>
        <ellipse id="Ellipse_299" data-name="Ellipse 299" cx="3.463" cy="3.488" rx="3.463" ry="3.488" transform="translate(6.67 3.488)" fill="#34aabf"/>
        <ellipse id="Ellipse_300" data-name="Ellipse 300" cx="3.463" cy="3.488" rx="3.463" ry="3.488" transform="translate(4.618 12.272)" fill="#34aabf"/>
        <ellipse id="Ellipse_301" data-name="Ellipse 301" cx="3.463" cy="3.488" rx="3.463" ry="3.488" transform="translate(30.016 16.922)" fill="#34aabf"/>
        <ellipse id="Ellipse_302" data-name="Ellipse 302" cx="3.463" cy="3.488" rx="3.463" ry="3.488" transform="translate(24.757 11.885)" fill="#34aabf"/>
        <ellipse id="Ellipse_303" data-name="Ellipse 303" cx="3.463" cy="3.488" rx="3.463" ry="3.488" transform="translate(7.056 23.122)" fill="#34aabf"/>
        <ellipse id="Ellipse_304" data-name="Ellipse 304" cx="6.35" cy="3.165" rx="6.35" ry="3.165" transform="translate(2.437 25.317)" fill="#34aabf"/>
        <ellipse id="Ellipse_305" data-name="Ellipse 305" cx="6.35" cy="3.165" rx="6.35" ry="3.165" transform="translate(0 14.079)" fill="#34aabf"/>
        <ellipse id="Ellipse_306" data-name="Ellipse 306" cx="6.35" cy="3.165" rx="6.35" ry="3.165" transform="translate(1.154 5.166)" fill="#34aabf"/>
        <ellipse id="Ellipse_307" data-name="Ellipse 307" cx="6.35" cy="3.165" rx="6.35" ry="3.165" transform="translate(11.673 0.904)" fill="#34aabf"/>
        <ellipse id="Ellipse_308" data-name="Ellipse 308" cx="6.35" cy="3.165" rx="6.35" ry="3.165" transform="translate(24.757 9.429)" fill="#34aabf"/>
        <ellipse id="Ellipse_309" data-name="Ellipse 309" cx="6.35" cy="3.165" rx="6.35" ry="3.165" transform="translate(28.99 19.504)" fill="#34aabf"/>
        <ellipse id="Ellipse_310" data-name="Ellipse 310" cx="6.35" cy="3.165" rx="6.35" ry="3.165" transform="translate(12.443 9.041)" fill="#34aabf"/>
      </g>
      <g id="Group_10399" data-name="Group 10399" transform="translate(20.586 14.847)">
        <path id="Path_15271" data-name="Path 15271" d="M150.866,200s5-7.1-1.924-6.846-3.079,9.171-3.079,9.171-4.874-2.971-6.671,2.325,2.053,5.942,2.053,5.942-4.875-1.162-5.9,1.808,1.411,6.588,2.694,7.234c0,0-4.875-2.2-5,4.263s4.746,5.683,4.746,5.683-3.207,5.554,2.309,7.234,5.131-.517,5.131-.517,3.72,3.746,7.44,1.938,1.8-6.846,1.8-6.846,1.925,2.713,3.849.9-.77-5.942-1.155-5.942c0,0,2.694,2.712,4.874-.9s-.256-6.588-1.154-6.588a5.4,5.4,0,0,0,3.72-6.846c-1.411-5.425-5.644-4.392-5.644-4.392l-.513.517s3.207-4.133-.769-7.621S150.866,200,150.866,200Z" transform="translate(-133.033 -193.143)" fill="#34aabf"/>
        <rect id="Rectangle_2911" data-name="Rectangle 2911" width="5.131" height="12.013" transform="translate(11.547 41.6)" fill="#34aabf"/>
      </g>
      <g id="Group_10400" data-name="Group 10400" transform="translate(39.253 32.83)">
        <ellipse id="Ellipse_311" data-name="Ellipse 311" cx="13.405" cy="11.496" rx="13.405" ry="11.496" transform="translate(4.554 3.466)" fill="#34aabf"/>
        <ellipse id="Ellipse_312" data-name="Ellipse 312" cx="7.857" cy="6.738" rx="7.857" ry="6.738" transform="translate(0 11.626)" fill="#34aabf"/>
        <ellipse id="Ellipse_313" data-name="Ellipse 313" cx="7.857" cy="6.738" rx="7.857" ry="6.738" transform="translate(20.395 11.626)" fill="#34aabf"/>
        <ellipse id="Ellipse_314" data-name="Ellipse 314" cx="7.857" cy="6.738" rx="7.857" ry="6.738" transform="translate(9.748)" fill="#34aabf"/>
        <rect id="Rectangle_2912" data-name="Rectangle 2912" width="3.207" height="10.979" transform="translate(16.483 24.779)" fill="#34aabf"/>
      </g>
      <g id="Group_10401" data-name="Group 10401" transform="translate(0 42.684)">
        <ellipse id="Ellipse_315" data-name="Ellipse 315" cx="9.31" cy="7.984" rx="9.31" ry="7.984" transform="translate(3.163 2.407)" fill="#34aabf"/>
        <ellipse id="Ellipse_316" data-name="Ellipse 316" cx="5.457" cy="4.68" rx="5.457" ry="4.68" transform="translate(0 8.074)" fill="#34aabf"/>
        <ellipse id="Ellipse_317" data-name="Ellipse 317" cx="5.457" cy="4.68" rx="5.457" ry="4.68" transform="translate(14.165 8.074)" fill="#34aabf"/>
        <ellipse id="Ellipse_318" data-name="Ellipse 318" cx="5.457" cy="4.68" rx="5.457" ry="4.68" transform="translate(6.77)" fill="#34aabf"/>
        <rect id="Rectangle_2913" data-name="Rectangle 2913" width="2.227" height="7.625" transform="translate(11.448 17.209)" fill="#34aabf"/>
      </g>
      <g id="Group_10402" data-name="Group 10402" transform="translate(105.442 42.684)">
        <ellipse id="Ellipse_319" data-name="Ellipse 319" cx="9.31" cy="7.984" rx="9.31" ry="7.984" transform="translate(3.163 2.407)" fill="#34aabf"/>
        <ellipse id="Ellipse_320" data-name="Ellipse 320" cx="5.457" cy="4.68" rx="5.457" ry="4.68" transform="translate(0 8.074)" fill="#34aabf"/>
        <ellipse id="Ellipse_321" data-name="Ellipse 321" cx="5.457" cy="4.68" rx="5.457" ry="4.68" transform="translate(14.165 8.074)" fill="#34aabf"/>
        <ellipse id="Ellipse_322" data-name="Ellipse 322" cx="5.457" cy="4.68" rx="5.457" ry="4.68" transform="translate(6.77)" fill="#34aabf"/>
        <rect id="Rectangle_2914" data-name="Rectangle 2914" width="2.227" height="7.625" transform="translate(11.448 17.209)" fill="#34aabf"/>
      </g>
      <g id="Group_10403" data-name="Group 10403" transform="translate(77.82 42.684)">
        <ellipse id="Ellipse_323" data-name="Ellipse 323" cx="9.31" cy="7.984" rx="9.31" ry="7.984" transform="translate(3.163 2.407)" fill="#34aabf"/>
        <ellipse id="Ellipse_324" data-name="Ellipse 324" cx="5.457" cy="4.68" rx="5.457" ry="4.68" transform="translate(0 8.074)" fill="#34aabf"/>
        <ellipse id="Ellipse_325" data-name="Ellipse 325" cx="5.457" cy="4.68" rx="5.457" ry="4.68" transform="translate(14.165 8.074)" fill="#34aabf"/>
        <ellipse id="Ellipse_326" data-name="Ellipse 326" cx="5.457" cy="4.68" rx="5.457" ry="4.68" transform="translate(6.77)" fill="#34aabf"/>
        <rect id="Rectangle_2915" data-name="Rectangle 2915" width="2.227" height="7.625" transform="translate(11.448 17.209)" fill="#34aabf"/>
      </g>
    </g>
  </g>
</svg>
