<svg id="Trees_01" xmlns="http://www.w3.org/2000/svg" width="194.82" height="69.395" viewBox="0 0 194.82 69.395">
  <line id="Line_303" data-name="Line 303" x2="194.791" transform="translate(0 68.576)" fill="none" stroke="#707070" stroke-width="1"/>
  <g id="Group_10449" data-name="Group 10449" transform="translate(0.505 0)">
    <g id="Group_10438" data-name="Group 10438" transform="translate(0 0)">
      <g id="Group_10421" data-name="Group 10421" transform="translate(68.565 16.528)">
        <path id="Path_15338" data-name="Path 15338" d="M226.807,113.582a6.577,6.577,0,0,1,.217.839c.292,1.5.389,4.476-3.5,4.214a4.952,4.952,0,0,1-5.018-5.053s-3.115,6.638-9.344,2.535c0,0-3.461-4.975,3.288-7.414,0,0-4.672,1.743-6.4-2.265s5.018-6.1,7.787-6.1c0,0-4.672-1.251-3.634-4.214s6.172-3.869,10.354-2.964c0,0-5.047-5.019,0-6.762,0,0,.029-3.311,5.739-2.962s5.018,3.31,5.018,3.31,2.423-.7,3.115,0l.693.7L233.9,89.187a4.478,4.478,0,0,1,5.018,1.394c2.423,2.58.865,4.7,0,4.7h.865s3.98-1.394,5.191,3.137-4.5,4.008-4.5,4.008,7.441,1.917,6.23,5.4-4.326,3.31-7.094,2.44c0,0,5.364,3.659.865,6.1s-11.7-.544-13.551-2.45" transform="translate(-205.762 -83.411)" fill="#1d5522"/>
        <rect id="Rectangle_2926" data-name="Rectangle 2926" width="3.98" height="22.653" transform="translate(18.796 29.3)" fill="#1d5522"/>
      </g>
      <g id="Group_10422" data-name="Group 10422" transform="translate(0 33.158)">
        <path id="Path_15339" data-name="Path 15339" d="M117.046,128.979a4.4,4.4,0,0,1,.147.572c.2,1.025.265,3.052-2.389,2.873a3.376,3.376,0,0,1-3.421-3.445s-2.124,4.526-6.371,1.728c0,0-2.36-3.392,2.241-5.055,0,0-3.185,1.188-4.365-1.544s3.421-4.158,5.309-4.158c0,0-3.185-.853-2.477-2.874s4.208-2.638,7.059-2.02c0,0-3.441-3.422,0-4.61,0,0,.019-2.257,3.913-2.02s3.421,2.257,3.421,2.257,1.652-.475,2.124,0l.472.476-.826,1.188a3.052,3.052,0,0,1,3.421.95c1.652,1.759.59,3.208,0,3.208h.59a2.681,2.681,0,0,1,3.539,2.138c.826,3.089-3.067,2.732-3.067,2.732s5.073,1.307,4.247,3.683-2.95,2.257-4.837,1.663c0,0,3.657,2.5.59,4.159s-7.979-.371-9.239-1.671" transform="translate(-102.698 -108.409)" fill="#1d5522"/>
        <rect id="Rectangle_2927" data-name="Rectangle 2927" width="2.714" height="15.444" transform="translate(12.814 19.977)" fill="#1d5522"/>
      </g>
      <g id="Group_10423" data-name="Group 10423" transform="translate(37.827 4.879)">
        <path id="Path_15340" data-name="Path 15340" d="M196.9,108.84c2.189,1.358,11.456,1.669,11.456,1.669-5.019-1.568-10.9-7.493-10.9-7.493,2.25,1.917,10.9,1.569,10.9,1.569-4.326-1.394-12.46-9.415-12.46-9.415,2.423,1.215,8.479,0,8.479,0-3.807-.7-8.479-7.139-8.479-7.139,2.077,1.742,7.268.7,7.268.7-3.634-1.535-10.383-9.758-10.383-9.758,2.25,1.917,7.961,1.743,7.961,1.743-4.5-1.394-15.92-14.811-15.92-14.811S173.4,79.318,168.9,80.712c0,0,5.711.174,7.96-1.743,0,0-6.748,8.223-10.383,9.758,0,0,5.192,1.046,7.268-.7,0,0-4.672,6.438-8.479,7.139,0,0,6.056,1.215,8.479,0,0,0-8.133,8.02-12.459,9.415,0,0,8.652.349,10.9-1.569,0,0-5.884,5.925-10.9,7.493,0,0,9.267-.311,11.456-1.669-1.659,1.309-9.63,7.476-13.186,7.943a9.583,9.583,0,0,0,8.825,0l5.883,2.265,4.846-2.962,5.018,2.962.692-.61.693.61,5.018-2.962,4.845,2.962,5.884-2.265a9.584,9.584,0,0,0,8.825,0C206.53,116.316,198.56,110.149,196.9,108.84Z" transform="translate(-159.558 -65.901)" fill="#1d5522"/>
        <rect id="Rectangle_2928" data-name="Rectangle 2928" width="2.985" height="56.066" transform="translate(24.14 7.536)" fill="#1d5522"/>
      </g>
      <g id="Group_10424" data-name="Group 10424" transform="translate(5.152 9.584)">
        <path id="Path_15341" data-name="Path 15341" d="M145.023,112.736c2.026,1.257,10.608,1.545,10.608,1.545-4.648-1.452-10.1-6.939-10.1-6.939,2.083,1.776,10.1,1.452,10.1,1.452-4.006-1.291-11.538-8.718-11.538-8.718,2.243,1.125,7.852,0,7.852,0-3.525-.65-7.852-6.611-7.852-6.611,1.923,1.613,6.73.645,6.73.645-3.366-1.422-9.615-9.036-9.615-9.036,2.084,1.775,7.371,1.614,7.371,1.614-4.166-1.291-14.742-13.716-14.742-13.716S123.262,85.4,119.1,86.689c0,0,5.288.161,7.371-1.614,0,0-6.25,7.614-9.614,9.036,0,0,4.807.968,6.73-.645,0,0-4.326,5.961-7.851,6.611,0,0,5.608,1.125,7.851,0,0,0-7.531,7.427-11.537,8.718,0,0,8.012.323,10.1-1.452,0,0-5.449,5.486-10.1,6.939,0,0,8.582-.289,10.608-1.546-1.536,1.213-8.918,6.923-12.211,7.355a8.873,8.873,0,0,0,8.172,0l5.449,2.1,4.487-2.743,4.647,2.743.641-.565.641.565,4.647-2.743,4.487,2.743,5.449-2.1a8.873,8.873,0,0,0,8.172,0C153.94,119.658,146.559,113.948,145.023,112.736Z" transform="translate(-110.442 -72.973)" fill="#1d5522"/>
        <rect id="Rectangle_2929" data-name="Rectangle 2929" width="2.764" height="51.918" transform="translate(22.354 6.979)" fill="#1d5522"/>
      </g>
      <g id="Group_10425" data-name="Group 10425" transform="translate(15.82 12.121)">
        <path id="Path_15342" data-name="Path 15342" d="M159.569,114.837c1.939,1.2,10.151,1.479,10.151,1.479-4.447-1.39-9.66-6.639-9.66-6.639,1.994,1.7,9.66,1.39,9.66,1.39-3.833-1.235-11.04-8.342-11.04-8.342,2.147,1.076,7.514,0,7.514,0-3.374-.622-7.514-6.327-7.514-6.327,1.84,1.544,6.44.617,6.44.617-3.221-1.36-9.2-8.646-9.2-8.646,1.993,1.7,7.054,1.544,7.054,1.544-3.987-1.235-14.108-13.125-14.108-13.125s-10.12,11.89-14.107,13.125c0,0,5.06.154,7.054-1.544,0,0-5.981,7.286-9.2,8.646,0,0,4.6.927,6.44-.617,0,0-4.141,5.7-7.514,6.327,0,0,5.367,1.076,7.514,0,0,0-7.207,7.107-11.041,8.342,0,0,7.667.309,9.66-1.39,0,0-5.213,5.25-9.66,6.639,0,0,8.212-.276,10.151-1.479-1.47,1.16-8.533,6.624-11.685,7.038a8.493,8.493,0,0,0,7.82,0l5.214,2.007,4.294-2.624,4.447,2.624.613-.54.613.54,4.447-2.624,4.293,2.624,5.214-2.007a8.492,8.492,0,0,0,7.82,0C168.1,121.461,161.039,116,159.569,114.837Z" transform="translate(-126.478 -76.787)" fill="#1d5522"/>
        <rect id="Rectangle_2930" data-name="Rectangle 2930" width="2.645" height="49.681" transform="translate(21.391 6.678)" fill="#1d5522"/>
      </g>
      <g id="Group_10426" data-name="Group 10426" transform="translate(118.902 14.288)">
        <path id="Path_15343" data-name="Path 15343" d="M313.552,116.985c1.883,1.168,9.855,1.436,9.855,1.436-4.318-1.349-9.379-6.446-9.379-6.446,1.935,1.649,9.379,1.349,9.379,1.349-3.722-1.2-10.719-8.1-10.719-8.1,2.084,1.045,7.295,0,7.295,0-3.275-.6-7.295-6.142-7.295-6.142,1.787,1.5,6.253.6,6.253.6-3.127-1.321-8.932-8.394-8.932-8.394,1.935,1.649,6.848,1.5,6.848,1.5-3.871-1.2-13.7-12.742-13.7-12.742s-9.825,11.542-13.7,12.742c0,0,4.912.15,6.848-1.5,0,0-5.806,7.073-8.932,8.394,0,0,4.466.9,6.252-.6,0,0-4.02,5.538-7.295,6.142,0,0,5.21,1.045,7.295,0,0,0-7,6.9-10.718,8.1,0,0,7.443.3,9.378-1.349,0,0-5.061,5.1-9.378,6.446,0,0,7.973-.268,9.855-1.436-1.427,1.126-8.284,6.431-11.343,6.833a8.243,8.243,0,0,0,7.592,0l5.061,1.949,4.169-2.549,4.317,2.549.6-.525.6.525,4.318-2.549,4.168,2.549,5.061-1.949a8.243,8.243,0,0,0,7.592,0C321.837,123.415,314.979,118.111,313.552,116.985Z" transform="translate(-281.427 -80.045)" fill="#1d5522"/>
        <rect id="Rectangle_2931" data-name="Rectangle 2931" width="2.568" height="48.232" transform="translate(20.767 6.483)" fill="#1d5522"/>
      </g>
      <g id="Group_10427" data-name="Group 10427" transform="translate(142.15 12.806)">
        <path id="Path_15344" data-name="Path 15344" d="M337.168,77.816,327.681,85.4h18.975Z" transform="translate(-320.158 -77.816)" fill="#1d5522"/>
        <path id="Path_15345" data-name="Path 15345" d="M335.6,88.68,323,98.751h25.2Z" transform="translate(-318.59 -81.453)" fill="#1d5522"/>
        <path id="Path_15346" data-name="Path 15346" d="M334.1,103.381l-15.587,12.456h31.175Z" transform="translate(-317.088 -86.373)" fill="#1d5522"/>
        <path id="Path_15347" data-name="Path 15347" d="M333.383,119.332l-17.011,13.593h34.021Z" transform="translate(-316.372 -91.713)" fill="#1d5522"/>
        <rect id="Rectangle_2932" data-name="Rectangle 2932" width="3.245" height="53.321" transform="translate(14.947 2.093)" fill="#1d5522"/>
      </g>
      <g id="Group_10428" data-name="Group 10428" transform="translate(22.49 2.089)">
        <path id="Path_15348" data-name="Path 15348" d="M157.3,61.708l-9.487,7.581h18.975Z" transform="translate(-140.29 -61.708)" fill="#1d5522"/>
        <path id="Path_15349" data-name="Path 15349" d="M155.733,72.572l-12.6,10.07h25.2Z" transform="translate(-138.722 -65.344)" fill="#1d5522"/>
        <path id="Path_15350" data-name="Path 15350" d="M154.231,87.272,138.644,99.728h31.175Z" transform="translate(-137.22 -70.265)" fill="#1d5522"/>
        <path id="Path_15351" data-name="Path 15351" d="M153.515,103.223,136.5,116.816h34.021Z" transform="translate(-136.504 -75.604)" fill="#1d5522"/>
        <rect id="Rectangle_2933" data-name="Rectangle 2933" width="3.245" height="53.321" transform="translate(14.947 2.093)" fill="#1d5522"/>
      </g>
      <g id="Group_10429" data-name="Group 10429" transform="translate(150.975 34.87)">
        <path id="Path_15352" data-name="Path 15352" d="M351.008,110.983l-21.37,17.076h42.739Z" transform="translate(-329.638 -110.983)" fill="#1d5522"/>
      </g>
      <g id="Group_10430" data-name="Group 10430" transform="translate(29.758 13.328)">
        <path id="Path_15353" data-name="Path 15353" d="M168.225,78.6l-9.487,7.581h18.975Z" transform="translate(-151.214 -78.602)" fill="#1d5522"/>
        <path id="Path_15354" data-name="Path 15354" d="M166.658,89.466l-12.6,10.07h25.2Z" transform="translate(-149.647 -82.238)" fill="#1d5522"/>
        <path id="Path_15355" data-name="Path 15355" d="M165.156,104.166l-15.587,12.456h31.175Z" transform="translate(-148.145 -87.159)" fill="#1d5522"/>
        <path id="Path_15356" data-name="Path 15356" d="M164.44,120.118l-17.011,13.593H181.45Z" transform="translate(-147.429 -92.499)" fill="#1d5522"/>
        <rect id="Rectangle_2934" data-name="Rectangle 2934" width="3.245" height="53.321" transform="translate(14.947 2.093)" fill="#1d5522"/>
      </g>
      <g id="Group_10431" data-name="Group 10431" transform="translate(98.955)">
        <rect id="Rectangle_2935" data-name="Rectangle 2935" width="3.245" height="55.804" transform="translate(17.78 12.546)" fill="#1d5522"/>
        <path id="Path_15357" data-name="Path 15357" d="M276.991,86.914l-1.984.972L265.635,68.5l1.984-.972Z" transform="translate(-256.193 -61.566)" fill="#1d5522"/>
        <path id="Path_15358" data-name="Path 15358" d="M276.991,117.952l-1.984.972-9.372-19.389,1.984-.972Z" transform="translate(-256.193 -71.955)" fill="#1d5522"/>
        <path id="Path_15359" data-name="Path 15359" d="M279.291,100.468l1.984.972,9.372-19.389-1.984-.972Z" transform="translate(-260.764 -66.103)" fill="#1d5522"/>
        <path id="Path_15360" data-name="Path 15360" d="M287.421,95.626l-.779-1.358L297.432,88l.779,1.358Z" transform="translate(-263.225 -68.418)" fill="#1d5522"/>
        <path id="Path_15361" data-name="Path 15361" d="M281.576,82.655l-1.1-1.109,8.81-8.871,1.1,1.109Z" transform="translate(-261.16 -63.29)" fill="#1d5522"/>
        <path id="Path_15362" data-name="Path 15362" d="M280.99,74.738l-1.425-.632,5.024-11.481,1.425.632Z" transform="translate(-260.856 -59.925)" fill="#1d5522"/>
        <path id="Path_15363" data-name="Path 15363" d="M274.646,76.023l-1.508-.391,3.109-12.149,1.508.391Z" transform="translate(-258.705 -60.212)" fill="#1d5522"/>
        <path id="Path_15364" data-name="Path 15364" d="M274.16,87.242h0a.777.777,0,0,1-1.021.416L263.1,83.37a.785.785,0,0,1-.412-1.028h0a.776.776,0,0,1,1.021-.416l10.036,4.288A.786.786,0,0,1,274.16,87.242Z" transform="translate(-255.187 -66.366)" fill="#1d5522"/>
        <ellipse id="Ellipse_350" data-name="Ellipse 350" cx="3.504" cy="3.529" rx="3.504" ry="3.529" transform="translate(21.155 0.13)" fill="#1d5522"/>
        <ellipse id="Ellipse_351" data-name="Ellipse 351" cx="3.504" cy="3.529" rx="3.504" ry="3.529" transform="translate(24.918 6.795)" fill="#1d5522"/>
        <ellipse id="Ellipse_352" data-name="Ellipse 352" cx="3.504" cy="3.529" rx="3.504" ry="3.529" transform="translate(14.666)" fill="#1d5522"/>
        <ellipse id="Ellipse_353" data-name="Ellipse 353" cx="3.504" cy="3.529" rx="3.504" ry="3.529" transform="translate(6.748 3.529)" fill="#1d5522"/>
        <ellipse id="Ellipse_354" data-name="Ellipse 354" cx="3.504" cy="3.529" rx="3.504" ry="3.529" transform="translate(4.672 12.416)" fill="#1d5522"/>
        <ellipse id="Ellipse_355" data-name="Ellipse 355" cx="3.504" cy="3.529" rx="3.504" ry="3.529" transform="translate(30.369 17.121)" fill="#1d5522"/>
        <ellipse id="Ellipse_356" data-name="Ellipse 356" cx="3.504" cy="3.529" rx="3.504" ry="3.529" transform="translate(25.049 12.024)" fill="#1d5522"/>
        <ellipse id="Ellipse_357" data-name="Ellipse 357" cx="3.504" cy="3.529" rx="3.504" ry="3.529" transform="translate(7.139 23.394)" fill="#1d5522"/>
        <ellipse id="Ellipse_358" data-name="Ellipse 358" cx="6.424" cy="3.202" rx="6.424" ry="3.202" transform="translate(2.466 25.615)" fill="#1d5522"/>
        <ellipse id="Ellipse_359" data-name="Ellipse 359" cx="6.424" cy="3.202" rx="6.424" ry="3.202" transform="translate(0 14.245)" fill="#1d5522"/>
        <ellipse id="Ellipse_360" data-name="Ellipse 360" cx="6.424" cy="3.202" rx="6.424" ry="3.202" transform="translate(1.168 5.227)" fill="#1d5522"/>
        <ellipse id="Ellipse_361" data-name="Ellipse 361" cx="6.424" cy="3.202" rx="6.424" ry="3.202" transform="translate(11.81 0.914)" fill="#1d5522"/>
        <ellipse id="Ellipse_362" data-name="Ellipse 362" cx="6.424" cy="3.202" rx="6.424" ry="3.202" transform="translate(25.048 9.54)" fill="#1d5522"/>
        <ellipse id="Ellipse_363" data-name="Ellipse 363" cx="6.424" cy="3.202" rx="6.424" ry="3.202" transform="translate(29.331 19.734)" fill="#1d5522"/>
        <ellipse id="Ellipse_364" data-name="Ellipse 364" cx="6.424" cy="3.202" rx="6.424" ry="3.202" transform="translate(12.589 9.148)" fill="#1d5522"/>
      </g>
      <g id="Group_10432" data-name="Group 10432" transform="translate(60.366)">
        <rect id="Rectangle_2936" data-name="Rectangle 2936" width="3.245" height="55.804" transform="translate(17.78 12.546)" fill="#1d5522"/>
        <path id="Path_15365" data-name="Path 15365" d="M218.986,86.914,217,87.886,207.63,68.5l1.984-.972Z" transform="translate(-198.188 -61.566)" fill="#1d5522"/>
        <path id="Path_15366" data-name="Path 15366" d="M218.986,117.952l-1.984.972L207.63,99.536l1.984-.972Z" transform="translate(-198.188 -71.955)" fill="#1d5522"/>
        <path id="Path_15367" data-name="Path 15367" d="M221.286,100.468l1.984.972,9.372-19.389-1.984-.972Z" transform="translate(-202.759 -66.103)" fill="#1d5522"/>
        <path id="Path_15368" data-name="Path 15368" d="M229.415,95.626l-.779-1.358L239.427,88l.779,1.358Z" transform="translate(-205.22 -68.418)" fill="#1d5522"/>
        <path id="Path_15369" data-name="Path 15369" d="M223.57,82.655l-1.1-1.109,8.81-8.871,1.1,1.109Z" transform="translate(-203.155 -63.29)" fill="#1d5522"/>
        <path id="Path_15370" data-name="Path 15370" d="M222.985,74.738l-1.425-.632,5.024-11.481,1.425.632Z" transform="translate(-202.851 -59.925)" fill="#1d5522"/>
        <path id="Path_15371" data-name="Path 15371" d="M216.641,76.023l-1.508-.391,3.109-12.149,1.508.391Z" transform="translate(-200.7 -60.212)" fill="#1d5522"/>
        <path id="Path_15372" data-name="Path 15372" d="M216.155,87.242h0a.777.777,0,0,1-1.021.416L205.1,83.37a.786.786,0,0,1-.412-1.028h0a.776.776,0,0,1,1.021-.416l10.036,4.288A.786.786,0,0,1,216.155,87.242Z" transform="translate(-197.181 -66.366)" fill="#1d5522"/>
        <ellipse id="Ellipse_365" data-name="Ellipse 365" cx="3.504" cy="3.529" rx="3.504" ry="3.529" transform="translate(21.155 0.13)" fill="#1d5522"/>
        <ellipse id="Ellipse_366" data-name="Ellipse 366" cx="3.504" cy="3.529" rx="3.504" ry="3.529" transform="translate(24.918 6.795)" fill="#1d5522"/>
        <ellipse id="Ellipse_367" data-name="Ellipse 367" cx="3.504" cy="3.529" rx="3.504" ry="3.529" transform="translate(14.665)" fill="#1d5522"/>
        <ellipse id="Ellipse_368" data-name="Ellipse 368" cx="3.504" cy="3.529" rx="3.504" ry="3.529" transform="translate(6.748 3.529)" fill="#1d5522"/>
        <ellipse id="Ellipse_369" data-name="Ellipse 369" cx="3.504" cy="3.529" rx="3.504" ry="3.529" transform="translate(4.672 12.416)" fill="#1d5522"/>
        <ellipse id="Ellipse_370" data-name="Ellipse 370" cx="3.504" cy="3.529" rx="3.504" ry="3.529" transform="translate(30.369 17.121)" fill="#1d5522"/>
        <ellipse id="Ellipse_371" data-name="Ellipse 371" cx="3.504" cy="3.529" rx="3.504" ry="3.529" transform="translate(25.049 12.024)" fill="#1d5522"/>
        <ellipse id="Ellipse_372" data-name="Ellipse 372" cx="3.504" cy="3.529" rx="3.504" ry="3.529" transform="translate(7.139 23.394)" fill="#1d5522"/>
        <ellipse id="Ellipse_373" data-name="Ellipse 373" cx="6.424" cy="3.202" rx="6.424" ry="3.202" transform="translate(2.466 25.615)" fill="#1d5522"/>
        <ellipse id="Ellipse_374" data-name="Ellipse 374" cx="6.424" cy="3.202" rx="6.424" ry="3.202" transform="translate(0 14.245)" fill="#1d5522"/>
        <ellipse id="Ellipse_375" data-name="Ellipse 375" cx="6.424" cy="3.202" rx="6.424" ry="3.202" transform="translate(1.168 5.227)" fill="#1d5522"/>
        <ellipse id="Ellipse_376" data-name="Ellipse 376" cx="6.424" cy="3.202" rx="6.424" ry="3.202" transform="translate(11.81 0.914)" fill="#1d5522"/>
        <ellipse id="Ellipse_377" data-name="Ellipse 377" cx="6.424" cy="3.202" rx="6.424" ry="3.202" transform="translate(25.048 9.54)" fill="#1d5522"/>
        <ellipse id="Ellipse_378" data-name="Ellipse 378" cx="6.424" cy="3.202" rx="6.424" ry="3.202" transform="translate(29.331 19.734)" fill="#1d5522"/>
        <ellipse id="Ellipse_379" data-name="Ellipse 379" cx="6.424" cy="3.202" rx="6.424" ry="3.202" transform="translate(12.589 9.148)" fill="#1d5522"/>
      </g>
      <g id="Group_10433" data-name="Group 10433" transform="translate(110.373 15.022)">
        <path id="Path_15373" data-name="Path 15373" d="M286.649,88.081s5.061-7.188-1.947-6.927-3.115,9.279-3.115,9.279-4.932-3.006-6.748,2.352,2.076,6.011,2.076,6.011-4.932-1.176-5.969,1.829,1.427,6.665,2.725,7.319c0,0-4.932-2.221-5.061,4.313s4.8,5.751,4.8,5.751-3.245,5.62,2.336,7.319,5.191-.523,5.191-.523,3.763,3.79,7.527,1.961,1.817-6.927,1.817-6.927,1.947,2.744,3.894.915-.779-6.011-1.168-6.011c0,0,2.726,2.744,4.932-.915s-.259-6.665-1.168-6.665a5.468,5.468,0,0,0,3.764-6.927c-1.428-5.489-5.711-4.443-5.711-4.443l-.519.523s3.245-4.183-.779-7.711S286.649,88.081,286.649,88.081Z" transform="translate(-268.606 -81.148)" fill="#1d5522"/>
        <rect id="Rectangle_2937" data-name="Rectangle 2937" width="5.191" height="12.154" transform="translate(11.683 42.089)" fill="#1d5522"/>
      </g>
      <g id="Group_10434" data-name="Group 10434" transform="translate(129.259 33.216)">
        <ellipse id="Ellipse_380" data-name="Ellipse 380" cx="13.562" cy="11.631" rx="13.562" ry="11.631" transform="translate(4.607 3.507)" fill="#1d5522"/>
        <ellipse id="Ellipse_381" data-name="Ellipse 381" cx="7.949" cy="6.817" rx="7.949" ry="6.817" transform="translate(0 11.762)" fill="#1d5522"/>
        <ellipse id="Ellipse_382" data-name="Ellipse 382" cx="7.949" cy="6.817" rx="7.949" ry="6.817" transform="translate(20.635 11.762)" fill="#1d5522"/>
        <ellipse id="Ellipse_383" data-name="Ellipse 383" cx="7.949" cy="6.817" rx="7.949" ry="6.817" transform="translate(9.863)" fill="#1d5522"/>
        <rect id="Rectangle_2938" data-name="Rectangle 2938" width="3.245" height="11.109" transform="translate(16.677 25.07)" fill="#1d5522"/>
      </g>
      <g id="Group_10435" data-name="Group 10435" transform="translate(89.545 43.186)">
        <ellipse id="Ellipse_384" data-name="Ellipse 384" cx="9.419" cy="8.078" rx="9.419" ry="8.078" transform="translate(3.2 2.435)" fill="#1d5522"/>
        <ellipse id="Ellipse_385" data-name="Ellipse 385" cx="5.521" cy="4.735" rx="5.521" ry="4.735" transform="translate(0 8.169)" fill="#1d5522"/>
        <ellipse id="Ellipse_386" data-name="Ellipse 386" cx="5.521" cy="4.735" rx="5.521" ry="4.735" transform="translate(14.331 8.169)" fill="#1d5522"/>
        <ellipse id="Ellipse_387" data-name="Ellipse 387" cx="5.521" cy="4.735" rx="5.521" ry="4.735" transform="translate(6.85)" fill="#1d5522"/>
        <rect id="Rectangle_2939" data-name="Rectangle 2939" width="2.253" height="7.715" transform="translate(11.583 17.412)" fill="#1d5522"/>
      </g>
      <g id="Group_10436" data-name="Group 10436" transform="translate(168.28 43.186)">
        <ellipse id="Ellipse_388" data-name="Ellipse 388" cx="9.419" cy="8.078" rx="9.419" ry="8.078" transform="translate(3.2 2.435)" fill="#1d5522"/>
        <ellipse id="Ellipse_389" data-name="Ellipse 389" cx="5.521" cy="4.735" rx="5.521" ry="4.735" transform="translate(0 8.169)" fill="#1d5522"/>
        <ellipse id="Ellipse_390" data-name="Ellipse 390" cx="5.521" cy="4.735" rx="5.521" ry="4.735" transform="translate(14.331 8.169)" fill="#1d5522"/>
        <ellipse id="Ellipse_391" data-name="Ellipse 391" cx="5.521" cy="4.735" rx="5.521" ry="4.735" transform="translate(6.85)" fill="#1d5522"/>
        <rect id="Rectangle_2940" data-name="Rectangle 2940" width="2.253" height="7.715" transform="translate(11.583 17.412)" fill="#1d5522"/>
      </g>
      <g id="Group_10437" data-name="Group 10437" transform="translate(39.838 43.186)">
        <ellipse id="Ellipse_392" data-name="Ellipse 392" cx="9.419" cy="8.078" rx="9.419" ry="8.078" transform="translate(3.2 2.435)" fill="#1d5522"/>
        <ellipse id="Ellipse_393" data-name="Ellipse 393" cx="5.521" cy="4.735" rx="5.521" ry="4.735" transform="translate(0 8.169)" fill="#1d5522"/>
        <ellipse id="Ellipse_394" data-name="Ellipse 394" cx="5.521" cy="4.735" rx="5.521" ry="4.735" transform="translate(14.331 8.169)" fill="#1d5522"/>
        <ellipse id="Ellipse_395" data-name="Ellipse 395" cx="5.521" cy="4.735" rx="5.521" ry="4.735" transform="translate(6.85)" fill="#1d5522"/>
        <rect id="Rectangle_2941" data-name="Rectangle 2941" width="2.253" height="7.715" transform="translate(11.583 17.412)" fill="#1d5522"/>
      </g>
    </g>
    <g id="Group_10439" data-name="Group 10439" transform="translate(149.539 0.978)">
      <path id="Path_15374" data-name="Path 15374" d="M360.569,98.087c1.939,1.2,10.151,1.479,10.151,1.479-4.447-1.39-9.66-6.639-9.66-6.639,1.994,1.7,9.66,1.39,9.66,1.39-3.833-1.235-11.04-8.342-11.04-8.342,2.147,1.076,7.513,0,7.513,0-3.374-.622-7.513-6.327-7.513-6.327,1.84,1.544,6.44.617,6.44.617-3.221-1.36-9.2-8.646-9.2-8.646,1.993,1.7,7.054,1.544,7.054,1.544-3.987-1.235-14.108-13.125-14.108-13.125s-10.12,11.89-14.107,13.125c0,0,5.06.154,7.054-1.544,0,0-5.981,7.286-9.2,8.646,0,0,4.6.927,6.44-.617,0,0-4.141,5.7-7.514,6.327,0,0,5.367,1.076,7.514,0,0,0-7.207,7.107-11.041,8.342,0,0,7.667.309,9.66-1.39,0,0-5.213,5.25-9.66,6.639,0,0,8.212-.276,10.151-1.479-1.47,1.16-8.533,6.624-11.685,7.038a8.493,8.493,0,0,0,7.82,0l5.214,2.007,4.294-2.624,4.447,2.624.613-.54.613.54,4.447-2.624,4.293,2.624,5.214-2.007a8.492,8.492,0,0,0,7.82,0C369.1,104.711,362.039,99.247,360.569,98.087Z" transform="translate(-327.478 -60.037)" fill="#1d5522"/>
      <rect id="Rectangle_2942" data-name="Rectangle 2942" width="2.645" height="48.06" transform="translate(21.391 20.313)" fill="#1d5522"/>
    </g>
  </g>
</svg>
