<svg xmlns="http://www.w3.org/2000/svg" xmlns:xlink="http://www.w3.org/1999/xlink" width="62" height="87"
     viewBox="0 0 62 87">
    <defs>
        <path id="a"
              d="M50.323 81.53c-1.147.498-2.05-.154-2.739-1.203.734 2.927.857 6.27-1.855 7.445-2.712 1.175-7.31-2.58-7.31-2.58-2.775 1.204-4.375-5.445-4.46-5.939-.084-.495-5.08-18.016-5.08-18.016-33.757-8.674-27.652-33.673-27.112-36.6C4.977 7.25 14.522 1 22.108 1c7.587 0 7.396 3.14 7.396 3.14s1.889 11.917-.06 12.928c-5.379 2.792-2.277 5.481-2.387 5.481C42.23 36.181 39.042 57.51 39.042 57.51S49.103 71.707 50.51 74.136c.782 1.35 1.49 3.116 1.49 4.623 0 1.203-.451 2.241-1.677 2.772z"/>
        <path id="b" d="M1 1.001l.008.017L1.004 1 1 1.001z"/>
        <radialGradient id="e" cx="72.446%" cy="8.118%" r="110.074%" fx="72.446%" fy="8.118%"
                        gradientTransform="matrix(-.41688 .75314 -.78907 -.29986 1.09 -.44)">
            <stop offset="0%" stop-color="#FFF" stop-opacity="0"/>
            <stop offset="54.978%" stop-color="#FFF" stop-opacity=".25"/>
            <stop offset="100%" stop-color="#008860"/>
        </radialGradient>
        <path id="d"
              d="M30.985 3.186S18.55 1.595 9.364 21.424C.179 41.253 20.416 38.761 24.823 36.488c4.405-2.273 6.794-7.99 5.6-14.074 0 0-1.793-3.783 3.062-5.63C38.02 15.056 35.779 3 31.837 3c-.277 0-.56.06-.852.186"/>
    </defs>
    <g fill="none" fill-rule="evenodd">
        <g fill="#008860">
            <path d="M12.992 58.613L23 52.016 21.47 51 9.097 58.613H4.065S0 60.144 0 63c0 0 2.259-3.367 4.774-3.367h.113C3.824 60.372 2.71 61.503 2.71 63c0 0 2.076-3.085 4.463-3.342-1.05.74-2.14 1.863-2.14 3.342 0 0 2.258-3.367 4.774-3.367h4.42l-1.235-1.02z"/>
            <path d="M25.25 58.886L30 55.953 28.439 55l-7.16 3.886h-5.134S12 60.322 12 63c0 0 2.304-3.157 4.87-3.157h.114c-1.083.693-2.22 1.754-2.22 3.157 0 0 2.117-2.893 4.552-3.134-1.071.694-2.183 1.747-2.183 3.134 0 0 2.303-3.157 4.869-3.157h4.507l-1.26-.957z"/>
        </g>
        <use fill="#3E2500" transform="translate(3 -1)" xlink:href="#a"/>
        <g transform="translate(48 74)">
            <mask id="c" fill="#fff">
                <use xlink:href="#b"/>
            </mask>
            <path d="M1 1.001l.008.017L1.004 1 1 1.001z" mask="url(#c)"/>
        </g>
        <g transform="translate(0 -1)">
            <use fill="#FFF" xlink:href="#d"/>
            <use fill="url(#e)" fill-opacity=".8" xlink:href="#d"/>
        </g>
        <path fill="#008860" d="M26 4.5a1.5 1.5 0 1 0 3 0 1.5 1.5 0 0 0-3 0"/>
        <path fill="#FFCC2F"
              d="M30 2.218l.563 10.288s-.928 3.848 5.592 2.924c6.52-.925 15.369-1.582 15.369-1.582s9.21.749 10.279 2.152C62.56 13.386 62.766-3.638 30 2.218"/>
        <path fill="#EF6B2F"
              d="M61.922 15c-1.95-1.694-4.521-2.626-7.046-3.342a42.973 42.973 0 0 0-7.838-1.391c-1.322-.152-2.662-.157-3.988-.242-1.335-.007-2.666-.063-4-.087l-4.01-.055c-1.339.01-2.68.013-4.032-.042L31 9.748a81.873 81.873 0 0 1 4.008-.515c1.343-.126 2.694-.151 4.044-.23 1.35-.015 2.702.033 4.052.097 1.345.146 2.697.211 4.033.424 2.683.314 5.334.89 7.896 1.69 2.526.848 5.072 1.906 6.967 3.727l-.078.059z"/>
    </g>
</svg>
