<svg xmlns="http://www.w3.org/2000/svg" width="201.441" height="76.771" viewBox="0 0 201.441 76.771">
  <g id="FAO_AR_Blue_3Lines" transform="translate(-101.719 -83.001)">
    <g id="Group_15" data-name="Group 15" transform="translate(228.728 83.001)">
      <path id="Path_23" data-name="Path 23" d="M476.43,157.434a37.217,37.217,0,1,1,37.215-37.217A37.262,37.262,0,0,1,476.43,157.434Zm-.14-51.892c.046,0,3.023,3.19,3.023,5.738a3.138,3.138,0,0,1-2.883,3.422c-.036,0-.079,0-.126-.008h-.029c-.046,0-.094.008-.126.008a3.139,3.139,0,0,1-2.881-3.422C473.268,108.733,476.236,105.543,476.29,105.543Zm-28.026,16.75h3.395v-6.277h5.7v-2.622h-5.7v-3.484h5.891V107.29h-9.286Zm31.1-16.3h3.58l-4.161-15H474.21l-4.313,15h3.316l.954-3.353h4.34Zm-1.491-5.891h-3.12l1.453-6.524h.238ZM493.6,114.792c0,4.4,2.041,7.754,6.36,7.754s6.39-3.35,6.39-7.754-2.065-7.76-6.39-7.76S493.6,110.383,493.6,114.792Zm3.616,0c0-2.884.706-5.221,2.744-5.221s2.778,2.337,2.778,5.221-.737,5.224-2.778,5.224S497.217,117.67,497.217,114.792ZM474.844,153.28a50.5,50.5,0,0,0,.394-6.512v-.459c0-3.842-.142-5.14-2.706-5.987-3.962-1.316-5.58-5.733-4.712-11.24l-13.252-33.7a33.085,33.085,0,0,0,20.276,57.9Zm1.572-21.485c-5.272-1.227-7.23-6.031-7.23-10.3l-11.6-28.471c-.757.525-1.494,1.08-2.2,1.665,2.552,6.045,14.006,33.221,14.02,33.264,2.026,4.879,5.715,3.262,6.606,7.3a8.709,8.709,0,0,1,.229,1.4h.395a7.835,7.835,0,0,1,.227-1.4c.892-4.035,4.572-2.417,6.6-7.3.014-.043,11.469-27.22,14.018-33.264-.711-.585-1.443-1.141-2.2-1.665l-11.6,28.471c0,4.271-1.963,9.074-7.235,10.3Zm-.007-8.592c-2.236-.5-5.022-2.725-5.385-5.578a12.874,12.874,0,0,1-.077-3.554L460.781,91.056c-.82.441-1.617.92-2.4,1.429,3.04,6.835,12.336,27.7,12.343,27.725,1.47,3.1,4.052,3.162,4.942,5a5.935,5.935,0,0,1,.59,2.156h.342a6.133,6.133,0,0,1,.592-2.156c.894-1.841,3.473-1.9,4.94-5,.007-.021,9.307-20.891,12.343-27.725-.773-.51-1.576-.988-2.4-1.429L481.918,114.07a12.342,12.342,0,0,1-.089,3.554c-.362,2.853-3.147,5.079-5.371,5.578Zm.14-3.911.155-1.258c.641-2.91,2.757-2.551,4.226-5.412.007-.01.026-.043.026-.043.042-.1,7.235-15.535,10.237-21.983a33.083,33.083,0,0,0-29.529,0c3,6.448,10.19,21.878,10.247,21.983,0,0,.015.032.022.043,1.46,2.862,3.573,2.5,4.214,5.412l.155,1.258Zm32.984.927A33.051,33.051,0,0,0,498.3,95.385l-13.263,33.7c.882,5.507-.749,9.924-4.712,11.24-2.564.848-2.7,2.146-2.7,5.987v.459a52.483,52.483,0,0,0,.393,6.512A33.142,33.142,0,0,0,509.534,120.218Zm-55.748,9.775s.488,1.043.889,1.783.935,1.629.935,1.629l-.873.51s-.663-1.1-1.272-2.385c-.167.085-1.214.631-1.388.716.1.185,1.173,2.256,1.173,2.256l-.882.51s-1.088-2.113-1.183-2.294l-2.445,1.257-.54-1.072,5.525-2.876Zm3.494,5.667.769.931-4.835,4.038-.783-.928,4.79-4Zm4.479,4.238.957.684-1.241,6.664-1.1-.629s.275-1.359.307-1.487c-.055-.046-.69-.428-1.311-.865s-1.243-.956-1.3-1c-.119.072-1.333.791-1.333.791l-.939-.8,5.9-3.321Zm-2.794,2.833c.113.1.522.426.946.726s.862.585.99.647c.062-.282.5-2.474.593-2.875C461.135,141.44,459.219,142.579,458.966,142.731Zm6.78-.382a22.154,22.154,0,0,0,2.47,1.005,24.359,24.359,0,0,0,2.653.791l-.287.959a20.166,20.166,0,0,1-2.065-.528l-1.735,4.962-1.139-.4,1.728-4.965a18.716,18.716,0,0,1-2.022-.889Zm19.9,1.272a1.824,1.824,0,0,1,.879,1.149,2.209,2.209,0,0,1,.111.663c0,.879-.615,1.575-1.728,1.92l-.729.227c.065.2.729,2.335.729,2.335l-1.1.284-1.873-6.069,1.675-.52A2.661,2.661,0,0,1,485.648,143.621Zm-2.339,1.146c.053.184.516,1.663.571,1.846.233-.068.735-.225.735-.225a1.265,1.265,0,0,0,.752-.571.811.811,0,0,0,.093-.383,1.142,1.142,0,0,0-.055-.325.811.811,0,0,0-.4-.485,1.516,1.516,0,0,0-1.083-.05S483.463,144.715,483.31,144.767Zm6.1-3.788,5.464,4-.969.682s-1.1-.831-1.208-.916c-.065.04-.627.436-1.236.8-.571.345-1.192.656-1.253.691.026.14.239,1.48.239,1.48l-1.043.5-.918-6.7Zm.627,4.236c.162-.079.586-.306,1.006-.559a8.407,8.407,0,0,0,.831-.542c-.221-.164-1.928-1.464-2.284-1.736C489.662,142.825,489.991,144.941,490.035,145.214Zm5.616-9.754,4.765,4.253-.858,1.005s-4.469-1.309-5.146-1.491c.5.485,3.276,3.4,3.276,3.4l-.836.759-4.491-4.566,1.055-.94s4.313,1.286,4.99,1.462c-.5-.473-3.479-3.035-3.479-3.035Zm2.178-3.171,5.518,3.2-.562.972-5.546-3.21Zm2.391-5.295.946.491-.094.111a2.679,2.679,0,0,0-.592.986,1.1,1.1,0,0,0-.014.834.582.582,0,0,0,.376.313c.421.144.783-.224,1.2-.651a2.264,2.264,0,0,1,2.472-.927c1.185.4,1.587,1.458,1.1,2.894a4.463,4.463,0,0,1-.67,1.154l-.058.076-.978-.453.1-.113a3.839,3.839,0,0,0,.679-1.091,1,1,0,0,0-.5-1.337c-.523-.181-.92.224-1.378.7-.559.589-1.2,1.252-2.259.889a1.7,1.7,0,0,1-1.007-.844,2.262,2.262,0,0,1-.026-1.733,4.1,4.1,0,0,1,.657-1.226Z" transform="translate(-439.212 -83.001)" fill="#5792c9"/>
    </g>
    <g id="Group_16" data-name="Group 16" transform="translate(101.719 88.015)">
      <path id="Path_24" data-name="Path 24" d="M229.224,236.606V221H226.8v13.441h-2.089a1.462,1.462,0,0,0-.417.051.433.433,0,0,0-.215.152.587.587,0,0,0-.089.267c-.007.108-.014.236-.014.378v.415a2.972,2.972,0,0,0,.031.484.525.525,0,0,0,.114.27.361.361,0,0,0,.224.12,1.884,1.884,0,0,0,.366.029Zm-11.14-16.933a5.939,5.939,0,0,0-.6-.079c-.157-.012-.311-.019-.456-.019a2.381,2.381,0,0,0-.733.111,1.738,1.738,0,0,0-.624.339,1.707,1.707,0,0,0-.436.595,2.027,2.027,0,0,0-.161.848,1.7,1.7,0,0,0,.138.665,2.028,2.028,0,0,0,.47.672h-1v1.207h3.5v-1.207H217.6a1.33,1.33,0,0,1-.821-.3,1.1,1.1,0,0,1-.292-.364,1.036,1.036,0,0,1-.116-.5.851.851,0,0,1,.224-.622.725.725,0,0,1,.537-.226,2.137,2.137,0,0,1,.434.038c.133.024.273.06.426.1Zm4.65,1.327H220.31v11.9a3.569,3.569,0,0,1-.06.737,1.285,1.285,0,0,1-.183.475.67.67,0,0,1-.325.255,1.359,1.359,0,0,1-.479.073h-1.737v-9.68h-2.421v9.68h-3.465v2.166h8.4a2.565,2.565,0,0,0,1.161-.244,2.277,2.277,0,0,0,.783-.646,4.306,4.306,0,0,0,1.128.639,4.178,4.178,0,0,0,1.521.251h.1a2.065,2.065,0,0,0,.379-.029.385.385,0,0,0,.234-.12.573.573,0,0,0,.114-.27,2.976,2.976,0,0,0,.031-.484v-.415c0-.142,0-.27-.014-.378a.615.615,0,0,0-.089-.267.423.423,0,0,0-.229-.152,1.547,1.547,0,0,0-.427-.051h-.077a4.943,4.943,0,0,1-1.013-.11,4.585,4.585,0,0,1-.94-.311c.014-.116.02-.239.027-.369s0-.249,0-.359Zm-15.964,12.938a1.751,1.751,0,0,1-1.4.571,2.728,2.728,0,0,1-.614-.079,3.872,3.872,0,0,1-.641-.2,4.1,4.1,0,0,1-.566-.274,1.614,1.614,0,0,1-.386-.286,11.854,11.854,0,0,1,.337-1.608,6.462,6.462,0,0,1,.522-1.325,3.374,3.374,0,0,1,.675-.9,1.159,1.159,0,0,1,.792-.332,1.32,1.32,0,0,1,.779.239,1.971,1.971,0,0,1,.551.623,3.319,3.319,0,0,1,.342.879,4.7,4.7,0,0,1,.11,1,2.487,2.487,0,0,1-.5,1.689m.636,2.418a3.473,3.473,0,0,0,1.173-.988,4.4,4.4,0,0,0,.718-1.422,5.57,5.57,0,0,0,.246-1.66,6.308,6.308,0,0,0-.1-1.123,5.77,5.77,0,0,0-.316-1.128,5.109,5.109,0,0,0-.539-1.038,3.959,3.959,0,0,0-.764-.856,3.416,3.416,0,0,0-2.231-.791,3.354,3.354,0,0,0-1.062.2,3.294,3.294,0,0,0-1.207.8,6.642,6.642,0,0,0-1.183,1.713,13.062,13.062,0,0,0-1,2.927,4.294,4.294,0,0,1-.222.7,1.789,1.789,0,0,1-.274.449.778.778,0,0,1-.325.233,1.054,1.054,0,0,1-.388.063H199.5a1.544,1.544,0,0,0-.434.051.457.457,0,0,0-.226.152.61.61,0,0,0-.085.267c-.01.108-.014.236-.014.378v.415a2.743,2.743,0,0,0,.033.484.537.537,0,0,0,.113.27.384.384,0,0,0,.234.12,2.075,2.075,0,0,0,.379.029h.708a2.751,2.751,0,0,0,1.359-.337,2.581,2.581,0,0,0,.976-1,6.69,6.69,0,0,0,.544.523,3.5,3.5,0,0,0,.7.469,4.289,4.289,0,0,0,.9.335,4.5,4.5,0,0,0,1.116.13,3.387,3.387,0,0,0,1.6-.369m-12.283-3.069a1.641,1.641,0,0,1-.382.672,1.5,1.5,0,0,1-.6.373,2.644,2.644,0,0,1-.786.11,2.909,2.909,0,0,1-.61-.067,5.043,5.043,0,0,1-.631-.186,4.569,4.569,0,0,1-.552-.249,2.143,2.143,0,0,1-.391-.265,8.347,8.347,0,0,1,.292-1.485A7.147,7.147,0,0,1,192,230.85a3.755,3.755,0,0,1,.73-.966,1.256,1.256,0,0,1,.865-.374,1.179,1.179,0,0,1,.726.239,1.875,1.875,0,0,1,.523.629,3.372,3.372,0,0,1,.307.879,4.813,4.813,0,0,1,.1.992,3.618,3.618,0,0,1-.128,1.038m.172,3.089a3.611,3.611,0,0,0,1.195-.933,4,4,0,0,0,1.212.838,4.1,4.1,0,0,0,1.723.326h.085a2.085,2.085,0,0,0,.386-.029.38.38,0,0,0,.229-.12.524.524,0,0,0,.111-.27,2.561,2.561,0,0,0,.036-.484v-.415c0-.142-.007-.27-.017-.378a.565.565,0,0,0-.087-.267.423.423,0,0,0-.228-.152,1.574,1.574,0,0,0-.431-.051h-.055a5.929,5.929,0,0,1-1.138-.11,3.231,3.231,0,0,1-1.022-.4,3.169,3.169,0,0,0,.092-.4c.027-.15.044-.307.065-.467s.032-.315.043-.472.015-.292.015-.417a5.8,5.8,0,0,0-.1-1.019,6.349,6.349,0,0,0-.3-1.08,5.448,5.448,0,0,0-.517-1.031,4.1,4.1,0,0,0-.747-.87,3.723,3.723,0,0,0-1-.6,3.387,3.387,0,0,0-1.26-.227,2.842,2.842,0,0,0-.7.1,3.056,3.056,0,0,0-.8.344,4.179,4.179,0,0,0-.843.665,5.452,5.452,0,0,0-.814,1.077,9.159,9.159,0,0,0-.726,1.558,13.745,13.745,0,0,0-.558,2.123c-.2.1-.418.221-.645.352a5.928,5.928,0,0,0-.694.487,5.081,5.081,0,0,0-.667.684,4.537,4.537,0,0,0-.571.916,5.43,5.43,0,0,0-.4,1.205,7.409,7.409,0,0,0-.147,1.534,12.276,12.276,0,0,0,.092,1.356c.063.523.144,1.082.251,1.67s.226,1.193.361,1.8.291,1.188.448,1.732l2.347-.694c-.193-.571-.362-1.138-.5-1.7s-.251-1.094-.342-1.6-.157-.994-.2-1.446-.066-.863-.066-1.231a4.379,4.379,0,0,1,.169-1.315,2.764,2.764,0,0,1,.438-.877,1.934,1.934,0,0,1,.612-.52,2.654,2.654,0,0,1,.672-.256,5.474,5.474,0,0,0,.6.488,5.091,5.091,0,0,0,.783.458,5.439,5.439,0,0,0,.906.335,3.814,3.814,0,0,0,.988.13,3.767,3.767,0,0,0,1.7-.349m-18.627.241H179.1V221h-2.428Zm-2.336-.01V221h-2.42v13.441h-2.089a1.481,1.481,0,0,0-.419.051.42.42,0,0,0-.214.152.55.55,0,0,0-.089.267c-.01.108-.017.236-.017.378v.415a2.964,2.964,0,0,0,.034.484.541.541,0,0,0,.113.27.379.379,0,0,0,.222.12,1.925,1.925,0,0,0,.369.029Zm-9.409-2.669a1.763,1.763,0,0,1-1.392.571,2.709,2.709,0,0,1-.619-.079,3.747,3.747,0,0,1-.633-.2,3.806,3.806,0,0,1-.564-.274,1.67,1.67,0,0,1-.38-.286,11.493,11.493,0,0,1,.339-1.581,7.434,7.434,0,0,1,.509-1.33,2.994,2.994,0,0,1,.67-.913,1.162,1.162,0,0,1,.8-.338,1.256,1.256,0,0,1,.8.265,2.065,2.065,0,0,1,.554.676,3.326,3.326,0,0,1,.321.889,4.428,4.428,0,0,1,.1.909,2.47,2.47,0,0,1-.51,1.689m.65,2.411a3.632,3.632,0,0,0,1.186-.992,4.549,4.549,0,0,0,.568.5,3.525,3.525,0,0,0,.667.4,3.658,3.658,0,0,0,.8.26,4.693,4.693,0,0,0,.983.094h.108a1.915,1.915,0,0,0,.371-.029.363.363,0,0,0,.219-.12.61.61,0,0,0,.1-.27,4.273,4.273,0,0,0,.024-.484v-.415c0-.142,0-.27-.01-.378a.573.573,0,0,0-.075-.267.406.406,0,0,0-.216-.152,1.427,1.427,0,0,0-.417-.051h-.065a5.6,5.6,0,0,1-1.248-.137,3.334,3.334,0,0,1-1.087-.46c.029-.108.056-.227.085-.367s.055-.277.072-.417.03-.28.044-.417.015-.257.015-.357a6.527,6.527,0,0,0-.1-1.127,5.92,5.92,0,0,0-.318-1.125,5.842,5.842,0,0,0-.543-1.038,4.152,4.152,0,0,0-.766-.856,3.5,3.5,0,0,0-1-.58,3.393,3.393,0,0,0-1.228-.212,3.487,3.487,0,0,0-.683.077,2.886,2.886,0,0,0-.787.289,3.717,3.717,0,0,0-.828.616,5.224,5.224,0,0,0-.812,1.019,9,9,0,0,0-.741,1.52,13.117,13.117,0,0,0-.595,2.123,2.194,2.194,0,0,1-.5,1.1,1.014,1.014,0,0,1-.733.349h-.436a1.44,1.44,0,0,0-.417.051.441.441,0,0,0-.218.152.61.61,0,0,0-.087.267c-.01.108-.014.236-.014.378v.415a2.674,2.674,0,0,0,.03.484.573.573,0,0,0,.113.27.378.378,0,0,0,.222.12,1.957,1.957,0,0,0,.37.029h.708a2.519,2.519,0,0,0,2.335-1.339c.167.175.352.347.554.523a3.806,3.806,0,0,0,.7.469,4.259,4.259,0,0,0,.886.335,4.5,4.5,0,0,0,1.124.13,3.419,3.419,0,0,0,1.628-.376m-10.816-12.44a1.221,1.221,0,0,0,.251.371,1.162,1.162,0,0,0,.367.248,1.121,1.121,0,0,0,.453.093,1.1,1.1,0,0,0,.448-.093,1.077,1.077,0,0,0,.368-.248,1.225,1.225,0,0,0,.241-.371,1.079,1.079,0,0,0,.1-.44,1.169,1.169,0,0,0-.1-.458,1.1,1.1,0,0,0-.241-.369,1.225,1.225,0,0,0-.368-.245,1.106,1.106,0,0,0-.448-.09,1.132,1.132,0,0,0-.453.09,1.337,1.337,0,0,0-.367.245,1.1,1.1,0,0,0-.251.369,1.194,1.194,0,0,0-.094.458,1.1,1.1,0,0,0,.094.44m-2.984,0a1.154,1.154,0,0,0,.609.618,1.088,1.088,0,0,0,.448.093,1.115,1.115,0,0,0,.449-.093,1.29,1.29,0,0,0,.376-.248,1.2,1.2,0,0,0,.255-.371,1.134,1.134,0,0,0,.092-.44,1.228,1.228,0,0,0-.092-.458,1.084,1.084,0,0,0-.255-.369,1.5,1.5,0,0,0-.376-.245,1.125,1.125,0,0,0-.449-.09,1.1,1.1,0,0,0-.448.09,1.382,1.382,0,0,0-.362.245,1.068,1.068,0,0,0-.246.369,1.223,1.223,0,0,0-.085.458,1.128,1.128,0,0,0,.085.44m3.912,3.623h-2.445V232.9a3.689,3.689,0,0,1-.058.737,1.266,1.266,0,0,1-.188.475.722.722,0,0,1-.342.255,1.419,1.419,0,0,1-.5.073h-.99a1.6,1.6,0,0,0-.436.051.426.426,0,0,0-.221.152.553.553,0,0,0-.085.267,3.43,3.43,0,0,0-.02.378v.415a2.766,2.766,0,0,0,.034.484.6.6,0,0,0,.113.27.394.394,0,0,0,.236.12,2.091,2.091,0,0,0,.379.029h1.8a2.555,2.555,0,0,0,1.154-.244,2.4,2.4,0,0,0,.792-.646,3.983,3.983,0,0,0,2.665.89h.1a1.909,1.909,0,0,0,.369-.029.371.371,0,0,0,.224-.12.508.508,0,0,0,.108-.27,3.206,3.206,0,0,0,.031-.484v-.415a3.331,3.331,0,0,0-.021-.378.605.605,0,0,0-.084-.267.454.454,0,0,0-.221-.152,1.415,1.415,0,0,0-.407-.051h-.087a4.914,4.914,0,0,1-1.021-.11,4.592,4.592,0,0,1-.933-.311,3.322,3.322,0,0,0,.043-.369c.007-.13.009-.249.009-.359Zm-12.538,1.945a6.958,6.958,0,0,1,.684-.226,4.96,4.96,0,0,1,.6-.129,3.9,3.9,0,0,1,.479-.057c.131-.005.233-.012.3-.012a1.535,1.535,0,0,1,1.033.342,2.324,2.324,0,0,1,.61.877,4.878,4.878,0,0,1,.323,1.168c.063.424.116.831.151,1.221a7.659,7.659,0,0,0,.184,1.164,2.141,2.141,0,0,0,.262.617h-5.944a1.555,1.555,0,0,0-.434.051.436.436,0,0,0-.222.152.526.526,0,0,0-.087.267,3.435,3.435,0,0,0-.015.378v.415a3.027,3.027,0,0,0,.03.484.559.559,0,0,0,.116.27.385.385,0,0,0,.233.12,2.106,2.106,0,0,0,.379.029h9.379a1.816,1.816,0,0,0,.364-.029.372.372,0,0,0,.217-.12.524.524,0,0,0,.11-.27,3.661,3.661,0,0,0,.024-.484v-.415c0-.142,0-.27-.007-.378a.564.564,0,0,0-.082-.267.434.434,0,0,0-.219-.152,1.378,1.378,0,0,0-.406-.051h-.445a.617.617,0,0,1-.523-.335,3.227,3.227,0,0,1-.369-.869,10.538,10.538,0,0,1-.262-1.2q-.11-.664-.195-1.316a6.2,6.2,0,0,0-.387-1.484,4.2,4.2,0,0,0-.725-1.207,3.359,3.359,0,0,0-1.063-.81,3.139,3.139,0,0,0-1.38-.294,7.076,7.076,0,0,0-1.45.137,8.587,8.587,0,0,0-1.265.373Zm-7.39,7.13a4.7,4.7,0,0,0,1.81-.316,3.721,3.721,0,0,0,1.265-.826,6.61,6.61,0,0,0,.569.436,4.292,4.292,0,0,0,.676.362,4.23,4.23,0,0,0,.786.25,4.134,4.134,0,0,0,.9.094h.1a1.892,1.892,0,0,0,.368-.029.38.38,0,0,0,.224-.12.51.51,0,0,0,.106-.27,3.3,3.3,0,0,0,.029-.484v-.415a3.608,3.608,0,0,0-.017-.378.549.549,0,0,0-.088-.267.42.42,0,0,0-.217-.152,1.388,1.388,0,0,0-.405-.051H141.8a5.679,5.679,0,0,1-1.123-.106,3.019,3.019,0,0,1-.985-.381,2.269,2.269,0,0,0,.055-.3c.014-.119.028-.242.038-.366s.018-.249.025-.369.012-.228.012-.315a6.646,6.646,0,0,0-.933-3.192,16.353,16.353,0,0,0-2.694-3.472l-1.846,1.86c.365.356.738.749,1.106,1.183a12.922,12.922,0,0,1,1,1.354,8.514,8.514,0,0,1,.723,1.407,3.762,3.762,0,0,1,.274,1.337,1.543,1.543,0,0,1-.065.418,1.162,1.162,0,0,1-.243.445,1.367,1.367,0,0,1-.509.356,2.3,2.3,0,0,1-.867.137h-3.487v2.166Zm-8.252-12.7a1.246,1.246,0,0,0,.248.371,1.181,1.181,0,0,0,.371.248,1.138,1.138,0,0,0,.9,0,1.067,1.067,0,0,0,.364-.248,1.264,1.264,0,0,0,.244-.371,1.1,1.1,0,0,0,.094-.44,1.194,1.194,0,0,0-.094-.458,1.131,1.131,0,0,0-.244-.369,1.213,1.213,0,0,0-.364-.245,1.169,1.169,0,0,0-.9,0,1.361,1.361,0,0,0-.371.245,1.117,1.117,0,0,0-.248.369,1.1,1.1,0,0,0-.094.458,1.019,1.019,0,0,0,.094.44m-2.985,0a1.158,1.158,0,0,0,.609.618,1.083,1.083,0,0,0,.446.093,1.127,1.127,0,0,0,.453-.093,1.234,1.234,0,0,0,.373-.248,1.149,1.149,0,0,0,.255-.371,1.047,1.047,0,0,0,.094-.44,1.134,1.134,0,0,0-.094-.458,1.038,1.038,0,0,0-.255-.369,1.431,1.431,0,0,0-.373-.245,1.138,1.138,0,0,0-.453-.09,1.093,1.093,0,0,0-.446.09,1.315,1.315,0,0,0-.362.245,1.038,1.038,0,0,0-.246.369,1.187,1.187,0,0,0-.085.458,1.1,1.1,0,0,0,.085.44m1.235,6.824a4.025,4.025,0,0,1,.379-1.021,1.994,1.994,0,0,1,.527-.638,1,1,0,0,1,.6-.217.931.931,0,0,1,.6.229,1.941,1.941,0,0,1,.5.647,4.007,4.007,0,0,1,.33,1.022,6.947,6.947,0,0,1,.121,1.351,5.259,5.259,0,0,1-.084.962,2.221,2.221,0,0,1-.265.733,1.332,1.332,0,0,1-.485.475,1.477,1.477,0,0,1-.733.164,1.646,1.646,0,0,1-.665-.126,1.258,1.258,0,0,1-.513-.414,2.078,2.078,0,0,1-.332-.721,4.206,4.206,0,0,1-.119-1.074,5.926,5.926,0,0,1,.147-1.373m1.764,5.874a3.435,3.435,0,0,0,1.494-.32,3.346,3.346,0,0,0,1.142-.882,3.977,3.977,0,0,0,.726-1.31,4.912,4.912,0,0,0,.258-1.619,8.166,8.166,0,0,0-.343-2.487,5.72,5.72,0,0,0-.891-1.773,3.7,3.7,0,0,0-1.238-1.053,3.034,3.034,0,0,0-1.375-.348,2.877,2.877,0,0,0-1.338.362,4.058,4.058,0,0,0-1.265,1.077,6.13,6.13,0,0,0-.94,1.769,7.426,7.426,0,0,0-.367,2.453,5.123,5.123,0,0,0,.243,1.609,3.838,3.838,0,0,0,.718,1.309,3.4,3.4,0,0,0,1.162.886,3.642,3.642,0,0,0,1.578.326Z" transform="translate(-115.23 -173.193)" fill="#5792c9"/>
      <path id="Path_25" data-name="Path 25" d="M213.321,172.673h2.426V157.059h-2.426ZM206.158,155.7a5.086,5.086,0,0,0-.6-.08c-.157-.012-.309-.015-.455-.015a2.451,2.451,0,0,0-.735.11,1.676,1.676,0,0,0-1.06.933,2.021,2.021,0,0,0-.164.844,1.709,1.709,0,0,0,.144.67,2.052,2.052,0,0,0,.465.669h-1v1.209h3.5v-1.209h-.585a1.339,1.339,0,0,1-.822-.3,1.318,1.318,0,0,1-.292-.366,1.051,1.051,0,0,1-.113-.5.841.841,0,0,1,.222-.619.728.728,0,0,1,.537-.231,2.461,2.461,0,0,1,.436.039c.128.024.272.062.426.1Zm2.176,1.361V170.5h-2.663v-9.717h-2.424V170.5h-3.672v2.161h11.182v-15.6Zm-12.828,1.983a1.235,1.235,0,0,0-.245-.366,1.181,1.181,0,0,0-.361-.245,1.1,1.1,0,0,0-.444-.091,1.137,1.137,0,0,0-.452.091,1.318,1.318,0,0,0-.374.245,1.138,1.138,0,0,0-.256,1.265,1.153,1.153,0,0,0,.256.373,1.272,1.272,0,0,0,.374.25,1.113,1.113,0,0,0,.452.092,1.079,1.079,0,0,0,.444-.092,1.144,1.144,0,0,0,.361-.25,1.268,1.268,0,0,0,.245-.373,1.1,1.1,0,0,0,.092-.448,1.112,1.112,0,0,0-.092-.451m.07,11.461a2.617,2.617,0,0,1-1.157-.236,2.133,2.133,0,0,1-.766-.615,2.358,2.358,0,0,1-.424-.862,3.63,3.63,0,0,1-.13-.972,3.313,3.313,0,0,1,.167-1.127,2.265,2.265,0,0,1,.435-.755,1.589,1.589,0,0,1,.588-.421,1.635,1.635,0,0,1,.636-.133,4.244,4.244,0,0,1,.739.077,8,8,0,0,1,.911.228l.426-2.226a2.359,2.359,0,0,0-.474-.174c-.191-.05-.386-.092-.586-.126s-.393-.055-.585-.076a4.2,4.2,0,0,0-.455-.027,3.8,3.8,0,0,0-2.982,1.374,4.66,4.66,0,0,0-.834,1.538,6.035,6.035,0,0,0-.3,1.946,4.652,4.652,0,0,0,.037.563,4.936,4.936,0,0,0,.126.663,5.22,5.22,0,0,0,.228.7,3.079,3.079,0,0,0,.359.66h-2.3a1.445,1.445,0,0,0-.434.048.4.4,0,0,0-.221.151.55.55,0,0,0-.087.267c-.011.109-.017.234-.017.377v.415a2.961,2.961,0,0,0,.031.482.567.567,0,0,0,.116.274.394.394,0,0,0,.232.12,2.163,2.163,0,0,0,.38.027H197.7V170.5Zm-10.983-11.461a1.131,1.131,0,0,0-.243-.366,1.172,1.172,0,0,0-.362-.245,1.163,1.163,0,0,0-.9,0,1.3,1.3,0,0,0-.376.245,1.153,1.153,0,0,0-.258.366,1.1,1.1,0,0,0-.089.451,1.088,1.088,0,0,0,.089.448,1.182,1.182,0,0,0,.258.373,1.26,1.26,0,0,0,.376.25,1.134,1.134,0,0,0,1.263-.25,1.161,1.161,0,0,0,.243-.373,1.052,1.052,0,0,0,.1-.448,1.067,1.067,0,0,0-.1-.451m-1.43,13.622a4.719,4.719,0,0,0,1.812-.315,3.722,3.722,0,0,0,1.266-.828,5.838,5.838,0,0,0,.571.435,4.133,4.133,0,0,0,.674.364,4.182,4.182,0,0,0,.787.251,4.34,4.34,0,0,0,.9.093h.1a1.961,1.961,0,0,0,.369-.027.4.4,0,0,0,.224-.12.552.552,0,0,0,.108-.274,3.488,3.488,0,0,0,.027-.482v-.415a3.492,3.492,0,0,0-.017-.377.539.539,0,0,0-.089-.267.386.386,0,0,0-.215-.151,1.288,1.288,0,0,0-.407-.048h-.065a5.829,5.829,0,0,1-1.125-.11,3.1,3.1,0,0,1-.984-.383,2,2,0,0,0,.055-.3c.015-.12.027-.239.038-.364s.021-.248.027-.37.011-.229.011-.316a6.624,6.624,0,0,0-.934-3.188A16.272,16.272,0,0,0,183.6,162l-1.846,1.859a15.655,15.655,0,0,1,1.106,1.184,12.036,12.036,0,0,1,1,1.351,8.473,8.473,0,0,1,.725,1.409,3.729,3.729,0,0,1,.274,1.335,1.47,1.47,0,0,1-.065.42,1.185,1.185,0,0,1-.243.446,1.371,1.371,0,0,1-.509.353,2.242,2.242,0,0,1-.867.143h-3.486v2.161Zm-6.174,3.576a1.133,1.133,0,0,0,.25.373,1.2,1.2,0,0,0,.369.249,1.121,1.121,0,0,0,.45.094,1.1,1.1,0,0,0,.45-.094,1.072,1.072,0,0,0,.366-.249,1.248,1.248,0,0,0,.247-.373,1.067,1.067,0,0,0,.092-.438,1.162,1.162,0,0,0-.092-.455,1.19,1.19,0,0,0-.247-.369,1.126,1.126,0,0,0-.366-.246,1.1,1.1,0,0,0-.45-.094,1.115,1.115,0,0,0-.45.094,1.266,1.266,0,0,0-.369.246,1.085,1.085,0,0,0-.25.369,1.156,1.156,0,0,0-.093.455,1.061,1.061,0,0,0,.093.438m-2.985,0a1.131,1.131,0,0,0,.246.373,1.167,1.167,0,0,0,.366.249,1.071,1.071,0,0,0,.445.094,1.14,1.14,0,0,0,.451-.094,1.243,1.243,0,0,0,.373-.249,1.117,1.117,0,0,0,.257-.373,1.068,1.068,0,0,0,.094-.438,1.164,1.164,0,0,0-.094-.455,1.071,1.071,0,0,0-.257-.369,1.315,1.315,0,0,0-.373-.246,1.134,1.134,0,0,0-.451-.094,1.065,1.065,0,0,0-.445.094,1.232,1.232,0,0,0-.366.246,1.082,1.082,0,0,0-.246.369,1.243,1.243,0,0,0-.086.455,1.14,1.14,0,0,0,.086.438m4.164-3.576v-9.085h-2.424V170.5h-2.26a1.322,1.322,0,0,0-.417.048.4.4,0,0,0-.219.151.534.534,0,0,0-.085.267,3.066,3.066,0,0,0-.017.377v.415a3,3,0,0,0,.031.482.556.556,0,0,0,.116.274.386.386,0,0,0,.222.12,1.972,1.972,0,0,0,.369.027Zm-8.406-13.277a1.2,1.2,0,0,0,.251.371,1.256,1.256,0,0,0,.371.251,1.147,1.147,0,0,0,.453.093,1.125,1.125,0,0,0,.817-.344,1.219,1.219,0,0,0,.246-.371,1.021,1.021,0,0,0,.092-.439,1.068,1.068,0,0,0-.092-.453,1.131,1.131,0,0,0-.609-.617,1.21,1.21,0,0,0-.455-.091,1.18,1.18,0,0,0-.453.091,1.224,1.224,0,0,0-.371.245,1.122,1.122,0,0,0-.251.373,1.1,1.1,0,0,0-.094.453,1.051,1.051,0,0,0,.094.439m-2.983,0a1.106,1.106,0,0,0,.246.371,1.236,1.236,0,0,0,.363.251,1.106,1.106,0,0,0,.444.093,1.138,1.138,0,0,0,.452-.093,1.349,1.349,0,0,0,.376-.251,1.186,1.186,0,0,0,.256-.371,1.1,1.1,0,0,0,.092-.439,1.154,1.154,0,0,0-.092-.453,1.11,1.11,0,0,0-.256-.373,1.313,1.313,0,0,0-.376-.245,1.171,1.171,0,0,0-.452-.091,1.138,1.138,0,0,0-.444.091,1.2,1.2,0,0,0-.363.245,1.041,1.041,0,0,0-.246.373,1.113,1.113,0,0,0-.089.453,1.064,1.064,0,0,0,.089.439m5.292,2.332h-2.424v1.262c-.349.1-.728.226-1.142.38a11.185,11.185,0,0,0-1.245.554,9.2,9.2,0,0,0-1.205.755,5.37,5.37,0,0,0-1.031,1,4.8,4.8,0,0,0-.725,1.258,4.249,4.249,0,0,0-.272,1.554,3.455,3.455,0,0,0,.322,1.55,3.251,3.251,0,0,0,.832,1.067,3.473,3.473,0,0,0,1.146.619,4.2,4.2,0,0,0,2.4.048,4.75,4.75,0,0,0,1.125-.5,1.99,1.99,0,0,0,.3.539,1.824,1.824,0,0,0,.508.444,2.788,2.788,0,0,0,.761.308,4.5,4.5,0,0,0,1.061.113h1.065a1.957,1.957,0,0,0,.369-.027.391.391,0,0,0,.222-.12.485.485,0,0,0,.11-.274,3.472,3.472,0,0,0,.03-.482v-.415c0-.143-.01-.268-.02-.377a.587.587,0,0,0-.085-.267.4.4,0,0,0-.219-.151,1.291,1.291,0,0,0-.406-.048H172.9a1.071,1.071,0,0,1-.422-.072.475.475,0,0,1-.255-.213.973.973,0,0,1-.122-.406,5.757,5.757,0,0,1-.026-.619Zm-2.424,7.433a2.873,2.873,0,0,1-.386.239,4.357,4.357,0,0,1-.429.192,2.846,2.846,0,0,1-.44.123,2.072,2.072,0,0,1-.42.043,1.7,1.7,0,0,1-.595-.108,1.565,1.565,0,0,1-.523-.318,1.6,1.6,0,0,1-.366-.533,1.935,1.935,0,0,1-.133-.745,2.3,2.3,0,0,1,.227-1,2.83,2.83,0,0,1,.658-.87,4.188,4.188,0,0,1,1.038-.68,5.77,5.77,0,0,1,1.369-.438Zm-19.179,8.291a13.088,13.088,0,0,0,2.716-.6,6.136,6.136,0,0,0,2.134-1.241,5.444,5.444,0,0,0,1.4-2.082,8.64,8.64,0,0,0,.5-3.144v-1.858a9.565,9.565,0,0,0-.168-1.91,6.129,6.129,0,0,0-.453-1.414,3.471,3.471,0,0,0-1.455-1.593,2.928,2.928,0,0,0-.848-.318,3.757,3.757,0,0,0-.828-.092,3.837,3.837,0,0,0-1.687.379,4.13,4.13,0,0,0-1.362,1.053,5.094,5.094,0,0,0-.91,1.6,5.885,5.885,0,0,0-.332,2.014,5.6,5.6,0,0,0,.229,1.549,4.351,4.351,0,0,0,.726,1.438,3.865,3.865,0,0,0,1.294,1.058,4.064,4.064,0,0,0,1.925.415c.157,0,.355-.012.591-.032a5.343,5.343,0,0,0,.679-.11,3.656,3.656,0,0,1-.543.838,3.794,3.794,0,0,1-.863.718,6.137,6.137,0,0,1-1.289.578,10.282,10.282,0,0,1-1.814.409Zm2.18-7.133a1.877,1.877,0,0,1-.676-.555,2.416,2.416,0,0,1-.395-.821,3.618,3.618,0,0,1-.133-1,4.2,4.2,0,0,1,.116-.986,2.622,2.622,0,0,1,.342-.826,1.726,1.726,0,0,1,.561-.568,1.405,1.405,0,0,1,.752-.205,1.313,1.313,0,0,1,.687.178,1.364,1.364,0,0,1,.492.619,4.148,4.148,0,0,1,.3,1.175,14.473,14.473,0,0,1,.1,1.855v1.108a3.265,3.265,0,0,1-.552.159,3.4,3.4,0,0,1-.622.067,2.148,2.148,0,0,1-.971-.2m-8.114,2.363h2.424V157.059h-2.424Zm-2.335-.01v-15.6h-2.424V170.5H137.69a1.368,1.368,0,0,0-.421.048.394.394,0,0,0-.214.151.594.594,0,0,0-.091.267c-.01.109-.014.234-.014.377v.415a2.777,2.777,0,0,0,.032.482.523.523,0,0,0,.115.274.38.38,0,0,0,.222.12,1.96,1.96,0,0,0,.37.027Zm-6.45-13.622a1.246,1.246,0,0,0-.247-.366,1.147,1.147,0,0,0-.357-.245,1.106,1.106,0,0,0-.445-.091,1.124,1.124,0,0,0-.449.091,1.274,1.274,0,0,0-.376.245,1.124,1.124,0,0,0-.258.366,1.1,1.1,0,0,0-.089.451,1.088,1.088,0,0,0,.089.448,1.152,1.152,0,0,0,.258.373,1.232,1.232,0,0,0,.376.25,1.1,1.1,0,0,0,.449.092,1.082,1.082,0,0,0,.445-.092,1.112,1.112,0,0,0,.357-.25,1.28,1.28,0,0,0,.247-.373,1.129,1.129,0,0,0,.094-.448,1.146,1.146,0,0,0-.094-.451M131.4,177.2a8.694,8.694,0,0,0,1.782-.537,4.059,4.059,0,0,0,2.2-2.178,6.91,6.91,0,0,0,.479-1.819h1.9a1.842,1.842,0,0,0,.362-.027.383.383,0,0,0,.219-.12.51.51,0,0,0,.106-.274,3.146,3.146,0,0,0,.031-.482v-.415c0-.143,0-.268-.012-.377a.552.552,0,0,0-.082-.267.4.4,0,0,0-.217-.151,1.286,1.286,0,0,0-.407-.048h-1.761v-6.924h-2.445v7.614a7.809,7.809,0,0,1-.1,1.345,2.669,2.669,0,0,1-.4,1.019,2.406,2.406,0,0,1-.843.747,5.342,5.342,0,0,1-1.423.5Zm-6.031,0a7.573,7.573,0,0,0,2.115-.687,4.03,4.03,0,0,0,1.429-1.234,5.271,5.271,0,0,0,.81-1.918,12.8,12.8,0,0,0,.253-2.737v-7.041h-2.445v7.614a8.469,8.469,0,0,1-.093,1.337,2.467,2.467,0,0,1-.374,1.006,2.279,2.279,0,0,1-.826.728,5.5,5.5,0,0,1-1.434.475Zm-3.791-4.523H124V157.059h-2.421Zm-4.041-2.171a2.61,2.61,0,0,1-1.159-.236,2.133,2.133,0,0,1-.766-.615,2.371,2.371,0,0,1-.424-.862,3.662,3.662,0,0,1-.132-.972,3.3,3.3,0,0,1,.17-1.127,2.239,2.239,0,0,1,.434-.755,1.592,1.592,0,0,1,.588-.421,1.634,1.634,0,0,1,.633-.133,4.181,4.181,0,0,1,.738.077,7.879,7.879,0,0,1,.915.228l.424-2.226a2.4,2.4,0,0,0-.474-.174q-.287-.075-.585-.126c-.2-.032-.393-.055-.585-.076a4.253,4.253,0,0,0-.455-.027,3.8,3.8,0,0,0-2.982,1.374,4.646,4.646,0,0,0-.834,1.538,5.984,5.984,0,0,0-.3,1.946,4.239,4.239,0,0,0,.038.563,4.8,4.8,0,0,0,.123.663,5.393,5.393,0,0,0,.229.7,3.086,3.086,0,0,0,.361.66h-2.3a1.446,1.446,0,0,0-.434.048.4.4,0,0,0-.222.151.53.53,0,0,0-.085.267,3.14,3.14,0,0,0-.017.377v.415a2.962,2.962,0,0,0,.031.482.57.57,0,0,0,.116.274.39.39,0,0,0,.235.12,2.118,2.118,0,0,0,.377.027h8.466V170.5Zm-10.081-11.116a1.2,1.2,0,0,0,.251.371,1.234,1.234,0,0,0,.373.251,1.147,1.147,0,0,0,.9,0,1.182,1.182,0,0,0,.369-.251,1.267,1.267,0,0,0,.243-.371,1.075,1.075,0,0,0,.094-.439,1.123,1.123,0,0,0-.094-.453,1.181,1.181,0,0,0-.243-.373,1.154,1.154,0,0,0-.369-.245,1.169,1.169,0,0,0-.9,0,1.2,1.2,0,0,0-.373.245,1.122,1.122,0,0,0-.251.373,1.153,1.153,0,0,0-.091.453,1.1,1.1,0,0,0,.091.439m-2.983,0a1.151,1.151,0,0,0,.243.371,1.3,1.3,0,0,0,.366.251,1.09,1.09,0,0,0,.444.093,1.154,1.154,0,0,0,.453-.093,1.359,1.359,0,0,0,.374-.251,1.182,1.182,0,0,0,.257-.371,1.1,1.1,0,0,0,.091-.439,1.153,1.153,0,0,0-.091-.453,1.107,1.107,0,0,0-.257-.373,1.323,1.323,0,0,0-.374-.245,1.188,1.188,0,0,0-.453-.091,1.122,1.122,0,0,0-.444.091,1.263,1.263,0,0,0-.366.245,1.08,1.08,0,0,0-.243.373,1.186,1.186,0,0,0-.089.453,1.135,1.135,0,0,0,.089.439m5.293,2.332h-2.425v1.262c-.345.1-.728.226-1.142.38a11.27,11.27,0,0,0-1.244.554,9.177,9.177,0,0,0-1.206.755,5.546,5.546,0,0,0-1.034,1,4.854,4.854,0,0,0-.721,1.258,4.257,4.257,0,0,0-.272,1.554,3.439,3.439,0,0,0,.323,1.55,3.194,3.194,0,0,0,.833,1.067,3.5,3.5,0,0,0,1.14.619,4.223,4.223,0,0,0,2.407.048,4.784,4.784,0,0,0,1.121-.5,1.981,1.981,0,0,0,.3.539,1.915,1.915,0,0,0,.5.444,2.849,2.849,0,0,0,.764.308,4.5,4.5,0,0,0,1.06.113h1.065a1.972,1.972,0,0,0,.369-.027.388.388,0,0,0,.222-.12.522.522,0,0,0,.106-.274,2.589,2.589,0,0,0,.031-.482v-.415c0-.143-.006-.268-.014-.377a.721.721,0,0,0-.089-.267.406.406,0,0,0-.216-.151,1.324,1.324,0,0,0-.41-.048h-.651a1.066,1.066,0,0,1-.424-.072.469.469,0,0,1-.254-.213.947.947,0,0,1-.12-.406,5.176,5.176,0,0,1-.027-.619Zm-2.425,7.433a2.941,2.941,0,0,1-.386.239,4.536,4.536,0,0,1-.429.192,2.915,2.915,0,0,1-.439.123,2.061,2.061,0,0,1-.419.043,1.71,1.71,0,0,1-.6-.108,1.54,1.54,0,0,1-.523-.318,1.609,1.609,0,0,1-.366-.533,1.935,1.935,0,0,1-.135-.745,2.257,2.257,0,0,1,.229-1,2.83,2.83,0,0,1,.658-.87,4.1,4.1,0,0,1,1.039-.68,5.779,5.779,0,0,1,1.367-.438Z" transform="translate(-101.719 -133.294)" fill="#5792c9"/>
      <path id="Path_26" data-name="Path 26" d="M315.69,109.26a1.755,1.755,0,0,1-1.4.571,2.846,2.846,0,0,1-.615-.075,4.567,4.567,0,0,1-.639-.2,4.428,4.428,0,0,1-.566-.27,1.7,1.7,0,0,1-.387-.291,11.029,11.029,0,0,1,.341-1.61,6.546,6.546,0,0,1,.518-1.323,3.3,3.3,0,0,1,.672-.9,1.194,1.194,0,0,1,.793-.328,1.3,1.3,0,0,1,.779.236,1.987,1.987,0,0,1,.554.626,3.225,3.225,0,0,1,.338.877,4.483,4.483,0,0,1,.115,1,2.487,2.487,0,0,1-.5,1.689m.636,2.416a3.443,3.443,0,0,0,1.176-.986,4.442,4.442,0,0,0,.718-1.421,5.747,5.747,0,0,0,.243-1.661,6.6,6.6,0,0,0-.1-1.124,6.121,6.121,0,0,0-.32-1.128,5.093,5.093,0,0,0-.536-1.036,4.022,4.022,0,0,0-.765-.854,3.308,3.308,0,0,0-1-.581,3.4,3.4,0,0,0-1.231-.212,3.364,3.364,0,0,0-1.064.2,3.3,3.3,0,0,0-1.205.8,6.647,6.647,0,0,0-1.184,1.715,12.99,12.99,0,0,0-.993,2.925,3.969,3.969,0,0,1-.224.7,1.846,1.846,0,0,1-.27.453.814.814,0,0,1-.328.234,1.181,1.181,0,0,1-.383.065h-.438a1.544,1.544,0,0,0-.432.048.419.419,0,0,0-.22.152.574.574,0,0,0-.091.265c-.01.113-.017.236-.017.383v.41a2.745,2.745,0,0,0,.036.484.519.519,0,0,0,.113.272.388.388,0,0,0,.233.122,2.145,2.145,0,0,0,.379.025h.708a2.723,2.723,0,0,0,1.357-.335,2.616,2.616,0,0,0,.978-1c.163.171.345.344.545.52a3.883,3.883,0,0,0,.7.469,4.326,4.326,0,0,0,2.017.467,3.36,3.36,0,0,0,1.6-.373M306.212,98.309a1.187,1.187,0,0,0-.245-.366,1.166,1.166,0,0,0-.364-.246,1.126,1.126,0,0,0-.441-.092,1.146,1.146,0,0,0-.451.092,1.292,1.292,0,0,0-.374.246,1.083,1.083,0,0,0-.255.366,1.048,1.048,0,0,0-.1.449,1.061,1.061,0,0,0,.1.45,1.14,1.14,0,0,0,.255.373,1.338,1.338,0,0,0,.374.248,1.114,1.114,0,0,0,.451.092,1.093,1.093,0,0,0,.441-.092,1.205,1.205,0,0,0,.364-.248,1.254,1.254,0,0,0,.245-.373,1.165,1.165,0,0,0,.093-.45,1.15,1.15,0,0,0-.093-.449m.253,4.548h-2.445v5.364a3.6,3.6,0,0,1-.06.742,1.27,1.27,0,0,1-.186.472.74.74,0,0,1-.338.255,1.407,1.407,0,0,1-.5.077h-.99a1.58,1.58,0,0,0-.432.048.417.417,0,0,0-.222.152.6.6,0,0,0-.088.265c-.008.113-.015.236-.015.383v.41a2.985,2.985,0,0,0,.031.484.563.563,0,0,0,.115.272.383.383,0,0,0,.232.122,2.2,2.2,0,0,0,.38.025h1.807a2.5,2.5,0,0,0,1.152-.242,2.4,2.4,0,0,0,.794-.65,3.994,3.994,0,0,0,1.111.641,4.214,4.214,0,0,0,1.552.251h.1a1.978,1.978,0,0,0,.366-.025.37.37,0,0,0,.222-.122.479.479,0,0,0,.108-.272,3.21,3.21,0,0,0,.029-.484v-.41c0-.147-.007-.27-.017-.383a.615.615,0,0,0-.085-.265.43.43,0,0,0-.219-.152,1.386,1.386,0,0,0-.4-.048h-.091a4.73,4.73,0,0,1-1.021-.115,4.261,4.261,0,0,1-.937-.311,2.916,2.916,0,0,0,.044-.368c.007-.129.011-.251.011-.359ZM297.3,98.309a1.2,1.2,0,0,0-.244-.366,1.143,1.143,0,0,0-.366-.246,1.1,1.1,0,0,0-.437-.092,1.178,1.178,0,0,0-.463.092,1.275,1.275,0,0,0-.373.246,1.147,1.147,0,0,0-.258.366,1.091,1.091,0,0,0-.091.449,1.1,1.1,0,0,0,.091.45,1.209,1.209,0,0,0,.258.373,1.32,1.32,0,0,0,.373.248,1.145,1.145,0,0,0,.463.092,1.071,1.071,0,0,0,.437-.092,1.18,1.18,0,0,0,.366-.248,1.269,1.269,0,0,0,.244-.373,1.136,1.136,0,0,0,.091-.45,1.122,1.122,0,0,0-.091-.449m.778,11.457h-6.208a12.587,12.587,0,0,1,.735-2.2,8.726,8.726,0,0,1,1.005-1.744,4.832,4.832,0,0,1,1.178-1.147,2.245,2.245,0,0,1,1.245-.412,1.861,1.861,0,0,1,.776.171,1.614,1.614,0,0,1,.653.581,3.421,3.421,0,0,1,.446,1.089,7.1,7.1,0,0,1,.17,1.689Zm2.42,0v-1.978a10.38,10.38,0,0,0-.232-2.272,5.624,5.624,0,0,0-.73-1.827,3.623,3.623,0,0,0-1.27-1.209,3.683,3.683,0,0,0-1.853-.439,4.227,4.227,0,0,0-2.031.48,6.532,6.532,0,0,0-1.7,1.289V96.324h-2.42v11.138c-.067.166-.137.352-.209.556s-.142.408-.212.617-.135.417-.195.614-.115.374-.157.518h-1.858a1.576,1.576,0,0,0-.436.048.431.431,0,0,0-.221.152.541.541,0,0,0-.087.265,3.239,3.239,0,0,0-.017.383v.41a2.716,2.716,0,0,0,.033.484.562.562,0,0,0,.113.272.4.4,0,0,0,.234.122,2.165,2.165,0,0,0,.381.025h14.324a2.248,2.248,0,0,0,.39-.025.384.384,0,0,0,.232-.122.51.51,0,0,0,.11-.272,3.249,3.249,0,0,0,.027-.484v-.41a3.712,3.712,0,0,0-.017-.383.528.528,0,0,0-.092-.265.456.456,0,0,0-.229-.152,1.482,1.482,0,0,0-.421-.048Zm-17.81-.506a1.771,1.771,0,0,1-1.391.571,2.841,2.841,0,0,1-.619-.075,4.8,4.8,0,0,1-.633-.2,4.054,4.054,0,0,1-.561-.27,1.787,1.787,0,0,1-.383-.291,11.892,11.892,0,0,1,.338-1.581,7.4,7.4,0,0,1,.513-1.33,3.11,3.11,0,0,1,.665-.911,1.181,1.181,0,0,1,.8-.336,1.238,1.238,0,0,1,.8.265,2.165,2.165,0,0,1,.554.674,3.456,3.456,0,0,1,.32.893,4.251,4.251,0,0,1,.1.906,2.461,2.461,0,0,1-.513,1.689m.653,2.41a3.666,3.666,0,0,0,1.187-.991,4.667,4.667,0,0,0,.563.5,3.325,3.325,0,0,0,.672.393,3.431,3.431,0,0,0,.8.263,4.677,4.677,0,0,0,.983.092h.11a1.991,1.991,0,0,0,.37-.025.347.347,0,0,0,.215-.122.515.515,0,0,0,.1-.272,3.412,3.412,0,0,0,.029-.484v-.41c0-.147,0-.27-.012-.383a.55.55,0,0,0-.075-.265.4.4,0,0,0-.212-.152,1.439,1.439,0,0,0-.417-.048h-.065a5.646,5.646,0,0,1-1.251-.14,3.35,3.35,0,0,1-1.087-.458c.029-.106.06-.233.085-.366a3.334,3.334,0,0,0,.072-.42c.019-.14.032-.28.046-.417s.015-.26.015-.359a6.607,6.607,0,0,0-.1-1.122,5.893,5.893,0,0,0-.321-1.128,5.594,5.594,0,0,0-.542-1.036,4.148,4.148,0,0,0-.768-.858,3.287,3.287,0,0,0-.995-.578,3.348,3.348,0,0,0-1.226-.212,3.561,3.561,0,0,0-.686.074,2.754,2.754,0,0,0-.786.3,3.741,3.741,0,0,0-.828.612,5.06,5.06,0,0,0-.81,1.019,8.992,8.992,0,0,0-.738,1.518,13.194,13.194,0,0,0-.6,2.124,2.161,2.161,0,0,1-.5,1.1,1,1,0,0,1-.73.354h-.436a1.475,1.475,0,0,0-.42.048.435.435,0,0,0-.215.152.552.552,0,0,0-.086.265c-.01.113-.017.236-.017.383v.41a3.036,3.036,0,0,0,.03.484.563.563,0,0,0,.115.272.38.38,0,0,0,.221.122,2.04,2.04,0,0,0,.373.025h.7a2.52,2.52,0,0,0,2.337-1.333c.168.171.354.344.554.52a3.968,3.968,0,0,0,.7.469,4.277,4.277,0,0,0,.886.335,4.345,4.345,0,0,0,1.125.131,3.391,3.391,0,0,0,1.629-.378M271.666,98.655a1.173,1.173,0,0,0,.253.369,1.133,1.133,0,0,0,.369.25,1.168,1.168,0,0,0,.91,0,1.16,1.16,0,0,0,.362-.25,1.209,1.209,0,0,0,.245-.369,1.062,1.062,0,0,0,.094-.441,1.125,1.125,0,0,0-.094-.455,1.14,1.14,0,0,0-.245-.37,1.243,1.243,0,0,0-.362-.246,1.186,1.186,0,0,0-.91,0,1.211,1.211,0,0,0-.369.246,1.108,1.108,0,0,0-.253.37,1.157,1.157,0,0,0-.094.455,1.092,1.092,0,0,0,.094.441m-2.983,0a1.126,1.126,0,0,0,.245.369,1.229,1.229,0,0,0,.362.25,1.068,1.068,0,0,0,.448.092,1.094,1.094,0,0,0,.451-.092,1.345,1.345,0,0,0,.376-.25,1.186,1.186,0,0,0,.253-.369,1.091,1.091,0,0,0,.092-.441,1.155,1.155,0,0,0-.092-.455,1.119,1.119,0,0,0-.253-.37,1.455,1.455,0,0,0-.376-.246,1.15,1.15,0,0,0-.451-.091,1.122,1.122,0,0,0-.448.091,1.323,1.323,0,0,0-.362.246,1.066,1.066,0,0,0-.245.37,1.214,1.214,0,0,0-.087.455,1.145,1.145,0,0,0,.087.441m5.293,2.331h-2.424v1.258q-.521.154-1.14.381a10.616,10.616,0,0,0-1.246.555,9.131,9.131,0,0,0-1.205.756,5.524,5.524,0,0,0-1.033,1,4.869,4.869,0,0,0-.721,1.258,4.24,4.24,0,0,0-.274,1.556,3.492,3.492,0,0,0,.321,1.549,3.245,3.245,0,0,0,.834,1.065,3.575,3.575,0,0,0,1.14.621,4.217,4.217,0,0,0,2.407.044,4.628,4.628,0,0,0,1.12-.5,2.185,2.185,0,0,0,.3.54,1.82,1.82,0,0,0,.507.443,2.6,2.6,0,0,0,.761.306,4.324,4.324,0,0,0,1.06.113h1.064a1.99,1.99,0,0,0,.371-.025.37.37,0,0,0,.222-.122.488.488,0,0,0,.111-.272,3.518,3.518,0,0,0,.026-.484v-.41c0-.147-.005-.27-.015-.383a.586.586,0,0,0-.085-.265.461.461,0,0,0-.219-.152,1.4,1.4,0,0,0-.41-.048h-.65a1.221,1.221,0,0,1-.424-.065.525.525,0,0,1-.255-.217.979.979,0,0,1-.12-.4,5.681,5.681,0,0,1-.027-.617Zm-2.424,7.433a2.985,2.985,0,0,1-.387.239,4.407,4.407,0,0,1-.429.188,2.635,2.635,0,0,1-.441.126,2.231,2.231,0,0,1-.417.041,1.726,1.726,0,0,1-.6-.106,1.679,1.679,0,0,1-.523-.321,1.523,1.523,0,0,1-.359-.533,1.822,1.822,0,0,1-.137-.742,2.286,2.286,0,0,1,.228-1,2.845,2.845,0,0,1,.654-.87,4.309,4.309,0,0,1,1.04-.68,5.806,5.806,0,0,1,1.369-.438Z" transform="translate(-204.134 -96.324)" fill="#5792c9"/>
    </g>
  </g>
</svg>
