<svg xmlns="http://www.w3.org/2000/svg" width="177.619" height="50.614" viewBox="0 0 177.619 50.614">
  <g id="FAO_AR_Black_2Lines" transform="translate(-102.104 -83.01)">
    <g id="Group_18" data-name="Group 18" transform="translate(229.109 83.01)">
      <path id="Path_27" data-name="Path 27" d="M639.31,133.624a25.307,25.307,0,1,1,25.3-25.307A25.338,25.338,0,0,1,639.31,133.624Zm-.1-35.286c.032,0,2.055,2.168,2.055,3.9a2.132,2.132,0,0,1-1.957,2.326.8.8,0,0,1-.086-.006H639.2c-.032,0-.064.006-.086.006a2.134,2.134,0,0,1-1.959-2.326C637.158,100.506,639.175,98.338,639.212,98.338Zm-19.057,11.389h2.309V105.46h3.879v-1.783h-3.879v-2.37h4.007V99.525h-6.316ZM641.3,98.645h2.434l-2.827-10.2H637.8l-2.932,10.2h2.254l.648-2.281h2.953Zm-1.013-4.006H638.17l.988-4.437h.163Zm10.691,9.987c0,3,1.39,5.273,4.324,5.273s4.348-2.277,4.348-5.273-1.406-5.277-4.348-5.277S650.983,101.628,650.983,104.626Zm2.46,0c0-1.961.48-3.55,1.865-3.55s1.89,1.589,1.89,3.55-.5,3.552-1.89,3.552S653.443,106.585,653.443,104.626ZM638.228,130.8a33.836,33.836,0,0,0,.27-4.429v-.311c0-2.614-.1-3.494-1.841-4.071-2.692-.895-3.794-3.9-3.2-7.644l-9.01-22.913A22.5,22.5,0,0,0,638.228,130.8Zm1.071-14.611c-3.586-.833-4.916-4.1-4.916-7l-7.89-19.36c-.515.356-1.015.734-1.5,1.132,1.734,4.109,9.523,22.589,9.533,22.619,1.378,3.318,3.886,2.217,4.493,4.96a6.043,6.043,0,0,1,.153.952h.27a5.276,5.276,0,0,1,.156-.952c.606-2.744,3.106-1.643,4.487-4.96.009-.03,7.8-18.51,9.53-22.619-.483-.4-.981-.777-1.5-1.132l-7.888,19.36c0,2.9-1.332,6.17-4.918,7Zm-.006-5.843a4.939,4.939,0,0,1-3.661-3.793,8.7,8.7,0,0,1-.052-2.416l-6.915-15.65q-.833.452-1.631.972c2.068,4.649,8.387,18.839,8.393,18.854,1,2.109,2.754,2.149,3.361,3.4a4.049,4.049,0,0,1,.4,1.467h.23a4.2,4.2,0,0,1,.4-1.467c.609-1.252,2.363-1.293,3.362-3.4,0-.015,6.327-14.205,8.393-18.854-.525-.346-1.073-.671-1.632-.972l-6.908,15.65a8.37,8.37,0,0,1-.058,2.416,4.943,4.943,0,0,1-3.655,3.793Zm.1-2.658.106-.856c.437-1.98,1.876-1.735,2.874-3.68l.017-.03c.029-.07,4.921-10.562,6.96-14.947a22.495,22.495,0,0,0-20.078,0c2.04,4.385,6.928,14.877,6.968,14.947,0,0,.009.022.014.03.994,1.946,2.43,1.7,2.866,3.68l.107.856Zm22.428.63a22.472,22.472,0,0,0-7.64-16.886l-9.02,22.913c.6,3.745-.51,6.749-3.2,7.644-1.744.577-1.841,1.458-1.841,4.071v.311a35.541,35.541,0,0,0,.27,4.429A22.536,22.536,0,0,0,661.818,108.317Zm-37.908,6.647s.334.708.6,1.211.636,1.108.636,1.108l-.594.348s-.451-.752-.866-1.623c-.112.058-.824.43-.943.488.068.126.8,1.533.8,1.533l-.6.348-.8-1.561-1.664.854-.367-.729,3.758-1.955Zm2.376,3.852.522.633-3.287,2.746-.532-.631,3.258-2.72Zm3.046,2.883.65.465-.842,4.531-.747-.429s.187-.924.21-1.01c-.037-.033-.472-.291-.893-.59s-.846-.65-.885-.675l-.907.537-.638-.545,4.008-2.259Zm-1.9,1.925c.076.066.355.29.644.5s.586.4.672.44c.042-.193.343-1.683.4-1.957C628.908,122.748,627.6,123.521,627.431,123.624Zm4.61-.258a15.131,15.131,0,0,0,1.681.684,16.182,16.182,0,0,0,1.8.537l-.2.652a13.257,13.257,0,0,1-1.4-.359c-.049.144-1.18,3.373-1.18,3.373l-.774-.268,1.175-3.376a12.742,12.742,0,0,1-1.374-.6Zm13.536.865a1.228,1.228,0,0,1,.6.78,1.436,1.436,0,0,1,.077.451c0,.6-.419,1.071-1.174,1.305,0,0-.384.119-.5.156.044.135.5,1.588.5,1.588l-.752.193-1.274-4.127,1.138-.354A1.816,1.816,0,0,1,645.577,124.231Zm-1.592.778c.037.127.353,1.131.391,1.255.157-.045.5-.152.5-.152a.867.867,0,0,0,.509-.388.558.558,0,0,0,.065-.262.883.883,0,0,0-.037-.221.552.552,0,0,0-.274-.329,1.028,1.028,0,0,0-.736-.034Zm4.148-2.576,3.715,2.721-.66.463s-.747-.565-.821-.623c-.044.028-.426.3-.839.542-.391.235-.811.445-.853.47.017.094.162,1.005.162,1.005l-.709.34-.623-4.556Zm.426,2.882c.112-.053.4-.209.686-.381a6.206,6.206,0,0,0,.564-.367c-.15-.112-1.31-1-1.552-1.181C648.3,123.688,648.529,125.128,648.558,125.315Zm3.82-6.633,3.241,2.891-.585.684s-3.038-.889-3.5-1.012c.343.329,2.229,2.313,2.229,2.313l-.57.516-3.053-3.1.716-.639s2.933.874,3.393.993c-.343-.322-2.366-2.063-2.366-2.063Zm1.481-2.158,3.752,2.174-.381.663-3.773-2.183Zm1.626-3.6.643.333-.064.076a1.786,1.786,0,0,0-.4.671.74.74,0,0,0-.01.567.4.4,0,0,0,.257.214c.286.1.533-.153.815-.444a1.54,1.54,0,0,1,1.681-.63c.806.274,1.079.991.746,1.968a3.013,3.013,0,0,1-.456.785l-.04.051-.666-.307.067-.078a2.528,2.528,0,0,0,.46-.742.675.675,0,0,0-.339-.909c-.358-.123-.627.152-.94.476-.379.4-.816.851-1.534.6a1.148,1.148,0,0,1-.686-.574,1.518,1.518,0,0,1-.016-1.178,2.736,2.736,0,0,1,.446-.835Z" transform="translate(-614 -83.01)" fill="#555"/>
    </g>
    <g id="Group_19" data-name="Group 19" transform="translate(102.103 97.931)">
      <path id="Path_28" data-name="Path 28" d="M357.98,219.68V209.094h-1.644v9.118H354.92a.858.858,0,0,0-.284.036.268.268,0,0,0-.146.1.372.372,0,0,0-.058.181,2.434,2.434,0,0,0-.012.256v.281a2.03,2.03,0,0,0,.021.329.38.38,0,0,0,.079.185.248.248,0,0,0,.151.078,1.11,1.11,0,0,0,.249.02Zm-7.556-11.485a2.985,2.985,0,0,0-.4-.053c-.109-.009-.213-.014-.309-.014a1.679,1.679,0,0,0-.5.074,1.144,1.144,0,0,0-.72.633,1.393,1.393,0,0,0-.11.574,1.184,1.184,0,0,0,.1.456,1.432,1.432,0,0,0,.319.452h-.681v.819h2.375v-.819h-.4a.851.851,0,0,1-.288-.052.836.836,0,0,1-.27-.15.762.762,0,0,1-.2-.245.723.723,0,0,1-.078-.341.56.56,0,0,1,.152-.418.487.487,0,0,1,.364-.156,1.639,1.639,0,0,1,.3.026,2.916,2.916,0,0,1,.287.07Zm3.156.9h-1.645v8.073a2.521,2.521,0,0,1-.041.5.882.882,0,0,1-.125.321.458.458,0,0,1-.221.173.934.934,0,0,1-.326.05h-1.175v-6.568H348.4v6.568h-2.35v1.467h5.7a1.7,1.7,0,0,0,.788-.165,1.539,1.539,0,0,0,.53-.439,2.9,2.9,0,0,0,.767.436,2.853,2.853,0,0,0,1.032.168h.068a1.246,1.246,0,0,0,.258-.02.268.268,0,0,0,.158-.078.4.4,0,0,0,.077-.185,1.887,1.887,0,0,0,.023-.329v-.281c0-.1,0-.184-.012-.256a.385.385,0,0,0-.058-.181.268.268,0,0,0-.156-.1.931.931,0,0,0-.29-.036h-.052a3.226,3.226,0,0,1-.69-.077,2.772,2.772,0,0,1-.637-.212c.009-.076.014-.16.019-.249s0-.168,0-.244Zm-10.831,8.775a1.19,1.19,0,0,1-.951.389,1.835,1.835,0,0,1-.416-.052,3.036,3.036,0,0,1-.435-.135,3.229,3.229,0,0,1-.384-.186,1.006,1.006,0,0,1-.261-.2,7.856,7.856,0,0,1,.228-1.091,4.512,4.512,0,0,1,.354-.9,2.217,2.217,0,0,1,.458-.609.787.787,0,0,1,.537-.223.886.886,0,0,1,.527.161,1.358,1.358,0,0,1,.377.425,2.262,2.262,0,0,1,.228.6,3.047,3.047,0,0,1,.076.674,1.682,1.682,0,0,1-.339,1.146m.431,1.642a2.427,2.427,0,0,0,.8-.671,3.022,3.022,0,0,0,.486-.965,3.851,3.851,0,0,0,.166-1.125,4.314,4.314,0,0,0-.07-.761,4.137,4.137,0,0,0-.214-.769,3.735,3.735,0,0,0-.365-.7,2.754,2.754,0,0,0-.52-.581,2.295,2.295,0,0,0-1.515-.539,2.272,2.272,0,0,0-.718.137,2.211,2.211,0,0,0-.818.546,4.485,4.485,0,0,0-.8,1.162,8.69,8.69,0,0,0-.674,1.985,2.77,2.77,0,0,1-.151.476,1.223,1.223,0,0,1-.185.306.541.541,0,0,1-.222.158.741.741,0,0,1-.262.044h-.294a.924.924,0,0,0-.295.036.267.267,0,0,0-.151.1.4.4,0,0,0-.058.181,2.37,2.37,0,0,0-.012.256v.281a1.9,1.9,0,0,0,.022.329.4.4,0,0,0,.077.185.268.268,0,0,0,.159.078,1.238,1.238,0,0,0,.258.02h.479a1.853,1.853,0,0,0,.923-.228,1.764,1.764,0,0,0,.663-.678,3.816,3.816,0,0,0,.37.352,2.352,2.352,0,0,0,.474.319,2.846,2.846,0,0,0,.608.228,3.034,3.034,0,0,0,.759.089,2.291,2.291,0,0,0,1.087-.25m-8.334-2.082a1.1,1.1,0,0,1-.258.456.976.976,0,0,1-.409.251,1.7,1.7,0,0,1-.535.077,1.956,1.956,0,0,1-.411-.046,2.624,2.624,0,0,1-.428-.128,2.392,2.392,0,0,1-.376-.169,1.251,1.251,0,0,1-.265-.179,5.834,5.834,0,0,1,.2-1.006,4.718,4.718,0,0,1,.365-.908,2.514,2.514,0,0,1,.494-.655.862.862,0,0,1,.586-.254.8.8,0,0,1,.493.161,1.281,1.281,0,0,1,.354.43,2.272,2.272,0,0,1,.211.6,3.257,3.257,0,0,1,.07.67,2.407,2.407,0,0,1-.088.707m.118,2.1a2.464,2.464,0,0,0,.812-.635,2.7,2.7,0,0,0,.821.566,2.761,2.761,0,0,0,1.169.222h.058a1.235,1.235,0,0,0,.263-.02.256.256,0,0,0,.154-.078.366.366,0,0,0,.077-.185,1.771,1.771,0,0,0,.023-.329v-.281c0-.1,0-.184-.01-.256a.394.394,0,0,0-.059-.181.269.269,0,0,0-.154-.1.943.943,0,0,0-.293-.036h-.037a3.858,3.858,0,0,1-.774-.077,2.085,2.085,0,0,1-.69-.267,2.238,2.238,0,0,0,.061-.274c.019-.1.033-.209.045-.316s.022-.214.029-.32.01-.2.01-.284a4,4,0,0,0-.065-.691,4.18,4.18,0,0,0-.2-.732,3.651,3.651,0,0,0-.35-.7,2.75,2.75,0,0,0-.508-.589,2.467,2.467,0,0,0-.679-.409,2.3,2.3,0,0,0-.856-.156,1.971,1.971,0,0,0-.472.068,2.057,2.057,0,0,0-.542.232,2.673,2.673,0,0,0-.569.452,3.659,3.659,0,0,0-.554.729,6.116,6.116,0,0,0-.491,1.058,9.112,9.112,0,0,0-.379,1.44c-.138.069-.284.147-.438.24a3.594,3.594,0,0,0-.467.33,3.492,3.492,0,0,0-.456.463,2.967,2.967,0,0,0-.386.623,3.767,3.767,0,0,0-.27.816,5.04,5.04,0,0,0-.1,1.043,8,8,0,0,0,.063.917c.043.356.1.734.17,1.135s.153.807.246,1.223.2.807.3,1.174l1.591-.47q-.2-.582-.338-1.152c-.093-.377-.171-.741-.232-1.087s-.106-.674-.136-.979-.044-.589-.044-.837a2.984,2.984,0,0,1,.114-.89,1.8,1.8,0,0,1,.3-.6,1.319,1.319,0,0,1,.413-.357,2,2,0,0,1,.457-.171,3.46,3.46,0,0,0,.409.331,3.4,3.4,0,0,0,.531.31,3.579,3.579,0,0,0,.615.228,2.8,2.8,0,0,0,1.821-.146m-12.636.161h1.644V209.094h-1.644Zm-1.586-.008V209.094H319.1v9.118h-1.416a.858.858,0,0,0-.284.036.267.267,0,0,0-.146.1.382.382,0,0,0-.059.181c-.007.072-.011.161-.011.256v.281a2.026,2.026,0,0,0,.021.329.378.378,0,0,0,.079.185.249.249,0,0,0,.149.078,1.148,1.148,0,0,0,.251.02Zm-6.384-1.811a1.2,1.2,0,0,1-.943.389,1.818,1.818,0,0,1-.421-.052,3.062,3.062,0,0,1-.431-.135,3.013,3.013,0,0,1-.379-.186,1.05,1.05,0,0,1-.258-.2,8.078,8.078,0,0,1,.228-1.073,5.318,5.318,0,0,1,.346-.9,2.066,2.066,0,0,1,.456-.619.786.786,0,0,1,.539-.228.849.849,0,0,1,.546.18,1.444,1.444,0,0,1,.377.457,2.389,2.389,0,0,1,.217.6,3.045,3.045,0,0,1,.07.614,1.661,1.661,0,0,1-.347,1.146m.443,1.637a2.429,2.429,0,0,0,.8-.672,3.463,3.463,0,0,0,.381.337,2.419,2.419,0,0,0,1,.447,3.279,3.279,0,0,0,.667.063h.073a1.12,1.12,0,0,0,.25-.02.243.243,0,0,0,.149-.078.428.428,0,0,0,.07-.185,2.381,2.381,0,0,0,.019-.329v-.281c0-.1,0-.184-.01-.256a.379.379,0,0,0-.051-.181.238.238,0,0,0-.143-.1.856.856,0,0,0-.284-.036h-.045a3.684,3.684,0,0,1-.847-.1,2.18,2.18,0,0,1-.736-.309c.019-.072.038-.157.058-.25s.035-.188.047-.283.022-.191.03-.284.01-.174.01-.242a4.386,4.386,0,0,0-.07-.764,3.893,3.893,0,0,0-.218-.767,3.77,3.77,0,0,0-.368-.7,2.842,2.842,0,0,0-.521-.582,2.382,2.382,0,0,0-.674-.394,2.308,2.308,0,0,0-1.3-.091,2.039,2.039,0,0,0-.535.2,2.6,2.6,0,0,0-.56.416,3.579,3.579,0,0,0-.548.693,6.118,6.118,0,0,0-.5,1.031,8.988,8.988,0,0,0-.4,1.439,1.457,1.457,0,0,1-.335.745.688.688,0,0,1-.5.239h-.3a.86.86,0,0,0-.285.036.259.259,0,0,0-.146.1.38.38,0,0,0-.059.181,2.4,2.4,0,0,0-.01.256v.281a1.767,1.767,0,0,0,.022.329.389.389,0,0,0,.075.185.271.271,0,0,0,.152.078,1.121,1.121,0,0,0,.251.02h.479a1.717,1.717,0,0,0,1.586-.906,4.818,4.818,0,0,0,.374.352,2.486,2.486,0,0,0,.473.319,2.779,2.779,0,0,0,.6.228,3.019,3.019,0,0,0,.763.089,2.3,2.3,0,0,0,1.106-.256m-7.339-8.438a.791.791,0,0,0,.17.251.84.84,0,0,0,.251.169.774.774,0,0,0,.306.063.784.784,0,0,0,.306-.063.8.8,0,0,0,.246-.169.824.824,0,0,0,.166-.251.725.725,0,0,0,.062-.3.774.774,0,0,0-.062-.309.736.736,0,0,0-.166-.249.757.757,0,0,0-.246-.166.745.745,0,0,0-.306-.063.736.736,0,0,0-.306.063.789.789,0,0,0-.251.166.71.71,0,0,0-.17.249.793.793,0,0,0-.063.309.742.742,0,0,0,.063.3m-2.024,0a.774.774,0,0,0,.166.251.853.853,0,0,0,.247.169.752.752,0,0,0,.3.063.774.774,0,0,0,.307-.063.944.944,0,0,0,.255-.169.806.806,0,0,0,.173-.251.742.742,0,0,0,.062-.3.793.793,0,0,0-.062-.309.722.722,0,0,0-.173-.249.881.881,0,0,0-.255-.166.737.737,0,0,0-.307-.063.716.716,0,0,0-.3.063.8.8,0,0,0-.247.166.7.7,0,0,0-.166.249.837.837,0,0,0-.059.309.782.782,0,0,0,.059.3m2.654,2.457h-1.658v3.643a2.51,2.51,0,0,1-.042.5.834.834,0,0,1-.128.321.5.5,0,0,1-.229.173,1,1,0,0,1-.34.05h-.671a.932.932,0,0,0-.3.036.262.262,0,0,0-.151.1.367.367,0,0,0-.058.181c-.007.072-.01.161-.01.256v.281a2.084,2.084,0,0,0,.02.329.413.413,0,0,0,.078.185.265.265,0,0,0,.159.078,1.245,1.245,0,0,0,.258.02h1.223a1.691,1.691,0,0,0,.784-.165,1.645,1.645,0,0,0,.537-.439,2.753,2.753,0,0,0,.755.436,2.889,2.889,0,0,0,1.051.168h.066a1.115,1.115,0,0,0,.25-.02.259.259,0,0,0,.152-.078.383.383,0,0,0,.073-.185,2.388,2.388,0,0,0,.019-.329v-.281c0-.1,0-.184-.012-.256a.38.38,0,0,0-.059-.181.266.266,0,0,0-.147-.1.82.82,0,0,0-.276-.036h-.059a3.182,3.182,0,0,1-.693-.077,2.814,2.814,0,0,1-.635-.212,1.723,1.723,0,0,0,.03-.249c0-.088.007-.168.007-.244Zm-8.507,1.321a3.864,3.864,0,0,1,.463-.155c.149-.041.286-.068.41-.091s.234-.03.325-.036.158-.008.2-.008a1.031,1.031,0,0,1,.7.233,1.6,1.6,0,0,1,.416.594,3.41,3.41,0,0,1,.216.793c.047.288.079.563.1.828a4.967,4.967,0,0,0,.124.788,1.438,1.438,0,0,0,.179.421h-4.034a.9.9,0,0,0-.293.036.271.271,0,0,0-.154.1.4.4,0,0,0-.058.181,2.37,2.37,0,0,0-.012.256v.281a1.989,1.989,0,0,0,.023.329.38.38,0,0,0,.077.185.27.27,0,0,0,.158.078,1.241,1.241,0,0,0,.258.02h6.363a1.09,1.09,0,0,0,.247-.02.264.264,0,0,0,.147-.078.365.365,0,0,0,.073-.185,2.393,2.393,0,0,0,.019-.329v-.281c0-.1,0-.184-.008-.256a.338.338,0,0,0-.055-.181.267.267,0,0,0-.146-.1.842.842,0,0,0-.277-.036h-.3a.426.426,0,0,1-.355-.228,2.22,2.22,0,0,1-.25-.589,7.086,7.086,0,0,1-.176-.815c-.049-.3-.094-.6-.134-.895a4.33,4.33,0,0,0-.261-1.008,2.8,2.8,0,0,0-.5-.817,2.232,2.232,0,0,0-.716-.549,2.154,2.154,0,0,0-.938-.2,4.822,4.822,0,0,0-.984.093,5.614,5.614,0,0,0-.858.253Zm-5.013,4.835a3.179,3.179,0,0,0,1.227-.214,2.509,2.509,0,0,0,.859-.559,3.779,3.779,0,0,0,.387.3,2.881,2.881,0,0,0,1.6.478h.068a1.11,1.11,0,0,0,.249-.02.264.264,0,0,0,.154-.078.378.378,0,0,0,.072-.185,2.2,2.2,0,0,0,.019-.329v-.281a2.434,2.434,0,0,0-.012-.256.369.369,0,0,0-.058-.181.266.266,0,0,0-.148-.1.823.823,0,0,0-.275-.036h-.044a3.8,3.8,0,0,1-.765-.073,2.008,2.008,0,0,1-.665-.257,1.868,1.868,0,0,0,.036-.2c.01-.082.017-.163.024-.249s.017-.167.019-.249.009-.156.009-.216a4.5,4.5,0,0,0-.635-2.162,11.069,11.069,0,0,0-1.827-2.356l-1.254,1.261c.25.242.5.508.752.8a8.615,8.615,0,0,1,.679.918,5.514,5.514,0,0,1,.489.957,2.5,2.5,0,0,1,.188.905.989.989,0,0,1-.045.284.817.817,0,0,1-.165.3.927.927,0,0,1-.347.239,1.5,1.5,0,0,1-.586.1h-2.367v1.467Zm-5.6-8.613a.856.856,0,0,0,.169.251.872.872,0,0,0,.251.169.776.776,0,0,0,.611,0,.8.8,0,0,0,.249-.169.889.889,0,0,0,.165-.251.764.764,0,0,0,.063-.3.817.817,0,0,0-.063-.309.788.788,0,0,0-.165-.249.755.755,0,0,0-.249-.166.776.776,0,0,0-.611,0,.818.818,0,0,0-.251.166.761.761,0,0,0-.169.249.8.8,0,0,0-.062.309.746.746,0,0,0,.062.3m-2.024,0a.766.766,0,0,0,.166.251.869.869,0,0,0,.246.169.755.755,0,0,0,.3.063.769.769,0,0,0,.3-.063.909.909,0,0,0,.256-.169.794.794,0,0,0,.172-.251.742.742,0,0,0,.063-.3.793.793,0,0,0-.063-.309.712.712,0,0,0-.172-.249.851.851,0,0,0-.256-.166.731.731,0,0,0-.3-.063.719.719,0,0,0-.3.063.813.813,0,0,0-.246.166.689.689,0,0,0-.166.249.839.839,0,0,0-.06.309.784.784,0,0,0,.06.3m.837,4.63a2.781,2.781,0,0,1,.258-.7,1.347,1.347,0,0,1,.357-.43.675.675,0,0,1,.406-.146.633.633,0,0,1,.406.153,1.3,1.3,0,0,1,.335.439,2.622,2.622,0,0,1,.224.692,4.62,4.62,0,0,1,.081.92,3.561,3.561,0,0,1-.053.65,1.5,1.5,0,0,1-.181.5.865.865,0,0,1-.328.321,1,1,0,0,1-.5.114,1.1,1.1,0,0,1-.452-.088.862.862,0,0,1-.347-.279,1.476,1.476,0,0,1-.224-.491,2.774,2.774,0,0,1-.081-.725,3.93,3.93,0,0,1,.1-.932m1.2,3.982a2.291,2.291,0,0,0,1.014-.216,2.317,2.317,0,0,0,.774-.6,2.736,2.736,0,0,0,.494-.888,3.407,3.407,0,0,0,.173-1.1,5.494,5.494,0,0,0-.232-1.689,3.911,3.911,0,0,0-.6-1.2,2.526,2.526,0,0,0-.84-.714,2.05,2.05,0,0,0-.935-.236,1.918,1.918,0,0,0-.905.248,2.714,2.714,0,0,0-.859.73,3.947,3.947,0,0,0-.637,1.2,5.033,5.033,0,0,0-.251,1.662,3.452,3.452,0,0,0,.166,1.089,2.586,2.586,0,0,0,.487.889,2.258,2.258,0,0,0,.788.6,2.451,2.451,0,0,0,1.072.222Z" transform="translate(-240.506 -192.005)" fill="#555"/>
      <path id="Path_29" data-name="Path 29" d="M217.926,152.91a1.2,1.2,0,0,1-.951.389,1.976,1.976,0,0,1-.416-.051,2.867,2.867,0,0,1-.435-.137,2.988,2.988,0,0,1-.384-.186,1.1,1.1,0,0,1-.262-.193,8.332,8.332,0,0,1,.229-1.092,4.49,4.49,0,0,1,.355-.9,2.176,2.176,0,0,1,.456-.609.789.789,0,0,1,.54-.226.862.862,0,0,1,.525.163,1.348,1.348,0,0,1,.378.423,2.141,2.141,0,0,1,.228.6,2.945,2.945,0,0,1,.077.674,1.686,1.686,0,0,1-.338,1.146m.432,1.641a2.428,2.428,0,0,0,.8-.671,2.994,2.994,0,0,0,.485-.966,3.85,3.85,0,0,0,.165-1.124,4.4,4.4,0,0,0-.07-.764,4.188,4.188,0,0,0-.214-.765,3.515,3.515,0,0,0-.362-.7,2.792,2.792,0,0,0-.521-.579,2.359,2.359,0,0,0-.678-.395,2.31,2.31,0,0,0-.836-.145,2.286,2.286,0,0,0-.721.138,2.24,2.24,0,0,0-.817.542,4.536,4.536,0,0,0-.806,1.165,8.908,8.908,0,0,0-.674,1.986,2.831,2.831,0,0,1-.149.477,1.173,1.173,0,0,1-.186.306.554.554,0,0,1-.22.157.752.752,0,0,1-.264.046H213a.968.968,0,0,0-.3.034.259.259,0,0,0-.151.1.355.355,0,0,0-.058.18,2.056,2.056,0,0,0-.012.258v.279a1.876,1.876,0,0,0,.022.328.4.4,0,0,0,.076.186.265.265,0,0,0,.161.081,1.606,1.606,0,0,0,.258.016h.479a1.853,1.853,0,0,0,.921-.226,1.778,1.778,0,0,0,.665-.679,4.346,4.346,0,0,0,.368.354,2.671,2.671,0,0,0,.473.315,2.837,2.837,0,0,0,.609.228,2.944,2.944,0,0,0,.76.089,2.331,2.331,0,0,0,1.088-.25M211.5,145.48a.8.8,0,0,0-.167-.248.79.79,0,0,0-.248-.166.729.729,0,0,0-.3-.061.739.739,0,0,0-.3.061.878.878,0,0,0-.256.166.758.758,0,0,0-.236.555.754.754,0,0,0,.063.3.778.778,0,0,0,.173.251.835.835,0,0,0,.256.17.762.762,0,0,0,.3.063.774.774,0,0,0,.546-.232.82.82,0,0,0,.167-.251.805.805,0,0,0,0-.611m.172,3.085h-1.659v3.641a2.612,2.612,0,0,1-.041.5.784.784,0,0,1-.131.322.47.47,0,0,1-.228.172.972.972,0,0,1-.337.052H208.6a.966.966,0,0,0-.3.034.265.265,0,0,0-.151.1.4.4,0,0,0-.059.18c-.007.074-.01.159-.01.258v.279a1.849,1.849,0,0,0,.022.328.4.4,0,0,0,.075.186.27.27,0,0,0,.16.081,1.618,1.618,0,0,0,.259.016h1.224a1.68,1.68,0,0,0,.78-.165,1.591,1.591,0,0,0,.539-.437,2.667,2.667,0,0,0,1.805.6h.066a1.477,1.477,0,0,0,.251-.016.26.26,0,0,0,.152-.081.366.366,0,0,0,.072-.186,2.23,2.23,0,0,0,.017-.328v-.279c0-.1,0-.184-.009-.258a.382.382,0,0,0-.06-.18.256.256,0,0,0-.147-.1.863.863,0,0,0-.277-.034h-.058a3.286,3.286,0,0,1-.7-.078,2.828,2.828,0,0,1-.632-.209,1.872,1.872,0,0,0,.03-.251c0-.088.007-.17.007-.244Zm-6.218-3.085a.82.82,0,0,0-.166-.248.794.794,0,0,0-.247-.166.73.73,0,0,0-.3-.061.766.766,0,0,0-.312.061.921.921,0,0,0-.256.166.783.783,0,0,0-.173.248.762.762,0,0,0,0,.611.8.8,0,0,0,.173.251.874.874,0,0,0,.256.17.788.788,0,0,0,.312.063.773.773,0,0,0,.546-.232.836.836,0,0,0,.166-.251.79.79,0,0,0,0-.611m.527,7.774h-4.209a8.347,8.347,0,0,1,.5-1.489,5.926,5.926,0,0,1,.681-1.183,3.246,3.246,0,0,1,.8-.777,1.51,1.51,0,0,1,.844-.28,1.287,1.287,0,0,1,.526.116,1.125,1.125,0,0,1,.443.4,2.24,2.24,0,0,1,.3.737,4.887,4.887,0,0,1,.114,1.146Zm1.644,0v-1.343a7.185,7.185,0,0,0-.158-1.539,3.861,3.861,0,0,0-.5-1.239,2.382,2.382,0,0,0-2.118-1.121,2.919,2.919,0,0,0-1.379.326,4.464,4.464,0,0,0-1.15.877v-5.078h-1.645v7.556c-.044.112-.091.236-.14.374s-.1.279-.144.421-.091.28-.132.416-.077.253-.107.35h-1.26a.968.968,0,0,0-.295.034.271.271,0,0,0-.151.1.358.358,0,0,0-.058.18,2.383,2.383,0,0,0-.012.258v.279a2,2,0,0,0,.021.328.4.4,0,0,0,.078.186.266.266,0,0,0,.159.081,1.606,1.606,0,0,0,.258.016h9.716a1.654,1.654,0,0,0,.265-.016.252.252,0,0,0,.158-.081.356.356,0,0,0,.074-.186,2.353,2.353,0,0,0,.018-.328v-.279a2.383,2.383,0,0,0-.012-.258.346.346,0,0,0-.063-.18.284.284,0,0,0-.155-.1.931.931,0,0,0-.287-.034Zm-12.082-.343a1.21,1.21,0,0,1-.944.389,1.945,1.945,0,0,1-.42-.051,2.924,2.924,0,0,1-.811-.323,1.1,1.1,0,0,1-.259-.193,8.254,8.254,0,0,1,.229-1.074,5.1,5.1,0,0,1,.346-.9,2.141,2.141,0,0,1,.452-.622.816.816,0,0,1,.543-.227.855.855,0,0,1,.546.181,1.5,1.5,0,0,1,.377.456,2.314,2.314,0,0,1,.216.6,2.987,2.987,0,0,1,.071.616,1.669,1.669,0,0,1-.346,1.146m.441,1.637a2.454,2.454,0,0,0,.8-.677,3.116,3.116,0,0,0,.383.342,2.522,2.522,0,0,0,1,.446,3.4,3.4,0,0,0,.666.061h.073a1.474,1.474,0,0,0,.251-.016.243.243,0,0,0,.148-.081.393.393,0,0,0,.071-.186,2.409,2.409,0,0,0,.016-.328v-.279c0-.1,0-.184-.007-.258a.367.367,0,0,0-.051-.18.242.242,0,0,0-.144-.1.89.89,0,0,0-.283-.034h-.044a3.8,3.8,0,0,1-.847-.094,2.267,2.267,0,0,1-.737-.312c.018-.072.039-.156.058-.25a2.72,2.72,0,0,0,.048-.282c.014-.1.023-.191.03-.284s.012-.174.012-.243a4.4,4.4,0,0,0-.069-.761,3.9,3.9,0,0,0-.219-.765,3.7,3.7,0,0,0-.369-.7,2.811,2.811,0,0,0-.52-.58,2.365,2.365,0,0,0-.674-.394,2.275,2.275,0,0,0-.833-.145,2.343,2.343,0,0,0-.464.052,2.015,2.015,0,0,0-.535.2,2.586,2.586,0,0,0-.56.419,3.455,3.455,0,0,0-.549.69,6.39,6.39,0,0,0-.5,1.03,8.753,8.753,0,0,0-.4,1.441,1.5,1.5,0,0,1-.336.745.688.688,0,0,1-.5.239H190.6a.892.892,0,0,0-.284.034.266.266,0,0,0-.149.1.4.4,0,0,0-.059.18c-.006.074-.012.159-.012.258v.279a1.828,1.828,0,0,0,.023.328.387.387,0,0,0,.077.186.257.257,0,0,0,.152.081,1.45,1.45,0,0,0,.251.016h.479a1.712,1.712,0,0,0,1.585-.9c.114.117.238.235.375.354a2.811,2.811,0,0,0,.472.315,2.745,2.745,0,0,0,.6.228,2.959,2.959,0,0,0,.765.089,2.341,2.341,0,0,0,1.1-.254m-7.921-8.83a.805.805,0,0,0,.172.249.781.781,0,0,0,1.114,0,.832.832,0,0,0,.167-.249.759.759,0,0,0,.063-.3.809.809,0,0,0-.23-.562.863.863,0,0,0-.248-.166.814.814,0,0,0-.615,0,.868.868,0,0,0-.251.166.76.76,0,0,0-.172.253.77.77,0,0,0-.063.309.741.741,0,0,0,.063.3m-2.023,0a.746.746,0,0,0,.165.249.8.8,0,0,0,.248.17.729.729,0,0,0,.3.063.751.751,0,0,0,.3-.063.82.82,0,0,0,.253-.17.777.777,0,0,0,.175-.249.745.745,0,0,0,.062-.3.774.774,0,0,0-.062-.309.735.735,0,0,0-.175-.253.941.941,0,0,0-.253-.166.792.792,0,0,0-.3-.06.769.769,0,0,0-.3.06.91.91,0,0,0-.248.166.708.708,0,0,0-.165.253.808.808,0,0,0-.06.309.778.778,0,0,0,.06.3m3.589,1.581h-1.644v.856c-.236.067-.5.153-.774.256a7.234,7.234,0,0,0-.843.377,6.086,6.086,0,0,0-.82.513,3.771,3.771,0,0,0-.7.673,3.275,3.275,0,0,0-.491.856,2.857,2.857,0,0,0-.185,1.053,2.36,2.36,0,0,0,.217,1.053,2.184,2.184,0,0,0,.565.722,2.36,2.36,0,0,0,.775.421,2.775,2.775,0,0,0,.85.136,2.719,2.719,0,0,0,.781-.1,3.219,3.219,0,0,0,.76-.339,1.486,1.486,0,0,0,.207.366,1.265,1.265,0,0,0,.344.3,1.771,1.771,0,0,0,.516.207,2.986,2.986,0,0,0,.719.077h.722a1.449,1.449,0,0,0,.251-.016.258.258,0,0,0,.151-.081.366.366,0,0,0,.074-.186,2.339,2.339,0,0,0,.019-.328v-.279c0-.1,0-.184-.012-.258a.361.361,0,0,0-.06-.18.26.26,0,0,0-.146-.1.879.879,0,0,0-.278-.034h-.442a.759.759,0,0,1-.287-.046.346.346,0,0,1-.174-.146.659.659,0,0,1-.08-.272,4.208,4.208,0,0,1-.019-.422Zm-1.644,5.041a1.663,1.663,0,0,1-.262.164,3.031,3.031,0,0,1-.291.129,2.276,2.276,0,0,1-.3.084,1.4,1.4,0,0,1-.286.03,1.168,1.168,0,0,1-.4-.074,1.1,1.1,0,0,1-.355-.216,1.041,1.041,0,0,1-.245-.363,1.278,1.278,0,0,1-.093-.5,1.525,1.525,0,0,1,.156-.676,1.844,1.844,0,0,1,.446-.59,2.881,2.881,0,0,1,.7-.463,4.056,4.056,0,0,1,.93-.3Zm-10.167,2.39h1.646V144.136h-1.646Zm-4.858-11.515a3.464,3.464,0,0,0-.406-.056c-.108-.007-.21-.01-.309-.01a1.665,1.665,0,0,0-.5.073,1.162,1.162,0,0,0-.423.233,1.125,1.125,0,0,0-.3.4,1.356,1.356,0,0,0-.112.574,1.2,1.2,0,0,0,.1.453,1.434,1.434,0,0,0,.319.453h-.679v.819h2.374v-.819h-.4a.928.928,0,0,1-.288-.049.963.963,0,0,1-.267-.154.8.8,0,0,1-.2-.248.721.721,0,0,1-.078-.338.577.577,0,0,1,.151-.421.5.5,0,0,1,.366-.155,1.448,1.448,0,0,1,.294.026c.087.018.185.043.287.071Zm1.475.923v9.118h-1.806v-6.591h-1.644v6.591H168.49v1.466h7.585V144.136Zm-8.7,1.344a.8.8,0,0,0-.167-.248.794.794,0,0,0-.243-.166.726.726,0,0,0-.3-.061.76.76,0,0,0-.307.061.876.876,0,0,0-.253.166.748.748,0,0,0-.174.248.79.79,0,0,0,0,.611.762.762,0,0,0,.174.251.833.833,0,0,0,.253.17.783.783,0,0,0,.307.063.747.747,0,0,0,.3-.063.758.758,0,0,0,.243-.17.821.821,0,0,0,.167-.251.79.79,0,0,0,0-.611m.047,7.774a1.741,1.741,0,0,1-.786-.16,1.434,1.434,0,0,1-.519-.417,1.651,1.651,0,0,1-.288-.585,2.515,2.515,0,0,1-.089-.658,2.212,2.212,0,0,1,.116-.764,1.546,1.546,0,0,1,.293-.514,1.137,1.137,0,0,1,.4-.287,1.111,1.111,0,0,1,.431-.088,2.873,2.873,0,0,1,.5.054,5.018,5.018,0,0,1,.619.152l.288-1.51a1.575,1.575,0,0,0-.323-.119c-.129-.033-.261-.063-.4-.085s-.267-.04-.4-.052-.23-.019-.309-.019a2.611,2.611,0,0,0-1.143.249,2.569,2.569,0,0,0-.879.686,3.153,3.153,0,0,0-.57,1.044,4.11,4.11,0,0,0-.2,1.318,2.919,2.919,0,0,0,.027.382,3.684,3.684,0,0,0,.085.451,3.3,3.3,0,0,0,.156.477,2.04,2.04,0,0,0,.243.445h-1.555a.97.97,0,0,0-.3.034.267.267,0,0,0-.151.1.378.378,0,0,0-.059.18,2.383,2.383,0,0,0-.012.258v.279a1.849,1.849,0,0,0,.022.328.376.376,0,0,0,.079.186.26.26,0,0,0,.158.081,1.6,1.6,0,0,0,.258.016h5.742v-1.466Zm-7.45-7.774a.839.839,0,0,0-.165-.248.813.813,0,0,0-.246-.166.75.75,0,0,0-.3-.061.774.774,0,0,0-.314.061.879.879,0,0,0-.255.166.763.763,0,0,0-.174.248.8.8,0,0,0,0,.611.777.777,0,0,0,.174.251.836.836,0,0,0,.255.17.8.8,0,0,0,.314.063.768.768,0,0,0,.545-.232.857.857,0,0,0,.165-.251.776.776,0,0,0,0-.611m-.969,9.239a3.218,3.218,0,0,0,1.227-.211,2.545,2.545,0,0,0,.859-.561,4.222,4.222,0,0,0,.387.3,2.881,2.881,0,0,0,.458.246,2.852,2.852,0,0,0,.534.17,3.015,3.015,0,0,0,.611.061h.067a1.456,1.456,0,0,0,.25-.016.255.255,0,0,0,.151-.081.344.344,0,0,0,.073-.186,2.176,2.176,0,0,0,.02-.328v-.279a2.3,2.3,0,0,0-.013-.258.392.392,0,0,0-.057-.18.266.266,0,0,0-.149-.1.863.863,0,0,0-.275-.034h-.045a3.691,3.691,0,0,1-.762-.076,2,2,0,0,1-.667-.256,1.633,1.633,0,0,0,.037-.2c.009-.081.017-.164.026-.249s.014-.165.019-.249.007-.156.007-.216a4.494,4.494,0,0,0-.635-2.162,10.983,10.983,0,0,0-1.827-2.354l-1.253,1.26a10.477,10.477,0,0,1,.752.8,8.359,8.359,0,0,1,.679.916,5.677,5.677,0,0,1,.49.954,2.541,2.541,0,0,1,.188.907,1.109,1.109,0,0,1-.044.285.8.8,0,0,1-.166.3.933.933,0,0,1-.345.242,1.544,1.544,0,0,1-.587.094H155v1.466Zm-4.191,2.429a.8.8,0,0,0,.171.251.778.778,0,0,0,.249.169.752.752,0,0,0,.307.063.742.742,0,0,0,.3-.063.763.763,0,0,0,.249-.169.887.887,0,0,0,.165-.251.726.726,0,0,0,.063-.3.78.78,0,0,0-.063-.309.822.822,0,0,0-.165-.251.834.834,0,0,0-.249-.167.763.763,0,0,0-.3-.063.773.773,0,0,0-.307.063.851.851,0,0,0-.249.167.747.747,0,0,0-.171.251.8.8,0,0,0-.063.309.742.742,0,0,0,.063.3m-2.024,0a.767.767,0,0,0,.167.251.778.778,0,0,0,.246.169.724.724,0,0,0,.3.063.75.75,0,0,0,.3-.063.844.844,0,0,0,.256-.169.821.821,0,0,0,.172-.251.722.722,0,0,0,.063-.3.776.776,0,0,0-.063-.309.765.765,0,0,0-.172-.251.929.929,0,0,0-.256-.167.771.771,0,0,0-.3-.063.744.744,0,0,0-.3.063.852.852,0,0,0-.246.167.718.718,0,0,0-.167.251.817.817,0,0,0-.058.309.759.759,0,0,0,.058.3m2.824-2.429v-6.162h-1.645v4.7h-1.532a.9.9,0,0,0-.284.034.269.269,0,0,0-.149.1.384.384,0,0,0-.057.18,2.365,2.365,0,0,0-.013.258v.279a1.834,1.834,0,0,0,.023.328.367.367,0,0,0,.077.186.261.261,0,0,0,.151.081,1.46,1.46,0,0,0,.251.016Zm-5.7-9a.8.8,0,0,0,.171.249.81.81,0,0,0,.251.17.781.781,0,0,0,.864-.17.874.874,0,0,0,.165-.249.724.724,0,0,0,.065-.3.752.752,0,0,0-.065-.309.82.82,0,0,0-.165-.253.866.866,0,0,0-.249-.166.814.814,0,0,0-.615,0,.929.929,0,0,0-.251.166.754.754,0,0,0-.171.253.77.77,0,0,0-.063.309.742.742,0,0,0,.063.3m-2.023,0a.714.714,0,0,0,.165.249.8.8,0,0,0,.246.17.735.735,0,0,0,.3.063.752.752,0,0,0,.306-.063.854.854,0,0,0,.255-.17.8.8,0,0,0,.173-.249.764.764,0,0,0,.064-.3.793.793,0,0,0-.064-.309.752.752,0,0,0-.173-.253.985.985,0,0,0-.255-.166.793.793,0,0,0-.306-.06.775.775,0,0,0-.3.06.919.919,0,0,0-.246.166.681.681,0,0,0-.165.253.8.8,0,0,0-.06.309.765.765,0,0,0,.06.3m3.589,1.581h-1.644v.856c-.236.067-.494.153-.773.256a7.4,7.4,0,0,0-.845.377,6.141,6.141,0,0,0-.817.513,3.755,3.755,0,0,0-.7.673,3.382,3.382,0,0,0-.49.856,2.888,2.888,0,0,0-.184,1.053,2.35,2.35,0,0,0,.218,1.053,2.153,2.153,0,0,0,.565.722,2.343,2.343,0,0,0,.775.421,2.774,2.774,0,0,0,.848.136,2.706,2.706,0,0,0,.782-.1,3.253,3.253,0,0,0,.761-.339,1.446,1.446,0,0,0,.207.366,1.242,1.242,0,0,0,.343.3,1.779,1.779,0,0,0,.517.207,2.971,2.971,0,0,0,.719.077h.723a1.469,1.469,0,0,0,.251-.016.257.257,0,0,0,.151-.081.358.358,0,0,0,.074-.186,2.6,2.6,0,0,0,.017-.328v-.279c0-.1,0-.184-.012-.258a.37.37,0,0,0-.058-.18.268.268,0,0,0-.148-.1.883.883,0,0,0-.277-.034h-.444a.766.766,0,0,1-.286-.046.358.358,0,0,1-.174-.146.642.642,0,0,1-.079-.272,3.554,3.554,0,0,1-.02-.422Zm-1.644,5.041a1.608,1.608,0,0,1-.262.164c-.1.048-.193.092-.291.129a2.257,2.257,0,0,1-.3.084,1.374,1.374,0,0,1-.283.03,1.163,1.163,0,0,1-.4-.074,1.017,1.017,0,0,1-.6-.579,1.278,1.278,0,0,1-.093-.5,1.555,1.555,0,0,1,.155-.676,1.915,1.915,0,0,1,.446-.59,2.932,2.932,0,0,1,.7-.463,4.018,4.018,0,0,1,.929-.3Zm-13.012,5.626a8.835,8.835,0,0,0,1.844-.409,4.2,4.2,0,0,0,1.448-.84,3.7,3.7,0,0,0,.949-1.415,5.9,5.9,0,0,0,.337-2.132v-1.261a6.644,6.644,0,0,0-.114-1.3,4.034,4.034,0,0,0-.307-.959,2.436,2.436,0,0,0-.449-.664,2.376,2.376,0,0,0-.538-.417,2,2,0,0,0-.574-.216,2.719,2.719,0,0,0-.561-.064,2.569,2.569,0,0,0-1.146.261,2.8,2.8,0,0,0-.925.714,3.443,3.443,0,0,0-.615,1.085,3.986,3.986,0,0,0-.225,1.366,3.8,3.8,0,0,0,.153,1.05,2.938,2.938,0,0,0,.494.975,2.618,2.618,0,0,0,.878.719,2.756,2.756,0,0,0,1.3.28c.108,0,.242-.007.4-.022a3.225,3.225,0,0,0,.459-.072,2.378,2.378,0,0,1-.368.567,2.531,2.531,0,0,1-.586.488,4.244,4.244,0,0,1-.873.393,7.327,7.327,0,0,1-1.232.277Zm1.477-4.838a1.31,1.31,0,0,1-.455-.379,1.6,1.6,0,0,1-.27-.558,2.482,2.482,0,0,1-.089-.674,2.815,2.815,0,0,1,.078-.673,1.838,1.838,0,0,1,.231-.559,1.16,1.16,0,0,1,.38-.382.937.937,0,0,1,.511-.141.874.874,0,0,1,.465.121.922.922,0,0,1,.335.419,2.872,2.872,0,0,1,.2.8,10.039,10.039,0,0,1,.066,1.257v.752a2.271,2.271,0,0,1-.374.107,2.2,2.2,0,0,1-.421.048,1.5,1.5,0,0,1-.662-.135m-5.5,1.6h1.644V144.136H131.15Zm-1.586-.009V144.136h-1.645v9.118H126.5a.9.9,0,0,0-.284.034.266.266,0,0,0-.148.1.392.392,0,0,0-.059.18c-.006.074-.012.159-.012.258v.279a1.831,1.831,0,0,0,.023.328.387.387,0,0,0,.077.186.261.261,0,0,0,.151.081,1.49,1.49,0,0,0,.251.016Zm-4.376-9.239a.793.793,0,0,0-.409-.414.735.735,0,0,0-.3-.061.755.755,0,0,0-.307.061.908.908,0,0,0-.254.166.8.8,0,0,0-.173.248.787.787,0,0,0,0,.611.81.81,0,0,0,.173.251.862.862,0,0,0,.254.17.778.778,0,0,0,.307.063.747.747,0,0,0,.544-.232.819.819,0,0,0,.167-.251.773.773,0,0,0,0-.611M122.236,157.8a5.765,5.765,0,0,0,1.21-.362,2.91,2.91,0,0,0,.892-.594,2.857,2.857,0,0,0,.6-.884,4.688,4.688,0,0,0,.327-1.237h1.288a1.384,1.384,0,0,0,.246-.016.254.254,0,0,0,.149-.081.353.353,0,0,0,.073-.186,2.172,2.172,0,0,0,.02-.328v-.279c0-.1,0-.184-.008-.258a.355.355,0,0,0-.057-.18.259.259,0,0,0-.146-.1.875.875,0,0,0-.277-.034h-1.195v-4.7H123.7v5.167a5.163,5.163,0,0,1-.071.911,1.76,1.76,0,0,1-.272.693,1.681,1.681,0,0,1-.571.507,3.66,3.66,0,0,1-.966.337Zm-4.092,0a5.064,5.064,0,0,0,1.434-.465,2.721,2.721,0,0,0,.97-.837,3.534,3.534,0,0,0,.549-1.3,8.578,8.578,0,0,0,.174-1.858v-4.779h-1.659v5.167a5.912,5.912,0,0,1-.063.907,1.723,1.723,0,0,1-.254.684,1.5,1.5,0,0,1-.56.491,3.663,3.663,0,0,1-.973.323Zm-2.571-3.067h1.644V144.136h-1.644Zm-2.744-1.475a1.747,1.747,0,0,1-.786-.16,1.443,1.443,0,0,1-.519-.417,1.652,1.652,0,0,1-.288-.585,2.556,2.556,0,0,1-.088-.658,2.247,2.247,0,0,1,.114-.764,1.584,1.584,0,0,1,.3-.514,1.155,1.155,0,0,1,.4-.287,1.12,1.12,0,0,1,.433-.088,2.861,2.861,0,0,1,.5.054,4.945,4.945,0,0,1,.62.152l.288-1.51a1.561,1.561,0,0,0-.322-.119c-.13-.033-.262-.063-.4-.085s-.266-.04-.4-.052-.229-.019-.309-.019a2.578,2.578,0,0,0-2.024.935,3.171,3.171,0,0,0-.567,1.044,4.118,4.118,0,0,0-.2,1.318,2.9,2.9,0,0,0,.026.382,3.266,3.266,0,0,0,.085.451,3.492,3.492,0,0,0,.155.477,2.144,2.144,0,0,0,.241.445h-1.553a.967.967,0,0,0-.3.034.265.265,0,0,0-.151.1.36.36,0,0,0-.058.18,2.143,2.143,0,0,0-.012.258v.279a2.118,2.118,0,0,0,.021.328.385.385,0,0,0,.079.186.259.259,0,0,0,.159.081,1.591,1.591,0,0,0,.258.016h5.741v-1.466Zm-6.838-7.536a.839.839,0,0,0,.17.249.811.811,0,0,0,.253.17.778.778,0,0,0,.863-.17.81.81,0,0,0,.166-.249.742.742,0,0,0,.063-.3.814.814,0,0,0-.229-.562.86.86,0,0,0-.248-.166.814.814,0,0,0-.615,0,.93.93,0,0,0-.253.166.789.789,0,0,0-.17.253.77.77,0,0,0-.063.309.742.742,0,0,0,.063.3m-2.023,0a.77.77,0,0,0,.165.249.8.8,0,0,0,.246.17.729.729,0,0,0,.3.063.757.757,0,0,0,.307-.063.836.836,0,0,0,.254-.17.776.776,0,0,0,.174-.249.746.746,0,0,0,.063-.3.775.775,0,0,0-.063-.309.734.734,0,0,0-.174-.253.962.962,0,0,0-.254-.166.8.8,0,0,0-.307-.06.768.768,0,0,0-.3.06.919.919,0,0,0-.246.166.73.73,0,0,0-.165.253.813.813,0,0,0-.06.309.783.783,0,0,0,.06.3m3.59,1.581h-1.644v.856c-.237.067-.5.153-.774.256a7.329,7.329,0,0,0-.844.377,6.23,6.23,0,0,0-.818.513,3.772,3.772,0,0,0-.7.673,3.24,3.24,0,0,0-.491.856,2.857,2.857,0,0,0-.184,1.053,2.357,2.357,0,0,0,.217,1.053,2.162,2.162,0,0,0,.565.722,2.352,2.352,0,0,0,.774.421,2.792,2.792,0,0,0,.851.136,2.717,2.717,0,0,0,.781-.1,3.266,3.266,0,0,0,.761-.339,1.428,1.428,0,0,0,.206.366,1.246,1.246,0,0,0,.344.3,1.761,1.761,0,0,0,.516.207,2.992,2.992,0,0,0,.72.077h.722a1.479,1.479,0,0,0,.251-.016.257.257,0,0,0,.151-.081.387.387,0,0,0,.074-.186,2.343,2.343,0,0,0,.019-.328v-.279c0-.1,0-.184-.012-.258a.371.371,0,0,0-.059-.18.267.267,0,0,0-.148-.1.865.865,0,0,0-.277-.034h-.442a.762.762,0,0,1-.288-.046.344.344,0,0,1-.173-.146.623.623,0,0,1-.081-.272,3.875,3.875,0,0,1-.019-.422Zm-1.644,5.041a1.735,1.735,0,0,1-.263.164,3.174,3.174,0,0,1-.291.129,2.188,2.188,0,0,1-.3.084,1.38,1.38,0,0,1-.282.03,1.166,1.166,0,0,1-.407-.074,1.043,1.043,0,0,1-.353-.216,1.032,1.032,0,0,1-.247-.363,1.261,1.261,0,0,1-.093-.5,1.525,1.525,0,0,1,.156-.676,1.858,1.858,0,0,1,.445-.59,2.9,2.9,0,0,1,.7-.463,4.048,4.048,0,0,1,.93-.3Z" transform="translate(-102.103 -143.147)" fill="#555"/>
    </g>
  </g>
</svg>
