<svg id="FAO_EN" xmlns="http://www.w3.org/2000/svg" width="277.869" height="76.771" viewBox="0 0 277.869 76.771">
  <path id="Path_13009" data-name="Path 13009" d="M121.388,159.772a38.386,38.386,0,1,1,38.384-38.384A38.43,38.43,0,0,1,121.388,159.772Zm-.146-53.522c.049,0,3.118,3.287,3.118,5.918a3.237,3.237,0,0,1-2.972,3.53c-.038,0-.083,0-.131-.008h-.03c-.048,0-.1.008-.13.008a3.239,3.239,0,0,1-2.972-3.53C118.125,109.538,121.186,106.251,121.241,106.251ZM92.336,123.524h3.5v-6.47h5.883v-2.71H95.838v-3.594h6.077v-2.7h-9.58Zm32.08-16.808h3.693l-4.292-15.474H119.1l-4.447,15.474h3.419l.983-3.458h4.478Zm-1.536-6.079h-3.218l1.5-6.729h.246Zm16.216,15.15c0,4.545,2.109,8,6.56,8s6.593-3.456,6.593-8-2.131-8-6.593-8S139.1,111.239,139.1,115.787Zm3.731,0c0-2.97.728-5.386,2.829-5.386s2.867,2.416,2.867,5.386-.759,5.388-2.867,5.388S142.826,118.756,142.826,115.787Zm-23.076,39.7a51.9,51.9,0,0,0,.408-6.718V148.3c0-3.964-.146-5.3-2.791-6.18-4.085-1.353-5.756-5.913-4.86-11.59L98.839,95.77a34.129,34.129,0,0,0,20.911,59.721Zm1.622-22.164c-5.438-1.268-7.457-6.223-7.457-10.622L101.949,93.333c-.781.54-1.539,1.118-2.273,1.718,2.633,6.239,14.445,34.271,14.461,34.311,2.09,5.036,5.894,3.366,6.813,7.524a9.317,9.317,0,0,1,.236,1.45h.407a8.234,8.234,0,0,1,.235-1.45c.92-4.157,4.713-2.488,6.806-7.524.015-.04,11.828-28.072,14.457-34.311-.733-.6-1.487-1.178-2.273-1.718l-11.963,29.373c0,4.4-2.022,9.354-7.461,10.622Zm-.007-8.865c-2.306-.516-5.18-2.806-5.554-5.753a13.179,13.179,0,0,1-.078-3.661L105.245,91.309q-1.265.682-2.474,1.474c3.136,7.046,12.723,28.572,12.73,28.6,1.517,3.193,4.179,3.257,5.1,5.161a6.126,6.126,0,0,1,.61,2.22h.351a6.312,6.312,0,0,1,.609-2.22c.923-1.9,3.585-1.968,5.1-5.161.007-.026,9.6-21.552,12.73-28.6-.8-.525-1.627-1.019-2.475-1.474l-10.476,23.739a12.686,12.686,0,0,1-.09,3.661c-.374,2.948-3.249,5.238-5.543,5.753Zm.146-4.033.16-1.294c.662-3.006,2.844-2.633,4.359-5.584l.026-.044c.045-.112,7.463-16.026,10.559-22.674a34.094,34.094,0,0,0-30.458,0c3.1,6.647,10.511,22.562,10.571,22.674a.372.372,0,0,0,.022.044c1.507,2.951,3.685,2.577,4.347,5.584l.16,1.294Zm34.019.959A34.1,34.1,0,0,0,143.94,95.77l-13.679,34.76c.909,5.678-.774,10.237-4.859,11.59-2.646.878-2.792,2.216-2.792,6.18v.473a54.106,54.106,0,0,0,.408,6.718A34.186,34.186,0,0,0,155.53,121.388Zm-57.5,10.085s.5,1.071.915,1.833.965,1.679.965,1.679l-.9.525s-.684-1.139-1.312-2.454c-.172.088-1.252.65-1.431.739.1.192,1.211,2.322,1.211,2.322l-.913.526s-1.122-2.179-1.217-2.363c-.195.1-2.523,1.3-2.523,1.3l-.557-1.107,5.7-2.966Zm3.6,5.843.793.956-4.985,4.168-.808-.956,4.941-4.128Zm4.619,4.371.987.707-1.278,6.873-1.132-.651s.284-1.4.317-1.536c-.055-.046-.714-.44-1.353-.891s-1.282-.985-1.342-1.025c-.122.073-1.374.812-1.374.812l-.968-.827,6.081-3.426Zm-2.882,2.918c.116.1.539.441.976.755a11.843,11.843,0,0,0,1.02.661c.063-.288.519-2.548.612-2.967C105.612,143.276,103.635,144.45,103.373,144.6Zm6.993-.387a22.924,22.924,0,0,0,2.55,1.035,24.157,24.157,0,0,0,2.736.817l-.3.989a19.7,19.7,0,0,1-2.129-.548l-1.791,5.117-1.174-.407s1.709-4.907,1.782-5.123a19,19,0,0,1-2.084-.913Zm20.531,1.308a1.866,1.866,0,0,1,.9,1.183,2.305,2.305,0,0,1,.116.686c0,.909-.636,1.622-1.783,1.981l-.751.233c.068.2.751,2.407.751,2.407l-1.14.294-1.932-6.26,1.727-.538A2.78,2.78,0,0,1,130.9,145.526Zm-2.414,1.177c.056.193.534,1.721.591,1.908.238-.068.758-.235.758-.235a1.312,1.312,0,0,0,.773-.583.864.864,0,0,0,.1-.4,1.232,1.232,0,0,0-.055-.333.838.838,0,0,0-.415-.5,1.571,1.571,0,0,0-1.118-.053S128.642,146.654,128.482,146.7Zm6.29-3.906,5.636,4.129-1,.7-1.245-.945c-.067.038-.647.449-1.274.82-.59.357-1.229.671-1.294.71.027.146.248,1.529.248,1.529l-1.077.514-.946-6.909Zm.646,4.376c.168-.081.606-.321,1.04-.582.388-.236.7-.43.855-.554-.228-.173-1.989-1.513-2.354-1.8C135.034,144.7,135.373,146.885,135.418,147.172Zm5.793-10.065,4.915,4.384-.885,1.036s-4.608-1.344-5.307-1.532c.519.5,3.378,3.51,3.378,3.51l-.863.78-4.631-4.7,1.088-.975s4.447,1.328,5.146,1.511c-.519-.493-3.588-3.131-3.588-3.131Zm2.246-3.272,5.693,3.3-.579,1-5.722-3.311Zm2.467-5.463.976.508-.1.113a2.816,2.816,0,0,0-.61,1.019,1.142,1.142,0,0,0-.015.864.612.612,0,0,0,.389.319c.434.146.808-.231,1.237-.668a2.339,2.339,0,0,1,2.549-.959c1.222.414,1.637,1.5,1.132,2.983a4.616,4.616,0,0,1-.691,1.2l-.06.077-1.009-.47.1-.119a3.765,3.765,0,0,0,.7-1.125,1.024,1.024,0,0,0-.516-1.378c-.541-.187-.949.232-1.424.721-.577.606-1.238,1.29-2.328.918a1.747,1.747,0,0,1-1.039-.871,2.317,2.317,0,0,1-.026-1.789,4.15,4.15,0,0,1,.676-1.261Z" transform="translate(-83 -83.001)" fill="#5792c9"/>
  <g id="Group_10194" data-name="Group 10194" transform="translate(90.381 6.944)">
    <path id="Path_13010" data-name="Path 13010" d="M324.777,104.441h7.645v2.209h-4.873v4.113h4.656v2.21h-4.656v6.582h-2.772Z" transform="translate(-324.171 -103.316)" fill="#5792c9"/>
    <path id="Path_13011" data-name="Path 13011" d="M353.044,114.514c2.274,0,4.895,1.19,4.895,5.738,0,4.676-2.621,5.759-4.895,5.759s-4.914-1.083-4.914-5.759C348.13,115.7,350.77,114.514,353.044,114.514Zm0,9.593c1.734,0,2.123-1.993,2.123-3.855s-.39-3.833-2.123-3.833-2.143,1.971-2.143,3.833S351.313,124.107,353.044,124.107Z" transform="translate(-338.735 -109.598)" fill="#5792c9"/>
    <path id="Path_13012" data-name="Path 13012" d="M383.93,114.514c2.273,0,4.895,1.19,4.895,5.738,0,4.676-2.622,5.759-4.895,5.759s-4.914-1.083-4.914-5.759C379.016,115.7,381.656,114.514,383.93,114.514Zm0,9.593c1.733,0,2.123-1.993,2.123-3.855s-.39-3.833-2.123-3.833-2.144,1.971-2.144,3.833S382.2,124.107,383.93,124.107Z" transform="translate(-357.998 -109.598)" fill="#5792c9"/>
    <path id="Path_13013" data-name="Path 13013" d="M419.364,101.452v14.335a14.48,14.48,0,0,0,.086,1.9h-2.511a14.77,14.77,0,0,1-.086-1.731h-.066a3,3,0,0,1-2.967,1.9c-2.772,0-3.918-2.641-3.918-5.738,0-3.638,1.449-5.759,3.853-5.759a3,3,0,0,1,2.88,1.774h.043v-6.689Zm-4.807,14.441c1.581,0,2.122-1.711,2.122-3.809,0-2.165-.607-3.747-2.079-3.747-1.494,0-2.013,1.452-2.013,3.682C412.586,114.595,413,115.893,414.556,115.893Z" transform="translate(-377.261 -101.452)" fill="#5792c9"/>
    <path id="Path_13014" data-name="Path 13014" d="M456.119,115.336a7.793,7.793,0,0,1,3.53-.822c3.465,0,4.266,1.689,4.266,4.482v4.87a13.936,13.936,0,0,0,.15,1.971H461.64a5.589,5.589,0,0,1-.151-1.517h-.044a3.585,3.585,0,0,1-3.118,1.689,3.2,3.2,0,0,1-3.334-3.27c0-3.031,2.469-3.789,5.868-3.789h.542v-.411a1.919,1.919,0,0,0-2.079-2.122,5.137,5.137,0,0,0-3.053,1.082Zm5.284,5.046h-.239c-2.3,0-3.66.477-3.66,2.1a1.614,1.614,0,0,0,1.712,1.711c1.6,0,2.188-1.191,2.188-3.181Z" transform="translate(-405.383 -109.598)" fill="#5792c9"/>
    <path id="Path_13015" data-name="Path 13015" d="M485.16,116.527a15.389,15.389,0,0,0-.086-1.841h2.51c.022.562.087,1.146.087,1.711h.044a3.25,3.25,0,0,1,2.967-1.884c2.532,0,3.291,1.884,3.291,4.135v7.189h-2.685v-6.69c0-1.71-.434-2.426-1.538-2.426-1.406,0-1.9,1.192-1.9,2.62v6.5H485.16Z" transform="translate(-424.143 -109.598)" fill="#5792c9"/>
    <path id="Path_13016" data-name="Path 13016" d="M523.809,101.452v14.335a14.651,14.651,0,0,0,.087,1.9h-2.51a14.708,14.708,0,0,1-.087-1.731h-.066a3,3,0,0,1-2.967,1.9c-2.772,0-3.918-2.641-3.918-5.738,0-3.638,1.45-5.759,3.854-5.759a3,3,0,0,1,2.88,1.774h.042v-6.689ZM519,115.893c1.581,0,2.121-1.711,2.121-3.809,0-2.165-.606-3.747-2.078-3.747-1.495,0-2.013,1.452-2.013,3.682C517.033,114.595,517.445,115.893,519,115.893Z" transform="translate(-442.401 -101.452)" fill="#5792c9"/>
    <path id="Path_13017" data-name="Path 13017" d="M564,115.916h-5.2l-1.083,3.639h-2.771l5.067-15.115h3.03l4.873,15.115h-2.857Zm-.585-2.119-1.906-7.061h-.043l-2.078,7.061Z" transform="translate(-467.725 -103.316)" fill="#5792c9"/>
    <path id="Path_13018" data-name="Path 13018" d="M592.813,127.569a7.065,7.065,0,0,0,3.292.954c2.533,0,2.945-1.755,2.945-3.507v-1.062h-.043a3.053,3.053,0,0,1-2.946,1.884c-1.559,0-3.9-1.04-3.9-5.544,0-3.074,1.1-5.78,4.026-5.78a3.185,3.185,0,0,1,2.944,1.9h.087c0-.586.066-1.149.088-1.732h2.425c-.043.583-.087,1.169-.087,1.753v8.23c0,3.486-1.06,5.975-5.153,5.975a11.267,11.267,0,0,1-3.832-.691Zm3.875-3.7c1.69,0,2.361-1.214,2.361-3.746,0-2.338-.888-3.594-2.165-3.572-1.408.021-1.948,1.321-1.948,3.594C594.936,122.762,595.78,123.867,596.689,123.867Z" transform="translate(-490.933 -109.598)" fill="#5792c9"/>
    <path id="Path_13019" data-name="Path 13019" d="M623.943,116.527a15.371,15.371,0,0,0-.086-1.841h2.424c.022.67.086,1.365.086,2.035h.045a3.112,3.112,0,0,1,2.836-2.208,2.91,2.91,0,0,1,.456.064v2.512a2.8,2.8,0,0,0-.759-.108c-1.1,0-2.316.671-2.316,2.749v6.106h-2.685Z" transform="translate(-510.698 -109.598)" fill="#5792c9"/>
    <path id="Path_13020" data-name="Path 13020" d="M644.676,102.37h2.772v2.641h-2.772Zm.043,4.743H647.4v11.151h-2.686Z" transform="translate(-523.682 -102.025)" fill="#5792c9"/>
    <path id="Path_13021" data-name="Path 13021" d="M666.129,125.556a7.6,7.6,0,0,1-2.641.455c-3.681,0-5.24-2.576-5.24-5.738,0-3.183,1.645-5.759,5.391-5.759a7.3,7.3,0,0,1,2.34.455l-.152,2.121a4.3,4.3,0,0,0-1.884-.541c-2.035,0-2.922,1.365-2.922,3.745,0,2.079,1,3.682,3.052,3.682a4.312,4.312,0,0,0,1.906-.541Z" transform="translate(-532.146 -109.598)" fill="#5792c9"/>
    <path id="Path_13022" data-name="Path 13022" d="M692.372,124.283a15.4,15.4,0,0,0,.086,1.841h-2.512c-.022-.564-.086-1.147-.086-1.71l-.064-.021.022.021a3.251,3.251,0,0,1-2.967,1.883c-2.533,0-3.29-1.883-3.29-4.137v-7.187h2.684v6.69c0,1.71.476,2.426,1.6,2.426,1.43,0,1.842-1.3,1.842-2.73v-6.386h2.686Z" transform="translate(-547.933 -109.885)" fill="#5792c9"/>
    <path id="Path_13023" data-name="Path 13023" d="M714.1,101.452h2.685v16.239H714.1Z" transform="translate(-566.978 -101.452)" fill="#5792c9"/>
    <path id="Path_13024" data-name="Path 13024" d="M728.067,107.508l2.685-.823V109.8h2.23v1.969h-2.23v5.782c0,1.192.433,1.537,1.212,1.537a2.1,2.1,0,0,0,1.018-.239v1.908a4.153,4.153,0,0,1-1.8.367c-1.993,0-3.118-.91-3.118-3.248v-6.106h-1.776V109.8h1.776Z" transform="translate(-574.583 -104.716)" fill="#5792c9"/>
    <path id="Path_13025" data-name="Path 13025" d="M757.421,124.283a14.924,14.924,0,0,0,.087,1.841h-2.513c-.022-.564-.086-1.147-.086-1.71l-.064-.021.022.021A3.251,3.251,0,0,1,751.9,126.3c-2.533,0-3.289-1.883-3.289-4.137v-7.187h2.684v6.69c0,1.71.476,2.426,1.6,2.426,1.43,0,1.842-1.3,1.842-2.73v-6.386h2.686Z" transform="translate(-588.502 -109.885)" fill="#5792c9"/>
    <path id="Path_13026" data-name="Path 13026" d="M778.544,116.527a15.238,15.238,0,0,0-.086-1.841h2.424c.022.67.086,1.365.086,2.035h.044a3.112,3.112,0,0,1,2.836-2.208,2.888,2.888,0,0,1,.456.064v2.512a2.782,2.782,0,0,0-.758-.108c-1.1,0-2.317.671-2.317,2.749v6.106h-2.684Z" transform="translate(-607.118 -109.598)" fill="#5792c9"/>
    <path id="Path_13027" data-name="Path 13027" d="M805.807,125.3a8.317,8.317,0,0,1-3.334.714c-3.6,0-5.154-2.576-5.154-5.586,0-3.335,1.753-5.911,4.59-5.911,2.4,0,4.46,1.407,4.46,5.955v.52h-6.451c0,1.9.757,3.051,2.836,3.051a4.436,4.436,0,0,0,2.921-.864Zm-2.035-6c0-1.971-.651-2.967-1.863-2.967-1.407,0-1.991,1.494-1.991,2.967Z" transform="translate(-618.881 -109.598)" fill="#5792c9"/>
    <path id="Path_13028" data-name="Path 13028" d="M329.185,168.885c3.14,0,6.019,2.338,6.019,7.772s-2.879,7.773-6.019,7.773-6.019-2.338-6.019-7.773S326.046,168.885,329.185,168.885Zm0,13.425c1.754,0,3.162-1.5,3.162-5.653s-1.408-5.651-3.162-5.651-3.161,1.493-3.161,5.651S327.432,182.31,329.185,182.31Z" transform="translate(-323.166 -143.508)" fill="#5792c9"/>
    <path id="Path_13029" data-name="Path 13029" d="M361.1,181.543a15.318,15.318,0,0,0-.086-1.841h2.425c.022.67.086,1.364.086,2.035h.044a3.11,3.11,0,0,1,2.836-2.208,2.949,2.949,0,0,1,.456.063V182.1A2.779,2.779,0,0,0,366.1,182c-1.1,0-2.316.671-2.316,2.75v6.105H361.1Z" transform="translate(-346.769 -150.146)" fill="#5792c9"/>
    <path id="Path_13030" data-name="Path 13030" d="M380.522,192.584a7.072,7.072,0,0,0,3.292.954c2.533,0,2.945-1.754,2.945-3.507v-1.062h-.043a3.051,3.051,0,0,1-2.947,1.883c-1.558,0-3.9-1.038-3.9-5.543,0-3.075,1.1-5.78,4.027-5.78a3.186,3.186,0,0,1,2.944,1.9h.088c0-.586.065-1.148.086-1.731h2.425c-.042.584-.086,1.169-.086,1.753v8.231c0,3.484-1.06,5.973-5.154,5.973a11.271,11.271,0,0,1-3.832-.691Zm3.877-3.7c1.689,0,2.36-1.213,2.36-3.746,0-2.339-.888-3.594-2.166-3.573-1.407.021-1.948,1.321-1.948,3.593C382.645,187.777,383.488,188.883,384.4,188.883Z" transform="translate(-358.532 -150.146)" fill="#5792c9"/>
    <path id="Path_13031" data-name="Path 13031" d="M411.136,180.35a7.8,7.8,0,0,1,3.531-.821c3.465,0,4.266,1.689,4.266,4.482v4.872a13.783,13.783,0,0,0,.151,1.969h-2.427a5.569,5.569,0,0,1-.151-1.514h-.044a3.586,3.586,0,0,1-3.117,1.689,3.2,3.2,0,0,1-3.335-3.27c0-3.031,2.469-3.79,5.867-3.79h.542v-.411a1.919,1.919,0,0,0-2.079-2.123,5.137,5.137,0,0,0-3.053,1.083Zm5.284,5.047h-.239c-2.3,0-3.659.476-3.659,2.1a1.615,1.615,0,0,0,1.711,1.711c1.6,0,2.188-1.19,2.188-3.183Z" transform="translate(-377.329 -150.146)" fill="#5792c9"/>
    <path id="Path_13032" data-name="Path 13032" d="M440.179,181.543a15.494,15.494,0,0,0-.085-1.841h2.51c.022.562.087,1.146.087,1.71h.044a3.249,3.249,0,0,1,2.966-1.883c2.533,0,3.292,1.883,3.292,4.135v7.188h-2.685v-6.689c0-1.711-.434-2.426-1.538-2.426-1.406,0-1.9,1.192-1.9,2.62v6.5h-2.685Z" transform="translate(-396.09 -150.146)" fill="#5792c9"/>
    <path id="Path_13033" data-name="Path 13033" d="M470.751,167.384h2.771v2.641h-2.771Zm.042,4.743h2.685v11.15h-2.685Z" transform="translate(-415.21 -142.572)" fill="#5792c9"/>
    <path id="Path_13034" data-name="Path 13034" d="M483.517,188.822l4.764-6.8h-4.614v-2.035h7.3v2.3l-4.678,6.821h4.829v2.034h-7.6Z" transform="translate(-423.172 -150.433)" fill="#5792c9"/>
    <path id="Path_13035" data-name="Path 13035" d="M508.107,180.35a7.8,7.8,0,0,1,3.531-.821c3.465,0,4.266,1.689,4.266,4.482v4.872a13.84,13.84,0,0,0,.151,1.969H513.63a5.523,5.523,0,0,1-.152-1.514h-.044a3.587,3.587,0,0,1-3.117,1.689,3.2,3.2,0,0,1-3.335-3.27c0-3.031,2.469-3.79,5.867-3.79h.543v-.411a1.919,1.919,0,0,0-2.079-2.123,5.129,5.129,0,0,0-3.052,1.083Zm5.284,5.047h-.239c-2.294,0-3.66.476-3.66,2.1a1.614,1.614,0,0,0,1.712,1.711c1.6,0,2.187-1.19,2.187-3.183Z" transform="translate(-437.807 -150.146)" fill="#5792c9"/>
    <path id="Path_13036" data-name="Path 13036" d="M537,172.522l2.686-.823v3.119h2.23v1.97h-2.23v5.781c0,1.192.432,1.538,1.212,1.538a2.128,2.128,0,0,0,1.018-.238v1.906a4.156,4.156,0,0,1-1.8.369c-1.992,0-3.117-.91-3.117-3.25v-6.106h-1.775v-1.97H537Z" transform="translate(-455.419 -145.263)" fill="#5792c9"/>
    <path id="Path_13037" data-name="Path 13037" d="M558.114,167.384h2.771v2.641h-2.771Zm.042,4.743h2.684v11.15h-2.684Z" transform="translate(-469.696 -142.572)" fill="#5792c9"/>
    <path id="Path_13038" data-name="Path 13038" d="M576.6,179.529c2.274,0,4.895,1.19,4.895,5.737,0,4.677-2.621,5.761-4.895,5.761s-4.915-1.084-4.915-5.761C571.685,180.719,574.327,179.529,576.6,179.529Zm0,9.592c1.734,0,2.123-1.992,2.123-3.855s-.389-3.833-2.123-3.833-2.143,1.971-2.143,3.833S574.868,189.121,576.6,189.121Z" transform="translate(-478.16 -150.146)" fill="#5792c9"/>
    <path id="Path_13039" data-name="Path 13039" d="M603.234,181.543a15.213,15.213,0,0,0-.087-1.841h2.512c.022.562.086,1.146.086,1.71h.044a3.249,3.249,0,0,1,2.966-1.883c2.533,0,3.292,1.883,3.292,4.135v7.188h-2.685v-6.689c0-1.711-.433-2.426-1.539-2.426-1.406,0-1.9,1.192-1.9,2.62v6.5h-2.685Z" transform="translate(-497.782 -150.146)" fill="#5792c9"/>
    <path id="Path_13040" data-name="Path 13040" d="M652.292,179.529c2.274,0,4.895,1.19,4.895,5.737,0,4.677-2.621,5.761-4.895,5.761s-4.914-1.084-4.914-5.761C647.378,180.719,650.019,179.529,652.292,179.529Zm0,9.592c1.734,0,2.123-1.992,2.123-3.855s-.39-3.833-2.123-3.833-2.142,1.971-2.142,3.833S650.561,189.121,652.292,189.121Z" transform="translate(-525.367 -150.146)" fill="#5792c9"/>
    <path id="Path_13041" data-name="Path 13041" d="M678.285,173.092h-1.862v-1.97h1.862v-2.275c0-1.6.758-3.075,3.2-3.075a9.36,9.36,0,0,1,1.926.261l-.109,1.948a4.029,4.029,0,0,0-1.06-.174,1.248,1.248,0,0,0-1.277,1.386v1.929H683v1.97h-2.035v9.181h-2.684Z" transform="translate(-543.482 -141.567)" fill="#5792c9"/>
    <path id="Path_13042" data-name="Path 13042" d="M712.878,172.522l2.685-.823v3.119h2.229v1.97h-2.229v5.781c0,1.192.431,1.538,1.211,1.538a2.127,2.127,0,0,0,1.018-.238v1.906a4.156,4.156,0,0,1-1.8.369c-1.992,0-3.116-.91-3.116-3.25v-6.106H711.1v-1.97h1.775Z" transform="translate(-565.111 -145.263)" fill="#5792c9"/>
    <path id="Path_13043" data-name="Path 13043" d="M733.417,166.466H736.1v6.516h.065a3.016,3.016,0,0,1,2.771-1.6c2.532,0,3.291,1.883,3.291,4.135V182.7h-2.685v-6.689c0-1.711-.434-2.426-1.538-2.426-1.406,0-1.9,1.192-1.9,2.62v6.5h-2.686Z" transform="translate(-579.027 -141.999)" fill="#5792c9"/>
    <path id="Path_13044" data-name="Path 13044" d="M770.95,190.313a8.323,8.323,0,0,1-3.334.714c-3.6,0-5.154-2.576-5.154-5.588,0-3.334,1.754-5.91,4.59-5.91,2.4,0,4.461,1.407,4.461,5.954V186h-6.451c0,1.9.757,3.052,2.836,3.052a4.436,4.436,0,0,0,2.922-.865Zm-2.034-6c0-1.971-.65-2.968-1.864-2.968-1.406,0-1.991,1.494-1.991,2.968Z" transform="translate(-597.142 -150.146)" fill="#5792c9"/>
    <path id="Path_13045" data-name="Path 13045" d="M327.2,234.469v9.789c0,2.512.758,3.333,2.382,3.333,1.581,0,2.36-.821,2.36-3.333v-9.789h2.772v9.789c0,3.983-2.3,5.544-5.132,5.544-2.858,0-5.154-1.561-5.154-5.544v-9.789Z" transform="translate(-323.955 -184.411)" fill="#5792c9"/>
    <path id="Path_13046" data-name="Path 13046" d="M358.739,246.557a15.319,15.319,0,0,0-.086-1.841h2.511c.022.562.087,1.146.087,1.71h.044a3.251,3.251,0,0,1,2.966-1.883c2.533,0,3.292,1.883,3.292,4.134v7.189h-2.685v-6.69c0-1.709-.434-2.426-1.539-2.426-1.406,0-1.9,1.192-1.9,2.62v6.5h-2.686Z" transform="translate(-345.298 -190.694)" fill="#5792c9"/>
    <path id="Path_13047" data-name="Path 13047" d="M389.31,232.4h2.771v2.644H389.31Zm.042,4.744h2.685v11.151h-2.685Z" transform="translate(-364.418 -183.118)" fill="#5792c9"/>
    <path id="Path_13048" data-name="Path 13048" d="M403.393,237.54l2.685-.821v3.117h2.229v1.969h-2.229v5.782c0,1.193.432,1.538,1.211,1.538a2.128,2.128,0,0,0,1.018-.238v1.906a4.15,4.15,0,0,1-1.8.368c-1.992,0-3.117-.91-3.117-3.249v-6.107h-1.775v-1.969h1.775Z" transform="translate(-372.094 -185.814)" fill="#5792c9"/>
    <path id="Path_13049" data-name="Path 13049" d="M431.613,255.327a8.334,8.334,0,0,1-3.333.714c-3.6,0-5.154-2.576-5.154-5.588,0-3.334,1.754-5.91,4.59-5.91,2.4,0,4.46,1.407,4.46,5.954v.521h-6.451c0,1.9.758,3.052,2.836,3.052a4.438,4.438,0,0,0,2.921-.866Zm-2.034-6c0-1.971-.651-2.967-1.864-2.967-1.406,0-1.991,1.493-1.991,2.967Z" transform="translate(-385.508 -190.694)" fill="#5792c9"/>
    <path id="Path_13050" data-name="Path 13050" d="M461.343,231.479v14.335a14.375,14.375,0,0,0,.087,1.9h-2.51a14.739,14.739,0,0,1-.087-1.732h-.066a3,3,0,0,1-2.967,1.906c-2.772,0-3.919-2.643-3.919-5.739,0-3.638,1.451-5.759,3.855-5.759a3,3,0,0,1,2.88,1.774h.042v-6.69Zm-4.8,14.443c1.581,0,2.121-1.71,2.121-3.81,0-2.166-.607-3.747-2.079-3.747-1.495,0-2.012,1.451-2.012,3.682C454.568,244.623,454.98,245.922,456.538,245.922Z" transform="translate(-403.442 -182.546)" fill="#5792c9"/>
    <path id="Path_13051" data-name="Path 13051" d="M499.509,234.469H502.8l5.024,11.867h.044V234.469h2.511v15.115h-3.312l-5-11.779h-.043v11.779h-2.511Z" transform="translate(-433.146 -184.411)" fill="#5792c9"/>
    <path id="Path_13052" data-name="Path 13052" d="M535.369,245.365a7.8,7.8,0,0,1,3.531-.822c3.465,0,4.266,1.689,4.266,4.482V253.9a13.837,13.837,0,0,0,.151,1.97h-2.424a5.518,5.518,0,0,1-.152-1.515H540.7a3.588,3.588,0,0,1-3.118,1.69,3.2,3.2,0,0,1-3.334-3.271c0-3.031,2.469-3.789,5.868-3.789h.542v-.411a1.919,1.919,0,0,0-2.079-2.123,5.136,5.136,0,0,0-3.054,1.083Zm5.285,5.046h-.239c-2.294,0-3.66.475-3.66,2.1a1.614,1.614,0,0,0,1.711,1.711c1.6,0,2.188-1.19,2.188-3.182Z" transform="translate(-454.809 -190.694)" fill="#5792c9"/>
    <path id="Path_13053" data-name="Path 13053" d="M564.261,237.54l2.685-.821v3.117h2.23v1.969h-2.23v5.782c0,1.193.432,1.538,1.212,1.538a2.127,2.127,0,0,0,1.018-.238v1.906a4.15,4.15,0,0,1-1.8.368c-1.992,0-3.117-.91-3.117-3.249v-6.107h-1.775v-1.969h1.775Z" transform="translate(-472.423 -185.814)" fill="#5792c9"/>
    <path id="Path_13054" data-name="Path 13054" d="M585.376,232.4h2.772v2.644h-2.772Zm.042,4.744H588.1v11.151h-2.686Z" transform="translate(-486.699 -183.118)" fill="#5792c9"/>
    <path id="Path_13055" data-name="Path 13055" d="M603.863,244.543c2.273,0,4.895,1.19,4.895,5.737,0,4.677-2.622,5.761-4.895,5.761s-4.916-1.084-4.916-5.761C598.947,245.733,601.588,244.543,603.863,244.543Zm0,9.592c1.733,0,2.122-1.992,2.122-3.854s-.39-3.833-2.122-3.833-2.144,1.972-2.144,3.833S602.13,254.135,603.863,254.135Z" transform="translate(-495.162 -190.694)" fill="#5792c9"/>
    <path id="Path_13056" data-name="Path 13056" d="M630.5,246.557a15.244,15.244,0,0,0-.086-1.841h2.511c.022.562.087,1.146.087,1.71h.044a3.252,3.252,0,0,1,2.967-1.883c2.533,0,3.292,1.883,3.292,4.134v7.189h-2.685v-6.69c0-1.709-.434-2.426-1.538-2.426-1.406,0-1.9,1.192-1.9,2.62v6.5H630.5Z" transform="translate(-514.784 -190.694)" fill="#5792c9"/>
    <path id="Path_13057" data-name="Path 13057" d="M659.467,253.269a7.179,7.179,0,0,0,2.794.735c.974,0,1.732-.238,1.732-1.1,0-.434-.217-.844-1.191-1.406l-1.1-.652c-1.125-.671-2.36-1.385-2.36-3.139,0-1.538,1.495-3.16,3.854-3.16a8.881,8.881,0,0,1,2.794.455l-.152,2.077a6.167,6.167,0,0,0-2.361-.5c-1.082,0-1.536.411-1.536,1.082,0,.607.476.931,1.255,1.428l1.322.846c1.386.887,2.078,1.516,2.078,2.815,0,2.056-1.733,3.292-4.157,3.292a9.089,9.089,0,0,1-3.1-.541Z" transform="translate(-532.826 -190.694)" fill="#5792c9"/>
  </g>
</svg>
