<svg id="FAOen" xmlns="http://www.w3.org/2000/svg" width="263.791" height="50.614" viewBox="0 0 263.791 50.614">
  <g id="Group_566" data-name="Group 566" transform="translate(0 0)">
    <g id="Group_564" data-name="Group 564" transform="translate(59.857 16.099)">
      <g id="Group_563" data-name="Group 563">
        <path id="Path_512" data-name="Path 512" d="M326.11,150.558h5.04v1.456h-3.213v2.712h3.07v1.456h-3.07v4.34H326.11Z" transform="translate(-325.653 -149.816)" fill="#555"/>
        <path id="Path_513" data-name="Path 513" d="M352.7,160.627c1.5,0,3.227.785,3.227,3.783,0,3.083-1.728,3.8-3.227,3.8s-3.24-.715-3.24-3.8C349.457,161.412,351.2,160.627,352.7,160.627Zm0,6.324c1.143,0,1.4-1.314,1.4-2.541s-.257-2.527-1.4-2.527-1.413,1.3-1.413,2.527S351.557,166.951,352.7,166.951Z" transform="translate(-343.208 -157.386)" fill="#555"/>
        <path id="Path_514" data-name="Path 514" d="M383.586,160.627c1.5,0,3.227.785,3.227,3.783,0,3.083-1.728,3.8-3.227,3.8s-3.24-.715-3.24-3.8C380.346,161.412,382.087,160.627,383.586,160.627Zm0,6.324c1.143,0,1.4-1.314,1.4-2.541s-.257-2.527-1.4-2.527-1.412,1.3-1.412,2.527S382.445,166.951,383.586,166.951Z" transform="translate(-366.433 -157.386)" fill="#555"/>
        <path id="Path_515" data-name="Path 515" d="M417.47,147.566v9.451a9.5,9.5,0,0,0,.057,1.256h-1.655a9.723,9.723,0,0,1-.057-1.142h-.044a1.978,1.978,0,0,1-1.956,1.257c-1.827,0-2.583-1.742-2.583-3.784,0-2.4.956-3.8,2.54-3.8a1.976,1.976,0,0,1,1.9,1.17h.028v-4.411Zm-3.169,9.522c1.042,0,1.4-1.128,1.4-2.513,0-1.427-.4-2.47-1.37-2.47s-1.326.957-1.326,2.427C413,156.231,413.274,157.088,414.3,157.088Z" transform="translate(-389.656 -147.566)" fill="#555"/>
        <path id="Path_516" data-name="Path 516" d="M457.064,161.169a5.135,5.135,0,0,1,2.328-.542c2.284,0,2.813,1.114,2.813,2.955v3.212a9.094,9.094,0,0,0,.1,1.3h-1.6a3.684,3.684,0,0,1-.1-1h-.029a2.364,2.364,0,0,1-2.055,1.114,2.109,2.109,0,0,1-2.2-2.156c0-2,1.628-2.5,3.868-2.5h.358v-.271a1.265,1.265,0,0,0-1.371-1.4,3.4,3.4,0,0,0-2.013.713Zm3.484,3.327h-.157c-1.513,0-2.413.314-2.413,1.385a1.064,1.064,0,0,0,1.128,1.127c1.057,0,1.442-.785,1.442-2.1Z" transform="translate(-423.559 -157.386)" fill="#555"/>
        <path id="Path_517" data-name="Path 517" d="M486.459,161.955a10.058,10.058,0,0,0-.057-1.214h1.655c.015.371.057.757.057,1.128h.029a2.144,2.144,0,0,1,1.956-1.242c1.67,0,2.17,1.242,2.17,2.726v4.74H490.5v-4.412c0-1.128-.286-1.6-1.014-1.6-.927,0-1.255.785-1.255,1.728v4.283h-1.771Z" transform="translate(-446.175 -157.386)" fill="#555"/>
        <path id="Path_518" data-name="Path 518" d="M521.916,147.566v9.451a9.546,9.546,0,0,0,.057,1.256h-1.655a9.724,9.724,0,0,1-.057-1.142h-.043a1.98,1.98,0,0,1-1.956,1.257c-1.827,0-2.583-1.742-2.583-3.784,0-2.4.956-3.8,2.541-3.8a1.976,1.976,0,0,1,1.9,1.17h.028v-4.411Zm-3.169,9.522c1.042,0,1.4-1.128,1.4-2.513,0-1.427-.4-2.47-1.371-2.47s-1.326.957-1.326,2.427C517.448,156.231,517.719,157.088,518.747,157.088Z" transform="translate(-468.188 -147.566)" fill="#555"/>
        <path id="Path_519" data-name="Path 519" d="M562.248,158.124h-3.425l-.714,2.4h-1.827l3.341-9.965h2l3.213,9.965h-1.885Zm-.385-1.4-1.256-4.653h-.028l-1.371,4.653Z" transform="translate(-498.718 -149.816)" fill="#555"/>
        <path id="Path_520" data-name="Path 520" d="M593.921,169.235a4.669,4.669,0,0,0,2.17.628c1.669,0,1.941-1.157,1.941-2.313v-.7H598a2.013,2.013,0,0,1-1.943,1.242c-1.027,0-2.569-.686-2.569-3.655,0-2.028.728-3.812,2.655-3.812a2.1,2.1,0,0,1,1.941,1.256h.057c0-.386.044-.757.058-1.142h1.6c-.028.385-.057.771-.057,1.157v5.425c0,2.3-.7,3.939-3.4,3.939a7.4,7.4,0,0,1-2.526-.457Zm2.555-2.441c1.114,0,1.556-.8,1.556-2.47,0-1.541-.585-2.369-1.427-2.355-.927.014-1.284.871-1.284,2.37C595.32,166.066,595.876,166.794,596.476,166.794Z" transform="translate(-526.696 -157.386)" fill="#555"/>
        <path id="Path_521" data-name="Path 521" d="M625.241,161.955a10.123,10.123,0,0,0-.057-1.214h1.6c.014.443.057.9.057,1.342h.03a2.05,2.05,0,0,1,1.869-1.456,1.912,1.912,0,0,1,.3.042v1.657a1.832,1.832,0,0,0-.5-.072c-.728,0-1.526.443-1.526,1.813v4.027h-1.77Z" transform="translate(-550.524 -157.386)" fill="#555"/>
        <path id="Path_522" data-name="Path 522" d="M646,148.486h1.828v1.742H646Zm.028,3.126H647.8v7.353h-1.771Z" transform="translate(-566.179 -148.258)" fill="#555"/>
        <path id="Path_523" data-name="Path 523" d="M664.774,167.908a5.045,5.045,0,0,1-1.741.3c-2.427,0-3.454-1.7-3.454-3.784s1.084-3.8,3.553-3.8a4.82,4.82,0,0,1,1.543.3l-.1,1.4a2.831,2.831,0,0,0-1.242-.357c-1.341,0-1.927.9-1.927,2.47,0,1.371.657,2.427,2.013,2.427a2.849,2.849,0,0,0,1.256-.357Z" transform="translate(-576.385 -157.386)" fill="#555"/>
        <path id="Path_524" data-name="Path 524" d="M690.7,167.225a10.106,10.106,0,0,0,.057,1.214H689.1c-.014-.371-.057-.757-.057-1.128L689,167.3l.015.015a2.143,2.143,0,0,1-1.956,1.242c-1.671,0-2.17-1.242-2.17-2.727v-4.74h1.771V165.5c0,1.128.313,1.6,1.055,1.6.942,0,1.214-.856,1.214-1.8v-4.211H690.7Z" transform="translate(-595.414 -157.732)" fill="#555"/>
        <path id="Path_525" data-name="Path 525" d="M715.424,147.566h1.77v10.707h-1.77Z" transform="translate(-618.375 -147.566)" fill="#555"/>
        <path id="Path_526" data-name="Path 526" d="M728.788,153.345l1.771-.543v2.055h1.47v1.3h-1.47v3.812c0,.785.285,1.013.8,1.013a1.4,1.4,0,0,0,.672-.157v1.256a2.731,2.731,0,0,1-1.185.243c-1.314,0-2.056-.6-2.056-2.142v-4.026h-1.17v-1.3h1.17Z" transform="translate(-627.544 -151.503)" fill="#555"/>
        <path id="Path_527" data-name="Path 527" d="M755.745,167.225a9.807,9.807,0,0,0,.057,1.214h-1.657c-.014-.371-.057-.757-.057-1.128l-.042-.015.015.015a2.143,2.143,0,0,1-1.957,1.242c-1.67,0-2.169-1.242-2.169-2.727v-4.74h1.77V165.5c0,1.128.314,1.6,1.055,1.6.943,0,1.214-.856,1.214-1.8v-4.211h1.771Z" transform="translate(-644.323 -157.732)" fill="#555"/>
        <path id="Path_528" data-name="Path 528" d="M779.842,161.955a10.157,10.157,0,0,0-.057-1.214h1.6c.014.443.057.9.057,1.342h.029a2.051,2.051,0,0,1,1.869-1.456,1.909,1.909,0,0,1,.3.042v1.657a1.82,1.82,0,0,0-.5-.072c-.726,0-1.526.443-1.526,1.813v4.027h-1.77Z" transform="translate(-666.768 -157.386)" fill="#555"/>
        <path id="Path_529" data-name="Path 529" d="M804.241,167.737a5.472,5.472,0,0,1-2.2.472c-2.37,0-3.4-1.7-3.4-3.684,0-2.2,1.156-3.9,3.026-3.9,1.585,0,2.941.927,2.941,3.926v.342h-4.253c0,1.256.5,2.013,1.87,2.013a2.927,2.927,0,0,0,1.927-.57Zm-1.341-3.955c0-1.3-.429-1.956-1.229-1.956-.927,0-1.312.985-1.312,1.956Z" transform="translate(-680.948 -157.386)" fill="#555"/>
        <path id="Path_530" data-name="Path 530" d="M846.555,149.983c2.07,0,3.969,1.542,3.969,5.125s-1.9,5.125-3.969,5.125-3.968-1.542-3.968-5.125S844.486,149.983,846.555,149.983Zm0,8.851c1.156,0,2.084-.985,2.084-3.726s-.928-3.726-2.084-3.726-2.084.985-2.084,3.726S845.4,158.834,846.555,158.834Z" transform="translate(-713.988 -149.383)" fill="#555"/>
        <path id="Path_531" data-name="Path 531" d="M880.488,161.955a10.125,10.125,0,0,0-.057-1.214h1.6c.015.443.057.9.057,1.342h.029a2.051,2.051,0,0,1,1.87-1.456,1.927,1.927,0,0,1,.3.042v1.657a1.83,1.83,0,0,0-.5-.072c-.727,0-1.527.443-1.527,1.813v4.027h-1.771Z" transform="translate(-742.442 -157.386)" fill="#555"/>
        <path id="Path_532" data-name="Path 532" d="M899.726,169.235a4.67,4.67,0,0,0,2.17.628c1.669,0,1.941-1.157,1.941-2.313v-.7h-.028a2.012,2.012,0,0,1-1.942,1.242c-1.027,0-2.569-.686-2.569-3.655,0-2.028.728-3.812,2.655-3.812a2.1,2.1,0,0,1,1.94,1.256h.059c0-.386.042-.757.057-1.142h1.6c-.028.385-.057.771-.057,1.157v5.425c0,2.3-.7,3.939-3.4,3.939a7.411,7.411,0,0,1-2.527-.457Zm2.556-2.441c1.113,0,1.555-.8,1.555-2.47,0-1.541-.586-2.369-1.427-2.355-.928.014-1.284.871-1.284,2.37C901.125,166.066,901.682,166.794,902.281,166.794Z" transform="translate(-756.628 -157.386)" fill="#555"/>
        <path id="Path_533" data-name="Path 533" d="M930.178,161.169a5.133,5.133,0,0,1,2.328-.542c2.284,0,2.812,1.114,2.812,2.955v3.212a9.165,9.165,0,0,0,.1,1.3h-1.6a3.7,3.7,0,0,1-.1-1h-.029a2.363,2.363,0,0,1-2.055,1.114,2.109,2.109,0,0,1-2.2-2.156c0-2,1.628-2.5,3.868-2.5h.358v-.271a1.264,1.264,0,0,0-1.37-1.4,3.394,3.394,0,0,0-2.013.713Zm3.483,3.327H933.5c-1.513,0-2.412.314-2.412,1.385a1.064,1.064,0,0,0,1.128,1.127c1.056,0,1.442-.785,1.442-2.1Z" transform="translate(-779.289 -157.386)" fill="#555"/>
        <path id="Path_534" data-name="Path 534" d="M959.574,161.955a10.139,10.139,0,0,0-.056-1.214h1.655c.014.371.057.757.057,1.128h.029a2.143,2.143,0,0,1,1.956-1.242c1.669,0,2.17,1.242,2.17,2.726v4.74h-1.77v-4.412c0-1.128-.286-1.6-1.014-1.6-.927,0-1.255.785-1.255,1.728v4.283h-1.771Z" transform="translate(-801.906 -157.386)" fill="#555"/>
        <path id="Path_535" data-name="Path 535" d="M990.173,148.486H992v1.742h-1.827Zm.028,3.126h1.77v7.353H990.2Z" transform="translate(-824.956 -148.258)" fill="#555"/>
        <path id="Path_536" data-name="Path 536" d="M1002.94,166.911l3.14-4.484h-3.041v-1.342h4.812V162.6l-3.084,4.5h3.183v1.343h-5.01Z" transform="translate(-834.556 -157.732)" fill="#555"/>
        <path id="Path_537" data-name="Path 537" d="M1027.147,161.169a5.134,5.134,0,0,1,2.327-.542c2.284,0,2.813,1.114,2.813,2.955v3.212a9.164,9.164,0,0,0,.1,1.3h-1.6a3.645,3.645,0,0,1-.1-1h-.029a2.363,2.363,0,0,1-2.054,1.114,2.109,2.109,0,0,1-2.2-2.156c0-2,1.628-2.5,3.868-2.5h.357v-.271a1.265,1.265,0,0,0-1.371-1.4,3.388,3.388,0,0,0-2.012.713Zm3.484,3.327h-.157c-1.512,0-2.412.314-2.412,1.385a1.063,1.063,0,0,0,1.128,1.127c1.056,0,1.442-.785,1.442-2.1Z" transform="translate(-852.199 -157.386)" fill="#555"/>
        <path id="Path_538" data-name="Path 538" d="M1055.816,153.345l1.771-.543v2.055h1.469v1.3h-1.469v3.812c0,.785.284,1.013.8,1.013a1.4,1.4,0,0,0,.671-.157v1.256a2.728,2.728,0,0,1-1.185.243c-1.313,0-2.055-.6-2.055-2.142v-4.026h-1.17v-1.3h1.17Z" transform="translate(-873.433 -151.503)" fill="#555"/>
        <path id="Path_539" data-name="Path 539" d="M1077.535,148.486h1.827v1.742h-1.827Zm.028,3.126h1.77v7.353h-1.77Z" transform="translate(-890.643 -148.258)" fill="#555"/>
        <path id="Path_540" data-name="Path 540" d="M1094.348,160.627c1.5,0,3.227.785,3.227,3.783,0,3.083-1.728,3.8-3.227,3.8s-3.24-.715-3.24-3.8C1091.108,161.412,1092.849,160.627,1094.348,160.627Zm0,6.324c1.143,0,1.4-1.314,1.4-2.541s-.257-2.527-1.4-2.527-1.413,1.3-1.413,2.527S1093.207,166.951,1094.348,166.951Z" transform="translate(-900.849 -157.386)" fill="#555"/>
        <path id="Path_541" data-name="Path 541" d="M1122.627,161.955a10.1,10.1,0,0,0-.057-1.214h1.655c.015.371.057.757.057,1.128h.029a2.144,2.144,0,0,1,1.956-1.242c1.67,0,2.171,1.242,2.171,2.726v4.74h-1.771v-4.412c0-1.128-.286-1.6-1.014-1.6-.927,0-1.256.785-1.256,1.728v4.283h-1.77Z" transform="translate(-924.505 -157.386)" fill="#555"/>
        <path id="Path_542" data-name="Path 542" d="M327.509,225.643c1.5,0,3.227.786,3.227,3.783,0,3.083-1.729,3.8-3.227,3.8s-3.24-.714-3.24-3.8C324.269,226.429,326.009,225.643,327.509,225.643Zm0,6.324c1.143,0,1.4-1.314,1.4-2.541s-.257-2.527-1.4-2.527-1.414,1.3-1.414,2.527S326.367,231.967,327.509,231.967Z" transform="translate(-324.269 -206.271)" fill="#555"/>
        <path id="Path_543" data-name="Path 543" d="M354.54,216.714h-1.226v-1.3h1.226v-1.5a1.862,1.862,0,0,1,2.113-2.027,6.223,6.223,0,0,1,1.271.171l-.072,1.285a2.658,2.658,0,0,0-.7-.114.823.823,0,0,0-.843.914v1.271h1.342v1.3h-1.342v6.053h-1.77Z" transform="translate(-346.108 -195.93)" fill="#555"/>
        <path id="Path_544" data-name="Path 544" d="M389.163,218.358l1.77-.543v2.056h1.47v1.3h-1.47v3.812c0,.785.285,1.014.8,1.014a1.391,1.391,0,0,0,.671-.158v1.257a2.73,2.73,0,0,1-1.185.243c-1.313,0-2.055-.6-2.055-2.141V221.17h-1.171v-1.3h1.171Z" transform="translate(-372.182 -200.386)" fill="#555"/>
        <path id="Path_545" data-name="Path 545" d="M410.309,212.58h1.77v4.3h.042a1.988,1.988,0,0,1,1.827-1.056c1.67,0,2.17,1.242,2.17,2.726v4.74h-1.77v-4.412c0-1.127-.286-1.6-1.015-1.6-.927,0-1.255.785-1.255,1.727v4.283h-1.77Z" transform="translate(-388.962 -196.449)" fill="#555"/>
        <path id="Path_546" data-name="Path 546" d="M444.949,232.752a5.468,5.468,0,0,1-2.2.471c-2.37,0-3.4-1.7-3.4-3.684,0-2.2,1.156-3.9,3.025-3.9,1.585,0,2.941.927,2.941,3.926v.342h-4.253c0,1.256.5,2.013,1.869,2.013a2.923,2.923,0,0,0,1.927-.571Zm-1.341-3.955c0-1.3-.429-1.955-1.229-1.955-.927,0-1.312.985-1.312,1.955Z" transform="translate(-410.8 -206.271)" fill="#555"/>
        <path id="Path_547" data-name="Path 547" d="M486.385,215.571v6.453c0,1.656.5,2.2,1.57,2.2,1.042,0,1.556-.543,1.556-2.2v-6.453h1.828v6.453c0,2.627-1.514,3.655-3.383,3.655s-3.4-1.028-3.4-3.655v-6.453Z" transform="translate(-444.788 -198.698)" fill="#555"/>
        <path id="Path_548" data-name="Path 548" d="M518.835,226.97a10.108,10.108,0,0,0-.057-1.213h1.655c.015.371.057.756.057,1.128h.029a2.143,2.143,0,0,1,1.956-1.242c1.67,0,2.17,1.242,2.17,2.726v4.74h-1.771V228.7c0-1.127-.286-1.6-1.014-1.6-.927,0-1.255.785-1.255,1.727v4.283h-1.771Z" transform="translate(-470.519 -206.271)" fill="#555"/>
        <path id="Path_549" data-name="Path 549" d="M549.435,213.5h1.827v1.742h-1.827Zm.028,3.127h1.771v7.352h-1.771Z" transform="translate(-493.569 -197.141)" fill="#555"/>
        <path id="Path_550" data-name="Path 550" d="M562.913,218.358l1.77-.543v2.056h1.47v1.3h-1.47v3.812c0,.785.285,1.014.8,1.014a1.39,1.39,0,0,0,.671-.158v1.257a2.732,2.732,0,0,1-1.185.243c-1.313,0-2.055-.6-2.055-2.141V221.17h-1.171v-1.3h1.171Z" transform="translate(-502.823 -200.386)" fill="#555"/>
        <path id="Path_551" data-name="Path 551" d="M588.847,232.752a5.463,5.463,0,0,1-2.2.471c-2.37,0-3.4-1.7-3.4-3.684,0-2.2,1.156-3.9,3.026-3.9,1.585,0,2.941.927,2.941,3.926v.342h-4.253c0,1.256.5,2.013,1.87,2.013a2.92,2.92,0,0,0,1.926-.571Zm-1.341-3.955c0-1.3-.429-1.955-1.229-1.955-.927,0-1.312.985-1.312,1.955Z" transform="translate(-518.995 -206.271)" fill="#555"/>
        <path id="Path_552" data-name="Path 552" d="M618.245,212.58v9.451a9.522,9.522,0,0,0,.057,1.256h-1.655a9.726,9.726,0,0,1-.057-1.142h-.044a1.979,1.979,0,0,1-1.956,1.256c-1.827,0-2.584-1.742-2.584-3.784,0-2.4.956-3.8,2.541-3.8a1.975,1.975,0,0,1,1.9,1.17h.028V212.58Zm-3.168,9.522c1.042,0,1.4-1.128,1.4-2.513,0-1.427-.4-2.469-1.371-2.469s-1.327.956-1.327,2.426C613.778,221.246,614.049,222.1,615.077,222.1Z" transform="translate(-540.617 -196.449)" fill="#555"/>
        <path id="Path_553" data-name="Path 553" d="M659.631,215.571h2.17l3.312,7.823h.029v-7.823H666.8v9.965h-2.184l-3.3-7.766h-.028v7.766h-1.656Z" transform="translate(-576.425 -198.698)" fill="#555"/>
        <path id="Path_554" data-name="Path 554" d="M695.111,226.185a5.129,5.129,0,0,1,2.328-.542c2.284,0,2.813,1.114,2.813,2.954v3.213a9.122,9.122,0,0,0,.1,1.3h-1.6a3.647,3.647,0,0,1-.1-1h-.029a2.364,2.364,0,0,1-2.056,1.114,2.108,2.108,0,0,1-2.2-2.156c0-2,1.627-2.5,3.868-2.5h.357V228.3a1.264,1.264,0,0,0-1.371-1.4,3.388,3.388,0,0,0-2.012.714Zm3.484,3.326h-.157c-1.512,0-2.413.314-2.413,1.385a1.064,1.064,0,0,0,1.128,1.128c1.057,0,1.442-.785,1.442-2.1Z" transform="translate(-602.544 -206.271)" fill="#555"/>
        <path id="Path_555" data-name="Path 555" d="M723.779,218.358l1.771-.543v2.056h1.47v1.3h-1.47v3.812c0,.785.285,1.014.8,1.014a1.392,1.392,0,0,0,.672-.158v1.257a2.732,2.732,0,0,1-1.185.243c-1.313,0-2.055-.6-2.055-2.141V221.17h-1.17v-1.3h1.17Z" transform="translate(-623.777 -200.386)" fill="#555"/>
        <path id="Path_556" data-name="Path 556" d="M745.5,213.5h1.827v1.742H745.5Zm.028,3.127H747.3v7.352h-1.771Z" transform="translate(-640.988 -197.141)" fill="#555"/>
        <path id="Path_557" data-name="Path 557" d="M762.311,225.643c1.5,0,3.227.786,3.227,3.783,0,3.083-1.728,3.8-3.227,3.8s-3.241-.714-3.241-3.8C759.07,226.429,760.811,225.643,762.311,225.643Zm0,6.324c1.143,0,1.4-1.314,1.4-2.541s-.257-2.527-1.4-2.527-1.413,1.3-1.413,2.527S761.169,231.967,762.311,231.967Z" transform="translate(-651.192 -206.271)" fill="#555"/>
        <path id="Path_558" data-name="Path 558" d="M790.589,226.97a10.09,10.09,0,0,0-.057-1.213h1.655c.015.371.057.756.057,1.128h.029a2.143,2.143,0,0,1,1.956-1.242c1.67,0,2.17,1.242,2.17,2.726v4.74h-1.771V228.7c0-1.127-.286-1.6-1.014-1.6-.927,0-1.256.785-1.256,1.727v4.283h-1.77Z" transform="translate(-674.848 -206.271)" fill="#555"/>
        <path id="Path_559" data-name="Path 559" d="M819.546,231.4a4.729,4.729,0,0,0,1.842.485c.642,0,1.142-.158,1.142-.728,0-.286-.143-.557-.785-.929l-.729-.428c-.741-.442-1.556-.914-1.556-2.069A2.342,2.342,0,0,1,822,225.643a5.869,5.869,0,0,1,1.842.3l-.1,1.37a4.052,4.052,0,0,0-1.556-.328c-.714,0-1.013.271-1.013.714,0,.4.314.613.827.942l.872.557c.914.585,1.37,1,1.37,1.856,0,1.356-1.143,2.17-2.741,2.17a5.95,5.95,0,0,1-2.042-.357Z" transform="translate(-696.599 -206.271)" fill="#555"/>
      </g>
    </g>
    <g id="Group_565" data-name="Group 565" transform="translate(0 0)">
      <path id="Path_560" data-name="Path 560" d="M108.325,133.293a25.307,25.307,0,1,1,25.306-25.306A25.336,25.336,0,0,1,108.325,133.293Zm-.1-35.286c.033,0,2.057,2.166,2.057,3.9a2.134,2.134,0,0,1-1.96,2.327c-.024,0-.054,0-.086-.006h-.02c-.032,0-.064.006-.086.006a2.135,2.135,0,0,1-1.958-2.327C106.175,100.173,108.192,98.007,108.229,98.007ZM89.172,109.395h2.309V105.13H95.36v-1.786H91.481v-2.37h4.007V99.192H89.172Zm21.149-11.08h2.435l-2.829-10.2h-3.112l-2.933,10.2h2.255l.648-2.28h2.953Zm-1.013-4.008h-2.121l.988-4.437h.163ZM120,104.294c0,3,1.39,5.275,4.324,5.275s4.348-2.278,4.348-5.275-1.406-5.276-4.348-5.276S120,101.3,120,104.294Zm2.46,0c0-1.959.48-3.551,1.865-3.551s1.89,1.592,1.89,3.551-.5,3.552-1.89,3.552S122.46,106.252,122.46,104.294ZM107.246,130.47a34.3,34.3,0,0,0,.269-4.428v-.313c0-2.613-.1-3.5-1.84-4.074-2.693-.891-3.8-3.9-3.2-7.641L93.459,91.1a22.5,22.5,0,0,0,13.787,39.372Zm1.069-14.611c-3.585-.836-4.916-4.1-4.916-7L95.51,89.491c-.515.356-1.015.737-1.5,1.131,1.736,4.113,9.523,22.595,9.534,22.621,1.378,3.321,3.886,2.22,4.492,4.961a6.191,6.191,0,0,1,.156.954h.269a5.4,5.4,0,0,1,.155-.954c.607-2.741,3.108-1.641,4.487-4.961.01-.026,7.8-18.508,9.531-22.621-.482-.394-.98-.775-1.5-1.131l-7.886,19.364c0,2.9-1.334,6.167-4.92,7Zm0-5.845a4.938,4.938,0,0,1-3.662-3.793,8.7,8.7,0,0,1-.052-2.414L97.683,88.156q-.834.451-1.631.972c2.068,4.646,8.388,18.837,8.393,18.855,1,2.106,2.755,2.147,3.361,3.4a4.051,4.051,0,0,1,.4,1.463h.231a4.175,4.175,0,0,1,.4-1.463c.609-1.256,2.363-1.3,3.362-3.4,0-.018,6.327-14.209,8.392-18.855-.524-.347-1.072-.671-1.631-.972l-6.906,15.651a8.379,8.379,0,0,1-.06,2.414,4.942,4.942,0,0,1-3.655,3.793Zm.1-2.658.106-.853c.437-1.982,1.875-1.735,2.873-3.681l.018-.03c.029-.073,4.921-10.566,6.961-14.948a22.47,22.47,0,0,0-20.08,0c2.041,4.381,6.93,14.875,6.969,14.948a.213.213,0,0,0,.015.03c.993,1.946,2.43,1.7,2.865,3.681l.106.853Zm22.428.632A22.481,22.481,0,0,0,123.193,91.1l-9.019,22.916c.6,3.744-.51,6.75-3.2,7.641-1.745.579-1.841,1.461-1.841,4.074v.313a35.609,35.609,0,0,0,.269,4.428A22.537,22.537,0,0,0,130.835,107.987Zm-37.907,6.648s.332.707.6,1.209.636,1.108.636,1.108l-.594.346s-.452-.751-.865-1.619c-.114.058-.825.429-.944.487.069.126.8,1.532.8,1.532l-.6.347-.8-1.558c-.129.063-1.664.855-1.664.855l-.367-.729,3.758-1.956Zm2.375,3.853.522.63-3.286,2.748-.533-.63,3.257-2.722Zm3.046,2.882.65.465-.843,4.532-.746-.429s.187-.923.209-1.013c-.036-.029-.47-.289-.891-.587s-.845-.65-.885-.677c-.081.049-.906.536-.906.536l-.639-.546,4.01-2.259Zm-1.9,1.924c.077.065.356.291.644.5s.586.4.672.436c.042-.189.343-1.68.4-1.956Zm4.61-.257a15.082,15.082,0,0,0,1.681.683,16.179,16.179,0,0,0,1.8.538l-.2.652a13.174,13.174,0,0,1-1.4-.361l-1.18,3.374-.774-.269,1.175-3.376a12.537,12.537,0,0,1-1.374-.6Zm13.536.863a1.236,1.236,0,0,1,.6.781,1.53,1.53,0,0,1,.077.453c0,.6-.42,1.069-1.176,1.307,0,0-.381.119-.5.152.045.136.5,1.588.5,1.588l-.752.194-1.274-4.128,1.138-.354A1.832,1.832,0,0,1,114.594,123.9Zm-1.591.778c.036.126.352,1.135.389,1.258.157-.046.5-.155.5-.155a.862.862,0,0,0,.509-.385.561.561,0,0,0,.064-.262.817.817,0,0,0-.036-.221.552.552,0,0,0-.275-.331,1.039,1.039,0,0,0-.737-.034Zm4.146-2.576,3.715,2.722-.66.465-.82-.623c-.045.024-.427.3-.84.54-.389.235-.811.443-.853.468.017.1.163,1.008.163,1.008l-.71.339-.624-4.556Zm.425,2.884c.111-.054.4-.211.686-.383.256-.155.46-.284.564-.365-.15-.114-1.311-1-1.552-1.183C117.321,123.357,117.546,124.8,117.575,124.986Zm3.82-6.635,3.24,2.891-.584.684s-3.038-.887-3.5-1.011c.343.327,2.227,2.314,2.227,2.314l-.568.514-3.054-3.1.717-.642s2.932.875,3.393,1c-.343-.325-2.366-2.065-2.366-2.065Zm1.481-2.157,3.752,2.176-.381.659-3.774-2.183Zm1.626-3.6.643.334-.064.075a1.855,1.855,0,0,0-.4.671.749.749,0,0,0-.009.569.407.407,0,0,0,.256.211c.287.1.533-.152.816-.441a1.544,1.544,0,0,1,1.681-.632c.805.274,1.079.991.746,1.968a3.05,3.05,0,0,1-.456.787l-.039.051-.666-.31.067-.078a2.483,2.483,0,0,0,.46-.742.675.675,0,0,0-.339-.908c-.357-.124-.627.153-.939.475-.38.4-.816.851-1.535.606a1.154,1.154,0,0,1-.686-.574,1.529,1.529,0,0,1-.016-1.18,2.754,2.754,0,0,1,.445-.831Z" transform="translate(-83.017 -82.679)" fill="#555"/>
    </g>
  </g>
</svg>
