<svg xmlns="http://www.w3.org/2000/svg" width="274.371" height="50" viewBox="0 0 274.371 50">
  <g id="FAOes" transform="translate(-83.002 -82.679)">
    <g id="Group_10352" data-name="Group 10352" transform="translate(83.001 82.679)">
      <path id="Path_13280" data-name="Path 13280" d="M108,132.679a25,25,0,1,1,25-25A25.029,25.029,0,0,1,108,132.679Zm-.1-34.858c.032,0,2.03,2.14,2.03,3.854a2.108,2.108,0,0,1-1.935,2.3c-.024,0-.054,0-.085,0H107.9c-.032,0-.064,0-.085,0a2.11,2.11,0,0,1-1.936-2.3C105.877,99.962,107.87,97.821,107.907,97.821ZM89.08,109.071h2.282v-4.213h3.832v-1.765H91.362v-2.34h3.959V98.993H89.08Zm20.893-10.946h2.4l-2.795-10.078H106.51l-2.9,10.078h2.227l.641-2.252H109.4Zm-1-3.959h-2.1l.976-4.382h.161Zm10.562,9.867c0,2.961,1.373,5.211,4.272,5.211s4.3-2.251,4.3-5.211-1.388-5.211-4.3-5.211S119.535,101.07,119.535,104.032Zm2.43,0c0-1.934.473-3.507,1.842-3.507s1.867,1.573,1.867,3.507-.494,3.509-1.867,3.509S121.965,105.966,121.965,104.032Zm-15.03,25.859a33.681,33.681,0,0,0,.266-4.376v-.308c0-2.582-.1-3.453-1.819-4.025-2.659-.881-3.748-3.85-3.165-7.548L93.317,91a22.228,22.228,0,0,0,13.618,38.9Zm1.057-14.435c-3.542-.826-4.855-4.053-4.855-6.918l-7.8-19.13c-.508.351-1,.728-1.479,1.118,1.713,4.063,9.407,22.32,9.418,22.346,1.361,3.28,3.839,2.192,4.437,4.9a5.989,5.989,0,0,1,.153.944h.267a5.323,5.323,0,0,1,.153-.944c.6-2.708,3.069-1.62,4.433-4.9.01-.026,7.7-18.283,9.415-22.346-.478-.39-.969-.767-1.48-1.118l-7.792,19.13c0,2.865-1.316,6.092-4.859,6.918Zm0-5.774a4.878,4.878,0,0,1-3.617-3.747,8.578,8.578,0,0,1-.05-2.384L97.489,88.09q-.823.444-1.611.96c2.043,4.589,8.286,18.608,8.29,18.626.989,2.079,2.722,2.121,3.321,3.361a4,4,0,0,1,.4,1.446h.227a4.107,4.107,0,0,1,.4-1.446c.6-1.24,2.335-1.282,3.321-3.361,0-.017,6.249-14.037,8.29-18.626-.518-.342-1.06-.664-1.611-.96l-6.824,15.461a8.242,8.242,0,0,1-.057,2.384,4.881,4.881,0,0,1-3.611,3.747Zm.1-2.626.1-.843c.432-1.958,1.852-1.714,2.839-3.637,0-.007.016-.028.016-.028.03-.073,4.862-10.438,6.878-14.767a22.208,22.208,0,0,0-19.837,0c2.015,4.329,6.845,14.694,6.885,14.767a.244.244,0,0,0,.014.028c.982,1.923,2.4,1.679,2.832,3.637l.1.843Zm22.156.625A22.214,22.214,0,0,0,122.69,91l-8.909,22.639c.592,3.7-.5,6.667-3.163,7.548-1.724.572-1.819,1.444-1.819,4.025v.308a35.188,35.188,0,0,0,.265,4.376A22.264,22.264,0,0,0,130.238,107.68Zm-37.446,6.567s.328.7.595,1.194.629,1.093.629,1.093l-.588.342s-.446-.742-.854-1.6c-.112.058-.815.424-.931.481.068.125.789,1.513.789,1.513l-.595.342s-.731-1.419-.793-1.538c-.127.062-1.645.845-1.645.845l-.363-.721,3.714-1.931Zm2.345,3.806.517.623-3.248,2.715-.526-.623L95.1,118.08Zm3.009,2.847.643.461-.833,4.476-.737-.424s.185-.913.207-1c-.036-.03-.465-.286-.881-.58s-.836-.642-.875-.668c-.079.049-.895.53-.895.53l-.63-.539,3.96-2.231Zm-1.876,1.9c.076.064.351.287.636.492a7.755,7.755,0,0,0,.664.431c.041-.187.337-1.66.4-1.933C97.728,121.935,96.439,122.7,96.269,122.8Zm4.554-.252a14.875,14.875,0,0,0,1.661.674,15.805,15.805,0,0,0,1.782.532l-.193.644a12.825,12.825,0,0,1-1.388-.357l-1.167,3.333-.765-.265s1.114-3.2,1.162-3.336a12.326,12.326,0,0,1-1.357-.595Zm13.371.852a1.211,1.211,0,0,1,.588.771,1.472,1.472,0,0,1,.076.447c0,.592-.413,1.057-1.161,1.291l-.489.152c.045.133.489,1.567.489,1.567l-.743.192-1.259-4.077,1.126-.35A1.809,1.809,0,0,1,114.2,123.4Zm-1.573.767c.037.125.349,1.121.386,1.243.154-.045.494-.153.494-.153a.853.853,0,0,0,.5-.38.56.56,0,0,0,.063-.26.852.852,0,0,0-.036-.217.548.548,0,0,0-.271-.327,1.023,1.023,0,0,0-.728-.034Zm4.1-2.545,3.67,2.689-.652.459-.811-.615c-.044.024-.422.292-.829.534-.386.233-.8.438-.843.463.017.1.161,1,.161,1l-.7.334-.617-4.5Zm.42,2.85c.11-.053.395-.209.678-.379.252-.154.455-.28.557-.361-.148-.113-1.3-.985-1.533-1.169C116.889,122.863,117.11,124.286,117.14,124.473Zm3.774-6.555,3.2,2.855-.576.675s-3-.875-3.457-1c.339.323,2.2,2.287,2.2,2.287l-.562.508L118.7,120.18l.709-.635s2.9.864,3.351.984c-.338-.321-2.336-2.039-2.336-2.039Zm1.463-2.131,3.707,2.15-.377.651-3.728-2.157Zm1.606-3.558.636.331-.063.074a1.815,1.815,0,0,0-.4.664.748.748,0,0,0-.011.563.406.406,0,0,0,.254.208c.284.1.527-.15.806-.435a1.523,1.523,0,0,1,1.66-.625c.8.27,1.067.978.737,1.943a2.972,2.972,0,0,1-.45.778l-.039.051-.657-.307.066-.077a2.471,2.471,0,0,0,.455-.733.669.669,0,0,0-.335-.9c-.354-.122-.619.152-.928.47-.375.4-.806.84-1.516.6a1.137,1.137,0,0,1-.678-.567,1.506,1.506,0,0,1-.016-1.166,2.721,2.721,0,0,1,.438-.821Z" transform="translate(-83.001 -82.679)" fill="#555"/>
    </g>
    <g id="Group_10353" data-name="Group 10353" transform="translate(142.43 98.62)">
      <path id="Path_13281" data-name="Path 13281" d="M329.393,150.134c2.044,0,3.919,1.524,3.919,5.062s-1.875,5.063-3.919,5.063-3.921-1.523-3.921-5.063S327.347,150.134,329.393,150.134Zm0,8.745c1.143,0,2.059-.975,2.059-3.683s-.916-3.679-2.059-3.679-2.059.972-2.059,3.679S328.25,158.879,329.393,158.879Z" transform="translate(-325.472 -149.541)" fill="#555"/>
      <path id="Path_13282" data-name="Path 13282" d="M363.373,162.086a9.843,9.843,0,0,0-.058-1.2h1.579c.015.438.056.889.056,1.326h.03a2.026,2.026,0,0,1,1.847-1.439,1.814,1.814,0,0,1,.3.044v1.635a1.808,1.808,0,0,0-.494-.07c-.719,0-1.509.435-1.509,1.79v3.977h-1.748Z" transform="translate(-354.04 -157.574)" fill="#555"/>
      <path id="Path_13283" data-name="Path 13283" d="M382.6,169.278a4.6,4.6,0,0,0,2.143.621c1.65,0,1.918-1.144,1.918-2.285v-.69h-.027a1.988,1.988,0,0,1-1.918,1.226c-1.015,0-2.538-.678-2.538-3.609,0-2,.719-3.767,2.623-3.767a2.076,2.076,0,0,1,1.918,1.241h.055c0-.38.044-.748.057-1.129h1.58c-.027.381-.057.763-.057,1.144v5.359c0,2.269-.69,3.893-3.356,3.893a7.282,7.282,0,0,1-2.5-.453Zm2.524-2.41c1.1,0,1.537-.79,1.537-2.439,0-1.523-.578-2.343-1.41-2.328-.916.015-1.268.86-1.268,2.342C383.984,166.148,384.533,166.867,385.126,166.867Z" transform="translate(-368.28 -157.574)" fill="#555"/>
      <path id="Path_13284" data-name="Path 13284" d="M413.048,161.31a5.074,5.074,0,0,1,2.3-.536c2.258,0,2.779,1.1,2.779,2.919v3.174a8.937,8.937,0,0,0,.1,1.283h-1.58a3.59,3.59,0,0,1-.1-.987h-.029a2.335,2.335,0,0,1-2.03,1.1,2.082,2.082,0,0,1-2.172-2.128c0-1.975,1.608-2.469,3.822-2.469h.353V163.4a1.249,1.249,0,0,0-1.354-1.382,3.346,3.346,0,0,0-1.989.705Zm3.442,3.286h-.155c-1.5,0-2.384.31-2.384,1.369a1.049,1.049,0,0,0,1.114,1.113c1.045,0,1.425-.775,1.425-2.072Z" transform="translate(-391.03 -157.574)" fill="#555"/>
      <path id="Path_13285" data-name="Path 13285" d="M442.451,162.086a10.14,10.14,0,0,0-.056-1.2h1.635c.014.367.056.749.056,1.116h.029a2.116,2.116,0,0,1,1.932-1.229c1.649,0,2.144,1.229,2.144,2.694v4.682h-1.749v-4.357c0-1.115-.282-1.58-1-1.58-.916,0-1.24.775-1.24,1.708v4.229h-1.749Z" transform="translate(-413.737 -157.574)" fill="#555"/>
      <path id="Path_13286" data-name="Path 13286" d="M473.051,148.634h1.805v1.721h-1.805Zm.027,3.088h1.749v7.264h-1.749Z" transform="translate(-436.88 -148.409)" fill="#555"/>
      <path id="Path_13287" data-name="Path 13287" d="M485.818,166.989l3.1-4.429h-3.005v-1.326h4.753v1.5l-3.045,4.441h3.144V168.5h-4.95Z" transform="translate(-446.517 -157.92)" fill="#555"/>
      <path id="Path_13288" data-name="Path 13288" d="M510.015,161.31a5.071,5.071,0,0,1,2.3-.536c2.258,0,2.779,1.1,2.779,2.919v3.174a8.9,8.9,0,0,0,.1,1.283h-1.58a3.6,3.6,0,0,1-.1-.987h-.029a2.336,2.336,0,0,1-2.03,1.1,2.082,2.082,0,0,1-2.172-2.128c0-1.975,1.608-2.469,3.822-2.469h.352V163.4a1.249,1.249,0,0,0-1.354-1.382,3.352,3.352,0,0,0-1.989.705Zm3.442,3.286H513.3c-1.5,0-2.384.31-2.384,1.369a1.05,1.05,0,0,0,1.114,1.113c1.045,0,1.425-.775,1.425-2.072Z" transform="translate(-464.23 -157.574)" fill="#555"/>
      <path id="Path_13289" data-name="Path 13289" d="M543.918,167.967a4.99,4.99,0,0,1-1.719.3c-2.4,0-3.413-1.678-3.413-3.737s1.071-3.752,3.511-3.752a4.791,4.791,0,0,1,1.524.3l-.1,1.383a2.787,2.787,0,0,0-1.227-.353c-1.325,0-1.9.888-1.9,2.44,0,1.353.649,2.4,1.988,2.4a2.792,2.792,0,0,0,1.241-.354Z" transform="translate(-486.503 -157.574)" fill="#555"/>
      <path id="Path_13290" data-name="Path 13290" d="M564.673,148.634h1.805v1.721h-1.805Zm.027,3.088h1.748v7.264H564.7Z" transform="translate(-506.045 -148.409)" fill="#555"/>
      <path id="Path_13291" data-name="Path 13291" d="M581.443,152.392c1.48,0,3.188.776,3.188,3.737,0,3.046-1.708,3.751-3.188,3.751s-3.2-.705-3.2-3.751C578.241,153.168,579.962,152.392,581.443,152.392Zm0,6.25c1.128,0,1.383-1.3,1.383-2.513s-.255-2.5-1.383-2.5-1.4,1.285-1.4,2.5S580.315,158.641,581.443,158.641Zm.07-8.971h1.636L581.71,151.7h-1.1Z" transform="translate(-516.288 -149.191)" fill="#555"/>
      <path id="Path_13292" data-name="Path 13292" d="M609.76,162.086a9.933,9.933,0,0,0-.056-1.2h1.635c.015.367.056.749.056,1.116h.029a2.118,2.118,0,0,1,1.933-1.229c1.649,0,2.143,1.229,2.143,2.694v4.682h-1.748v-4.357c0-1.115-.283-1.58-1-1.58-.915,0-1.24.775-1.24,1.708v4.229H609.76Z" transform="translate(-540.039 -157.574)" fill="#555"/>
      <path id="Path_13293" data-name="Path 13293" d="M660.091,147.716v9.338a9.292,9.292,0,0,0,.058,1.239h-1.635a9.581,9.581,0,0,1-.056-1.126h-.042a1.958,1.958,0,0,1-1.933,1.239c-1.805,0-2.553-1.719-2.553-3.737,0-2.369.945-3.752,2.51-3.752a1.952,1.952,0,0,1,1.876,1.156h.027v-4.357Zm-3.129,9.406c1.03,0,1.381-1.114,1.381-2.483,0-1.41-.4-2.439-1.354-2.439s-1.31.945-1.31,2.4C655.679,156.277,655.947,157.122,656.962,157.122Z" transform="translate(-573.425 -147.716)" fill="#555"/>
      <path id="Path_13294" data-name="Path 13294" d="M690.343,167.8a5.406,5.406,0,0,1-2.17.465c-2.343,0-3.358-1.678-3.358-3.639,0-2.17,1.143-3.849,2.99-3.849,1.564,0,2.9.916,2.9,3.879v.338h-4.2c0,1.243.494,1.989,1.847,1.989a2.882,2.882,0,0,0,1.9-.564Zm-1.325-3.907c0-1.283-.422-1.932-1.213-1.932-.916,0-1.3.974-1.3,1.932Z" transform="translate(-596.74 -157.574)" fill="#555"/>
      <path id="Path_13295" data-name="Path 13295" d="M730.019,147.716h1.75v10.577h-1.75Z" transform="translate(-630.865 -147.716)" fill="#555"/>
      <path id="Path_13296" data-name="Path 13296" d="M743.468,161.31a5.074,5.074,0,0,1,2.3-.536c2.256,0,2.779,1.1,2.779,2.919v3.174a8.926,8.926,0,0,0,.1,1.283h-1.579a3.6,3.6,0,0,1-.1-.987h-.03a2.332,2.332,0,0,1-2.03,1.1,2.082,2.082,0,0,1-2.17-2.128c0-1.975,1.608-2.469,3.821-2.469h.352V163.4a1.249,1.249,0,0,0-1.353-1.382,3.347,3.347,0,0,0-1.989.705Zm3.44,3.286h-.155c-1.494,0-2.383.31-2.383,1.369a1.049,1.049,0,0,0,1.114,1.113c1.044,0,1.424-.775,1.424-2.072Z" transform="translate(-640.464 -157.574)" fill="#555"/>
      <path id="Path_13297" data-name="Path 13297" d="M771.973,166.459a4.679,4.679,0,0,0,1.82.48c.635,0,1.128-.156,1.128-.72,0-.282-.141-.55-.775-.918l-.72-.422c-.733-.437-1.538-.9-1.538-2.045a2.314,2.314,0,0,1,2.51-2.059,5.784,5.784,0,0,1,1.82.3l-.1,1.355a3.994,3.994,0,0,0-1.539-.325c-.705,0-1,.268-1,.705,0,.4.31.607.818.93l.862.55c.9.579,1.354.988,1.354,1.835,0,1.337-1.129,2.142-2.708,2.142a5.857,5.857,0,0,1-2.017-.352Z" transform="translate(-662.472 -157.574)" fill="#555"/>
      <path id="Path_13298" data-name="Path 13298" d="M812.382,150.705h2.144l3.271,7.73h.03v-7.73h1.635v9.844H817.3l-3.258-7.672h-.027v7.672h-1.637Z" transform="translate(-693.041 -149.972)" fill="#555"/>
      <path id="Path_13299" data-name="Path 13299" d="M847.852,161.31a5.08,5.08,0,0,1,2.3-.536c2.256,0,2.777,1.1,2.777,2.919v3.174a9.119,9.119,0,0,0,.1,1.283H851.45a3.586,3.586,0,0,1-.1-.987h-.028a2.333,2.333,0,0,1-2.03,1.1,2.082,2.082,0,0,1-2.172-2.128c0-1.975,1.608-2.469,3.821-2.469h.354V163.4a1.249,1.249,0,0,0-1.354-1.382,3.341,3.341,0,0,0-1.988.705Zm3.442,3.286h-.156c-1.493,0-2.383.31-2.383,1.369a1.05,1.05,0,0,0,1.115,1.113c1.043,0,1.424-.775,1.424-2.072Z" transform="translate(-719.265 -157.574)" fill="#555"/>
      <path id="Path_13300" data-name="Path 13300" d="M881.756,167.967a5.005,5.005,0,0,1-1.72.3c-2.4,0-3.413-1.678-3.413-3.737s1.072-3.752,3.511-3.752a4.794,4.794,0,0,1,1.524.3l-.1,1.383a2.8,2.8,0,0,0-1.228-.353c-1.324,0-1.9.888-1.9,2.44,0,1.353.648,2.4,1.988,2.4a2.8,2.8,0,0,0,1.241-.354Z" transform="translate(-741.536 -157.574)" fill="#555"/>
      <path id="Path_13301" data-name="Path 13301" d="M902.505,148.634h1.805v1.721h-1.805Zm.028,3.088h1.75v7.264h-1.75Z" transform="translate(-761.075 -148.409)" fill="#555"/>
      <path id="Path_13302" data-name="Path 13302" d="M919.28,160.774c1.481,0,3.188.776,3.188,3.737,0,3.046-1.707,3.751-3.188,3.751s-3.2-.705-3.2-3.751C916.079,161.55,917.8,160.774,919.28,160.774Zm0,6.25c1.13,0,1.383-1.3,1.383-2.513s-.253-2.5-1.383-2.5-1.4,1.285-1.4,2.5S918.152,167.024,919.28,167.024Z" transform="translate(-771.322 -157.574)" fill="#555"/>
      <path id="Path_13303" data-name="Path 13303" d="M947.6,162.086a10.076,10.076,0,0,0-.057-1.2h1.635c.014.367.056.749.056,1.116h.029a2.115,2.115,0,0,1,1.931-1.229c1.649,0,2.144,1.229,2.144,2.694v4.682h-1.749v-4.357c0-1.115-.283-1.58-1-1.58-.916,0-1.24.775-1.24,1.708v4.229H947.6Z" transform="translate(-795.072 -157.574)" fill="#555"/>
      <path id="Path_13304" data-name="Path 13304" d="M982.343,167.8a5.414,5.414,0,0,1-2.173.465c-2.34,0-3.355-1.678-3.355-3.639,0-2.17,1.141-3.849,2.988-3.849,1.566,0,2.905.916,2.905,3.879v.338h-4.2c0,1.243.493,1.989,1.847,1.989a2.889,2.889,0,0,0,1.9-.564Zm-1.325-3.907c0-1.283-.425-1.932-1.215-1.932-.915,0-1.3.974-1.3,1.932Z" transform="translate(-817.172 -157.574)" fill="#555"/>
      <path id="Path_13305" data-name="Path 13305" d="M1005.307,166.459a4.663,4.663,0,0,0,1.82.48c.634,0,1.128-.156,1.128-.72,0-.282-.142-.55-.776-.918l-.719-.422c-.732-.437-1.538-.9-1.538-2.045a2.314,2.314,0,0,1,2.51-2.059,5.8,5.8,0,0,1,1.82.3l-.1,1.355a3.989,3.989,0,0,0-1.538-.325c-.705,0-1,.268-1,.705,0,.4.31.607.818.93l.86.55c.9.579,1.355.988,1.355,1.835,0,1.337-1.13,2.142-2.708,2.142a5.856,5.856,0,0,1-2.018-.352Z" transform="translate(-838.616 -157.574)" fill="#555"/>
      <path id="Path_13306" data-name="Path 13306" d="M1047.232,150.705v6.375c0,1.635.493,2.173,1.551,2.173,1.03,0,1.538-.537,1.538-2.173v-6.375h1.805v6.375c0,2.6-1.5,3.61-3.343,3.61s-3.356-1.015-3.356-3.61v-6.375Z" transform="translate(-868.967 -149.972)" fill="#555"/>
      <path id="Path_13307" data-name="Path 13307" d="M1079.7,162.086a10.128,10.128,0,0,0-.055-1.2h1.635c.014.367.055.749.055,1.116h.03a2.115,2.115,0,0,1,1.932-1.229c1.649,0,2.143,1.229,2.143,2.694v4.682h-1.748v-4.357c0-1.115-.282-1.58-1-1.58-.916,0-1.24.775-1.24,1.708v4.229h-1.75Z" transform="translate(-894.8 -157.574)" fill="#555"/>
      <path id="Path_13308" data-name="Path 13308" d="M1110.3,148.634h1.805v1.721H1110.3Zm.028,3.088h1.75v7.264h-1.75Z" transform="translate(-917.939 -148.409)" fill="#555"/>
      <path id="Path_13309" data-name="Path 13309" d="M1130.036,147.716v9.338a9.483,9.483,0,0,0,.056,1.239h-1.635a9.906,9.906,0,0,1-.055-1.126h-.044a1.956,1.956,0,0,1-1.932,1.239c-1.805,0-2.553-1.719-2.553-3.737,0-2.369.945-3.752,2.51-3.752a1.95,1.95,0,0,1,1.875,1.156h.028v-4.357Zm-3.129,9.406c1.029,0,1.381-1.114,1.381-2.483,0-1.41-.4-2.439-1.353-2.439-.974,0-1.312.945-1.312,2.4C1125.623,156.277,1125.892,157.122,1126.907,157.122Z" transform="translate(-928.186 -147.716)" fill="#555"/>
      <path id="Path_13310" data-name="Path 13310" d="M1154.748,161.31a5.073,5.073,0,0,1,2.3-.536c2.255,0,2.778,1.1,2.778,2.919v3.174a9.106,9.106,0,0,0,.1,1.283h-1.58a3.683,3.683,0,0,1-.1-.987h-.029a2.332,2.332,0,0,1-2.03,1.1,2.082,2.082,0,0,1-2.17-2.128c0-1.975,1.608-2.469,3.82-2.469h.353V163.4a1.249,1.249,0,0,0-1.353-1.382,3.349,3.349,0,0,0-1.989.705Zm3.44,3.286h-.156c-1.494,0-2.382.31-2.382,1.369a1.05,1.05,0,0,0,1.114,1.113c1.043,0,1.424-.775,1.424-2.072Z" transform="translate(-950.94 -157.574)" fill="#555"/>
      <path id="Path_13311" data-name="Path 13311" d="M1183.252,166.459a4.676,4.676,0,0,0,1.82.48c.634,0,1.126-.156,1.126-.72,0-.282-.14-.55-.775-.918l-.719-.422c-.733-.437-1.537-.9-1.537-2.045a2.315,2.315,0,0,1,2.51-2.059,5.776,5.776,0,0,1,1.819.3l-.1,1.355a3.984,3.984,0,0,0-1.537-.325c-.705,0-1,.268-1,.705,0,.4.31.607.818.93l.861.55c.9.579,1.353.988,1.353,1.835,0,1.337-1.128,2.142-2.708,2.142a5.858,5.858,0,0,1-2.016-.352Z" transform="translate(-972.947 -157.574)" fill="#555"/>
      <path id="Path_13312" data-name="Path 13312" d="M325.987,227.143a9.339,9.339,0,0,0-.056-1.242h1.636a9.907,9.907,0,0,1,.056,1.129h.043a1.957,1.957,0,0,1,1.932-1.241c1.805,0,2.553,1.721,2.553,3.737,0,2.37-.945,3.752-2.509,3.752a1.95,1.95,0,0,1-1.876-1.156h-.029v4.089h-1.749Zm3.1,4.851c.974,0,1.312-.945,1.312-2.4,0-1.678-.268-2.525-1.283-2.525-1.03,0-1.383,1.114-1.383,2.483C327.736,230.964,328.131,231.994,329.09,231.994Z" transform="translate(-325.819 -206.653)" fill="#555"/>
      <path id="Path_13313" data-name="Path 13313" d="M356.111,226.324a5.079,5.079,0,0,1,2.3-.536c2.256,0,2.778,1.1,2.778,2.919v3.174a8.914,8.914,0,0,0,.1,1.283h-1.58a3.591,3.591,0,0,1-.1-.987h-.029a2.333,2.333,0,0,1-2.029,1.1,2.083,2.083,0,0,1-2.173-2.128c0-1.975,1.608-2.469,3.822-2.469h.352v-.268a1.249,1.249,0,0,0-1.354-1.383,3.343,3.343,0,0,0-1.988.7Zm3.441,3.286H359.4c-1.494,0-2.384.31-2.384,1.369a1.051,1.051,0,0,0,1.115,1.113c1.044,0,1.424-.775,1.424-2.073Z" transform="translate(-348.048 -206.653)" fill="#555"/>
      <path id="Path_13314" data-name="Path 13314" d="M385.747,227.1a10.15,10.15,0,0,0-.055-1.2h1.578c.015.439.057.889.057,1.326h.028a2.027,2.027,0,0,1,1.846-1.439,1.78,1.78,0,0,1,.3.044v1.635a1.82,1.82,0,0,0-.5-.07c-.719,0-1.507.435-1.507,1.79v3.977h-1.75Z" transform="translate(-370.932 -206.653)" fill="#555"/>
      <path id="Path_13315" data-name="Path 13315" d="M404.539,226.324a5.072,5.072,0,0,1,2.3-.536c2.256,0,2.778,1.1,2.778,2.919v3.174a9.169,9.169,0,0,0,.1,1.283h-1.58a3.69,3.69,0,0,1-.1-.987h-.028a2.332,2.332,0,0,1-2.03,1.1,2.082,2.082,0,0,1-2.17-2.128c0-1.975,1.608-2.469,3.82-2.469h.354v-.268a1.249,1.249,0,0,0-1.353-1.383,3.35,3.35,0,0,0-1.989.7Zm3.44,3.286h-.156c-1.494,0-2.382.31-2.382,1.369a1.05,1.05,0,0,0,1.114,1.113c1.043,0,1.424-.775,1.424-2.073Z" transform="translate(-384.606 -206.653)" fill="#555"/>
      <path id="Path_13316" data-name="Path 13316" d="M449.755,212.729H451.5v10.577h-1.749Z" transform="translate(-419.293 -196.794)" fill="#555"/>
      <path id="Path_13317" data-name="Path 13317" d="M463.2,226.324a5.073,5.073,0,0,1,2.3-.536c2.258,0,2.779,1.1,2.779,2.919v3.174a8.951,8.951,0,0,0,.1,1.283H466.8a3.6,3.6,0,0,1-.1-.987h-.029a2.335,2.335,0,0,1-2.03,1.1,2.082,2.082,0,0,1-2.172-2.128c0-1.975,1.608-2.469,3.822-2.469h.352v-.268a1.249,1.249,0,0,0-1.354-1.383,3.353,3.353,0,0,0-1.989.7Zm3.442,3.286h-.155c-1.5,0-2.384.31-2.384,1.369a1.051,1.051,0,0,0,1.114,1.113c1.045,0,1.425-.775,1.425-2.073Z" transform="translate(-428.89 -206.653)" fill="#555"/>
      <path id="Path_13318" data-name="Path 13318" d="M507.587,223.189H504.2l-.705,2.37h-1.805l3.3-9.845h1.975l3.173,9.845h-1.86Zm-.38-1.382-1.242-4.6h-.028l-1.353,4.6Z" transform="translate(-458.501 -199.048)" fill="#555"/>
      <path id="Path_13319" data-name="Path 13319" d="M540.4,212.729h1.749v10.577H540.4Z" transform="translate(-487.719 -196.794)" fill="#555"/>
      <path id="Path_13320" data-name="Path 13320" d="M555.241,213.644h1.8v1.723h-1.8Zm.028,3.089h1.749V224h-1.749Z" transform="translate(-498.925 -197.485)" fill="#555"/>
      <path id="Path_13321" data-name="Path 13321" d="M569.269,227.086a11.272,11.272,0,0,0-.056-1.185h1.749c.014.381.056.762.056,1.144h.029a2.02,2.02,0,0,1,1.833-1.256,1.878,1.878,0,0,1,1.833,1.156,2.252,2.252,0,0,1,1.948-1.156c1.578,0,2.086,1.129,2.086,2.892v4.484H577v-4.583c0-.9-.283-1.354-.93-1.354-.776,0-1.185.732-1.185,1.538v4.4h-1.75v-4.583c0-.9-.28-1.354-.929-1.354-.775,0-1.185.732-1.185,1.538v4.4h-1.749Z" transform="translate(-509.472 -206.653)" fill="#555"/>
      <path id="Path_13322" data-name="Path 13322" d="M619.087,232.811a5.405,5.405,0,0,1-2.171.465c-2.34,0-3.356-1.678-3.356-3.639,0-2.17,1.141-3.849,2.988-3.849,1.567,0,2.905.916,2.905,3.878V230h-4.2c0,1.242.493,1.989,1.847,1.989a2.887,2.887,0,0,0,1.9-.565Zm-1.325-3.907c0-1.283-.424-1.932-1.214-1.932-.915,0-1.3.974-1.3,1.932Z" transform="translate(-542.95 -206.653)" fill="#555"/>
      <path id="Path_13323" data-name="Path 13323" d="M642.946,227.1a10.117,10.117,0,0,0-.056-1.2h1.635c.014.367.057.749.057,1.116h.029a2.116,2.116,0,0,1,1.932-1.229c1.649,0,2.144,1.229,2.144,2.694v4.682h-1.749v-4.357c0-1.115-.282-1.58-1-1.58-.916,0-1.24.775-1.24,1.708v4.229h-1.749Z" transform="translate(-565.091 -206.653)" fill="#555"/>
      <path id="Path_13324" data-name="Path 13324" d="M672.054,218.5l1.75-.536v2.03h1.451v1.284H673.8v3.764c0,.776.28,1,.788,1a1.379,1.379,0,0,0,.663-.155v1.24a2.691,2.691,0,0,1-1.171.24c-1.3,0-2.03-.591-2.03-2.115v-3.977H670.9v-1.284h1.155Z" transform="translate(-586.235 -200.746)" fill="#555"/>
      <path id="Path_13325" data-name="Path 13325" d="M692.392,226.324a5.074,5.074,0,0,1,2.3-.536c2.256,0,2.778,1.1,2.778,2.919v3.174a9.04,9.04,0,0,0,.1,1.283h-1.579a3.61,3.61,0,0,1-.1-.987h-.027a2.337,2.337,0,0,1-2.03,1.1,2.082,2.082,0,0,1-2.172-2.128c0-1.975,1.607-2.469,3.821-2.469h.353v-.268a1.25,1.25,0,0,0-1.355-1.383,3.339,3.339,0,0,0-1.987.7Zm3.441,3.286h-.156c-1.494,0-2.384.31-2.384,1.369a1.051,1.051,0,0,0,1.115,1.113c1.044,0,1.425-.775,1.425-2.073Z" transform="translate(-601.907 -206.653)" fill="#555"/>
      <path id="Path_13326" data-name="Path 13326" d="M726.3,232.981a5,5,0,0,1-1.72.3c-2.4,0-3.413-1.678-3.413-3.737s1.07-3.752,3.511-3.752a4.788,4.788,0,0,1,1.524.3l-.1,1.383a2.8,2.8,0,0,0-1.228-.353c-1.325,0-1.9.888-1.9,2.44,0,1.353.648,2.4,1.988,2.4a2.817,2.817,0,0,0,1.241-.353Z" transform="translate(-624.18 -206.653)" fill="#555"/>
      <path id="Path_13327" data-name="Path 13327" d="M747.046,213.644h1.805v1.723h-1.805Zm.027,3.089h1.749V224h-1.749Z" transform="translate(-643.719 -197.485)" fill="#555"/>
      <path id="Path_13328" data-name="Path 13328" d="M763.819,217.406c1.481,0,3.188.776,3.188,3.737,0,3.047-1.706,3.752-3.188,3.752s-3.2-.705-3.2-3.752C760.618,218.182,762.337,217.406,763.819,217.406Zm0,6.248c1.129,0,1.382-1.3,1.382-2.512s-.254-2.5-1.382-2.5-1.4,1.285-1.4,2.5S762.691,223.654,763.819,223.654Zm.071-8.97h1.635l-1.438,2.03h-1.1Z" transform="translate(-653.964 -198.27)" fill="#555"/>
      <path id="Path_13329" data-name="Path 13329" d="M792.136,227.1a10.2,10.2,0,0,0-.055-1.2h1.635c.014.367.055.749.055,1.116h.03a2.114,2.114,0,0,1,1.931-1.229c1.649,0,2.144,1.229,2.144,2.694v4.682h-1.749v-4.357c0-1.115-.282-1.58-1-1.58-.916,0-1.24.775-1.24,1.708v4.229h-1.75Z" transform="translate(-677.716 -206.653)" fill="#555"/>
      <path id="Path_13330" data-name="Path 13330" d="M837.451,231.734h.028l1.4-5.487h1.693l-2.651,8.645a2.106,2.106,0,0,1-2.073,1.75,3.541,3.541,0,0,1-1.114-.184l.1-1.34a1.848,1.848,0,0,0,.664.141c.519.014.746-.31.972-1.057l.128-.622-2.412-7.334h1.8Z" transform="translate(-709.495 -206.999)" fill="#555"/>
      <path id="Path_13331" data-name="Path 13331" d="M879.383,212.729h1.749v10.577h-1.749Z" transform="translate(-743.62 -196.794)" fill="#555"/>
      <path id="Path_13332" data-name="Path 13332" d="M892.827,226.324a5.075,5.075,0,0,1,2.3-.536c2.257,0,2.779,1.1,2.779,2.919v3.174a8.938,8.938,0,0,0,.1,1.283h-1.579a3.59,3.59,0,0,1-.1-.987h-.03a2.332,2.332,0,0,1-2.029,1.1,2.082,2.082,0,0,1-2.171-2.128c0-1.975,1.607-2.469,3.821-2.469h.353v-.268a1.249,1.249,0,0,0-1.354-1.383,3.353,3.353,0,0,0-1.989.7Zm3.442,3.286h-.155c-1.5,0-2.384.31-2.384,1.369a1.051,1.051,0,0,0,1.114,1.113c1.045,0,1.425-.775,1.425-2.073Z" transform="translate(-753.216 -206.653)" fill="#555"/>
      <path id="Path_13333" data-name="Path 13333" d="M937.213,223.189h-3.384l-.705,2.37h-1.8l3.3-9.845h1.974l3.173,9.845H937.9Zm-.381-1.382-1.24-4.6h-.027l-1.355,4.6Z" transform="translate(-782.826 -199.048)" fill="#555"/>
      <path id="Path_13334" data-name="Path 13334" d="M968.949,234.292a4.611,4.611,0,0,0,2.144.621c1.649,0,1.918-1.144,1.918-2.285v-.691h-.028a1.989,1.989,0,0,1-1.92,1.228c-1.014,0-2.537-.677-2.537-3.61,0-2,.72-3.766,2.622-3.766a2.073,2.073,0,0,1,1.918,1.241h.057c0-.38.042-.748.058-1.129h1.578c-.028.381-.055.762-.055,1.144V232.4c0,2.269-.692,3.893-3.358,3.893a7.27,7.27,0,0,1-2.494-.452Zm2.524-2.411c1.1,0,1.538-.79,1.538-2.439,0-1.523-.579-2.342-1.41-2.328-.916.015-1.269.86-1.269,2.342C970.331,231.161,970.881,231.881,971.473,231.881Z" transform="translate(-810.914 -206.653)" fill="#555"/>
      <path id="Path_13335" data-name="Path 13335" d="M1000.274,227.1a9.851,9.851,0,0,0-.056-1.2h1.579c.014.439.055.889.055,1.326h.03a2.025,2.025,0,0,1,1.847-1.439,1.765,1.765,0,0,1,.3.044v1.635a1.81,1.81,0,0,0-.494-.07c-.719,0-1.509.435-1.509,1.79v3.977h-1.748Z" transform="translate(-834.838 -206.653)" fill="#555"/>
      <path id="Path_13336" data-name="Path 13336" d="M1021.035,213.644h1.805v1.723h-1.805Zm.027,3.089h1.749V224h-1.749Z" transform="translate(-850.553 -197.485)" fill="#555"/>
      <path id="Path_13337" data-name="Path 13337" d="M1039.74,232.981a5,5,0,0,1-1.719.3c-2.4,0-3.413-1.678-3.413-3.737s1.072-3.752,3.511-3.752a4.788,4.788,0,0,1,1.524.3l-.1,1.383a2.791,2.791,0,0,0-1.226-.353c-1.325,0-1.9.888-1.9,2.44,0,1.353.649,2.4,1.988,2.4a2.812,2.812,0,0,0,1.241-.353Z" transform="translate(-860.799 -206.653)" fill="#555"/>
      <path id="Path_13338" data-name="Path 13338" d="M1065.653,232.31a9.893,9.893,0,0,0,.057,1.2h-1.637c-.014-.366-.055-.748-.055-1.113l-.043-.015.015.015a2.117,2.117,0,0,1-1.932,1.225c-1.651,0-2.145-1.225-2.145-2.693v-4.683h1.75v4.358c0,1.115.31,1.579,1.043,1.579.93,0,1.2-.845,1.2-1.777v-4.161h1.748Z" transform="translate(-879.903 -206.999)" fill="#555"/>
      <path id="Path_13339" data-name="Path 13339" d="M1090.453,212.729h1.749v10.577h-1.749Z" transform="translate(-902.957 -196.794)" fill="#555"/>
      <path id="Path_13340" data-name="Path 13340" d="M1103.805,218.5l1.749-.536v2.03h1.453v1.284h-1.453v3.764c0,.776.281,1,.789,1a1.391,1.391,0,0,0,.664-.155v1.24a2.7,2.7,0,0,1-1.171.24c-1.3,0-2.03-.591-2.03-2.115v-3.977h-1.156v-1.284h1.156Z" transform="translate(-912.164 -200.746)" fill="#555"/>
      <path id="Path_13341" data-name="Path 13341" d="M1130.705,232.31a9.992,9.992,0,0,0,.055,1.2h-1.635c-.014-.366-.056-.748-.056-1.113l-.043-.015.015.015a2.117,2.117,0,0,1-1.933,1.225c-1.65,0-2.143-1.225-2.143-2.693v-4.683h1.748v4.358c0,1.115.31,1.579,1.043,1.579.932,0,1.2-.845,1.2-1.777v-4.161h1.749Z" transform="translate(-929.011 -206.999)" fill="#555"/>
      <path id="Path_13342" data-name="Path 13342" d="M1154.869,227.1a9.876,9.876,0,0,0-.058-1.2h1.58c.014.439.055.889.055,1.326h.03a2.024,2.024,0,0,1,1.846-1.439,1.786,1.786,0,0,1,.3.044v1.635a1.817,1.817,0,0,0-.494-.07c-.719,0-1.509.435-1.509,1.79v3.977h-1.748Z" transform="translate(-951.541 -206.653)" fill="#555"/>
      <path id="Path_13343" data-name="Path 13343" d="M1173.657,226.324a5.08,5.08,0,0,1,2.3-.536c2.257,0,2.778,1.1,2.778,2.919v3.174a8.953,8.953,0,0,0,.1,1.283h-1.58a3.585,3.585,0,0,1-.1-.987h-.029a2.333,2.333,0,0,1-2.029,1.1,2.082,2.082,0,0,1-2.173-2.128c0-1.975,1.607-2.469,3.822-2.469h.354v-.268a1.25,1.25,0,0,0-1.355-1.383,3.342,3.342,0,0,0-1.988.7Zm3.443,3.286h-.156c-1.494,0-2.384.31-2.384,1.369a1.051,1.051,0,0,0,1.115,1.113c1.044,0,1.425-.775,1.425-2.073Z" transform="translate(-965.215 -206.653)" fill="#555"/>
    </g>
  </g>
</svg>
