<svg xmlns="http://www.w3.org/2000/svg" width="354.363" height="76.974" viewBox="0 0 354.363 76.974">
  <g id="FAO_ES" transform="translate(-83 -83.001)">
    <g id="Group_10359" data-name="Group 10359" transform="translate(83 83.001)">
      <path id="Path_13415" data-name="Path 13415" d="M121.488,159.975a38.487,38.487,0,1,1,38.485-38.485A38.531,38.531,0,0,1,121.488,159.975Zm-.147-53.663c.05,0,3.126,3.3,3.126,5.933a3.245,3.245,0,0,1-2.98,3.539c-.038,0-.083,0-.131-.007h-.03c-.049,0-.1.007-.131.007a3.247,3.247,0,0,1-2.98-3.539C118.217,109.608,121.286,106.312,121.342,106.312ZM92.36,123.631h3.511v-6.487h5.9v-2.717h-5.9v-3.6h6.093v-2.708h-9.6Zm32.164-16.852h3.7l-4.3-15.515h-4.733l-4.459,15.515h3.429l.986-3.467h4.489Zm-1.539-6.1h-3.226l1.5-6.746h.247Zm16.259,15.19c0,4.558,2.113,8.023,6.576,8.023s6.611-3.465,6.611-8.023-2.136-8.023-6.611-8.023S139.244,111.314,139.244,115.873Zm3.74,0c0-2.977.73-5.4,2.836-5.4s2.875,2.422,2.875,5.4-.761,5.4-2.875,5.4S142.983,118.85,142.983,115.873Zm-23.136,39.809a52.05,52.05,0,0,0,.408-6.736v-.474c0-3.975-.146-5.316-2.8-6.2-4.1-1.356-5.771-5.928-4.872-11.62L98.881,95.8a34.219,34.219,0,0,0,20.966,59.878Zm1.627-22.222c-5.452-1.271-7.477-6.239-7.477-10.65l-12-29.45c-.784.541-1.544,1.121-2.279,1.722,2.64,6.255,14.484,34.361,14.5,34.4,2.1,5.049,5.909,3.376,6.831,7.544a9.36,9.36,0,0,1,.236,1.453h.409a8.258,8.258,0,0,1,.236-1.453c.922-4.168,4.725-2.494,6.824-7.544.015-.04,11.86-28.146,14.494-34.4-.735-.6-1.491-1.18-2.279-1.722l-11.994,29.45c0,4.411-2.028,9.378-7.481,10.65Zm-.008-8.889c-2.312-.517-5.193-2.813-5.568-5.769a13.191,13.191,0,0,1-.079-3.67L105.3,91.332c-.846.456-1.672.951-2.48,1.478,3.144,7.065,12.756,28.647,12.763,28.674,1.522,3.2,4.19,3.266,5.111,5.175a6.16,6.16,0,0,1,.612,2.226h.352a6.343,6.343,0,0,1,.611-2.226c.926-1.909,3.594-1.973,5.112-5.175.007-.026,9.622-21.609,12.763-28.674-.8-.527-1.631-1.022-2.481-1.478l-10.5,23.8a12.685,12.685,0,0,1-.09,3.67c-.375,2.956-3.257,5.252-5.558,5.769Zm.146-4.043.161-1.3c.664-3.015,2.851-2.64,4.37-5.6l.026-.044c.045-.112,7.483-16.069,10.587-22.733a34.185,34.185,0,0,0-30.539,0c3.1,6.665,10.539,22.622,10.6,22.733a.315.315,0,0,0,.022.044c1.511,2.959,3.7,2.584,4.358,5.6l.161,1.3Zm34.109.962A34.194,34.194,0,0,0,144.1,95.8l-13.715,34.852c.911,5.692-.776,10.264-4.871,11.62-2.653.88-2.8,2.222-2.8,6.2v.474a54.189,54.189,0,0,0,.408,6.736A34.276,34.276,0,0,0,155.721,121.49ZM98.072,131.6s.506,1.074.918,1.839.967,1.683.967,1.683l-.9.526s-.686-1.142-1.315-2.461c-.172.088-1.255.652-1.435.741.1.192,1.214,2.328,1.214,2.328l-.915.526s-1.125-2.185-1.221-2.368c-.2.1-2.53,1.3-2.53,1.3l-.558-1.11,5.715-2.974Zm3.612,5.859.794.958-5,4.179-.81-.958,4.953-4.139Zm4.632,4.382.989.709-1.281,6.891-1.135-.653s.285-1.405.318-1.539c-.056-.046-.716-.44-1.357-.893s-1.285-.988-1.345-1.029c-.123.074-1.378.815-1.378.815l-.97-.829,6.1-3.435Zm-2.89,2.926c.116.1.54.442.978.757a11.813,11.813,0,0,0,1.023.663c.064-.288.521-2.554.614-2.975C105.671,143.435,103.689,144.612,103.426,144.768Zm7.011-.389a22.786,22.786,0,0,0,2.556,1.038,24.466,24.466,0,0,0,2.743.819l-.3.992a19.864,19.864,0,0,1-2.135-.55l-1.795,5.13-1.178-.408s1.713-4.92,1.787-5.136a19.05,19.05,0,0,1-2.09-.916Zm20.584,1.312a1.87,1.87,0,0,1,.907,1.186,2.3,2.3,0,0,1,.116.687c0,.912-.637,1.627-1.788,1.987l-.753.234c.068.2.753,2.413.753,2.413l-1.143.3-1.938-6.276,1.732-.54A2.782,2.782,0,0,1,131.022,145.691Zm-2.421,1.181c.056.193.536,1.726.593,1.913.239-.069.76-.235.76-.235a1.313,1.313,0,0,0,.775-.585.859.859,0,0,0,.1-.4,1.245,1.245,0,0,0-.055-.334.838.838,0,0,0-.416-.5,1.576,1.576,0,0,0-1.121-.053Zm6.306-3.917,5.651,4.14-1,.707s-1.135-.863-1.248-.947c-.067.037-.649.449-1.277.822-.592.359-1.233.674-1.3.713.027.147.248,1.532.248,1.532l-1.079.515-.949-6.927Zm.648,4.388c.169-.082.608-.322,1.044-.583.389-.237.7-.432.857-.555-.229-.174-1.994-1.517-2.36-1.8C135.171,144.863,135.511,147.053,135.555,147.342Zm5.809-10.091,4.928,4.395-.887,1.04s-4.62-1.347-5.321-1.537c.521.5,3.387,3.52,3.387,3.52l-.865.782-4.644-4.717,1.091-.978s4.458,1.331,5.16,1.515c-.521-.5-3.6-3.14-3.6-3.14Zm2.252-3.282,5.708,3.31-.581,1-5.738-3.32Zm2.473-5.476.979.509-.1.113a2.813,2.813,0,0,0-.612,1.022,1.147,1.147,0,0,0-.015.866.616.616,0,0,0,.39.32c.436.147.811-.231,1.241-.67a2.345,2.345,0,0,1,2.556-.962c1.225.416,1.641,1.506,1.135,2.991a4.624,4.624,0,0,1-.692,1.2l-.06.078-1.012-.472.1-.118a3.787,3.787,0,0,0,.7-1.128,1.028,1.028,0,0,0-.517-1.383c-.543-.187-.952.234-1.428.723-.578.608-1.241,1.294-2.334.921a1.751,1.751,0,0,1-1.042-.873,2.324,2.324,0,0,1-.026-1.795,4.164,4.164,0,0,1,.677-1.264Z" transform="translate(-83 -83.001)" fill="#5792c9"/>
    </g>
    <g id="Group_10360" data-name="Group 10360" transform="translate(172.715 89.712)">
      <path id="Path_13416" data-name="Path 13416" d="M329.161,103.2c3.148,0,6.036,2.344,6.036,7.793s-2.888,7.795-6.036,7.795-6.035-2.346-6.035-7.795S326.014,103.2,329.161,103.2Zm0,13.459c1.758,0,3.17-1.5,3.17-5.666s-1.412-5.666-3.17-5.666-3.169,1.5-3.169,5.666S327.4,116.663,329.161,116.663Z" transform="translate(-322.236 -102.292)" fill="#5792c9"/>
      <path id="Path_13417" data-name="Path 13417" d="M361.056,115.869a15.358,15.358,0,0,0-.086-1.845H363.4c.022.672.087,1.368.087,2.04h.044a3.118,3.118,0,0,1,2.844-2.213,2.905,2.905,0,0,1,.457.064v2.519a2.8,2.8,0,0,0-.761-.108c-1.107,0-2.322.672-2.322,2.754V125.2h-2.693Z" transform="translate(-345.801 -108.921)" fill="#5792c9"/>
      <path id="Path_13418" data-name="Path 13418" d="M380.481,126.939a7.067,7.067,0,0,0,3.3.958c2.539,0,2.952-1.761,2.952-3.518v-1.064h-.042a3.062,3.062,0,0,1-2.954,1.888c-1.563,0-3.907-1.043-3.907-5.558,0-3.083,1.108-5.795,4.038-5.795a3.194,3.194,0,0,1,2.952,1.909h.089c0-.586.064-1.149.086-1.736h2.431c-.043.587-.087,1.172-.087,1.757v8.251c0,3.495-1.063,5.991-5.167,5.991a11.254,11.254,0,0,1-3.843-.695Zm3.886-3.713c1.694,0,2.367-1.216,2.367-3.755,0-2.344-.89-3.6-2.171-3.582-1.412.021-1.954,1.324-1.954,3.6C382.609,122.12,383.455,123.226,384.367,123.226Z" transform="translate(-357.545 -108.921)" fill="#5792c9"/>
      <path id="Path_13419" data-name="Path 13419" d="M411.1,114.673a7.817,7.817,0,0,1,3.54-.823c3.473,0,4.277,1.693,4.277,4.492v4.884a13.912,13.912,0,0,0,.151,1.977h-2.433a5.652,5.652,0,0,1-.15-1.521h-.045a3.589,3.589,0,0,1-3.125,1.694,3.206,3.206,0,0,1-3.343-3.277c0-3.041,2.475-3.8,5.883-3.8h.543v-.412a1.923,1.923,0,0,0-2.084-2.127,5.155,5.155,0,0,0-3.062,1.086Zm5.3,5.058h-.24c-2.3,0-3.669.479-3.669,2.106a1.618,1.618,0,0,0,1.716,1.715c1.607,0,2.193-1.194,2.193-3.19Z" transform="translate(-376.311 -108.921)" fill="#5792c9"/>
      <path id="Path_13420" data-name="Path 13420" d="M440.136,115.869a15.268,15.268,0,0,0-.087-1.845h2.518c.022.564.087,1.149.087,1.715h.044a3.258,3.258,0,0,1,2.973-1.888c2.54,0,3.3,1.888,3.3,4.144v7.21h-2.692v-6.71c0-1.713-.435-2.43-1.542-2.43-1.409,0-1.909,1.195-1.909,2.627V125.2h-2.692Z" transform="translate(-395.042 -108.921)" fill="#5792c9"/>
      <path id="Path_13421" data-name="Path 13421" d="M470.7,101.705h2.778v2.648H470.7Zm.043,4.756h2.691v11.18h-2.691Z" transform="translate(-414.13 -101.358)" fill="#5792c9"/>
      <path id="Path_13422" data-name="Path 13422" d="M483.471,123.166l4.777-6.817h-4.626v-2.04h7.317v2.3l-4.689,6.838h4.84v2.04h-7.619Z" transform="translate(-422.079 -109.206)" fill="#5792c9"/>
      <path id="Path_13423" data-name="Path 13423" d="M508.065,114.673a7.82,7.82,0,0,1,3.54-.823c3.473,0,4.277,1.693,4.277,4.492v4.884a13.909,13.909,0,0,0,.151,1.977H513.6a5.527,5.527,0,0,1-.153-1.521h-.044a3.59,3.59,0,0,1-3.125,1.694,3.206,3.206,0,0,1-3.343-3.277c0-3.041,2.474-3.8,5.881-3.8h.544v-.412a1.924,1.924,0,0,0-2.084-2.127,5.147,5.147,0,0,0-3.061,1.086Zm5.3,5.058h-.24c-2.3,0-3.668.479-3.668,2.106a1.617,1.617,0,0,0,1.716,1.715c1.606,0,2.192-1.194,2.192-3.19Z" transform="translate(-436.692 -108.921)" fill="#5792c9"/>
      <path id="Path_13424" data-name="Path 13424" d="M544.342,124.92a7.615,7.615,0,0,1-2.648.456c-3.691,0-5.254-2.583-5.254-5.753,0-3.191,1.65-5.773,5.4-5.773a7.332,7.332,0,0,1,2.346.456l-.153,2.127a4.3,4.3,0,0,0-1.889-.542c-2.041,0-2.93,1.368-2.93,3.755,0,2.084,1,3.691,3.061,3.691a4.332,4.332,0,0,0,1.911-.543Z" transform="translate(-455.062 -108.921)" fill="#5792c9"/>
      <path id="Path_13425" data-name="Path 13425" d="M562.324,101.705H565.1v2.648h-2.779Zm.043,4.756h2.691v11.18h-2.691Z" transform="translate(-471.179 -101.358)" fill="#5792c9"/>
      <path id="Path_13426" data-name="Path 13426" d="M580.825,106.933c2.279,0,4.907,1.193,4.907,5.753,0,4.688-2.628,5.774-4.907,5.774s-4.928-1.086-4.928-5.774C575.9,108.126,578.545,106.933,580.825,106.933Zm0,9.617c1.738,0,2.128-2,2.128-3.865s-.39-3.844-2.128-3.844-2.149,1.975-2.149,3.844S579.088,116.55,580.825,116.55Zm.108-13.809h2.519l-2.214,3.127h-1.693Z" transform="translate(-479.631 -102.003)" fill="#5792c9"/>
      <path id="Path_13427" data-name="Path 13427" d="M607.444,115.869a15.266,15.266,0,0,0-.087-1.845h2.517c.023.564.087,1.149.087,1.715h.044a3.258,3.258,0,0,1,2.974-1.888c2.539,0,3.3,1.888,3.3,4.144v7.21h-2.693v-6.71c0-1.713-.435-2.43-1.543-2.43-1.409,0-1.909,1.195-1.909,2.627V125.2h-2.691Z" transform="translate(-499.22 -108.921)" fill="#5792c9"/>
      <path id="Path_13428" data-name="Path 13428" d="M661.072,100.786v14.371a14.452,14.452,0,0,0,.087,1.911h-2.518a14.793,14.793,0,0,1-.087-1.736h-.066a3.01,3.01,0,0,1-2.974,1.909c-2.778,0-3.928-2.648-3.928-5.753,0-3.647,1.454-5.773,3.865-5.773a3,3,0,0,1,2.887,1.779h.043v-6.708Zm-4.819,14.479c1.585,0,2.127-1.715,2.127-3.82,0-2.169-.609-3.755-2.085-3.755-1.5,0-2.017,1.455-2.017,3.689C654.278,113.964,654.691,115.265,656.253,115.265Z" transform="translate(-526.761 -100.786)" fill="#5792c9"/>
      <path id="Path_13429" data-name="Path 13429" d="M690.981,124.661a8.329,8.329,0,0,1-3.343.716c-3.6,0-5.167-2.583-5.167-5.6,0-3.343,1.758-5.926,4.6-5.926,2.41,0,4.473,1.411,4.473,5.968v.522h-6.469c0,1.911.76,3.06,2.844,3.06a4.454,4.454,0,0,0,2.93-.866Zm-2.04-6.015c0-1.975-.652-2.973-1.869-2.973-1.41,0-2,1.5-2,2.973Z" transform="translate(-545.992 -108.921)" fill="#5792c9"/>
      <path id="Path_13430" data-name="Path 13430" d="M727.676,100.786h2.691v16.283h-2.691Z" transform="translate(-574.14 -100.786)" fill="#5792c9"/>
      <path id="Path_13431" data-name="Path 13431" d="M741.515,114.673a7.818,7.818,0,0,1,3.54-.823c3.473,0,4.277,1.693,4.277,4.492v4.884a13.916,13.916,0,0,0,.151,1.977H747.05a5.6,5.6,0,0,1-.151-1.521h-.045a3.589,3.589,0,0,1-3.125,1.694,3.206,3.206,0,0,1-3.343-3.277c0-3.041,2.475-3.8,5.882-3.8h.545v-.412a1.924,1.924,0,0,0-2.084-2.127,5.154,5.154,0,0,0-3.062,1.086Zm5.3,5.058h-.24c-2.3,0-3.668.479-3.668,2.106a1.618,1.618,0,0,0,1.715,1.715c1.608,0,2.194-1.194,2.194-3.19Z" transform="translate(-582.055 -108.921)" fill="#5792c9"/>
      <path id="Path_13432" data-name="Path 13432" d="M769.675,122.6a7.182,7.182,0,0,0,2.8.739c.976,0,1.735-.24,1.735-1.107,0-.435-.217-.848-1.193-1.412l-1.107-.65c-1.128-.674-2.366-1.39-2.366-3.149,0-1.541,1.5-3.168,3.864-3.168a8.9,8.9,0,0,1,2.8.456l-.152,2.082a6.182,6.182,0,0,0-2.367-.5c-1.085,0-1.54.412-1.54,1.086,0,.608.478.933,1.258,1.432l1.325.847c1.39.889,2.084,1.518,2.084,2.823,0,2.061-1.738,3.3-4.168,3.3a9.053,9.053,0,0,1-3.105-.543Z" transform="translate(-600.211 -108.921)" fill="#5792c9"/>
      <path id="Path_13433" data-name="Path 13433" d="M810.035,103.776h3.3l5.036,11.9h.044v-11.9h2.518V118.93h-3.322L812.6,107.121h-.043V118.93h-2.519Z" transform="translate(-625.423 -102.648)" fill="#5792c9"/>
      <path id="Path_13434" data-name="Path 13434" d="M845.9,114.673a7.821,7.821,0,0,1,3.54-.823c3.474,0,4.277,1.693,4.277,4.492v4.884a13.916,13.916,0,0,0,.151,1.977h-2.432a5.587,5.587,0,0,1-.152-1.521h-.044a3.592,3.592,0,0,1-3.126,1.694,3.206,3.206,0,0,1-3.343-3.277c0-3.041,2.474-3.8,5.882-3.8h.544v-.412a1.924,1.924,0,0,0-2.084-2.127,5.152,5.152,0,0,0-3.06,1.086Zm5.3,5.058h-.24c-2.3,0-3.67.479-3.67,2.106a1.618,1.618,0,0,0,1.716,1.715c1.607,0,2.193-1.194,2.193-3.19Z" transform="translate(-647.054 -108.921)" fill="#5792c9"/>
      <path id="Path_13435" data-name="Path 13435" d="M882.178,124.92a7.617,7.617,0,0,1-2.648.456c-3.691,0-5.254-2.583-5.254-5.753,0-3.191,1.65-5.773,5.406-5.773a7.331,7.331,0,0,1,2.346.456l-.153,2.127a4.3,4.3,0,0,0-1.889-.542c-2.04,0-2.93,1.368-2.93,3.755,0,2.084,1,3.691,3.061,3.691a4.332,4.332,0,0,0,1.911-.543Z" transform="translate(-665.424 -108.921)" fill="#5792c9"/>
      <path id="Path_13436" data-name="Path 13436" d="M900.16,101.705h2.779v2.648H900.16Zm.042,4.756h2.693v11.18H900.2Z" transform="translate(-681.542 -101.358)" fill="#5792c9"/>
      <path id="Path_13437" data-name="Path 13437" d="M918.659,113.85c2.279,0,4.907,1.193,4.907,5.753,0,4.688-2.628,5.774-4.907,5.774s-4.927-1.086-4.927-5.774C913.732,115.043,916.38,113.85,918.659,113.85Zm0,9.617c1.738,0,2.128-2,2.128-3.865s-.391-3.844-2.128-3.844-2.149,1.975-2.149,3.844S916.923,123.467,918.659,123.467Z" transform="translate(-689.993 -108.921)" fill="#5792c9"/>
      <path id="Path_13438" data-name="Path 13438" d="M945.279,115.869a15.434,15.434,0,0,0-.086-1.845h2.517c.022.564.086,1.149.086,1.715h.044a3.259,3.259,0,0,1,2.974-1.888c2.54,0,3.3,1.888,3.3,4.144v7.21h-2.693v-6.71c0-1.713-.435-2.43-1.542-2.43-1.41,0-1.909,1.195-1.909,2.627V125.2h-2.693Z" transform="translate(-709.583 -108.921)" fill="#5792c9"/>
      <path id="Path_13439" data-name="Path 13439" d="M982.977,124.661a8.326,8.326,0,0,1-3.342.716c-3.605,0-5.168-2.583-5.168-5.6,0-3.343,1.758-5.926,4.6-5.926,2.41,0,4.472,1.411,4.472,5.968v.522h-6.468c0,1.911.759,3.06,2.843,3.06a4.452,4.452,0,0,0,2.93-.866Zm-2.039-6.015c0-1.975-.652-2.973-1.869-2.973-1.41,0-2,1.5-2,2.973Z" transform="translate(-727.811 -108.921)" fill="#5792c9"/>
      <path id="Path_13440" data-name="Path 13440" d="M1003.008,122.6a7.185,7.185,0,0,0,2.8.739c.977,0,1.736-.24,1.736-1.107,0-.435-.217-.848-1.194-1.412l-1.108-.65c-1.128-.674-2.366-1.39-2.366-3.149,0-1.541,1.5-3.168,3.865-3.168a8.906,8.906,0,0,1,2.8.456l-.151,2.082a6.191,6.191,0,0,0-2.368-.5c-1.085,0-1.54.412-1.54,1.086,0,.608.477.933,1.259,1.432l1.324.847c1.389.889,2.084,1.518,2.084,2.823,0,2.061-1.737,3.3-4.168,3.3a9.051,9.051,0,0,1-3.1-.543Z" transform="translate(-745.502 -108.921)" fill="#5792c9"/>
      <path id="Path_13441" data-name="Path 13441" d="M327.17,168.79V178.6c0,2.521.758,3.345,2.387,3.345,1.585,0,2.366-.824,2.366-3.345V168.79H334.7V178.6c0,4-2.3,5.558-5.146,5.558-2.865,0-5.167-1.563-5.167-5.558V168.79Z" transform="translate(-323.024 -143.131)" fill="#5792c9"/>
      <path id="Path_13442" data-name="Path 13442" d="M358.7,180.875a15.461,15.461,0,0,0-.086-1.844h2.518c.022.566.086,1.151.086,1.717h.044a3.259,3.259,0,0,1,2.975-1.89c2.539,0,3.3,1.89,3.3,4.146v7.208h-2.693V183.5c0-1.713-.435-2.433-1.542-2.433-1.41,0-1.909,1.193-1.909,2.629v6.511H358.7Z" transform="translate(-344.332 -149.4)" fill="#5792c9"/>
      <path id="Path_13443" data-name="Path 13443" d="M389.267,166.719h2.779v2.648h-2.779Zm.042,4.754H392v11.18h-2.693Z" transform="translate(-363.421 -141.841)" fill="#5792c9"/>
      <path id="Path_13444" data-name="Path 13444" d="M412.325,165.8v14.375a14.523,14.523,0,0,0,.086,1.907h-2.518a14.793,14.793,0,0,1-.086-1.734h-.066a3.012,3.012,0,0,1-2.975,1.907c-2.779,0-3.929-2.646-3.929-5.753,0-3.645,1.454-5.774,3.865-5.774a3.006,3.006,0,0,1,2.888,1.781h.042V165.8Zm-4.82,14.481c1.585,0,2.127-1.715,2.127-3.82,0-2.171-.608-3.756-2.084-3.756-1.5,0-2.018,1.455-2.018,3.691C405.531,178.976,405.943,180.277,407.506,180.277Z" transform="translate(-371.871 -141.266)" fill="#5792c9"/>
      <path id="Path_13445" data-name="Path 13445" d="M434.1,179.682a7.815,7.815,0,0,1,3.54-.824c3.473,0,4.277,1.694,4.277,4.5v4.883a13.938,13.938,0,0,0,.151,1.975h-2.43a5.52,5.52,0,0,1-.153-1.519h-.044a3.593,3.593,0,0,1-3.126,1.692,3.2,3.2,0,0,1-3.343-3.276c0-3.041,2.475-3.8,5.882-3.8h.544V182.9a1.924,1.924,0,0,0-2.084-2.127,5.159,5.159,0,0,0-3.061,1.084Zm5.3,5.061h-.24c-2.3,0-3.669.478-3.669,2.1a1.618,1.618,0,0,0,1.716,1.715c1.607,0,2.193-1.193,2.193-3.19Z" transform="translate(-390.638 -149.4)" fill="#5792c9"/>
      <path id="Path_13446" data-name="Path 13446" d="M462.264,187.607a7.186,7.186,0,0,0,2.8.739c.977,0,1.735-.239,1.735-1.109,0-.433-.218-.847-1.194-1.413l-1.108-.647c-1.127-.675-2.366-1.389-2.366-3.15,0-1.541,1.5-3.17,3.865-3.17a9.013,9.013,0,0,1,2.8.455l-.151,2.085a6.149,6.149,0,0,0-2.367-.5c-1.086,0-1.541.412-1.541,1.087,0,.608.478.934,1.259,1.432l1.324.845c1.389.893,2.084,1.52,2.084,2.825,0,2.061-1.738,3.3-4.168,3.3a9.01,9.01,0,0,1-3.105-.543Z" transform="translate(-408.793 -149.4)" fill="#5792c9"/>
      <path id="Path_13447" data-name="Path 13447" d="M501.617,180.943a14.2,14.2,0,0,0-.087-1.911h2.519a15.326,15.326,0,0,1,.086,1.738h.065a3.015,3.015,0,0,1,2.974-1.911c2.779,0,3.93,2.649,3.93,5.755,0,3.646-1.456,5.772-3.864,5.772a3,3,0,0,1-2.888-1.78h-.044v6.3h-2.693Zm4.777,7.467c1.5,0,2.019-1.453,2.019-3.689,0-2.583-.412-3.888-1.975-3.888-1.585,0-2.128,1.716-2.128,3.822C504.309,186.826,504.918,188.41,506.394,188.41Z" transform="translate(-433.324 -149.4)" fill="#5792c9"/>
      <path id="Path_13448" data-name="Path 13448" d="M532.108,179.682a7.819,7.819,0,0,1,3.54-.824c3.473,0,4.276,1.694,4.276,4.5v4.883a13.865,13.865,0,0,0,.151,1.975h-2.433a5.6,5.6,0,0,1-.151-1.519h-.044a3.592,3.592,0,0,1-3.125,1.692,3.2,3.2,0,0,1-3.343-3.276c0-3.041,2.475-3.8,5.882-3.8h.544V182.9a1.924,1.924,0,0,0-2.084-2.127,5.162,5.162,0,0,0-3.061,1.084Zm5.3,5.061h-.24c-2.3,0-3.668.478-3.668,2.1a1.618,1.618,0,0,0,1.716,1.715c1.606,0,2.192-1.193,2.192-3.19Z" transform="translate(-451.662 -149.4)" fill="#5792c9"/>
      <path id="Path_13449" data-name="Path 13449" d="M561.376,180.875a15.3,15.3,0,0,0-.087-1.844h2.43c.022.674.087,1.37.087,2.041h.044a3.121,3.121,0,0,1,2.843-2.214,2.792,2.792,0,0,1,.457.066v2.517a2.849,2.849,0,0,0-.761-.108c-1.106,0-2.322.674-2.322,2.756v6.122h-2.691Z" transform="translate(-470.535 -149.4)" fill="#5792c9"/>
      <path id="Path_13450" data-name="Path 13450" d="M580.531,179.682a7.813,7.813,0,0,1,3.539-.824c3.474,0,4.277,1.694,4.277,4.5v4.883a13.823,13.823,0,0,0,.152,1.975h-2.431a5.553,5.553,0,0,1-.152-1.519h-.044a3.594,3.594,0,0,1-3.125,1.692,3.2,3.2,0,0,1-3.343-3.276c0-3.041,2.476-3.8,5.882-3.8h.544V182.9a1.924,1.924,0,0,0-2.083-2.127,5.16,5.16,0,0,0-3.061,1.084Zm5.3,5.061h-.24c-2.3,0-3.669.478-3.669,2.1a1.617,1.617,0,0,0,1.715,1.715c1.607,0,2.193-1.193,2.193-3.19Z" transform="translate(-481.814 -149.4)" fill="#5792c9"/>
      <path id="Path_13451" data-name="Path 13451" d="M625.354,165.8h2.693v16.282h-2.693Z" transform="translate(-510.427 -141.266)" fill="#5792c9"/>
      <path id="Path_13452" data-name="Path 13452" d="M639.194,179.682a7.818,7.818,0,0,1,3.54-.824c3.474,0,4.277,1.694,4.277,4.5v4.883a13.92,13.92,0,0,0,.151,1.975h-2.431a5.523,5.523,0,0,1-.153-1.519h-.044a3.593,3.593,0,0,1-3.125,1.692,3.2,3.2,0,0,1-3.343-3.276c0-3.041,2.475-3.8,5.883-3.8h.544V182.9a1.924,1.924,0,0,0-2.085-2.127,5.158,5.158,0,0,0-3.061,1.084Zm5.3,5.061h-.24c-2.3,0-3.669.478-3.669,2.1a1.617,1.617,0,0,0,1.716,1.715c1.607,0,2.193-1.193,2.193-3.19Z" transform="translate(-518.342 -149.4)" fill="#5792c9"/>
      <path id="Path_13453" data-name="Path 13453" d="M686.368,180.3h-5.211l-1.084,3.643h-2.779l5.08-15.153h3.039l4.886,15.153h-2.866Zm-.586-2.132-1.911-7.076h-.043l-2.084,7.076Z" transform="translate(-542.769 -143.131)" fill="#5792c9"/>
      <path id="Path_13454" data-name="Path 13454" d="M716,165.8h2.693v16.282H716Z" transform="translate(-566.868 -141.266)" fill="#5792c9"/>
      <path id="Path_13455" data-name="Path 13455" d="M730.838,166.719h2.779v2.648h-2.779Zm.043,4.754h2.692v11.18h-2.692Z" transform="translate(-576.109 -141.841)" fill="#5792c9"/>
      <path id="Path_13456" data-name="Path 13456" d="M744.9,180.856a17.318,17.318,0,0,0-.086-1.825H747.5c.022.589.087,1.174.087,1.759h.044a3.109,3.109,0,0,1,2.82-1.933,2.893,2.893,0,0,1,2.823,1.781,3.465,3.465,0,0,1,3-1.781c2.431,0,3.212,1.738,3.212,4.45v6.9H756.8v-7.054c0-1.389-.435-2.086-1.434-2.086-1.194,0-1.824,1.13-1.824,2.367v6.773h-2.692v-7.054c0-1.389-.433-2.086-1.432-2.086-1.193,0-1.823,1.13-1.823,2.367v6.773H744.9Z" transform="translate(-584.811 -149.4)" fill="#5792c9"/>
      <path id="Path_13457" data-name="Path 13457" d="M797.666,189.669a8.3,8.3,0,0,1-3.342.716c-3.6,0-5.168-2.581-5.168-5.6,0-3.345,1.758-5.928,4.6-5.928,2.409,0,4.472,1.409,4.472,5.97v.523h-6.468c0,1.91.759,3.059,2.843,3.059a4.452,4.452,0,0,0,2.93-.866Zm-2.04-6.015c0-1.974-.652-2.973-1.868-2.973-1.41,0-2,1.5-2,2.973Z" transform="translate(-612.422 -149.4)" fill="#5792c9"/>
      <path id="Path_13458" data-name="Path 13458" d="M818.576,180.875a15.383,15.383,0,0,0-.087-1.844h2.516c.023.566.087,1.151.087,1.717h.044a3.257,3.257,0,0,1,2.974-1.89c2.539,0,3.3,1.89,3.3,4.146v7.208h-2.693V183.5c0-1.713-.435-2.433-1.543-2.433-1.41,0-1.909,1.193-1.909,2.629v6.511h-2.691Z" transform="translate(-630.688 -149.4)" fill="#5792c9"/>
      <path id="Path_13459" data-name="Path 13459" d="M848.277,171.856l2.693-.827v3.127h2.235v1.978H850.97v5.8c0,1.2.433,1.542,1.214,1.542a2.127,2.127,0,0,0,1.021-.239v1.908a4.14,4.14,0,0,1-1.8.369c-2,0-3.126-.91-3.126-3.255v-6.121H846.5v-1.978h1.78Z" transform="translate(-648.128 -144.525)" fill="#5792c9"/>
      <path id="Path_13460" data-name="Path 13460" d="M868.386,179.682a7.822,7.822,0,0,1,3.54-.824c3.474,0,4.277,1.694,4.277,4.5v4.883a13.9,13.9,0,0,0,.151,1.975h-2.433a5.6,5.6,0,0,1-.151-1.519h-.045a3.594,3.594,0,0,1-3.125,1.692,3.2,3.2,0,0,1-3.342-3.276c0-3.041,2.474-3.8,5.882-3.8h.543V182.9a1.924,1.924,0,0,0-2.084-2.127,5.161,5.161,0,0,0-3.06,1.084Zm5.3,5.061h-.24c-2.3,0-3.669.478-3.669,2.1a1.618,1.618,0,0,0,1.716,1.715c1.607,0,2.193-1.193,2.193-3.19Z" transform="translate(-661.055 -149.4)" fill="#5792c9"/>
      <path id="Path_13461" data-name="Path 13461" d="M904.662,189.932a7.71,7.71,0,0,1-2.648.452c-3.691,0-5.254-2.581-5.254-5.753,0-3.191,1.65-5.774,5.406-5.774a7.377,7.377,0,0,1,2.346.455l-.153,2.128a4.328,4.328,0,0,0-1.889-.543c-2.041,0-2.931,1.367-2.931,3.757,0,2.086,1,3.691,3.061,3.691a4.326,4.326,0,0,0,1.911-.543Z" transform="translate(-679.425 -149.4)" fill="#5792c9"/>
      <path id="Path_13462" data-name="Path 13462" d="M922.645,166.719h2.779v2.648h-2.779Zm.042,4.754h2.693v11.18h-2.693Z" transform="translate(-695.543 -141.841)" fill="#5792c9"/>
      <path id="Path_13463" data-name="Path 13463" d="M941.145,171.944c2.28,0,4.908,1.193,4.908,5.755,0,4.689-2.628,5.772-4.908,5.772s-4.927-1.084-4.927-5.772C936.218,173.138,938.865,171.944,941.145,171.944Zm0,9.619c1.738,0,2.129-2,2.129-3.865s-.391-3.843-2.129-3.843S939,175.832,939,177.7,939.409,181.564,941.145,181.564Zm.109-13.809h2.519l-2.215,3.127h-1.694Z" transform="translate(-703.995 -142.486)" fill="#5792c9"/>
      <path id="Path_13464" data-name="Path 13464" d="M967.764,180.875a15.391,15.391,0,0,0-.086-1.844H970.2c.022.566.086,1.151.086,1.717h.044a3.258,3.258,0,0,1,2.975-1.89c2.539,0,3.3,1.89,3.3,4.146v7.208h-2.693V183.5c0-1.713-.435-2.433-1.542-2.433-1.41,0-1.91,1.193-1.91,2.629v6.511h-2.693Z" transform="translate(-723.584 -149.4)" fill="#5792c9"/>
      <path id="Path_13465" data-name="Path 13465" d="M325.8,252.777h.045L328,244.331H330.6l-4.082,13.309c-.478,1.543-1.389,2.693-3.191,2.693a5.475,5.475,0,0,1-1.716-.283l.153-2.061a2.882,2.882,0,0,0,1.021.218c.8.019,1.15-.479,1.5-1.629l.2-.955-3.713-11.292h2.779Z" transform="translate(-320.768 -190.168)" fill="#5792c9"/>
      <path id="Path_13466" data-name="Path 13466" d="M365.971,230.81h2.693v16.282h-2.693Z" transform="translate(-348.915 -181.749)" fill="#5792c9"/>
      <path id="Path_13467" data-name="Path 13467" d="M379.812,244.7a7.82,7.82,0,0,1,3.54-.824c3.474,0,4.277,1.694,4.277,4.5v4.883a13.887,13.887,0,0,0,.151,1.975h-2.433a5.6,5.6,0,0,1-.151-1.519h-.044a3.593,3.593,0,0,1-3.125,1.692,3.2,3.2,0,0,1-3.342-3.276c0-3.04,2.474-3.8,5.882-3.8h.544v-.412a1.923,1.923,0,0,0-2.084-2.126,5.161,5.161,0,0,0-3.061,1.084Zm5.3,5.061h-.24c-2.3,0-3.669.477-3.669,2.1a1.62,1.62,0,0,0,1.716,1.715c1.607,0,2.193-1.2,2.193-3.19Z" transform="translate(-356.832 -189.882)" fill="#5792c9"/>
      <path id="Path_13468" data-name="Path 13468" d="M426.98,245.311H421.77l-1.085,3.645h-2.779l5.08-15.153h3.039l4.885,15.153h-2.866Zm-.586-2.13-1.911-7.076h-.043l-2.084,7.076Z" transform="translate(-381.254 -183.613)" fill="#5792c9"/>
      <path id="Path_13469" data-name="Path 13469" d="M455.766,256.963a7.091,7.091,0,0,0,3.3.957c2.539,0,2.953-1.759,2.953-3.519v-1.063h-.042a3.062,3.062,0,0,1-2.954,1.887c-1.562,0-3.907-1.041-3.907-5.557,0-3.083,1.108-5.8,4.038-5.8a3.2,3.2,0,0,1,2.953,1.912h.085c0-.587.068-1.149.089-1.738h2.43c-.043.589-.087,1.174-.087,1.759v8.249c0,3.5-1.064,5.993-5.167,5.993a11.248,11.248,0,0,1-3.842-.7Zm3.887-3.712c1.694,0,2.366-1.216,2.366-3.755,0-2.344-.89-3.606-2.171-3.583-1.412.023-1.953,1.324-1.953,3.6C457.894,252.144,458.74,253.251,459.652,253.251Z" transform="translate(-404.423 -189.882)" fill="#5792c9"/>
      <path id="Path_13470" data-name="Path 13470" d="M486.893,245.89a15.4,15.4,0,0,0-.086-1.844h2.431c.022.674.087,1.37.087,2.041h.044a3.119,3.119,0,0,1,2.842-2.214,2.745,2.745,0,0,1,.457.066v2.518a2.879,2.879,0,0,0-.761-.108c-1.107,0-2.321.674-2.321,2.756v6.122h-2.693Z" transform="translate(-424.157 -189.882)" fill="#5792c9"/>
      <path id="Path_13471" data-name="Path 13471" d="M507.626,231.733h2.779v2.648h-2.779Zm.042,4.754h2.693v11.18h-2.693Z" transform="translate(-437.12 -182.324)" fill="#5792c9"/>
      <path id="Path_13472" data-name="Path 13472" d="M529.1,254.945a7.659,7.659,0,0,1-2.649.454c-3.691,0-5.254-2.583-5.254-5.753,0-3.191,1.649-5.774,5.405-5.774a7.375,7.375,0,0,1,2.346.455l-.153,2.128a4.326,4.326,0,0,0-1.889-.543c-2.04,0-2.93,1.367-2.93,3.757,0,2.085,1,3.692,3.061,3.692a4.328,4.328,0,0,0,1.911-.545Z" transform="translate(-445.571 -189.882)" fill="#5792c9"/>
      <path id="Path_13473" data-name="Path 13473" d="M555.342,253.667a15.445,15.445,0,0,0,.086,1.844h-2.518c-.022-.564-.087-1.151-.087-1.713l-.064-.023.022.023a3.257,3.257,0,0,1-2.974,1.886c-2.541,0-3.3-1.886-3.3-4.145v-7.208H549.2v6.709c0,1.715.477,2.431,1.605,2.431,1.434,0,1.847-1.3,1.847-2.737v-6.4h2.692Z" transform="translate(-461.329 -190.168)" fill="#5792c9"/>
      <path id="Path_13474" data-name="Path 13474" d="M577.044,230.81h2.693v16.282h-2.693Z" transform="translate(-480.345 -181.749)" fill="#5792c9"/>
      <path id="Path_13475" data-name="Path 13475" d="M591.017,236.869l2.693-.825v3.127h2.235v1.979H593.71v5.795c0,1.193.433,1.542,1.214,1.542a2.131,2.131,0,0,0,1.021-.24v1.909a4.14,4.14,0,0,1-1.8.369c-2,0-3.126-.91-3.126-3.254V241.15h-1.78v-1.979h1.78Z" transform="translate(-487.938 -185.008)" fill="#5792c9"/>
      <path id="Path_13476" data-name="Path 13476" d="M620.39,253.667a14.943,14.943,0,0,0,.087,1.844h-2.519c-.022-.564-.086-1.151-.086-1.713l-.065-.023.022.023a3.258,3.258,0,0,1-2.976,1.886c-2.539,0-3.3-1.886-3.3-4.145v-7.208h2.692v6.709c0,1.715.477,2.431,1.6,2.431,1.434,0,1.847-1.3,1.847-2.737v-6.4h2.692Z" transform="translate(-501.834 -190.168)" fill="#5792c9"/>
      <path id="Path_13477" data-name="Path 13477" d="M641.488,245.89a15.48,15.48,0,0,0-.086-1.844h2.431c.022.674.087,1.37.087,2.041h.044a3.121,3.121,0,0,1,2.844-2.214,2.754,2.754,0,0,1,.457.066v2.518a2.867,2.867,0,0,0-.761-.108c-1.106,0-2.322.674-2.322,2.756v6.122h-2.693Z" transform="translate(-520.419 -189.882)" fill="#5792c9"/>
      <path id="Path_13478" data-name="Path 13478" d="M660.649,244.7a7.816,7.816,0,0,1,3.54-.824c3.474,0,4.278,1.694,4.278,4.5v4.883a13.838,13.838,0,0,0,.151,1.975h-2.433a5.6,5.6,0,0,1-.151-1.519h-.044a3.594,3.594,0,0,1-3.126,1.692,3.2,3.2,0,0,1-3.342-3.276c0-3.04,2.474-3.8,5.882-3.8h.544v-.412a1.923,1.923,0,0,0-2.084-2.126,5.163,5.163,0,0,0-3.061,1.084Zm5.3,5.061h-.24c-2.3,0-3.669.477-3.669,2.1a1.619,1.619,0,0,0,1.716,1.715c1.607,0,2.193-1.2,2.193-3.19Z" transform="translate(-531.702 -189.882)" fill="#5792c9"/>
    </g>
  </g>
</svg>
