<svg xmlns="http://www.w3.org/2000/svg" width="267.318" height="50.818" viewBox="0 0 267.318 50.818">
  <g id="FAOfr" transform="translate(-83.02 -83.501)">
    <g id="Group_10340" data-name="Group 10340" transform="translate(83.019 83.501)">
      <path id="Path_13077" data-name="Path 13077" d="M108.429,134.319a25.409,25.409,0,1,1,25.408-25.408A25.439,25.439,0,0,1,108.429,134.319Zm-.1-35.428c.033,0,2.064,2.175,2.064,3.917a2.142,2.142,0,0,1-1.967,2.337c-.024,0-.055,0-.086,0h-.02c-.033,0-.066,0-.087,0a2.144,2.144,0,0,1-1.967-2.337C106.269,101.067,108.3,98.891,108.332,98.891ZM89.2,110.325h2.319v-4.282h3.895v-1.794H91.517V101.87H95.54v-1.788H89.2ZM110.433,99.2h2.444l-2.841-10.243h-3.123L103.968,99.2h2.263l.651-2.289h2.964Zm-1.016-4.024h-2.13l.992-4.454h.164ZM120.151,105.2c0,3.009,1.4,5.3,4.342,5.3s4.365-2.288,4.365-5.3-1.411-5.3-4.365-5.3S120.151,102.193,120.151,105.2Zm2.47,0c0-1.966.481-3.565,1.873-3.565s1.9,1.6,1.9,3.565-.5,3.567-1.9,3.567S122.621,107.169,122.621,105.2Zm-15.276,26.282a34.242,34.242,0,0,0,.271-4.447v-.313c0-2.624-.1-3.51-1.849-4.091-2.7-.895-3.809-3.914-3.216-7.671L93.5,91.954a22.591,22.591,0,0,0,13.841,39.532Zm1.074-14.672c-3.6-.839-4.935-4.119-4.935-7.031L95.561,90.34c-.516.357-1.018.74-1.5,1.137,1.741,4.129,9.561,22.685,9.572,22.712,1.383,3.333,3.9,2.228,4.509,4.98a6.082,6.082,0,0,1,.155.96h.271a5.4,5.4,0,0,1,.155-.96c.608-2.752,3.119-1.647,4.505-4.98.011-.027,7.831-18.583,9.57-22.712-.485-.4-.985-.78-1.5-1.137l-7.919,19.442c0,2.912-1.338,6.192-4.938,7.031Zm0-5.868a4.958,4.958,0,0,1-3.677-3.809,8.738,8.738,0,0,1-.051-2.423L97.744,89q-.837.452-1.637.976c2.077,4.664,8.421,18.913,8.426,18.93,1,2.114,2.766,2.156,3.376,3.416a4.082,4.082,0,0,1,.4,1.47h.231a4.171,4.171,0,0,1,.4-1.47c.612-1.26,2.373-1.3,3.375-3.416.005-.018,6.352-14.266,8.426-18.93-.526-.348-1.077-.675-1.637-.976l-6.935,15.714a8.374,8.374,0,0,1-.059,2.423,4.962,4.962,0,0,1-3.669,3.809Zm.1-2.67.106-.857c.439-1.99,1.883-1.743,2.885-3.7,0-.007.017-.029.017-.029.03-.073,4.942-10.608,6.99-15.008a22.57,22.57,0,0,0-20.162,0c2.049,4.4,6.958,14.935,7,15.008a.192.192,0,0,0,.014.029c1,1.954,2.439,1.707,2.878,3.7l.107.857Zm22.518.635a22.576,22.576,0,0,0-7.672-16.957L114.3,114.963c.6,3.758-.512,6.777-3.215,7.671-1.752.581-1.849,1.467-1.849,4.091v.313a35.855,35.855,0,0,0,.269,4.447A22.629,22.629,0,0,0,131.029,108.911ZM92.97,115.587s.334.709.6,1.214.64,1.111.64,1.111l-.6.348s-.453-.754-.868-1.625c-.113.059-.829.431-.947.489.069.127.8,1.537.8,1.537l-.6.348-.805-1.564c-.13.063-1.672.859-1.672.859l-.369-.732,3.775-1.963Zm2.383,3.868.526.633-3.3,2.759-.534-.633,3.27-2.732Zm3.058,2.893.654.468-.846,4.549-.75-.431s.188-.928.21-1.017c-.036-.031-.473-.291-.9-.59s-.85-.653-.889-.679c-.08.049-.909.538-.909.538l-.64-.547,4.024-2.268ZM96.5,124.28c.077.065.357.291.647.5a7.841,7.841,0,0,0,.674.438c.042-.19.343-1.687.406-1.964C97.987,123.4,96.677,124.176,96.5,124.28Zm4.629-.257a15.128,15.128,0,0,0,1.688.685,16.06,16.06,0,0,0,1.811.541l-.2.655a13.074,13.074,0,0,1-1.41-.363l-1.186,3.387-.777-.27s1.132-3.248,1.181-3.391a12.514,12.514,0,0,1-1.379-.6Zm13.591.866a1.233,1.233,0,0,1,.6.783,1.511,1.511,0,0,1,.077.454c0,.6-.42,1.074-1.18,1.312l-.5.154c.046.135.5,1.593.5,1.593l-.755.2-1.279-4.144,1.144-.356A1.84,1.84,0,0,1,114.724,124.889Zm-1.6.779c.037.128.355,1.14.392,1.263.156-.045.5-.155.5-.155a.869.869,0,0,0,.511-.386.572.572,0,0,0,.064-.264.858.858,0,0,0-.036-.221.557.557,0,0,0-.275-.333,1.044,1.044,0,0,0-.74-.035S113.232,125.636,113.125,125.668Zm4.164-2.586,3.731,2.734-.663.467-.823-.626c-.045.025-.429.3-.843.543-.392.237-.815.445-.857.47.018.1.163,1.012.163,1.012l-.712.34-.627-4.573Zm.427,2.9c.112-.054.4-.213.688-.385.257-.157.462-.285.566-.367-.151-.114-1.317-1-1.558-1.188C117.462,124.342,117.686,125.789,117.716,125.979Zm3.835-6.662,3.253,2.9-.586.686s-3.05-.889-3.513-1.014c.344.328,2.237,2.324,2.237,2.324l-.571.516-3.066-3.114.72-.645s2.943.879,3.405,1c-.343-.327-2.374-2.073-2.374-2.073Zm1.487-2.166,3.768,2.185-.383.662-3.789-2.192Zm1.632-3.616.646.336-.064.075a1.854,1.854,0,0,0-.4.674.763.763,0,0,0-.011.572.415.415,0,0,0,.258.211c.288.1.535-.153.819-.442a1.547,1.547,0,0,1,1.687-.635c.81.274,1.084.994.75,1.975a3.015,3.015,0,0,1-.458.791l-.04.052-.668-.312.068-.078a2.523,2.523,0,0,0,.462-.745.679.679,0,0,0-.341-.913c-.359-.123-.629.154-.943.477-.382.4-.819.854-1.541.608a1.156,1.156,0,0,1-.688-.577,1.53,1.53,0,0,1-.017-1.185,2.773,2.773,0,0,1,.446-.834Z" transform="translate(-83.019 -83.501)" fill="#555"/>
    </g>
    <g id="Group_10341" data-name="Group 10341" transform="translate(143.525 99.944)">
      <path id="Path_13078" data-name="Path 13078" d="M328.7,151.591c2.079,0,3.985,1.547,3.985,5.146s-1.906,5.146-3.985,5.146-3.984-1.549-3.984-5.146S326.622,151.591,328.7,151.591Zm0,8.887c1.161,0,2.093-.989,2.093-3.741S329.861,153,328.7,153s-2.093.988-2.093,3.741S327.54,160.478,328.7,160.478Z" transform="translate(-324.716 -150.989)" fill="#555"/>
      <path id="Path_13079" data-name="Path 13079" d="M362.428,163.517a10.025,10.025,0,0,0-.058-1.218h1.606c.014.445.056.9.056,1.347h.03a2.059,2.059,0,0,1,1.877-1.461,1.936,1.936,0,0,1,.3.042v1.664a1.8,1.8,0,0,0-.5-.073c-.73,0-1.534.444-1.534,1.821v4.041h-1.776Z" transform="translate(-352.944 -158.93)" fill="#555"/>
      <path id="Path_13080" data-name="Path 13080" d="M381.571,170.827a4.683,4.683,0,0,0,2.179.631c1.677,0,1.949-1.162,1.949-2.323v-.7h-.028a2.018,2.018,0,0,1-1.95,1.246c-1.032,0-2.579-.687-2.579-3.668,0-2.036.732-3.827,2.666-3.827a2.108,2.108,0,0,1,1.949,1.26h.058c0-.387.043-.759.058-1.146h1.6c-.028.387-.057.775-.057,1.161v5.447c0,2.306-.7,3.955-3.412,3.955a7.426,7.426,0,0,1-2.536-.459Zm2.566-2.451c1.118,0,1.563-.8,1.563-2.48,0-1.548-.587-2.379-1.433-2.364-.933.014-1.29.875-1.29,2.38C382.976,167.645,383.534,168.376,384.137,168.376Z" transform="translate(-367.016 -158.93)" fill="#555"/>
      <path id="Path_13081" data-name="Path 13081" d="M411.874,162.728a5.163,5.163,0,0,1,2.338-.544c2.294,0,2.823,1.118,2.823,2.967v3.225a9.074,9.074,0,0,0,.1,1.3H415.53a3.673,3.673,0,0,1-.1-1H415.4a2.376,2.376,0,0,1-2.063,1.118,2.117,2.117,0,0,1-2.208-2.164c0-2.006,1.633-2.508,3.884-2.508h.359v-.273A1.271,1.271,0,0,0,414,163.444a3.408,3.408,0,0,0-2.02.716Zm3.5,3.34h-.158c-1.52,0-2.423.315-2.423,1.392a1.069,1.069,0,0,0,1.133,1.131c1.061,0,1.448-.788,1.448-2.107Z" transform="translate(-389.497 -158.93)" fill="#555"/>
      <path id="Path_13082" data-name="Path 13082" d="M441.119,163.517a10.025,10.025,0,0,0-.058-1.218h1.662c.016.373.059.76.059,1.132h.028a2.156,2.156,0,0,1,1.963-1.246c1.677,0,2.18,1.246,2.18,2.738v4.757h-1.779v-4.428c0-1.132-.287-1.606-1.017-1.606-.931,0-1.261.789-1.261,1.734v4.3h-1.776Z" transform="translate(-411.936 -158.93)" fill="#555"/>
      <path id="Path_13083" data-name="Path 13083" d="M471.571,150.1H473.4v1.749h-1.834Zm.029,3.139h1.776v7.381H471.6Z" transform="translate(-434.808 -149.873)" fill="#555"/>
      <path id="Path_13084" data-name="Path 13084" d="M484.816,167.96a4.76,4.76,0,0,0,1.849.486c.645,0,1.146-.157,1.146-.73,0-.286-.142-.558-.788-.932l-.732-.429c-.745-.445-1.562-.917-1.562-2.079a2.351,2.351,0,0,1,2.551-2.093,5.857,5.857,0,0,1,1.849.3l-.1,1.376a4.068,4.068,0,0,0-1.562-.33c-.717,0-1.018.273-1.018.717,0,.4.315.616.831.946l.876.559c.917.589,1.375,1,1.375,1.863,0,1.361-1.147,2.179-2.752,2.179a6,6,0,0,1-2.05-.358Z" transform="translate(-444.673 -158.93)" fill="#555"/>
      <path id="Path_13085" data-name="Path 13085" d="M508.367,162.728a5.161,5.161,0,0,1,2.338-.544c2.294,0,2.824,1.118,2.824,2.967v3.225a8.993,8.993,0,0,0,.1,1.3h-1.6a3.63,3.63,0,0,1-.1-1h-.029a2.373,2.373,0,0,1-2.063,1.118,2.117,2.117,0,0,1-2.208-2.164c0-2.006,1.634-2.508,3.884-2.508h.359v-.273a1.271,1.271,0,0,0-1.377-1.405,3.409,3.409,0,0,0-2.021.716Zm3.5,3.34h-.159c-1.518,0-2.423.315-2.423,1.392a1.068,1.068,0,0,0,1.133,1.131c1.061,0,1.448-.788,1.448-2.107Z" transform="translate(-461.834 -158.93)" fill="#555"/>
      <path id="Path_13086" data-name="Path 13086" d="M536.9,154.942l1.779-.545v2.064h1.475v1.3H538.68v3.827c0,.788.285,1.016.8,1.016a1.408,1.408,0,0,0,.674-.157v1.262a2.755,2.755,0,0,1-1.191.244c-1.318,0-2.063-.6-2.063-2.15v-4.042h-1.174v-1.3H536.9Z" transform="translate(-482.904 -153.092)" fill="#555"/>
      <path id="Path_13087" data-name="Path 13087" d="M558.5,150.1h1.835v1.749H558.5Zm.028,3.139h1.778v7.381h-1.778Z" transform="translate(-499.977 -149.873)" fill="#555"/>
      <path id="Path_13088" data-name="Path 13088" d="M575.262,162.184c1.5,0,3.239.789,3.239,3.8,0,3.1-1.735,3.813-3.239,3.813s-3.253-.718-3.253-3.813C572.009,162.973,573.757,162.184,575.262,162.184Zm0,6.349c1.148,0,1.405-1.319,1.405-2.551s-.258-2.537-1.405-2.537-1.418,1.3-1.418,2.537S574.116,168.533,575.262,168.533Z" transform="translate(-510.102 -158.93)" fill="#555"/>
      <path id="Path_13089" data-name="Path 13089" d="M603.37,163.517a9.9,9.9,0,0,0-.059-1.218h1.662c.016.373.059.76.059,1.132h.028a2.155,2.155,0,0,1,1.964-1.246c1.676,0,2.179,1.246,2.179,2.738v4.757h-1.779v-4.428c0-1.132-.287-1.606-1.018-1.606-.931,0-1.26.789-1.26,1.734v4.3H603.37Z" transform="translate(-533.568 -158.93)" fill="#555"/>
      <path id="Path_13090" data-name="Path 13090" d="M653.588,149.185v9.489a9.506,9.506,0,0,0,.057,1.26h-1.661a9.582,9.582,0,0,1-.058-1.146h-.043a1.988,1.988,0,0,1-1.964,1.262c-1.835,0-2.594-1.75-2.594-3.8,0-2.406.96-3.812,2.551-3.812a1.987,1.987,0,0,1,1.907,1.175h.027v-4.429Zm-3.182,9.56c1.047,0,1.4-1.131,1.4-2.522,0-1.433-.4-2.479-1.376-2.479s-1.332.959-1.332,2.437C649.1,157.886,649.375,158.745,650.406,158.745Z" transform="translate(-566.564 -149.185)" fill="#555"/>
      <path id="Path_13091" data-name="Path 13091" d="M683.679,169.322a5.522,5.522,0,0,1-2.208.473c-2.379,0-3.41-1.706-3.41-3.7,0-2.206,1.16-3.912,3.037-3.912,1.592,0,2.953.931,2.953,3.943v.343h-4.27c0,1.26.5,2.02,1.877,2.02a2.943,2.943,0,0,0,1.935-.573Zm-1.347-3.971c0-1.3-.432-1.963-1.235-1.963-.929,0-1.316.988-1.316,1.963Z" transform="translate(-589.605 -158.93)" fill="#555"/>
      <path id="Path_13092" data-name="Path 13092" d="M706.418,167.96a4.736,4.736,0,0,0,1.849.486c.645,0,1.146-.157,1.146-.73,0-.286-.144-.558-.789-.932l-.731-.429c-.745-.445-1.562-.917-1.562-2.079a2.35,2.35,0,0,1,2.551-2.093,5.882,5.882,0,0,1,1.849.3l-.1,1.376a4.078,4.078,0,0,0-1.563-.33c-.717,0-1.017.273-1.017.717,0,.4.315.616.831.946l.874.559c.918.589,1.377,1,1.377,1.863,0,1.361-1.148,2.179-2.752,2.179a6,6,0,0,1-2.05-.358Z" transform="translate(-610.799 -158.93)" fill="#555"/>
      <path id="Path_13093" data-name="Path 13093" d="M746.624,152.164H748.8l3.325,7.855h.029v-7.855h1.662v10h-2.192l-3.312-7.8h-.028v7.8h-1.662Z" transform="translate(-641.005 -151.418)" fill="#555"/>
      <path id="Path_13094" data-name="Path 13094" d="M781.937,162.728a5.155,5.155,0,0,1,2.336-.544c2.294,0,2.824,1.118,2.824,2.967v3.225a9.1,9.1,0,0,0,.1,1.3h-1.606a3.675,3.675,0,0,1-.1-1h-.03a2.372,2.372,0,0,1-2.064,1.118,2.116,2.116,0,0,1-2.206-2.164c0-2.006,1.634-2.508,3.883-2.508h.358v-.273a1.269,1.269,0,0,0-1.374-1.405,3.414,3.414,0,0,0-2.022.716Zm3.5,3.34h-.157c-1.52,0-2.422.315-2.422,1.392a1.068,1.068,0,0,0,1.132,1.131c1.061,0,1.447-.788,1.447-2.107Z" transform="translate(-666.919 -158.93)" fill="#555"/>
      <path id="Path_13095" data-name="Path 13095" d="M810.464,154.942l1.776-.545v2.064h1.477v1.3h-1.477v3.827c0,.788.287,1.016.8,1.016a1.405,1.405,0,0,0,.674-.157v1.262a2.747,2.747,0,0,1-1.189.244c-1.319,0-2.064-.6-2.064-2.15v-4.042h-1.176v-1.3h1.176Z" transform="translate(-687.982 -153.092)" fill="#555"/>
      <path id="Path_13096" data-name="Path 13096" d="M832.067,150.1H833.9v1.749h-1.835Zm.028,3.139h1.778v7.381H832.1Z" transform="translate(-705.058 -149.873)" fill="#555"/>
      <path id="Path_13097" data-name="Path 13097" d="M848.826,162.184c1.506,0,3.24.789,3.24,3.8,0,3.1-1.734,3.813-3.24,3.813s-3.253-.718-3.253-3.813C845.573,162.973,847.321,162.184,848.826,162.184Zm0,6.349c1.147,0,1.405-1.319,1.405-2.551s-.258-2.537-1.405-2.537-1.419,1.3-1.419,2.537S847.68,168.533,848.826,168.533Z" transform="translate(-715.183 -158.93)" fill="#555"/>
      <path id="Path_13098" data-name="Path 13098" d="M876.938,163.517a10.275,10.275,0,0,0-.056-1.218h1.662c.014.373.056.76.056,1.132h.03a2.151,2.151,0,0,1,1.963-1.246c1.676,0,2.179,1.246,2.179,2.738v4.757H881v-4.428c0-1.132-.288-1.606-1.018-1.606-.932,0-1.26.789-1.26,1.734v4.3h-1.779Z" transform="translate(-738.654 -158.93)" fill="#555"/>
      <path id="Path_13099" data-name="Path 13099" d="M905.755,167.96a4.738,4.738,0,0,0,1.849.486c.645,0,1.147-.157,1.147-.73,0-.286-.144-.558-.79-.932l-.73-.429c-.745-.445-1.561-.917-1.561-2.079a2.35,2.35,0,0,1,2.551-2.093,5.874,5.874,0,0,1,1.849.3l-.1,1.376a4.072,4.072,0,0,0-1.563-.33c-.717,0-1.017.273-1.017.717,0,.4.315.616.831.946l.874.559c.916.589,1.376,1,1.376,1.863,0,1.361-1.147,2.179-2.752,2.179a5.986,5.986,0,0,1-2.049-.358Z" transform="translate(-760.235 -158.93)" fill="#555"/>
      <path id="Path_13100" data-name="Path 13100" d="M947.505,152.164v6.479c0,1.662.5,2.206,1.577,2.206,1.047,0,1.563-.544,1.563-2.206v-6.479h1.833v6.479c0,2.637-1.519,3.669-3.4,3.669s-3.411-1.033-3.411-3.669v-6.479Z" transform="translate(-790.223 -151.418)" fill="#555"/>
      <path id="Path_13101" data-name="Path 13101" d="M979.783,163.517a10.383,10.383,0,0,0-.057-1.218h1.662c.014.373.057.76.057,1.132h.029a2.154,2.154,0,0,1,1.963-1.246c1.677,0,2.179,1.246,2.179,2.738v4.757h-1.777v-4.428c0-1.132-.287-1.606-1.017-1.606-.932,0-1.261.789-1.261,1.734v4.3h-1.778Z" transform="translate(-815.753 -158.93)" fill="#555"/>
      <path id="Path_13102" data-name="Path 13102" d="M1010.231,150.1h1.834v1.749h-1.834Zm.028,3.139h1.778v7.381h-1.778Z" transform="translate(-838.621 -149.873)" fill="#555"/>
      <path id="Path_13103" data-name="Path 13103" d="M1029.355,169.322a5.516,5.516,0,0,1-2.207.473c-2.379,0-3.41-1.706-3.41-3.7,0-2.206,1.16-3.912,3.037-3.912,1.593,0,2.953.931,2.953,3.943v.343h-4.27c0,1.26.5,2.02,1.878,2.02a2.941,2.941,0,0,0,1.934-.573Zm-1.347-3.971c0-1.3-.431-1.963-1.234-1.963-.93,0-1.317.988-1.317,1.963Z" transform="translate(-848.746 -158.93)" fill="#555"/>
      <path id="Path_13104" data-name="Path 13104" d="M1052.092,167.96a4.748,4.748,0,0,0,1.85.486c.644,0,1.145-.157,1.145-.73,0-.286-.143-.558-.788-.932l-.73-.429c-.745-.445-1.563-.917-1.563-2.079a2.351,2.351,0,0,1,2.55-2.093,5.869,5.869,0,0,1,1.85.3l-.1,1.376a4.083,4.083,0,0,0-1.564-.33c-.717,0-1.017.273-1.017.717,0,.4.315.616.83.946l.876.559c.917.589,1.376,1,1.376,1.863,0,1.361-1.147,2.179-2.752,2.179a6.005,6.005,0,0,1-2.05-.358Z" transform="translate(-869.938 -158.93)" fill="#555"/>
      <path id="Path_13105" data-name="Path 13105" d="M325.229,228.255a9.549,9.549,0,0,0-.056-1.262h1.662a9.829,9.829,0,0,1,.059,1.146h.042a1.988,1.988,0,0,1,1.963-1.26c1.835,0,2.6,1.748,2.6,3.8,0,2.408-.962,3.813-2.551,3.813a1.987,1.987,0,0,1-1.907-1.175h-.028v4.155h-1.779Zm3.154,4.93c.99,0,1.333-.961,1.333-2.436,0-1.707-.272-2.565-1.3-2.565-1.047,0-1.405,1.132-1.405,2.521C327.008,232.138,327.409,233.185,328.383,233.185Z" transform="translate(-325.059 -207.429)" fill="#555"/>
      <path id="Path_13106" data-name="Path 13106" d="M358.472,226.879c1.5,0,3.24.789,3.24,3.8,0,3.1-1.736,3.813-3.24,3.813s-3.254-.717-3.254-3.813C355.218,227.668,356.966,226.879,358.472,226.879Zm0,6.349c1.147,0,1.405-1.319,1.405-2.551s-.259-2.537-1.405-2.537-1.419,1.305-1.419,2.537S357.326,233.228,358.472,233.228Z" transform="translate(-347.582 -207.429)" fill="#555"/>
      <path id="Path_13107" data-name="Path 13107" d="M392.587,233.5a9.73,9.73,0,0,0,.058,1.219h-1.664c-.014-.373-.056-.759-.056-1.132l-.043-.014.015.014a2.152,2.152,0,0,1-1.966,1.247c-1.676,0-2.178-1.247-2.178-2.738v-4.759h1.778v4.428c0,1.134.315,1.606,1.06,1.606.947,0,1.22-.86,1.22-1.807v-4.228h1.776Z" transform="translate(-371.223 -207.771)" fill="#555"/>
      <path id="Path_13108" data-name="Path 13108" d="M416.515,228.212a10.064,10.064,0,0,0-.057-1.219h1.6c.014.445.057.9.057,1.347h.029a2.06,2.06,0,0,1,1.877-1.461,1.935,1.935,0,0,1,.3.042v1.664a1.8,1.8,0,0,0-.5-.072c-.729,0-1.532.444-1.532,1.82v4.042h-1.778Z" transform="translate(-393.492 -207.429)" fill="#555"/>
      <path id="Path_13109" data-name="Path 13109" d="M452.167,213.88h1.777v10.749h-1.777Z" transform="translate(-420.261 -197.684)" fill="#555"/>
      <path id="Path_13110" data-name="Path 13110" d="M468.139,213.88l-1.09,3.555h-1.376l.746-3.555Z" transform="translate(-430.386 -197.684)" fill="#555"/>
      <path id="Path_13111" data-name="Path 13111" d="M480.443,227.423a5.16,5.16,0,0,1,2.338-.544c2.292,0,2.823,1.118,2.823,2.967v3.225a9.283,9.283,0,0,0,.1,1.3h-1.6a3.64,3.64,0,0,1-.1-1h-.029a2.374,2.374,0,0,1-2.064,1.118,2.117,2.117,0,0,1-2.207-2.165c0-2.006,1.635-2.508,3.883-2.508h.359v-.272a1.27,1.27,0,0,0-1.376-1.405,3.406,3.406,0,0,0-2.02.716Zm3.5,3.34h-.158c-1.517,0-2.422.315-2.422,1.39a1.069,1.069,0,0,0,1.133,1.132c1.06,0,1.447-.788,1.447-2.107Z" transform="translate(-440.9 -207.429)" fill="#555"/>
      <path id="Path_13112" data-name="Path 13112" d="M510.544,213.88h1.778v10.749h-1.778Z" transform="translate(-464.024 -197.684)" fill="#555"/>
      <path id="Path_13113" data-name="Path 13113" d="M525.315,214.794h1.834v1.749h-1.834Zm.027,3.139h1.779v7.381h-1.779Z" transform="translate(-475.098 -198.37)" fill="#555"/>
      <path id="Path_13114" data-name="Path 13114" d="M539.275,228.2a11.422,11.422,0,0,0-.057-1.2H541c.014.388.057.775.057,1.162h.029a2.053,2.053,0,0,1,1.862-1.276,1.909,1.909,0,0,1,1.863,1.175,2.29,2.29,0,0,1,1.979-1.175c1.6,0,2.12,1.146,2.12,2.938v4.558H547.13v-4.657c0-.917-.287-1.378-.946-1.378-.789,0-1.2.746-1.2,1.564v4.47H543.2v-4.657c0-.917-.285-1.378-.946-1.378-.787,0-1.2.746-1.2,1.564v4.47h-1.778Z" transform="translate(-485.52 -207.429)" fill="#555"/>
      <path id="Path_13115" data-name="Path 13115" d="M588.966,234.017a5.517,5.517,0,0,1-2.207.472c-2.379,0-3.41-1.705-3.41-3.7,0-2.206,1.16-3.912,3.037-3.912,1.592,0,2.952.931,2.952,3.941v.344h-4.269c0,1.261.5,2.02,1.877,2.02a2.94,2.94,0,0,0,1.934-.573Zm-1.347-3.971c0-1.305-.431-1.963-1.234-1.963-.931,0-1.317.989-1.317,1.963Z" transform="translate(-518.604 -207.429)" fill="#555"/>
      <path id="Path_13116" data-name="Path 13116" d="M612.591,228.212a10.263,10.263,0,0,0-.057-1.219H614.2c.014.373.056.76.056,1.132h.031a2.151,2.151,0,0,1,1.963-1.246c1.676,0,2.179,1.246,2.179,2.738v4.757h-1.778v-4.428c0-1.132-.287-1.606-1.018-1.606-.931,0-1.261.789-1.261,1.735v4.3h-1.777Z" transform="translate(-540.483 -207.429)" fill="#555"/>
      <path id="Path_13117" data-name="Path 13117" d="M641.581,219.637l1.779-.544v2.063h1.475v1.305H643.36v3.826c0,.789.285,1.018.8,1.018a1.41,1.41,0,0,0,.674-.157v1.262a2.755,2.755,0,0,1-1.191.244c-1.319,0-2.063-.6-2.063-2.151v-4.041h-1.174v-1.305h1.174Z" transform="translate(-561.378 -201.592)" fill="#555"/>
      <path id="Path_13118" data-name="Path 13118" d="M661.81,227.423a5.148,5.148,0,0,1,2.337-.544c2.293,0,2.823,1.118,2.823,2.967v3.225a9.117,9.117,0,0,0,.1,1.3h-1.606a3.691,3.691,0,0,1-.1-1h-.028a2.375,2.375,0,0,1-2.063,1.118,2.116,2.116,0,0,1-2.207-2.165c0-2.006,1.633-2.508,3.883-2.508h.36v-.272a1.271,1.271,0,0,0-1.377-1.405,3.406,3.406,0,0,0-2.02.716Zm3.5,3.34h-.159c-1.519,0-2.423.315-2.423,1.39a1.069,1.069,0,0,0,1.133,1.132c1.061,0,1.449-.788,1.449-2.107Z" transform="translate(-576.864 -207.429)" fill="#555"/>
      <path id="Path_13119" data-name="Path 13119" d="M690.339,219.637l1.779-.544v2.063h1.475v1.305h-1.475v3.826c0,.789.285,1.018.8,1.018a1.4,1.4,0,0,0,.675-.157v1.262a2.758,2.758,0,0,1-1.191.244c-1.319,0-2.064-.6-2.064-2.151v-4.041h-1.174v-1.305h1.174Z" transform="translate(-597.93 -201.592)" fill="#555"/>
      <path id="Path_13120" data-name="Path 13120" d="M711.94,214.794h1.835v1.749H711.94Zm.029,3.139h1.777v7.381h-1.777Z" transform="translate(-615.004 -198.37)" fill="#555"/>
      <path id="Path_13121" data-name="Path 13121" d="M728.7,226.879c1.5,0,3.24.789,3.24,3.8,0,3.1-1.736,3.813-3.24,3.813s-3.253-.717-3.253-3.813C725.448,227.668,727.2,226.879,728.7,226.879Zm0,6.349c1.147,0,1.405-1.319,1.405-2.551s-.258-2.537-1.405-2.537-1.418,1.305-1.418,2.537S727.556,233.228,728.7,233.228Z" transform="translate(-625.13 -207.429)" fill="#555"/>
      <path id="Path_13122" data-name="Path 13122" d="M756.813,228.212a10.168,10.168,0,0,0-.058-1.219h1.661c.015.373.059.76.059,1.132h.028a2.157,2.157,0,0,1,1.965-1.246c1.677,0,2.179,1.246,2.179,2.738v4.757h-1.777v-4.428c0-1.132-.287-1.606-1.019-1.606-.93,0-1.26.789-1.26,1.735v4.3h-1.776Z" transform="translate(-648.6 -207.429)" fill="#555"/>
      <path id="Path_13123" data-name="Path 13123" d="M806.384,234.017a5.521,5.521,0,0,1-2.208.472c-2.38,0-3.411-1.705-3.411-3.7,0-2.206,1.159-3.912,3.038-3.912,1.591,0,2.953.931,2.953,3.941v.344h-4.271c0,1.261.5,2.02,1.877,2.02a2.934,2.934,0,0,0,1.935-.573Zm-1.347-3.971c0-1.305-.431-1.963-1.234-1.963-.93,0-1.318.989-1.318,1.963Z" transform="translate(-681.592 -207.429)" fill="#555"/>
      <path id="Path_13124" data-name="Path 13124" d="M829.3,219.637l1.779-.544v2.063h1.476v1.305h-1.476v3.826c0,.789.285,1.018.8,1.018a1.412,1.412,0,0,0,.675-.157v1.262a2.762,2.762,0,0,1-1.191.244c-1.319,0-2.064-.6-2.064-2.151v-4.041h-1.175v-1.305H829.3Z" transform="translate(-702.101 -201.592)" fill="#555"/>
      <path id="Path_13125" data-name="Path 13125" d="M865.894,213.88h1.777v10.749h-1.777Z" transform="translate(-730.417 -197.684)" fill="#555"/>
      <path id="Path_13126" data-name="Path 13126" d="M881.864,213.88l-1.09,3.555H879.4l.745-3.555Z" transform="translate(-740.541 -197.684)" fill="#555"/>
      <path id="Path_13127" data-name="Path 13127" d="M894.168,227.423a5.152,5.152,0,0,1,2.336-.544c2.294,0,2.825,1.118,2.825,2.967v3.225a9.089,9.089,0,0,0,.1,1.3h-1.606a3.691,3.691,0,0,1-.1-1h-.031a2.371,2.371,0,0,1-2.064,1.118,2.116,2.116,0,0,1-2.206-2.165c0-2.006,1.634-2.508,3.883-2.508h.359v-.272a1.27,1.27,0,0,0-1.375-1.405,3.416,3.416,0,0,0-2.022.716Zm3.5,3.34h-.158c-1.52,0-2.421.315-2.421,1.39a1.068,1.068,0,0,0,1.132,1.132c1.061,0,1.448-.788,1.448-2.107Z" transform="translate(-751.055 -207.429)" fill="#555"/>
      <path id="Path_13128" data-name="Path 13128" d="M923.208,235.522a4.694,4.694,0,0,0,2.18.631c1.676,0,1.949-1.163,1.949-2.323v-.7h-.028a2.021,2.021,0,0,1-1.952,1.246c-1.032,0-2.579-.687-2.579-3.669,0-2.034.732-3.826,2.666-3.826a2.107,2.107,0,0,1,1.949,1.26h.058c0-.386.043-.759.059-1.146h1.6c-.028.388-.058.775-.058,1.162V233.6c0,2.307-.7,3.955-3.411,3.955a7.465,7.465,0,0,1-2.536-.458Zm2.567-2.451c1.118,0,1.563-.8,1.563-2.48,0-1.548-.588-2.378-1.433-2.364-.933.014-1.291.875-1.291,2.379C924.613,232.339,925.172,233.071,925.774,233.071Z" transform="translate(-773.061 -207.429)" fill="#555"/>
      <path id="Path_13129" data-name="Path 13129" d="M954.373,228.212a10.039,10.039,0,0,0-.058-1.219h1.606c.014.445.056.9.056,1.347h.03a2.059,2.059,0,0,1,1.877-1.461,1.922,1.922,0,0,1,.3.042v1.664a1.8,1.8,0,0,0-.5-.072c-.731,0-1.534.444-1.534,1.82v4.042h-1.776Z" transform="translate(-796.703 -207.429)" fill="#555"/>
      <path id="Path_13130" data-name="Path 13130" d="M975.034,214.794h1.835v1.749h-1.835Zm.028,3.139h1.778v7.381h-1.778Z" transform="translate(-812.235 -198.37)" fill="#555"/>
      <path id="Path_13131" data-name="Path 13131" d="M993.758,234.189a5.058,5.058,0,0,1-1.748.3c-2.438,0-3.468-1.705-3.468-3.8s1.089-3.812,3.568-3.812a4.865,4.865,0,0,1,1.549.3l-.1,1.4a2.825,2.825,0,0,0-1.246-.359c-1.347,0-1.935.9-1.935,2.479,0,1.377.661,2.437,2.022,2.437a2.867,2.867,0,0,0,1.261-.357Z" transform="translate(-822.362 -207.429)" fill="#555"/>
      <path id="Path_13132" data-name="Path 13132" d="M1019.557,233.5a9.728,9.728,0,0,0,.059,1.219h-1.665c-.014-.373-.056-.759-.056-1.132l-.043-.014.015.014a2.153,2.153,0,0,1-1.965,1.247c-1.676,0-2.178-1.247-2.178-2.738v-4.759h1.777v4.428c0,1.134.315,1.606,1.06,1.606.947,0,1.22-.86,1.22-1.807v-4.228h1.776Z" transform="translate(-841.24 -207.771)" fill="#555"/>
      <path id="Path_13133" data-name="Path 13133" d="M1044.112,213.88h1.777v10.749h-1.777Z" transform="translate(-864.021 -197.684)" fill="#555"/>
      <path id="Path_13134" data-name="Path 13134" d="M1057.424,219.637l1.777-.544v2.063h1.476v1.305H1059.2v3.826c0,.789.287,1.018.8,1.018a1.4,1.4,0,0,0,.673-.157v1.262a2.747,2.747,0,0,1-1.189.244c-1.319,0-2.064-.6-2.064-2.151v-4.041h-1.175v-1.305h1.175Z" transform="translate(-873.119 -201.592)" fill="#555"/>
      <path id="Path_13135" data-name="Path 13135" d="M1084.29,233.5a10.354,10.354,0,0,0,.056,1.219h-1.662c-.015-.373-.058-.759-.058-1.132l-.043-.014.014.014a2.147,2.147,0,0,1-1.963,1.247c-1.677,0-2.178-1.247-2.178-2.738v-4.759h1.776v4.428c0,1.134.315,1.606,1.059,1.606.947,0,1.219-.86,1.219-1.807v-4.228h1.779Z" transform="translate(-889.767 -207.771)" fill="#555"/>
      <path id="Path_13136" data-name="Path 13136" d="M1108.212,228.212a10.353,10.353,0,0,0-.057-1.219h1.6c.015.445.057.9.057,1.347h.029a2.062,2.062,0,0,1,1.878-1.461,1.942,1.942,0,0,1,.3.042v1.664a1.811,1.811,0,0,0-.5-.072c-.732,0-1.534.444-1.534,1.82v4.042h-1.777Z" transform="translate(-912.031 -207.429)" fill="#555"/>
      <path id="Path_13137" data-name="Path 13137" d="M1132.545,234.017a5.526,5.526,0,0,1-2.208.472c-2.378,0-3.41-1.705-3.41-3.7,0-2.206,1.16-3.912,3.037-3.912,1.592,0,2.953.931,2.953,3.941v.344h-4.269c0,1.261.5,2.02,1.876,2.02a2.941,2.941,0,0,0,1.935-.573Zm-1.347-3.971c0-1.305-.432-1.963-1.235-1.963-.93,0-1.317.989-1.317,1.963Z" transform="translate(-926.104 -207.429)" fill="#555"/>
    </g>
  </g>
</svg>
