<svg xmlns="http://www.w3.org/2000/svg" width="368.469" height="76.974" viewBox="0 0 368.469 76.974">
  <g id="FAO_FR" transform="translate(-83.02 -83.001)">
    <g id="Group_10361" data-name="Group 10361" transform="translate(83.019 83.001)">
      <path id="Path_13479" data-name="Path 13479" d="M121.255,159.469a38.234,38.234,0,1,1,38.232-38.232A38.278,38.278,0,0,1,121.255,159.469Zm-.146-53.31c.049,0,3.1,3.274,3.1,5.894a3.223,3.223,0,0,1-2.959,3.516c-.037,0-.083,0-.13-.007h-.03c-.049,0-.1.007-.13.007A3.226,3.226,0,0,1,118,112.053C118,109.433,121.052,106.159,121.109,106.159Zm-28.792,17.2h3.49V116.92h5.861v-2.7H95.806v-3.579h6.054v-2.691H92.316Zm31.954-16.741h3.677L123.673,91.21h-4.7l-4.431,15.413h3.405l.98-3.444h4.461Zm-1.53-6.056h-3.2l1.493-6.7h.246Zm16.153,15.09c0,4.528,2.1,7.97,6.533,7.97s6.568-3.442,6.568-7.97-2.123-7.97-6.568-7.97S138.893,111.128,138.893,115.657Zm3.716,0c0-2.957.724-5.364,2.817-5.364s2.856,2.406,2.856,5.364-.755,5.367-2.856,5.367S142.609,118.615,142.609,115.657ZM119.623,155.2a51.464,51.464,0,0,0,.408-6.691v-.471c0-3.948-.146-5.281-2.782-6.156-4.068-1.347-5.732-5.889-4.84-11.544L98.8,95.72A33.994,33.994,0,0,0,119.623,155.2Zm1.616-22.076c-5.416-1.263-7.425-6.2-7.425-10.58L101.892,93.292c-.776.538-1.531,1.113-2.262,1.711,2.62,6.214,14.387,34.135,14.4,34.176,2.081,5.016,5.871,3.353,6.786,7.494a9.168,9.168,0,0,1,.234,1.444h.408a8.176,8.176,0,0,1,.234-1.444c.915-4.141,4.694-2.478,6.779-7.494.016-.041,11.783-27.962,14.4-34.176-.731-.6-1.483-1.173-2.264-1.711l-11.916,29.256c0,4.382-2.013,9.317-7.431,10.58Zm-.007-8.831c-2.3-.513-5.16-2.794-5.532-5.73a13.117,13.117,0,0,1-.077-3.646L105.176,91.277c-.84.453-1.661.945-2.464,1.468,3.124,7.018,12.671,28.459,12.678,28.485,1.512,3.181,4.163,3.244,5.08,5.141a6.128,6.128,0,0,1,.608,2.212h.348a6.289,6.289,0,0,1,.607-2.212c.921-1.9,3.571-1.96,5.079-5.141.007-.026,9.558-21.467,12.679-28.485-.792-.523-1.621-1.015-2.464-1.468L126.89,114.921a12.618,12.618,0,0,1-.088,3.646c-.373,2.936-3.237,5.218-5.522,5.73Zm.146-4.016.16-1.289c.66-2.995,2.833-2.622,4.341-5.562.007-.01.025-.044.025-.044.046-.111,7.436-15.963,10.518-22.584a33.96,33.96,0,0,0-30.338,0c3.082,6.621,10.469,22.473,10.529,22.584a.428.428,0,0,0,.021.044c1.5,2.94,3.671,2.568,4.331,5.562l.16,1.289Zm33.884.955A33.972,33.972,0,0,0,143.717,95.72l-13.625,34.624c.9,5.655-.771,10.2-4.838,11.544-2.636.875-2.782,2.208-2.782,6.156v.471a53.946,53.946,0,0,0,.406,6.691A34.05,34.05,0,0,0,155.261,121.237ZM97.993,131.281s.5,1.067.91,1.827.963,1.672.963,1.672l-.9.523s-.681-1.135-1.307-2.445c-.17.088-1.247.648-1.424.736.1.192,1.206,2.313,1.206,2.313l-.91.524s-1.117-2.171-1.212-2.354c-.195.1-2.515,1.293-2.515,1.293l-.555-1.1,5.68-2.954Zm3.586,5.82.79.952L97.4,142.2l-.8-.952,4.921-4.112Zm4.6,4.354.984.7-1.273,6.846-1.127-.648s.283-1.4.316-1.53c-.054-.046-.711-.437-1.347-.887s-1.279-.982-1.338-1.022c-.121.074-1.368.809-1.368.809l-.964-.824,6.056-3.412Zm-2.87,2.907c.116.1.538.439.973.752a11.729,11.729,0,0,0,1.015.658c.063-.286.517-2.537.611-2.956C105.541,143.037,103.57,144.207,103.311,144.362Zm6.965-.386a22.718,22.718,0,0,0,2.539,1.031,24.057,24.057,0,0,0,2.726.813l-.295.986a19.565,19.565,0,0,1-2.122-.546l-1.785,5.1-1.169-.406s1.7-4.887,1.778-5.1a18.857,18.857,0,0,1-2.076-.91Zm20.45,1.3a1.853,1.853,0,0,1,.9,1.178,2.259,2.259,0,0,1,.116.683c0,.907-.632,1.616-1.775,1.975l-.749.231c.069.2.749,2.4.749,2.4l-1.137.293L126.9,145.8l1.721-.536A2.765,2.765,0,0,1,130.726,145.279Zm-2.406,1.173c.056.191.534,1.714.59,1.9.235-.068.755-.234.755-.234a1.3,1.3,0,0,0,.769-.581.852.852,0,0,0,.1-.4,1.31,1.31,0,0,0-.054-.332.839.839,0,0,0-.415-.5,1.566,1.566,0,0,0-1.113-.052S128.481,146.4,128.32,146.452Zm6.266-3.892,5.613,4.113-1,.7-1.24-.941c-.067.037-.644.446-1.268.817-.59.357-1.226.669-1.289.708.026.146.246,1.523.246,1.523l-1.071.511-.943-6.881Zm.643,4.359c.169-.081.6-.32,1.036-.58.386-.235.7-.428.852-.552-.227-.172-1.981-1.507-2.345-1.788C134.846,144.456,135.183,146.633,135.229,146.919ZM141,136.894l4.895,4.366-.882,1.033s-4.589-1.338-5.286-1.526c.518.493,3.365,3.5,3.365,3.5l-.859.777-4.614-4.686,1.084-.971s4.429,1.322,5.125,1.5c-.516-.492-3.572-3.119-3.572-3.119Zm2.237-3.26,5.67,3.288-.576,1-5.7-3.3Zm2.456-5.441.973.506-.1.112a2.8,2.8,0,0,0-.607,1.015,1.145,1.145,0,0,0-.016.861.622.622,0,0,0,.388.318c.434.146.806-.23,1.233-.666a2.329,2.329,0,0,1,2.538-.955c1.219.413,1.632,1.5,1.127,2.972a4.549,4.549,0,0,1-.688,1.19l-.06.077-1-.469.1-.118a3.782,3.782,0,0,0,.7-1.12,1.023,1.023,0,0,0-.513-1.373c-.541-.186-.947.232-1.419.718-.574.6-1.233,1.286-2.318.915a1.739,1.739,0,0,1-1.036-.868,2.305,2.305,0,0,1-.025-1.782,4.173,4.173,0,0,1,.671-1.256Z" transform="translate(-83.019 -83.001)" fill="#5792c9"/>
    </g>
    <g id="Group_10362" data-name="Group 10362" transform="translate(173.333 91.045)">
      <path id="Path_13480" data-name="Path 13480" d="M328.53,106.692c3.093,0,5.929,2.3,5.929,7.657s-2.836,7.657-5.929,7.657-5.927-2.3-5.927-7.657S325.439,106.692,328.53,106.692Zm0,13.223c1.729,0,3.116-1.47,3.116-5.566s-1.387-5.567-3.116-5.567-3.112,1.472-3.112,5.567S326.8,119.915,328.53,119.915Z" transform="translate(-322.517 -105.797)" fill="#5792c9"/>
      <path id="Path_13481" data-name="Path 13481" d="M359.864,119.134a15.168,15.168,0,0,0-.086-1.813h2.388c.021.66.085,1.344.085,2.006h.044a3.067,3.067,0,0,1,2.794-2.176,2.7,2.7,0,0,1,.449.065v2.473a2.8,2.8,0,0,0-.748-.105c-1.089,0-2.282.661-2.282,2.708v6.014h-2.645Z" transform="translate(-345.665 -112.309)" fill="#5792c9"/>
      <path id="Path_13482" data-name="Path 13482" d="M378.95,130.012a7,7,0,0,0,3.244.938c2.494,0,2.9-1.728,2.9-3.455v-1.045h-.04a3.006,3.006,0,0,1-2.9,1.855c-1.535,0-3.836-1.024-3.836-5.459,0-3.03,1.087-5.7,3.965-5.7a3.135,3.135,0,0,1,2.9,1.878h.086c0-.576.063-1.131.086-1.707h2.387c-.04.577-.085,1.152-.085,1.729v8.1c0,3.436-1.043,5.887-5.075,5.887a11.1,11.1,0,0,1-3.776-.681Zm3.818-3.648c1.663,0,2.324-1.194,2.324-3.69,0-2.3-.873-3.541-2.132-3.52-1.386.022-1.918,1.3-1.918,3.541C381.042,125.278,381.873,126.364,382.768,126.364Z" transform="translate(-357.206 -112.309)" fill="#5792c9"/>
      <path id="Path_13483" data-name="Path 13483" d="M409.024,117.961a7.685,7.685,0,0,1,3.479-.81c3.411,0,4.2,1.664,4.2,4.414v4.8a13.726,13.726,0,0,0,.148,1.941h-2.388a5.508,5.508,0,0,1-.149-1.493h-.044a3.527,3.527,0,0,1-3.07,1.663,3.149,3.149,0,0,1-3.284-3.219c0-2.985,2.43-3.734,5.778-3.734h.534v-.4a1.888,1.888,0,0,0-2.046-2.09,5.084,5.084,0,0,0-3.009,1.064Zm5.2,4.97h-.235c-2.261,0-3.6.469-3.6,2.068a1.592,1.592,0,0,0,1.686,1.685c1.579,0,2.153-1.173,2.153-3.135Z" transform="translate(-375.639 -112.309)" fill="#5792c9"/>
      <path id="Path_13484" data-name="Path 13484" d="M437.554,119.134a15.169,15.169,0,0,0-.086-1.813h2.473c.023.555.086,1.132.086,1.686h.042a3.2,3.2,0,0,1,2.923-1.856c2.494,0,3.242,1.856,3.242,4.073v7.082h-2.645v-6.59c0-1.686-.427-2.388-1.514-2.388-1.388,0-1.876,1.173-1.876,2.58v6.4h-2.645Z" transform="translate(-394.04 -112.309)" fill="#5792c9"/>
      <path id="Path_13485" data-name="Path 13485" d="M467.587,105.222h2.729v2.6h-2.729Zm.04,4.671h2.645v10.984h-2.645Z" transform="translate(-412.795 -104.881)" fill="#5792c9"/>
      <path id="Path_13486" data-name="Path 13486" d="M480.7,125.745a7.024,7.024,0,0,0,2.75.727c.961,0,1.707-.235,1.707-1.089,0-.425-.214-.831-1.173-1.386l-1.089-.639c-1.106-.662-2.325-1.365-2.325-3.093,0-1.514,1.472-3.114,3.8-3.114a8.762,8.762,0,0,1,2.752.448l-.15,2.048a6.052,6.052,0,0,0-2.325-.492c-1.066,0-1.514.406-1.514,1.068,0,.6.469.917,1.237,1.407l1.3.831c1.363.875,2.046,1.493,2.046,2.775,0,2.025-1.707,3.24-4.094,3.24a8.938,8.938,0,0,1-3.053-.532Z" transform="translate(-420.881 -112.309)" fill="#5792c9"/>
      <path id="Path_13487" data-name="Path 13487" d="M504.286,117.961a7.679,7.679,0,0,1,3.477-.81c3.411,0,4.2,1.664,4.2,4.414v4.8a13.688,13.688,0,0,0,.147,1.941h-2.387a5.436,5.436,0,0,1-.149-1.493h-.044a3.531,3.531,0,0,1-3.072,1.663,3.149,3.149,0,0,1-3.284-3.219c0-2.985,2.432-3.734,5.78-3.734h.534v-.4a1.888,1.888,0,0,0-2.046-2.09,5.073,5.073,0,0,0-3.008,1.064Zm5.2,4.97h-.235c-2.26,0-3.6.469-3.6,2.068a1.59,1.59,0,0,0,1.684,1.685c1.581,0,2.155-1.173,2.155-3.135Z" transform="translate(-434.955 -112.309)" fill="#5792c9"/>
      <path id="Path_13488" data-name="Path 13488" d="M532.666,110.273l2.645-.811v3.071h2.2v1.943h-2.2v5.694c0,1.173.425,1.514,1.194,1.514a2.082,2.082,0,0,0,1-.235v1.877a4.09,4.09,0,0,1-1.772.362c-1.96,0-3.07-.894-3.07-3.2v-6.014h-1.749v-1.943h1.749Z" transform="translate(-452.229 -107.521)" fill="#5792c9"/>
      <path id="Path_13489" data-name="Path 13489" d="M553.408,105.222h2.729v2.6h-2.729Zm.042,4.671h2.645v10.984H553.45Z" transform="translate(-466.234 -104.881)" fill="#5792c9"/>
      <path id="Path_13490" data-name="Path 13490" d="M571.58,117.151c2.239,0,4.821,1.173,4.821,5.652,0,4.607-2.582,5.673-4.821,5.673s-4.842-1.066-4.842-5.673C566.738,118.324,569.341,117.151,571.58,117.151Zm0,9.447c1.707,0,2.092-1.962,2.092-3.8s-.384-3.774-2.092-3.774-2.111,1.939-2.111,3.774S569.875,126.6,571.58,126.6Z" transform="translate(-474.534 -112.309)" fill="#5792c9"/>
      <path id="Path_13491" data-name="Path 13491" d="M597.735,119.134a15.091,15.091,0,0,0-.086-1.813h2.473c.023.555.086,1.132.086,1.686h.042a3.2,3.2,0,0,1,2.922-1.856c2.494,0,3.242,1.856,3.242,4.073v7.082H603.77v-6.59c0-1.686-.427-2.388-1.514-2.388-1.386,0-1.875,1.173-1.875,2.58v6.4h-2.645Z" transform="translate(-493.781 -112.309)" fill="#5792c9"/>
      <path id="Path_13492" data-name="Path 13492" d="M650.419,104.319v14.119a14.33,14.33,0,0,0,.086,1.878h-2.472a14.32,14.32,0,0,1-.086-1.707h-.065a2.953,2.953,0,0,1-2.921,1.877c-2.731,0-3.86-2.6-3.86-5.652,0-3.583,1.428-5.673,3.8-5.673a2.947,2.947,0,0,1,2.834,1.747h.042v-6.589Zm-4.733,14.225c1.558,0,2.088-1.684,2.088-3.755,0-2.132-.6-3.688-2.048-3.688-1.472,0-1.981,1.429-1.981,3.625C643.745,117.266,644.149,118.544,645.686,118.544Z" transform="translate(-520.837 -104.319)" fill="#5792c9"/>
      <path id="Path_13493" data-name="Path 13493" d="M679.8,127.772a8.164,8.164,0,0,1-3.284.7c-3.543,0-5.077-2.537-5.077-5.5,0-3.284,1.728-5.822,4.52-5.822,2.369,0,4.394,1.386,4.394,5.864v.513H674c0,1.878.746,3.007,2.792,3.007a4.377,4.377,0,0,0,2.88-.853Zm-2-5.908c0-1.939-.641-2.921-1.837-2.921-1.384,0-1.96,1.472-1.96,2.921Z" transform="translate(-539.729 -112.309)" fill="#5792c9"/>
      <path id="Path_13494" data-name="Path 13494" d="M699.477,125.745a7.024,7.024,0,0,0,2.75.727c.961,0,1.707-.235,1.707-1.089,0-.425-.215-.831-1.173-1.386l-1.089-.639c-1.107-.662-2.326-1.365-2.326-3.093,0-1.514,1.472-3.114,3.8-3.114a8.759,8.759,0,0,1,2.752.448l-.149,2.048a6.045,6.045,0,0,0-2.325-.492c-1.066,0-1.514.406-1.514,1.068,0,.6.469.917,1.236,1.407l1.3.831c1.363.875,2.048,1.493,2.048,2.775,0,2.025-1.709,3.24-4.1,3.24a8.934,8.934,0,0,1-3.052-.532Z" transform="translate(-557.106 -112.309)" fill="#5792c9"/>
      <path id="Path_13495" data-name="Path 13495" d="M739.13,107.261h3.242l4.947,11.686h.044V107.261h2.473v14.886h-3.262l-4.928-11.6H741.6v11.6H739.13Z" transform="translate(-581.878 -106.151)" fill="#5792c9"/>
      <path id="Path_13496" data-name="Path 13496" d="M774.365,117.961a7.678,7.678,0,0,1,3.477-.81c3.413,0,4.2,1.664,4.2,4.414v4.8a13.682,13.682,0,0,0,.149,1.941H779.8a5.5,5.5,0,0,1-.148-1.493h-.044a3.527,3.527,0,0,1-3.07,1.663,3.149,3.149,0,0,1-3.284-3.219c0-2.985,2.432-3.734,5.78-3.734h.534v-.4a1.888,1.888,0,0,0-2.047-2.09,5.067,5.067,0,0,0-3.007,1.064Zm5.206,4.97h-.235c-2.262,0-3.606.469-3.606,2.068a1.591,1.591,0,0,0,1.686,1.685c1.579,0,2.155-1.173,2.155-3.135Z" transform="translate(-603.129 -112.309)" fill="#5792c9"/>
      <path id="Path_13497" data-name="Path 13497" d="M802.747,110.273l2.645-.811v3.071h2.2v1.943h-2.2v5.694c0,1.173.425,1.514,1.192,1.514a2.069,2.069,0,0,0,1-.235v1.877a4.088,4.088,0,0,1-1.77.362c-1.962,0-3.07-.894-3.07-3.2v-6.014H801v-1.943h1.749Z" transform="translate(-620.402 -107.521)" fill="#5792c9"/>
      <path id="Path_13498" data-name="Path 13498" d="M823.483,105.222h2.731v2.6h-2.731Zm.043,4.671h2.645v10.984h-2.645Z" transform="translate(-634.403 -104.881)" fill="#5792c9"/>
      <path id="Path_13499" data-name="Path 13499" d="M841.661,117.151c2.238,0,4.82,1.173,4.82,5.652,0,4.607-2.582,5.673-4.82,5.673s-4.842-1.066-4.842-5.673C836.819,118.324,839.42,117.151,841.661,117.151Zm0,9.447c1.707,0,2.09-1.962,2.09-3.8s-.383-3.774-2.09-3.774-2.11,1.939-2.11,3.774S839.954,126.6,841.661,126.6Z" transform="translate(-642.707 -112.309)" fill="#5792c9"/>
      <path id="Path_13500" data-name="Path 13500" d="M867.814,119.134a15.22,15.22,0,0,0-.084-1.813H870.2c.021.555.084,1.132.084,1.686h.042a3.2,3.2,0,0,1,2.922-1.856c2.494,0,3.242,1.856,3.242,4.073v7.082h-2.645v-6.59c0-1.686-.427-2.388-1.513-2.388-1.386,0-1.876,1.173-1.876,2.58v6.4h-2.645Z" transform="translate(-661.955 -112.309)" fill="#5792c9"/>
      <path id="Path_13501" data-name="Path 13501" d="M896.272,125.745a7.024,7.024,0,0,0,2.75.727c.961,0,1.707-.235,1.707-1.089,0-.425-.215-.831-1.173-1.386l-1.089-.639c-1.106-.662-2.325-1.365-2.325-3.093,0-1.514,1.474-3.114,3.8-3.114a8.753,8.753,0,0,1,2.752.448l-.149,2.048a6.03,6.03,0,0,0-2.325-.492c-1.066,0-1.514.406-1.514,1.068,0,.6.471.917,1.237,1.407l1.3.831c1.363.875,2.048,1.493,2.048,2.775,0,2.025-1.709,3.24-4.1,3.24a8.934,8.934,0,0,1-3.052-.532Z" transform="translate(-679.646 -112.309)" fill="#5792c9"/>
      <path id="Path_13502" data-name="Path 13502" d="M938.369,107.261v9.64c0,2.474.748,3.284,2.347,3.284,1.558,0,2.326-.81,2.326-3.284v-9.64h2.729v9.64c0,3.923-2.26,5.46-5.054,5.46-2.813,0-5.076-1.536-5.076-5.46v-9.64Z" transform="translate(-704.241 -106.151)" fill="#5792c9"/>
      <path id="Path_13503" data-name="Path 13503" d="M969.346,119.134a15.113,15.113,0,0,0-.086-1.813h2.473c.023.555.086,1.132.086,1.686h.042a3.2,3.2,0,0,1,2.922-1.856c2.494,0,3.242,1.856,3.242,4.073v7.082h-2.645v-6.59c0-1.686-.426-2.388-1.514-2.388-1.387,0-1.876,1.173-1.876,2.58v6.4h-2.645Z" transform="translate(-725.175 -112.309)" fill="#5792c9"/>
      <path id="Path_13504" data-name="Path 13504" d="M999.38,105.222h2.729v2.6H999.38Zm.04,4.671h2.645v10.984H999.42Z" transform="translate(-743.93 -104.881)" fill="#5792c9"/>
      <path id="Path_13505" data-name="Path 13505" d="M1021.07,127.772a8.166,8.166,0,0,1-3.284.7c-3.541,0-5.076-2.537-5.076-5.5,0-3.284,1.727-5.822,4.521-5.822,2.368,0,4.394,1.386,4.394,5.864v.513h-6.354c0,1.878.744,3.007,2.792,3.007a4.37,4.37,0,0,0,2.879-.853Zm-2-5.908c0-1.939-.641-2.921-1.836-2.921-1.386,0-1.96,1.472-1.96,2.921Z" transform="translate(-752.23 -112.309)" fill="#5792c9"/>
      <path id="Path_13506" data-name="Path 13506" d="M1040.747,125.745a7.036,7.036,0,0,0,2.752.727c.959,0,1.7-.235,1.7-1.089,0-.425-.213-.831-1.173-1.386l-1.087-.639c-1.11-.662-2.326-1.365-2.326-3.093,0-1.514,1.472-3.114,3.8-3.114a8.746,8.746,0,0,1,2.75.448l-.148,2.048a6.058,6.058,0,0,0-2.325-.492c-1.068,0-1.514.406-1.514,1.068,0,.6.467.917,1.237,1.407l1.3.831c1.366.875,2.048,1.493,2.048,2.775,0,2.025-1.707,3.24-4.094,3.24a8.934,8.934,0,0,1-3.051-.532Z" transform="translate(-769.609 -112.309)" fill="#5792c9"/>
      <path id="Path_13507" data-name="Path 13507" d="M323.138,183.067a14,14,0,0,0-.084-1.876h2.475a15.3,15.3,0,0,1,.084,1.705h.065a2.959,2.959,0,0,1,2.92-1.876c2.731,0,3.862,2.6,3.862,5.652,0,3.583-1.43,5.673-3.8,5.673a2.952,2.952,0,0,1-2.836-1.75h-.044v6.188h-2.645Zm4.693,7.338c1.472,0,1.985-1.43,1.985-3.625,0-2.539-.406-3.818-1.942-3.818-1.556,0-2.09,1.684-2.09,3.753C325.783,188.849,326.38,190.405,327.831,190.405Z" transform="translate(-322.797 -152.08)" fill="#5792c9"/>
      <path id="Path_13508" data-name="Path 13508" d="M357.559,181.021c2.238,0,4.819,1.173,4.819,5.652,0,4.606-2.582,5.673-4.819,5.673s-4.842-1.066-4.842-5.673C352.717,182.194,355.318,181.021,357.559,181.021Zm0,9.447c1.707,0,2.09-1.962,2.09-3.8s-.383-3.776-2.09-3.776-2.111,1.941-2.111,3.776S355.852,190.468,357.559,190.468Z" transform="translate(-341.268 -152.08)" fill="#5792c9"/>
      <path id="Path_13509" data-name="Path 13509" d="M392.532,190.644a14.807,14.807,0,0,0,.086,1.813h-2.474c-.021-.555-.084-1.131-.084-1.685l-.063-.023.021.023a3.2,3.2,0,0,1-2.924,1.855c-2.5,0-3.24-1.855-3.24-4.073v-7.081H386.5v6.589c0,1.686.469,2.389,1.577,2.389,1.409,0,1.813-1.279,1.813-2.687v-6.291h2.645Z" transform="translate(-360.655 -152.361)" fill="#5792c9"/>
      <path id="Path_13510" data-name="Path 13510" d="M413.259,183a15.115,15.115,0,0,0-.084-1.812h2.389c.021.66.084,1.343.084,2.005h.044a3.064,3.064,0,0,1,2.794-2.176,2.664,2.664,0,0,1,.448.065v2.473a2.771,2.771,0,0,0-.747-.107c-1.087,0-2.283.662-2.283,2.708v6.015h-2.645Z" transform="translate(-378.914 -152.08)" fill="#5792c9"/>
      <path id="Path_13511" data-name="Path 13511" d="M448.429,168.189h2.645v16h-2.645Z" transform="translate(-400.866 -144.089)" fill="#5792c9"/>
      <path id="Path_13512" data-name="Path 13512" d="M465.433,168.189l-1.623,5.29h-2.045l1.11-5.29Z" transform="translate(-409.17 -144.089)" fill="#5792c9"/>
      <path id="Path_13513" data-name="Path 13513" d="M476.718,181.831a7.683,7.683,0,0,1,3.479-.81c3.413,0,4.2,1.663,4.2,4.414v4.8a13.622,13.622,0,0,0,.149,1.941h-2.388a5.432,5.432,0,0,1-.151-1.493h-.042a3.53,3.53,0,0,1-3.07,1.663,3.149,3.149,0,0,1-3.284-3.219c0-2.986,2.431-3.734,5.778-3.734h.534v-.4a1.89,1.89,0,0,0-2.048-2.092,5.075,5.075,0,0,0-3.007,1.066Zm5.206,4.97h-.235c-2.259,0-3.6.469-3.6,2.069a1.59,1.59,0,0,0,1.686,1.684c1.577,0,2.153-1.173,2.153-3.135Z" transform="translate(-417.791 -152.08)" fill="#5792c9"/>
      <path id="Path_13514" data-name="Path 13514" d="M506.061,168.189h2.645v16h-2.645Z" transform="translate(-436.752 -144.089)" fill="#5792c9"/>
      <path id="Path_13515" data-name="Path 13515" d="M520.645,169.092h2.729v2.6h-2.729Zm.04,4.672h2.645v10.984h-2.645Z" transform="translate(-445.833 -144.652)" fill="#5792c9"/>
      <path id="Path_13516" data-name="Path 13516" d="M534.455,182.983a17.336,17.336,0,0,0-.085-1.792h2.645c.021.576.085,1.152.085,1.728h.044a3.058,3.058,0,0,1,2.771-1.9,2.841,2.841,0,0,1,2.773,1.747,3.407,3.407,0,0,1,2.943-1.747c2.388,0,3.156,1.706,3.156,4.371v6.783h-2.643v-6.932c0-1.364-.427-2.046-1.409-2.046-1.173,0-1.791,1.107-1.791,2.324v6.655H540.3v-6.932c0-1.364-.425-2.046-1.407-2.046-1.173,0-1.793,1.107-1.793,2.324v6.655h-2.645Z" transform="translate(-454.379 -152.08)" fill="#5792c9"/>
      <path id="Path_13517" data-name="Path 13517" d="M586.3,191.641a8.169,8.169,0,0,1-3.284.7c-3.541,0-5.075-2.538-5.075-5.5,0-3.284,1.726-5.822,4.52-5.822,2.367,0,4.393,1.386,4.393,5.865v.512H580.5c0,1.876.746,3.007,2.794,3.007a4.365,4.365,0,0,0,2.877-.854Zm-2.006-5.908c0-1.939-.639-2.921-1.833-2.921-1.386,0-1.962,1.472-1.962,2.921Z" transform="translate(-481.508 -152.08)" fill="#5792c9"/>
      <path id="Path_13518" data-name="Path 13518" d="M606.835,183a15.075,15.075,0,0,0-.086-1.812h2.473c.023.555.086,1.131.086,1.686h.044a3.2,3.2,0,0,1,2.923-1.856c2.494,0,3.242,1.856,3.242,4.073v7.082h-2.645v-6.59c0-1.686-.429-2.388-1.516-2.388-1.386,0-1.876,1.173-1.876,2.578v6.4h-2.645Z" transform="translate(-499.448 -152.08)" fill="#5792c9"/>
      <path id="Path_13519" data-name="Path 13519" d="M636.016,174.143l2.645-.811V176.4h2.2v1.941h-2.2v5.7c0,1.173.425,1.514,1.193,1.514a2.094,2.094,0,0,0,1-.235V187.2a4.078,4.078,0,0,1-1.77.362c-1.964,0-3.07-.9-3.07-3.2v-6.015h-1.749V176.4h1.749Z" transform="translate(-516.583 -147.292)" fill="#5792c9"/>
      <path id="Path_13520" data-name="Path 13520" d="M655.772,181.831a7.674,7.674,0,0,1,3.477-.81c3.413,0,4.2,1.663,4.2,4.414v4.8a13.655,13.655,0,0,0,.148,1.941h-2.388a5.433,5.433,0,0,1-.151-1.493h-.042a3.529,3.529,0,0,1-3.07,1.663,3.149,3.149,0,0,1-3.284-3.219c0-2.986,2.431-3.734,5.778-3.734h.534v-.4a1.89,1.89,0,0,0-2.048-2.092,5.079,5.079,0,0,0-3.007,1.066Zm5.2,4.97h-.235c-2.261,0-3.6.469-3.6,2.069a1.591,1.591,0,0,0,1.686,1.684c1.577,0,2.153-1.173,2.153-3.135Z" transform="translate(-529.283 -152.08)" fill="#5792c9"/>
      <path id="Path_13521" data-name="Path 13521" d="M684.153,174.143l2.645-.811V176.4h2.2v1.941h-2.2v5.7c0,1.173.425,1.514,1.192,1.514a2.092,2.092,0,0,0,1-.235V187.2a4.08,4.08,0,0,1-1.77.362c-1.964,0-3.07-.9-3.07-3.2v-6.015H682.4V176.4h1.749Z" transform="translate(-546.556 -147.292)" fill="#5792c9"/>
      <path id="Path_13522" data-name="Path 13522" d="M704.9,169.092h2.729v2.6H704.9Zm.04,4.672h2.645v10.984h-2.645Z" transform="translate(-560.562 -144.652)" fill="#5792c9"/>
      <path id="Path_13523" data-name="Path 13523" d="M723.066,181.021c2.241,0,4.821,1.173,4.821,5.652,0,4.606-2.58,5.673-4.821,5.673s-4.84-1.066-4.84-5.673C718.226,182.194,720.827,181.021,723.066,181.021Zm0,9.447c1.707,0,2.092-1.962,2.092-3.8s-.385-3.776-2.092-3.776-2.111,1.941-2.111,3.776S721.361,190.468,723.066,190.468Z" transform="translate(-568.862 -152.08)" fill="#5792c9"/>
      <path id="Path_13524" data-name="Path 13524" d="M749.216,183a15.109,15.109,0,0,0-.084-1.812H751.6c.021.555.084,1.131.084,1.686h.046a3.2,3.2,0,0,1,2.921-1.856c2.5,0,3.244,1.856,3.244,4.073v7.082h-2.645v-6.59c0-1.686-.428-2.388-1.517-2.388-1.384,0-1.876,1.173-1.876,2.578v6.4h-2.645Z" transform="translate(-588.107 -152.08)" fill="#5792c9"/>
      <path id="Path_13525" data-name="Path 13525" d="M330.734,255.509a8.147,8.147,0,0,1-3.284.7c-3.541,0-5.076-2.537-5.076-5.5,0-3.284,1.728-5.824,4.521-5.824,2.367,0,4.394,1.387,4.394,5.866v.513h-6.354c0,1.876.745,3.007,2.793,3.007a4.374,4.374,0,0,0,2.88-.854Zm-2-5.908c0-1.939-.643-2.923-1.837-2.923-1.384,0-1.96,1.472-1.96,2.923Z" transform="translate(-322.374 -191.848)" fill="#5792c9"/>
      <path id="Path_13526" data-name="Path 13526" d="M351.129,238.012l2.645-.81v3.072h2.2v1.94h-2.2v5.7c0,1.173.425,1.514,1.194,1.514a2.077,2.077,0,0,0,1-.235v1.875a4.051,4.051,0,0,1-1.77.363c-1.96,0-3.07-.9-3.07-3.2v-6.016H349.38v-1.94h1.749Z" transform="translate(-339.19 -187.062)" fill="#5792c9"/>
      <path id="Path_13527" data-name="Path 13527" d="M386.672,232.059h2.645v16h-2.645Z" transform="translate(-362.411 -183.86)" fill="#5792c9"/>
      <path id="Path_13528" data-name="Path 13528" d="M403.673,232.059l-1.622,5.29H400l1.11-5.29Z" transform="translate(-370.712 -183.86)" fill="#5792c9"/>
      <path id="Path_13529" data-name="Path 13529" d="M414.961,245.7a7.67,7.67,0,0,1,3.477-.811c3.414,0,4.2,1.665,4.2,4.415v4.8a13.7,13.7,0,0,0,.149,1.94H420.4a5.362,5.362,0,0,1-.151-1.493h-.042a3.529,3.529,0,0,1-3.07,1.663,3.148,3.148,0,0,1-3.284-3.219c0-2.986,2.431-3.734,5.778-3.734h.534v-.406a1.89,1.89,0,0,0-2.048-2.09,5.061,5.061,0,0,0-3.007,1.066Zm5.206,4.97h-.235c-2.259,0-3.6.469-3.6,2.069a1.589,1.589,0,0,0,1.684,1.684c1.579,0,2.155-1.173,2.155-3.135Z" transform="translate(-379.337 -191.848)" fill="#5792c9"/>
      <path id="Path_13530" data-name="Path 13530" d="M443.473,257.75a7,7,0,0,0,3.242.938c2.5,0,2.9-1.728,2.9-3.456v-1.043h-.042a3.005,3.005,0,0,1-2.9,1.855c-1.535,0-3.839-1.024-3.839-5.46,0-3.03,1.089-5.7,3.968-5.7a3.138,3.138,0,0,1,2.9,1.877h.085c0-.574.067-1.129.088-1.705h2.388c-.042.576-.084,1.152-.084,1.728v8.1c0,3.435-1.047,5.887-5.078,5.887a11.08,11.08,0,0,1-3.774-.681Zm3.818-3.648c1.665,0,2.325-1.2,2.325-3.69,0-2.3-.875-3.54-2.132-3.52-1.387.021-1.919,1.3-1.919,3.541C445.565,253.015,446.4,254.1,447.291,254.1Z" transform="translate(-397.382 -191.848)" fill="#5792c9"/>
      <path id="Path_13531" data-name="Path 13531" d="M474.058,246.872a15.207,15.207,0,0,0-.084-1.813h2.387c.021.66.086,1.343.086,2h.043a3.065,3.065,0,0,1,2.792-2.176,2.665,2.665,0,0,1,.449.067v2.473a2.777,2.777,0,0,0-.748-.107c-1.087,0-2.28.662-2.28,2.708v6.015h-2.645Z" transform="translate(-416.772 -191.848)" fill="#5792c9"/>
      <path id="Path_13532" data-name="Path 13532" d="M494.425,232.962h2.729v2.6h-2.729Zm.04,4.672h2.645v10.984h-2.645Z" transform="translate(-429.506 -184.422)" fill="#5792c9"/>
      <path id="Path_13533" data-name="Path 13533" d="M515.519,255.765a7.5,7.5,0,0,1-2.6.447c-3.626,0-5.161-2.537-5.161-5.653,0-3.133,1.619-5.673,5.311-5.673a7.2,7.2,0,0,1,2.3.449l-.151,2.09a4.214,4.214,0,0,0-1.855-.534c-2.005,0-2.88,1.344-2.88,3.69,0,2.048.982,3.627,3.007,3.627a4.257,4.257,0,0,0,1.879-.534Z" transform="translate(-437.807 -191.848)" fill="#5792c9"/>
      <path id="Path_13534" data-name="Path 13534" d="M541.3,254.514a15.138,15.138,0,0,0,.085,1.813h-2.473c-.021-.555-.086-1.131-.086-1.684l-.063-.023.023.023a3.2,3.2,0,0,1-2.922,1.855c-2.5,0-3.242-1.855-3.242-4.072v-7.081h2.645v6.59c0,1.686.467,2.388,1.577,2.388,1.409,0,1.812-1.279,1.812-2.687v-6.291H541.3Z" transform="translate(-453.289 -192.131)" fill="#5792c9"/>
      <path id="Path_13535" data-name="Path 13535" d="M562.619,232.059h2.645v16h-2.645Z" transform="translate(-471.969 -183.86)" fill="#5792c9"/>
      <path id="Path_13536" data-name="Path 13536" d="M576.349,238.012l2.645-.81v3.072h2.2v1.94h-2.2v5.7c0,1.173.425,1.514,1.192,1.514a2.1,2.1,0,0,0,1-.235v1.875a4.062,4.062,0,0,1-1.77.363c-1.962,0-3.07-.9-3.07-3.2v-6.016H574.6v-1.94h1.749Z" transform="translate(-479.429 -187.062)" fill="#5792c9"/>
      <path id="Path_13537" data-name="Path 13537" d="M605.2,254.514a14.813,14.813,0,0,0,.085,1.813h-2.475c-.023-.555-.086-1.131-.086-1.684l-.063-.023.021.023a3.2,3.2,0,0,1-2.922,1.855c-2.494,0-3.24-1.855-3.24-4.072v-7.081h2.645v6.59c0,1.686.469,2.388,1.576,2.388,1.408,0,1.816-1.279,1.816-2.687v-6.291H605.2Z" transform="translate(-493.08 -192.131)" fill="#5792c9"/>
      <path id="Path_13538" data-name="Path 13538" d="M625.933,246.872a15.078,15.078,0,0,0-.086-1.813h2.387c.023.66.086,1.343.086,2h.044a3.066,3.066,0,0,1,2.792-2.176,2.663,2.663,0,0,1,.45.067v2.473a2.771,2.771,0,0,0-.748-.107c-1.085,0-2.279.662-2.279,2.708v6.015h-2.645Z" transform="translate(-511.34 -191.848)" fill="#5792c9"/>
      <path id="Path_13539" data-name="Path 13539" d="M652.736,255.509a8.163,8.163,0,0,1-3.284.7c-3.541,0-5.076-2.537-5.076-5.5,0-3.284,1.728-5.824,4.521-5.824,2.368,0,4.394,1.387,4.394,5.866v.513h-6.354c0,1.876.745,3.007,2.793,3.007a4.368,4.368,0,0,0,2.878-.854Zm-2-5.908c0-1.939-.641-2.923-1.836-2.923-1.386,0-1.96,1.472-1.96,2.923Z" transform="translate(-522.877 -191.848)" fill="#5792c9"/>
    </g>
  </g>
</svg>
