<svg xmlns="http://www.w3.org/2000/svg" width="439.914" height="76.974" viewBox="0 0 439.914 76.974">
  <g id="FAO_RU" transform="translate(-82.988 -82.685)">
    <g id="Group_10363" data-name="Group 10363" transform="translate(82.988 82.685)">
      <path id="Path_13540" data-name="Path 13540" d="M121.475,159.659a38.487,38.487,0,1,1,38.487-38.487A38.531,38.531,0,0,1,121.475,159.659ZM121.33,106c.048,0,3.126,3.3,3.126,5.933a3.245,3.245,0,0,1-2.981,3.538,1.272,1.272,0,0,1-.131-.009h-.029c-.049.005-.1.009-.131.009a3.247,3.247,0,0,1-2.981-3.538C118.2,109.294,121.273,106,121.33,106Zm-28.983,17.32h3.511v-6.49h5.9v-2.712h-5.9v-3.6h6.094V107.8h-9.6Zm32.165-16.854h3.7l-4.3-15.515h-4.732l-4.458,15.515h3.428l.987-3.469h4.489Zm-1.541-6.092h-3.225l1.5-6.748h.245Zm16.261,15.188c0,4.556,2.112,8.02,6.576,8.02s6.608-3.464,6.608-8.02-2.136-8.024-6.608-8.024S139.232,111,139.232,115.559Zm3.739,0c0-2.983.73-5.4,2.837-5.4s2.873,2.416,2.873,5.4-.76,5.4-2.873,5.4S142.971,118.538,142.971,115.559Zm-23.136,39.8a52.2,52.2,0,0,0,.408-6.735v-.474c0-3.974-.147-5.314-2.8-6.191-4.1-1.361-5.77-5.93-4.872-11.625l-13.7-34.846a34.214,34.214,0,0,0,20.967,59.871Zm1.626-22.22c-5.452-1.267-7.476-6.235-7.476-10.652l-12-29.443q-1.174.812-2.279,1.722c2.64,6.249,14.485,34.353,14.5,34.4,2.094,5.046,5.91,3.371,6.831,7.544a9.076,9.076,0,0,1,.237,1.447h.408a8.374,8.374,0,0,1,.235-1.447c.923-4.173,4.727-2.5,6.824-7.544.016-.046,11.861-28.15,14.5-34.4-.735-.605-1.492-1.181-2.28-1.722l-11.993,29.443c0,4.417-2.028,9.384-7.482,10.652Zm-.007-8.886c-2.312-.517-5.194-2.817-5.569-5.769a13.211,13.211,0,0,1-.078-3.674l-10.515-23.8c-.849.458-1.673.951-2.482,1.478,3.145,7.07,12.757,28.651,12.764,28.674,1.52,3.207,4.19,3.269,5.111,5.173a6.232,6.232,0,0,1,.612,2.231h.351a6.362,6.362,0,0,1,.612-2.231c.925-1.9,3.592-1.965,5.109-5.173.009-.023,9.624-21.6,12.764-28.674-.8-.526-1.63-1.02-2.481-1.478l-10.5,23.8a12.624,12.624,0,0,1-.092,3.674c-.375,2.952-3.255,5.252-5.555,5.769Zm.145-4.043.163-1.3c.663-3.01,2.852-2.637,4.368-5.6.009-.012.027-.046.027-.046.044-.106,7.482-16.063,10.586-22.731a34.21,34.21,0,0,0-30.537,0c3.1,6.668,10.538,22.625,10.6,22.731,0,0,.014.033.022.046,1.51,2.96,3.695,2.587,4.36,5.6l.159,1.3Zm34.11.958a34.178,34.178,0,0,0-11.62-25.681l-13.717,34.846c.912,5.7-.774,10.264-4.871,11.625-2.653.877-2.8,2.217-2.8,6.191v.474a53.905,53.905,0,0,0,.408,6.735A34.274,34.274,0,0,0,155.708,121.172ZM98.058,131.281s.507,1.076.919,1.841.967,1.685.967,1.685l-.9.529s-.686-1.144-1.315-2.468c-.173.088-1.255.654-1.436.742.106.192,1.215,2.333,1.215,2.333l-.914.528s-1.124-2.187-1.223-2.374c-.195.1-2.528,1.3-2.528,1.3l-.559-1.109,5.714-2.973Zm3.614,5.859.8.963-5,4.175-.81-.96,4.954-4.137Zm4.632,4.384.99.707-1.283,6.891-1.135-.652s.287-1.405.318-1.536c-.055-.05-.714-.442-1.356-.9s-1.285-.988-1.345-1.027l-1.379.817-.97-.829,6.1-3.435Zm-2.888,2.927c.117.1.539.441.978.753s.891.6,1.023.668c.064-.293.52-2.559.614-2.975C105.658,143.119,103.676,144.294,103.414,144.451Zm7.011-.392a22.916,22.916,0,0,0,2.554,1.039,24.953,24.953,0,0,0,2.744.817l-.295.992a20.265,20.265,0,0,1-2.138-.547c-.074.22-1.795,5.131-1.795,5.131l-1.177-.408s1.713-4.92,1.789-5.134a19.509,19.509,0,0,1-2.093-.918Zm20.583,1.315a1.885,1.885,0,0,1,.907,1.186,2.3,2.3,0,0,1,.117.686c0,.911-.638,1.629-1.789,1.985,0,0-.58.18-.754.237.068.2.754,2.414.754,2.414l-1.142.294-1.938-6.276,1.733-.538A2.759,2.759,0,0,1,131.009,145.375Zm-2.42,1.183c.057.192.534,1.72.59,1.909.241-.069.761-.232.761-.232a1.319,1.319,0,0,0,.778-.59.849.849,0,0,0,.1-.4,1.2,1.2,0,0,0-.058-.336.84.84,0,0,0-.414-.5,1.572,1.572,0,0,0-1.121-.053Zm6.306-3.918,5.652,4.138-1,.7s-1.137-.859-1.248-.948c-.067.043-.651.451-1.28.824-.591.357-1.232.677-1.3.714.027.143.249,1.529.249,1.529l-1.08.517-.949-6.928Zm.648,4.382c.168-.081.607-.317,1.041-.579a9.263,9.263,0,0,0,.858-.558c-.229-.17-1.995-1.515-2.361-1.8C135.159,144.549,135.5,146.738,135.543,147.022Zm5.808-10.087,4.929,4.4-.89,1.04s-4.619-1.352-5.321-1.539c.521.5,3.387,3.517,3.387,3.517l-.864.785-4.644-4.72,1.091-.972s4.46,1.33,5.16,1.51c-.52-.49-3.6-3.136-3.6-3.136Zm2.254-3.281,5.707,3.306-.584,1.007-5.735-3.32Zm2.472-5.475.979.507-.1.115a2.773,2.773,0,0,0-.61,1.02,1.138,1.138,0,0,0-.016.863.6.6,0,0,0,.391.325c.433.149.808-.233,1.24-.675a2.344,2.344,0,0,1,2.556-.958c1.225.417,1.641,1.508,1.135,2.993a4.583,4.583,0,0,1-.693,1.193l-.06.078-1.011-.467.1-.118a3.89,3.89,0,0,0,.7-1.129,1.029,1.029,0,0,0-.52-1.382c-.541-.188-.951.232-1.425.723-.578.609-1.241,1.294-2.335.918a1.756,1.756,0,0,1-1.043-.874,2.335,2.335,0,0,1-.026-1.791,4.29,4.29,0,0,1,.679-1.269Z" transform="translate(-82.988 -82.685)" fill="#5792c9"/>
    </g>
    <g id="Group_10364" data-name="Group 10364" transform="translate(174.685 91.576)">
      <path id="Path_13541" data-name="Path 13541" d="M327.967,106.248h10.095V121.4h-2.8V108.463h-4.494V121.4h-2.8Z" transform="translate(-327.228 -106.248)" fill="#5792c9"/>
      <path id="Path_13542" data-name="Path 13542" d="M363.444,119.628c0-1.02-.021-2.45-.108-3.255h2.539c.065.5.086,1.151.108,1.65h.046a2.94,2.94,0,0,1,2.864-1.931c2.54,0,4.124,2.386,4.124,5.8,0,3.366-1.518,5.926-4.035,5.926a2.883,2.883,0,0,1-2.825-1.736h-.042c.042.586.065,1.8.065,2.625v3.432h-2.735Zm6.773,2.323c0-2.192-.694-3.776-2.04-3.776-1.366,0-2.171,1.715-2.171,3.843,0,2.082.782,3.755,2.171,3.755C369.479,125.773,370.216,124.081,370.216,121.951Z" transform="translate(-349.251 -112.378)" fill="#5792c9"/>
      <path id="Path_13543" data-name="Path 13543" d="M394.62,121.951c0-3.493,1.824-5.859,4.927-5.859,3.083,0,4.843,2.386,4.843,5.859,0,3.5-1.779,5.862-4.885,5.862C396.423,127.813,394.62,125.426,394.62,121.951Zm6.969.022c0-2.3-.7-3.819-2.085-3.819-1.347,0-2.061,1.5-2.061,3.819,0,2.259.672,3.737,2.1,3.737C400.917,125.709,401.589,124.277,401.589,121.972Z" transform="translate(-368.731 -112.378)" fill="#5792c9"/>
      <path id="Path_13544" data-name="Path 13544" d="M424.231,125.868h1.109a12.362,12.362,0,0,0,1.02-5.71v-3.322h8.185v9.032h1.324v4.993H433.46v-2.868h-6.818v2.868h-2.411Zm7.62,0v-6.905h-2.907v1.609a12.655,12.655,0,0,1-.891,5.3Z" transform="translate(-387.169 -112.841)" fill="#5792c9"/>
      <path id="Path_13545" data-name="Path 13545" d="M459.146,121.951c0-3.493,1.825-5.859,4.929-5.859,3.082,0,4.84,2.386,4.84,5.859,0,3.5-1.778,5.862-4.883,5.862C460.95,127.813,459.146,125.426,459.146,121.951Zm6.969.022c0-2.3-.693-3.819-2.082-3.819-1.347,0-2.063,1.5-2.063,3.819,0,2.259.674,3.737,2.105,3.737C465.444,125.709,466.115,124.277,466.115,121.972Z" transform="translate(-408.91 -112.378)" fill="#5792c9"/>
      <path id="Path_13546" data-name="Path 13546" d="M492.1,116.836H497c2.086,0,3.539,1,3.539,2.82a2.49,2.49,0,0,1-2,2.521,2.626,2.626,0,0,1,2.238,2.649c0,2.1-1.52,3.168-3.843,3.168H492.1Zm4.386,4.471a1.281,1.281,0,1,0,0-2.559H494.77v2.559Zm.131,4.8a1.263,1.263,0,0,0,1.411-1.413,1.324,1.324,0,0,0-1.411-1.455H494.77v2.867Z" transform="translate(-429.429 -112.841)" fill="#5792c9"/>
      <path id="Path_13547" data-name="Path 13547" d="M520.908,121.951c0-3.493,1.825-5.859,4.929-5.859,3.083,0,4.842,2.386,4.842,5.859,0,3.5-1.781,5.862-4.885,5.862C522.712,127.813,520.908,125.426,520.908,121.951Zm6.97.022c0-2.3-.693-3.819-2.083-3.819-1.347,0-2.061,1.5-2.061,3.819,0,2.259.672,3.737,2.1,3.737C527.206,125.709,527.878,124.277,527.878,121.972Z" transform="translate(-447.368 -112.378)" fill="#5792c9"/>
      <path id="Path_13548" data-name="Path 13548" d="M550.3,127.951l.15-2.083a1.939,1.939,0,0,0,.652.108c1.367,0,1.67-.978,1.693-9.14h7.988v11.157H558.1v-9.03h-2.779c-.152,7.383-.7,9.183-3.476,9.183A7.839,7.839,0,0,1,550.3,127.951Z" transform="translate(-465.673 -112.841)" fill="#5792c9"/>
      <path id="Path_13549" data-name="Path 13549" d="M586.645,116.836h2.692v4.082H591.4c2.259,0,3.822,1.238,3.822,3.538,0,2.365-1.52,3.537-4.257,3.537h-4.321Zm4.343,9.248a1.535,1.535,0,0,0,1.694-1.628,1.445,1.445,0,0,0-1.607-1.607h-1.8v3.236Z" transform="translate(-488.301 -112.841)" fill="#5792c9"/>
      <path id="Path_13550" data-name="Path 13550" d="M614.541,122.09c0-3.408,2.042-5.774,5.449-5.774a6.636,6.636,0,0,1,1.78.2l-.2,2.105a4.037,4.037,0,0,0-1.28-.173c-1.844,0-2.93,1.542-2.93,3.6,0,2.129,1.086,3.647,3.039,3.647a4.175,4.175,0,0,0,1.259-.173l.173,2.084a7.019,7.019,0,0,1-1.909.237C616.606,127.843,614.541,125.544,614.541,122.09Z" transform="translate(-505.671 -112.517)" fill="#5792c9"/>
      <path id="Path_13551" data-name="Path 13551" d="M640.52,118.963h-2.974v-2.127h8.6v2.127H643.21v9.03H640.52Z" transform="translate(-519.995 -112.841)" fill="#5792c9"/>
      <path id="Path_13552" data-name="Path 13552" d="M666.01,116.836h4.907c2.084,0,3.537,1,3.537,2.82a2.49,2.49,0,0,1-2,2.521,2.627,2.627,0,0,1,2.238,2.649c0,2.1-1.52,3.168-3.843,3.168H666.01Zm4.386,4.471a1.281,1.281,0,1,0,0-2.559h-1.715v2.559Zm.131,4.8a1.262,1.262,0,0,0,1.41-1.413,1.322,1.322,0,0,0-1.41-1.455h-1.846v2.867Z" transform="translate(-537.719 -112.841)" fill="#5792c9"/>
      <path id="Path_13553" data-name="Path 13553" d="M694.772,121.866c0-3.519,1.91-5.774,4.862-5.774,2.974,0,4.43,1.974,4.43,5.621,0,.281-.021.782-.044,1.021h-6.6a2.947,2.947,0,0,0,3.19,2.975,6.15,6.15,0,0,0,2.585-.544l.088,2.148a8.326,8.326,0,0,1-2.889.5C696.728,127.813,694.772,125.532,694.772,121.866Zm6.8-.957c0-1.867-.654-2.993-1.934-2.993-1.193,0-2.1,1.17-2.213,2.993Z" transform="translate(-555.629 -112.378)" fill="#5792c9"/>
      <path id="Path_13554" data-name="Path 13554" d="M726.512,116.836h2.694v4.321h3.516v-4.321h2.692v11.157h-2.692v-4.666h-3.516v4.666h-2.694Z" transform="translate(-575.393 -112.841)" fill="#5792c9"/>
      <path id="Path_13555" data-name="Path 13555" d="M758.662,116.836h2.693v4.321h3.518v-4.321h2.693v11.157h-2.693v-4.666h-3.518v4.666h-2.693Z" transform="translate(-595.412 -112.841)" fill="#5792c9"/>
      <path id="Path_13556" data-name="Path 13556" d="M789.543,124.277c0-2.433,1.867-3.737,5.079-3.737.369,0,.935.02,1.39.065v-.086c0-1.605-.759-2.453-2.3-2.453a5.668,5.668,0,0,0-3.016.89l-.108-2.128a8.607,8.607,0,0,1,3.559-.735c3.214,0,4.342,1.8,4.342,4.557,0,1.086-.042,2.779-.042,3.432,0,1.3.042,2.6.108,3.449h-2.279a8.524,8.524,0,0,1-.043-.867c0-.238,0-.565.021-.869h-.044a3.324,3.324,0,0,1-3.234,1.931A3.2,3.2,0,0,1,789.543,124.277Zm6.492-2.044a8.49,8.49,0,0,0-.889-.043c-2.063,0-3.147.674-3.147,2.019a1.559,1.559,0,0,0,1.626,1.672C795.361,125.882,796.035,124.339,796.035,122.234Z" transform="translate(-614.641 -112.378)" fill="#5792c9"/>
      <path id="Path_13557" data-name="Path 13557" d="M821.727,123.674a3.291,3.291,0,0,1-2.17-3.279c0-2.408,1.432-3.559,4.426-3.559h4.147v11.157h-2.648v-4.015h-1.2l-2.128,4.015H819.1Zm3.8-1.586v-3.277h-1.518c-1.194,0-1.89.478-1.89,1.565a1.681,1.681,0,0,0,1.89,1.713Z" transform="translate(-633.044 -112.841)" fill="#5792c9"/>
      <path id="Path_13558" data-name="Path 13558" d="M865.451,116.836h2.583v4.232c0,1.02-.065,2.562-.087,3.518l3.474-7.751H874.5v11.157h-2.583V123.37c0-1.194.042-2.105.085-2.976l-3.514,7.6h-3.041Z" transform="translate(-661.907 -112.841)" fill="#5792c9"/>
      <path id="Path_13559" data-name="Path 13559" d="M326.008,187.1c0-3.408,2.042-5.774,5.448-5.774a6.69,6.69,0,0,1,1.782.195l-.2,2.108a4.021,4.021,0,0,0-1.281-.174c-1.844,0-2.93,1.54-2.93,3.6,0,2.129,1.086,3.646,3.039,3.646a4.2,4.2,0,0,0,1.26-.173l.173,2.084a6.981,6.981,0,0,1-1.911.239C328.073,192.857,326.008,190.557,326.008,187.1Z" transform="translate(-326.008 -153)" fill="#5792c9"/>
      <path id="Path_13560" data-name="Path 13560" d="M349.758,186.877c0-3.518,1.911-5.775,4.863-5.775,2.974,0,4.431,1.974,4.431,5.621,0,.281-.023.783-.046,1.02h-6.6a2.944,2.944,0,0,0,3.189,2.976,6.152,6.152,0,0,0,2.585-.543l.088,2.146a8.289,8.289,0,0,1-2.889.5C351.713,192.825,349.758,190.544,349.758,186.877Zm6.8-.958c0-1.867-.652-2.994-1.933-2.994-1.194,0-2.1,1.173-2.213,2.994Z" transform="translate(-340.797 -152.858)" fill="#5792c9"/>
      <path id="Path_13561" data-name="Path 13561" d="M377.94,192.962l.152-2.084a1.944,1.944,0,0,0,.652.108c1.366,0,1.671-.977,1.692-9.14h7.989V193h-2.692v-9.031h-2.779c-.15,7.379-.693,9.183-3.472,9.183A8.041,8.041,0,0,1,377.94,192.962Z" transform="translate(-358.345 -153.321)" fill="#5792c9"/>
      <path id="Path_13562" data-name="Path 13562" d="M414.289,181.846h2.691v4.082h2.065c2.256,0,3.819,1.24,3.819,3.537,0,2.366-1.521,3.54-4.254,3.54h-4.321Zm4.342,9.249a1.536,1.536,0,0,0,1.693-1.63,1.443,1.443,0,0,0-1.607-1.605h-1.8V191.1Z" transform="translate(-380.979 -153.321)" fill="#5792c9"/>
      <path id="Path_13563" data-name="Path 13563" d="M442.182,187.1c0-3.408,2.041-5.774,5.45-5.774a6.705,6.705,0,0,1,1.782.195l-.2,2.108a4.021,4.021,0,0,0-1.28-.174c-1.846,0-2.931,1.54-2.931,3.6,0,2.129,1.085,3.646,3.039,3.646a4.22,4.22,0,0,0,1.261-.173l.173,2.084a6.993,6.993,0,0,1-1.911.239C444.244,192.857,442.182,190.557,442.182,187.1Z" transform="translate(-398.347 -153)" fill="#5792c9"/>
      <path id="Path_13564" data-name="Path 13564" d="M468.059,181.846h2.694v4.863l3.362-4.863h2.976l-3.734,5.255,4.082,5.9h-3.127l-3.559-5.233V193h-2.694Z" transform="translate(-414.46 -153.321)" fill="#5792c9"/>
      <path id="Path_13565" data-name="Path 13565" d="M495.148,186.962c0-3.5,1.825-5.86,4.929-5.86,3.083,0,4.841,2.388,4.841,5.86,0,3.5-1.779,5.862-4.883,5.862C496.952,192.825,495.148,190.438,495.148,186.962Zm6.969.021c0-2.3-.693-3.82-2.082-3.82-1.347,0-2.064,1.5-2.064,3.82,0,2.259.674,3.736,2.105,3.736C501.446,190.719,502.117,189.287,502.117,186.984Z" transform="translate(-431.328 -152.858)" fill="#5792c9"/>
      <path id="Path_13566" data-name="Path 13566" d="M527.883,187.121l-3.1-5.275h3.062c1.128,2.365,1.54,3.3,1.779,3.932h.042c.24-.631.631-1.543,1.782-3.932h2.8l-3.019,5.3,3.237,5.86h-3c-1.3-2.691-1.8-3.755-2-4.3h-.043c-.217.564-.675,1.607-2,4.3H524.54Z" transform="translate(-449.629 -153.321)" fill="#5792c9"/>
      <path id="Path_13567" data-name="Path 13567" d="M554.269,186.962c0-3.5,1.824-5.86,4.929-5.86,3.083,0,4.842,2.388,4.842,5.86,0,3.5-1.78,5.862-4.884,5.862C556.072,192.825,554.269,190.438,554.269,186.962Zm6.97.021c0-2.3-.695-3.82-2.084-3.82-1.347,0-2.061,1.5-2.061,3.82,0,2.259.672,3.736,2.1,3.736C560.566,190.719,561.239,189.287,561.239,186.984Z" transform="translate(-468.141 -152.858)" fill="#5792c9"/>
      <path id="Path_13568" data-name="Path 13568" d="M584.639,192.275l.194-2.169a6.611,6.611,0,0,0,2.585.608c1.28,0,2.148-.543,2.148-1.543,0-1.193-.889-1.347-1.953-1.347-.195,0-.651,0-1.02.023v-2c.391.023.826.023.957.023.931,0,2-.3,2-1.412,0-.931-.849-1.216-1.8-1.216a6.224,6.224,0,0,0-2.737.739l-.107-2.148a10.07,10.07,0,0,1,3.453-.671c2.213,0,3.777.8,3.777,3A2.557,2.557,0,0,1,590.3,186.7a2.554,2.554,0,0,1,1.975,2.714c0,2.345-1.8,3.408-4.169,3.408A10.17,10.17,0,0,1,584.639,192.275Z" transform="translate(-487.052 -152.895)" fill="#5792c9"/>
      <path id="Path_13569" data-name="Path 13569" d="M612.511,188.684a3.292,3.292,0,0,1-2.171-3.278c0-2.408,1.432-3.56,4.429-3.56h4.146V193h-2.648v-4.017h-1.193L612.944,193h-3.06Zm3.8-1.584v-3.278h-1.516c-1.2,0-1.89.478-1.89,1.563a1.681,1.681,0,0,0,1.89,1.715Z" transform="translate(-502.771 -153.321)" fill="#5792c9"/>
      <path id="Path_13570" data-name="Path 13570" d="M642.371,174.144h2.585v4.232c0,1.022-.065,2.563-.089,3.518l3.476-7.751h3.083V185.3h-2.585v-4.625c0-1.193.044-2.105.087-2.974l-3.516,7.6h-3.041Zm1.3-4.126,1.13-.541a2.142,2.142,0,0,0,4.125,0l1.13.541a3.238,3.238,0,0,1-6.384,0Z" transform="translate(-523 -145.619)" fill="#5792c9"/>
      <path id="Path_13571" data-name="Path 13571" d="M673.375,187.1c0-3.408,2.042-5.774,5.449-5.774a6.683,6.683,0,0,1,1.782.195l-.2,2.108a4.031,4.031,0,0,0-1.282-.174c-1.844,0-2.93,1.54-2.93,3.6,0,2.129,1.086,3.646,3.037,3.646a4.22,4.22,0,0,0,1.263-.173l.173,2.084a7,7,0,0,1-1.913.239C675.438,192.857,673.375,190.557,673.375,187.1Z" transform="translate(-542.305 -153)" fill="#5792c9"/>
      <path id="Path_13572" data-name="Path 13572" d="M699.349,183.974h-2.974v-2.128h8.6v2.128h-2.931V193h-2.694Z" transform="translate(-556.627 -153.321)" fill="#5792c9"/>
      <path id="Path_13573" data-name="Path 13573" d="M724.848,181.846h4.908c2.084,0,3.538,1,3.538,2.822a2.488,2.488,0,0,1-2,2.519,2.627,2.627,0,0,1,2.238,2.649c0,2.105-1.52,3.17-3.843,3.17h-4.843Zm4.386,4.472a1.282,1.282,0,1,0,0-2.562h-1.715v2.562Zm.13,4.8a1.262,1.262,0,0,0,1.411-1.41,1.325,1.325,0,0,0-1.411-1.457h-1.845v2.868Z" transform="translate(-574.356 -153.321)" fill="#5792c9"/>
      <path id="Path_13574" data-name="Path 13574" d="M753.6,186.877c0-3.518,1.913-5.775,4.863-5.775,2.976,0,4.43,1.974,4.43,5.621,0,.281-.023.783-.044,1.02h-6.6a2.947,2.947,0,0,0,3.191,2.976,6.142,6.142,0,0,0,2.583-.543l.088,2.146a8.269,8.269,0,0,1-2.887.5C755.557,192.825,753.6,190.544,753.6,186.877Zm6.8-.958c0-1.867-.65-2.994-1.932-2.994-1.193,0-2.1,1.173-2.213,2.994Z" transform="translate(-592.261 -152.858)" fill="#5792c9"/>
      <path id="Path_13575" data-name="Path 13575" d="M785.35,181.846h2.691v4.321h3.518v-4.321h2.692V193h-2.692v-4.667h-3.518V193H785.35Z" transform="translate(-612.03 -153.321)" fill="#5792c9"/>
      <path id="Path_13576" data-name="Path 13576" d="M817.5,181.846h2.693v4.321h3.518v-4.321H826.4V193h-2.691v-4.667h-3.518V193H817.5Z" transform="translate(-632.046 -153.321)" fill="#5792c9"/>
      <path id="Path_13577" data-name="Path 13577" d="M848.377,189.287c0-2.433,1.867-3.735,5.081-3.735.368,0,.933.02,1.389.063v-.085c0-1.605-.76-2.454-2.3-2.454a5.657,5.657,0,0,0-3.016.891l-.109-2.128a8.564,8.564,0,0,1,3.56-.737c3.214,0,4.342,1.8,4.342,4.559,0,1.085-.042,2.779-.042,3.429,0,1.3.042,2.6.106,3.451h-2.281c-.019-.173-.042-.543-.042-.867,0-.24,0-.565.023-.87h-.044a3.326,3.326,0,0,1-3.235,1.931A3.2,3.2,0,0,1,848.377,189.287Zm6.492-2.042a8.26,8.26,0,0,0-.891-.044c-2.061,0-3.147.674-3.147,2.021a1.557,1.557,0,0,0,1.626,1.669C854.2,190.89,854.869,189.348,854.869,187.245Z" transform="translate(-651.275 -152.858)" fill="#5792c9"/>
      <path id="Path_13578" data-name="Path 13578" d="M880.566,188.684a3.29,3.29,0,0,1-2.171-3.278c0-2.408,1.432-3.56,4.427-3.56h4.148V193h-2.648v-4.017h-1.195L881,193h-3.06Zm3.8-1.584v-3.278h-1.519c-1.193,0-1.89.478-1.89,1.563a1.681,1.681,0,0,0,1.89,1.715Z" transform="translate(-669.682 -153.321)" fill="#5792c9"/>
      <path id="Path_13579" data-name="Path 13579" d="M922.789,186.962c0-3.5,1.825-5.86,4.927-5.86,3.083,0,4.843,2.388,4.843,5.86,0,3.5-1.779,5.862-4.885,5.862C924.591,192.825,922.789,190.438,922.789,186.962Zm6.969.021c0-2.3-.695-3.82-2.085-3.82-1.347,0-2.063,1.5-2.063,3.82,0,2.259.673,3.736,2.105,3.736C929.087,190.719,929.759,189.287,929.759,186.984Z" transform="translate(-697.61 -152.858)" fill="#5792c9"/>
      <path id="Path_13580" data-name="Path 13580" d="M955.509,184.639c0-1.022-.021-2.452-.109-3.257h2.541c.066.5.086,1.152.108,1.649h.046a2.941,2.941,0,0,1,2.864-1.93c2.539,0,4.124,2.388,4.124,5.8,0,3.366-1.52,5.926-4.038,5.926a2.879,2.879,0,0,1-2.823-1.738h-.042c.042.588.065,1.8.065,2.625v3.433h-2.735Zm6.771,2.323c0-2.193-.693-3.776-2.04-3.776-1.367,0-2.169,1.715-2.169,3.842,0,2.084.781,3.755,2.169,3.755C961.545,190.783,962.281,189.09,962.281,186.962Z" transform="translate(-717.916 -152.858)" fill="#5792c9"/>
      <path id="Path_13581" data-name="Path 13581" d="M988.178,181.846h6.881v2.128h-4.19V193h-2.691Z" transform="translate(-738.326 -153.321)" fill="#5792c9"/>
      <path id="Path_13582" data-name="Path 13582" d="M1009.684,189.287c0-2.433,1.867-3.735,5.081-3.735.368,0,.933.02,1.389.063v-.085c0-1.605-.76-2.454-2.3-2.454a5.666,5.666,0,0,0-3.016.891l-.109-2.128a8.569,8.569,0,0,1,3.56-.737c3.214,0,4.342,1.8,4.342,4.559,0,1.085-.043,2.779-.043,3.429,0,1.3.043,2.6.106,3.451h-2.28c-.02-.173-.043-.543-.043-.867,0-.24,0-.565.023-.87h-.044a3.325,3.325,0,0,1-3.234,1.931A3.2,3.2,0,0,1,1009.684,189.287Zm6.492-2.042a8.263,8.263,0,0,0-.891-.044c-2.061,0-3.147.674-3.147,2.021a1.558,1.558,0,0,0,1.626,1.669C1015.5,190.89,1016.176,189.348,1016.176,187.245Z" transform="translate(-751.717 -152.858)" fill="#5792c9"/>
      <path id="Path_13583" data-name="Path 13583" d="M1041.54,181.846h2.693v4.321h3.518v-4.321h2.691V193h-2.691v-4.667h-3.518V193h-2.693Z" transform="translate(-771.553 -153.321)" fill="#5792c9"/>
      <path id="Path_13584" data-name="Path 13584" d="M1073.685,181.846h2.583v4.232c0,1.022-.066,2.563-.086,3.518l3.474-7.751h3.082V193h-2.581V188.38c0-1.193.043-2.105.085-2.974l-3.515,7.6h-3.041Z" transform="translate(-791.569 -153.321)" fill="#5792c9"/>
      <path id="Path_13585" data-name="Path 13585" d="M1104.225,192.275l.2-2.169a6.6,6.6,0,0,0,2.583.608c1.28,0,2.15-.543,2.15-1.543,0-1.193-.891-1.347-1.955-1.347-.195,0-.649,0-1.02.023v-2c.391.023.826.023.957.023.933,0,2-.3,2-1.412,0-.931-.849-1.216-1.8-1.216a6.207,6.207,0,0,0-2.735.739l-.108-2.148a10.052,10.052,0,0,1,3.451-.671c2.213,0,3.78.8,3.78,3a2.557,2.557,0,0,1-1.825,2.538,2.556,2.556,0,0,1,1.975,2.714c0,2.345-1.8,3.408-4.169,3.408A10.173,10.173,0,0,1,1104.225,192.275Z" transform="translate(-810.586 -152.895)" fill="#5792c9"/>
      <path id="Path_13586" data-name="Path 13586" d="M1130.506,189.287c0-2.433,1.867-3.735,5.081-3.735.369,0,.935.02,1.39.063v-.085c0-1.605-.758-2.454-2.3-2.454a5.677,5.677,0,0,0-3.018.891l-.108-2.128a8.576,8.576,0,0,1,3.56-.737c3.212,0,4.34,1.8,4.34,4.559,0,1.085-.043,2.779-.043,3.429,0,1.3.043,2.6.108,3.451h-2.279c-.021-.173-.042-.543-.042-.867,0-.24,0-.565.021-.87h-.044a3.323,3.323,0,0,1-3.233,1.931A3.2,3.2,0,0,1,1130.506,189.287Zm6.493-2.042a8.315,8.315,0,0,0-.891-.044c-2.061,0-3.147.674-3.147,2.021a1.556,1.556,0,0,0,1.626,1.669C1136.326,190.89,1137,189.348,1137,187.245Z" transform="translate(-826.95 -152.858)" fill="#5792c9"/>
      <path id="Path_13587" data-name="Path 13587" d="M1170.032,193h-7.662V181.846h2.691v9.032h3.387v-9.032h2.692v9.032h1.324v4.995h-2.432Z" transform="translate(-846.791 -153.321)" fill="#5792c9"/>
      <path id="Path_13588" data-name="Path 13588" d="M1194.69,181.846h2.583v4.232c0,1.022-.066,2.563-.086,3.518l3.472-7.751h3.083V193h-2.583V188.38c0-1.193.044-2.105.086-2.974l-3.515,7.6h-3.041Z" transform="translate(-866.916 -153.321)" fill="#5792c9"/>
      <path id="Path_13589" data-name="Path 13589" d="M1227.566,188.684a3.292,3.292,0,0,1-2.171-3.278c0-2.408,1.432-3.56,4.429-3.56h4.146V193h-2.648v-4.017h-1.193L1228,193h-3.06Zm3.8-1.584v-3.278h-1.517c-1.2,0-1.89.478-1.89,1.563a1.68,1.68,0,0,0,1.89,1.715Z" transform="translate(-885.751 -153.321)" fill="#5792c9"/>
      <path id="Path_13590" data-name="Path 13590" d="M326.416,243.468c0-4.8,2.235-7.946,6.207-7.946,3.844,0,6.036,3.125,6.036,7.817,0,4.906-2.192,7.9-6.12,7.9C328.628,251.242,326.416,248.223,326.416,243.468Zm9.334-.023c0-3.625-1.172-5.73-3.212-5.73-2.021,0-3.236,2.148-3.236,5.687,0,3.43,1.2,5.579,3.236,5.579C334.536,248.982,335.75,246.856,335.75,243.446Z" transform="translate(-326.262 -186.744)" fill="#5792c9"/>
      <path id="Path_13591" data-name="Path 13591" d="M365.459,242.951c0-3.257.24-6.1,1.868-7.881,1.954-2.129,5.168-1.258,7.423-2.017L374.6,235.5c-1.713.544-4.275.021-5.686,1.131-1.216.955-1.586,2.429-1.672,4.3a3.543,3.543,0,0,1,3.493-2.627c2.692,0,4.451,2.128,4.451,5.6,0,3.106-1.562,5.752-4.819,5.752C366.588,249.658,365.459,246.708,365.459,242.951Zm6.926,1.043c0-2-.585-3.691-2.061-3.691-1.457,0-2.019,1.584-2.019,3.671,0,2.17.651,3.6,2.019,3.6C371.777,247.576,372.385,246.013,372.385,243.994Z" transform="translate(-350.573 -185.207)" fill="#5792c9"/>
      <path id="Path_13592" data-name="Path 13592" d="M397.283,248.987H394.85v-2.128h5.125v4.081h2.062c2.258,0,3.82,1.239,3.82,3.539,0,2.365-1.519,3.538-4.256,3.538h-4.318Zm4.34,7.121a1.537,1.537,0,0,0,1.693-1.63,1.442,1.442,0,0,0-1.605-1.607h-1.8v3.237Z" transform="translate(-368.874 -193.803)" fill="#5792c9"/>
      <path id="Path_13593" data-name="Path 13593" d="M429.18,251.885c0-3.518,1.912-5.776,4.863-5.776,2.976,0,4.431,1.977,4.431,5.623,0,.283-.023.785-.044,1.021h-6.6a2.943,2.943,0,0,0,3.19,2.974,6.142,6.142,0,0,0,2.583-.543l.088,2.148a8.314,8.314,0,0,1-2.887.5C431.135,257.834,429.18,255.552,429.18,251.885Zm6.8-.957c0-1.867-.651-3-1.933-3-1.193,0-2.1,1.172-2.211,3Z" transform="translate(-390.251 -193.336)" fill="#5792c9"/>
      <path id="Path_13594" data-name="Path 13594" d="M457.6,255.89H458.7a12.357,12.357,0,0,0,1.02-5.709v-3.322h8.186v9.031h1.324v4.994h-2.41v-2.867h-6.817v2.867H457.6Zm7.619,0v-6.9h-2.908v1.606a12.651,12.651,0,0,1-.891,5.3Z" transform="translate(-407.945 -193.803)" fill="#5792c9"/>
      <path id="Path_13595" data-name="Path 13595" d="M494,246.859h2.585v4.232c0,1.022-.065,2.562-.089,3.518l3.476-7.751h3.082v11.158h-2.583v-4.624c0-1.195.044-2.107.086-2.973l-3.516,7.6H494Z" transform="translate(-430.61 -193.803)" fill="#5792c9"/>
      <path id="Path_13596" data-name="Path 13596" d="M526.55,246.859h2.691v4.321h3.518v-4.321h2.693v11.158h-2.693v-4.666h-3.518v4.666H526.55Z" transform="translate(-450.881 -193.803)" fill="#5792c9"/>
      <path id="Path_13597" data-name="Path 13597" d="M557.146,251.885c0-3.518,1.909-5.776,4.861-5.776,2.974,0,4.431,1.977,4.431,5.623,0,.283-.021.785-.044,1.021h-6.6a2.946,2.946,0,0,0,3.193,2.974,6.14,6.14,0,0,0,2.582-.543l.088,2.148a8.322,8.322,0,0,1-2.887.5C559.1,257.834,557.146,255.552,557.146,251.885Zm6.8-.957c0-1.867-.654-3-1.935-3-1.193,0-2.1,1.172-2.213,3Z" transform="translate(-469.932 -193.336)" fill="#5792c9"/>
      <path id="Path_13598" data-name="Path 13598" d="M588.884,246.859h2.694v4.321H595.1v-4.321h2.691v11.158H595.1v-4.666h-3.518v4.666h-2.694Z" transform="translate(-489.695 -193.803)" fill="#5792c9"/>
      <path id="Path_13599" data-name="Path 13599" d="M621.035,246.859h2.692v4.321h3.518v-4.321h2.693v11.158h-2.693v-4.666h-3.518v4.666h-2.692Z" transform="translate(-509.714 -193.803)" fill="#5792c9"/>
      <path id="Path_13600" data-name="Path 13600" d="M653.181,246.859h2.692v4.081h2.063c2.258,0,3.821,1.239,3.821,3.539,0,2.365-1.521,3.538-4.255,3.538h-4.321Zm4.344,9.25a1.537,1.537,0,0,0,1.694-1.63,1.444,1.444,0,0,0-1.607-1.607h-1.8v3.237Zm5.558-9.25h2.691v11.158h-2.691Z" transform="translate(-529.731 -193.803)" fill="#5792c9"/>
      <path id="Path_13601" data-name="Path 13601" d="M695.454,252.134l-3.1-5.275h3.062c1.128,2.366,1.54,3.3,1.78,3.93h.043c.24-.631.629-1.543,1.78-3.93h2.8l-3.019,5.3,3.235,5.861h-2.995c-1.3-2.689-1.8-3.755-2-4.3H697c-.219.566-.675,1.609-2,4.3h-2.889Z" transform="translate(-553.972 -193.803)" fill="#5792c9"/>
      <path id="Path_13602" data-name="Path 13602" d="M738.178,236.272h2.8v6.187h4.6v-6.187h2.8v15.153h-2.8v-6.708h-4.6v6.708h-2.8Z" transform="translate(-582.657 -187.211)" fill="#5792c9"/>
      <path id="Path_13603" data-name="Path 13603" d="M772.915,254.295c0-2.433,1.867-3.734,5.081-3.734.368,0,.934.019,1.39.063v-.086c0-1.606-.76-2.453-2.3-2.453a5.675,5.675,0,0,0-3.018.889l-.108-2.127a8.581,8.581,0,0,1,3.56-.739c3.214,0,4.34,1.8,4.34,4.56,0,1.086-.042,2.779-.042,3.431,0,1.3.042,2.6.108,3.45h-2.281c-.02-.173-.042-.543-.042-.867,0-.239,0-.566.023-.87h-.044a3.328,3.328,0,0,1-3.235,1.932A3.2,3.2,0,0,1,772.915,254.295Zm6.491-2.04a7.768,7.768,0,0,0-.891-.046c-2.061,0-3.147.675-3.147,2.02A1.559,1.559,0,0,0,777,255.9C778.735,255.9,779.406,254.359,779.406,252.255Z" transform="translate(-604.287 -193.336)" fill="#5792c9"/>
      <path id="Path_13604" data-name="Path 13604" d="M812.435,258.017h-7.664V246.859h2.692v9.031h3.387v-9.031h2.691v9.031h1.326v4.994h-2.433Z" transform="translate(-624.123 -193.803)" fill="#5792c9"/>
      <path id="Path_13605" data-name="Path 13605" d="M837.09,246.859h2.583v4.232c0,1.022-.063,2.562-.085,3.518l3.472-7.751h3.083v11.158h-2.585v-4.624c0-1.195.046-2.107.089-2.973l-3.517,7.6h-3.04Z" transform="translate(-644.247 -193.803)" fill="#5792c9"/>
      <path id="Path_13606" data-name="Path 13606" d="M869.645,239.157h2.582v4.232c0,1.022-.064,2.562-.085,3.518l3.472-7.751H878.7v11.158h-2.583v-4.624c0-1.195.044-2.107.086-2.973l-3.516,7.6h-3.04Zm1.3-4.126,1.129-.541a2.142,2.142,0,0,0,4.125,0l1.128.541a3.237,3.237,0,0,1-6.382,0Z" transform="translate(-664.518 -186.101)" fill="#5792c9"/>
    </g>
  </g>
</svg>
