<svg xmlns="http://www.w3.org/2000/svg" width="198.129" height="77" viewBox="0 0 198.129 77">
  <g id="FAO_ZH_Blue_3Lines" transform="translate(-82.986 -82.675)">
    <g id="Group_9" data-name="Group 9" transform="translate(82.986 82.675)">
      <path id="Path_1" data-name="Path 1" d="M121.49,159.675a38.5,38.5,0,1,1,38.5-38.5A38.547,38.547,0,0,1,121.49,159.675Zm-.148-53.681c.049,0,3.126,3.3,3.126,5.935a3.244,3.244,0,0,1-2.978,3.539,1.212,1.212,0,0,1-.131-.009h-.032c-.049.005-.1.009-.131.009a3.247,3.247,0,0,1-2.98-3.539C118.216,109.293,121.286,105.994,121.342,105.994ZM92.352,123.32h3.511v-6.493h5.9v-2.713h-5.9v-3.606h6.1V107.8H92.352Zm32.172-16.859h3.7l-4.3-15.52h-4.736l-4.46,15.52h3.431l.983-3.47h4.492Zm-1.54-6.094h-3.228l1.5-6.75h.248Zm16.265,15.193c0,4.557,2.115,8.022,6.579,8.022s6.614-3.465,6.614-8.022-2.138-8.027-6.614-8.027S139.249,111,139.249,115.56Zm3.742,0c0-2.983.731-5.4,2.837-5.4s2.876,2.418,2.876,5.4-.761,5.4-2.876,5.4S142.991,118.539,142.991,115.56Zm-23.144,39.818a51.961,51.961,0,0,0,.408-6.738v-.474c0-3.976-.145-5.316-2.8-6.194-4.1-1.361-5.774-5.931-4.873-11.629L98.874,95.485a34.225,34.225,0,0,0,20.973,59.893Zm1.627-22.229c-5.454-1.268-7.479-6.237-7.479-10.655l-12-29.452c-.783.541-1.544,1.118-2.279,1.723,2.64,6.252,14.489,34.365,14.5,34.411,2.1,5.048,5.912,3.373,6.835,7.547a9.428,9.428,0,0,1,.235,1.448h.409a8.1,8.1,0,0,1,.237-1.448c.923-4.174,4.725-2.5,6.827-7.547.014-.046,11.863-28.159,14.5-34.411-.734-.605-1.491-1.182-2.278-1.723l-12,29.452c0,4.418-2.027,9.388-7.481,10.655Zm-.007-8.888c-2.315-.517-5.2-2.818-5.57-5.771a13.212,13.212,0,0,1-.08-3.675L105.3,91.006q-1.271.687-2.481,1.479c3.144,7.072,12.76,28.66,12.767,28.683,1.523,3.208,4.191,3.27,5.113,5.174a6.2,6.2,0,0,1,.612,2.232h.351a6.386,6.386,0,0,1,.61-2.232c.927-1.9,3.6-1.966,5.114-5.174.007-.023,9.626-21.611,12.768-28.683-.8-.527-1.632-1.021-2.483-1.479l-10.509,23.809a12.706,12.706,0,0,1-.088,3.675c-.375,2.954-3.257,5.254-5.56,5.771Zm.145-4.044.161-1.3c.665-3.011,2.855-2.638,4.372-5.6l.025-.046c.046-.106,7.488-16.069,10.591-22.739a34.222,34.222,0,0,0-30.547,0c3.1,6.67,10.54,22.633,10.6,22.739a.415.415,0,0,0,.023.046c1.51,2.96,3.7,2.587,4.359,5.6l.163,1.3Zm34.122.958a34.191,34.191,0,0,0-11.624-25.69l-13.72,34.858c.909,5.7-.776,10.268-4.874,11.629-2.653.878-2.8,2.218-2.8,6.194v.474a54.169,54.169,0,0,0,.41,6.738A34.287,34.287,0,0,0,155.733,121.175ZM98.064,131.287s.506,1.077.918,1.842.967,1.686.967,1.686l-.9.528s-.686-1.144-1.316-2.469c-.171.088-1.255.654-1.436.742.1.191,1.215,2.333,1.215,2.333l-.916.529s-1.123-2.188-1.22-2.375l-2.53,1.3-.559-1.109L98,131.321Zm3.613,5.861.794.964-5,4.177-.808-.96,4.955-4.139Zm4.634,4.386.989.708-1.28,6.893-1.135-.652s.283-1.406.318-1.537c-.057-.05-.718-.442-1.358-.9s-1.286-.989-1.345-1.027l-1.378.817-.973-.83,6.1-3.436Zm-2.89,2.929c.115.1.539.44.978.753s.891.605,1.022.669c.064-.294.523-2.561.616-2.976C105.665,143.129,103.683,144.3,103.421,144.463Zm7.014-.393a22.906,22.906,0,0,0,2.556,1.04,24.779,24.779,0,0,0,2.744.817l-.3.992a20.257,20.257,0,0,1-2.136-.547c-.074.22-1.795,5.132-1.795,5.132l-1.176-.408,1.786-5.136a19.337,19.337,0,0,1-2.09-.918Zm20.591,1.316a1.872,1.872,0,0,1,.907,1.186,2.237,2.237,0,0,1,.115.686c0,.911-.637,1.629-1.786,1.986,0,0-.582.181-.753.237.067.2.753,2.415.753,2.415l-1.144.294-1.938-6.278,1.731-.538A2.766,2.766,0,0,1,131.026,145.386Zm-2.423,1.183c.056.193.537,1.721.594,1.91.239-.069.761-.232.761-.232a1.319,1.319,0,0,0,.774-.59.852.852,0,0,0,.1-.4,1.278,1.278,0,0,0-.056-.336.839.839,0,0,0-.418-.5,1.563,1.563,0,0,0-1.12-.052Zm6.31-3.919,5.652,4.14-1,.7s-1.135-.859-1.248-.948c-.068.043-.647.451-1.277.824-.594.358-1.235.678-1.3.715.028.144.248,1.531.248,1.531l-1.079.516-.948-6.931Zm.647,4.384c.17-.082.609-.319,1.044-.581a9.515,9.515,0,0,0,.858-.559c-.228-.17-1.993-1.516-2.361-1.8C135.174,144.559,135.516,146.749,135.56,147.034Zm5.812-10.092,4.93,4.4-.889,1.04s-4.621-1.353-5.323-1.54c.522.5,3.39,3.519,3.39,3.519l-.867.785-4.644-4.722,1.089-.972s4.462,1.33,5.164,1.511c-.524-.49-3.6-3.138-3.6-3.138Zm2.253-3.282,5.709,3.307-.58,1.008-5.741-3.321Zm2.474-5.477.978.507-.1.115a2.746,2.746,0,0,0-.61,1.02,1.129,1.129,0,0,0-.016.863.613.613,0,0,0,.391.325c.435.149.81-.233,1.241-.675a2.339,2.339,0,0,1,2.555-.958c1.226.417,1.641,1.508,1.135,2.994a4.534,4.534,0,0,1-.693,1.193l-.06.078-1.012-.467.1-.119a3.8,3.8,0,0,0,.7-1.129,1.026,1.026,0,0,0-.516-1.383c-.545-.187-.953.232-1.429.724-.577.608-1.241,1.294-2.335.918a1.751,1.751,0,0,1-1.043-.873,2.315,2.315,0,0,1-.025-1.792,4.152,4.152,0,0,1,.679-1.269Z" transform="translate(-82.986 -82.675)" fill="#5792c9"/>
    </g>
    <g id="Group_10" data-name="Group 10" transform="translate(173.949 86.112)">
      <path id="Path_2" data-name="Path 2" d="M324.552,93.591h8.286v1.825H331.78v10.8l1.433-.271c-.022.748-.022,1.309-.022,1.893l-1.411.246v3.823h-1.827v-3.489c-1.7.311-3.408.622-5.3,1l-.29-2.016,1.245-.186v-11.8h-1.06Zm2.909,4.465h2.492V95.416h-2.492Zm0,4.257h2.492V99.7h-2.492Zm2.492,4.216v-2.576h-2.492v2.99Zm3.341-9.928h5.068c.872-1.433,1.661-2.8,2.306-4.153l1.972.767c-.684,1.1-1.413,2.285-2.117,3.385h2.78v1.913H339.13v2.552c0,.206,0,.416-.019.6h4.776V103.6h-4.672a8.931,8.931,0,0,0,4.878,6.187c-.435.665-.809,1.269-1.224,1.995-2.618-1.808-3.923-3.345-4.755-5.918-.665,2.387-1.951,3.986-4.692,6.062-.332-.456-.895-1.185-1.394-1.805,3.116-2.014,4.425-3.843,4.839-6.521h-4.112v-1.931h4.258c0-.043.02-.1.02-.167l.021-2.988h-3.76Zm.52-3.28,1.7-.872c.622.892,1.452,2.119,2.1,3.135l-1.809.893C335.184,95.416,334.5,94.337,333.814,93.32Z" transform="translate(-324.22 -92.197)" fill="#5792c9"/>
      <path id="Path_3" data-name="Path 3" d="M416.748,99.072v1.455H405.781V99.176q-1.464.936-3.176,1.87c-.333-.6-.789-1.307-1.225-1.973,4.485-2.118,7.475-4.631,9.138-7.29l2.6.209-.562.832a20.455,20.455,0,0,0,8.556,5.918c-.414.622-.83,1.309-1.245,2.035A30.46,30.46,0,0,1,416.748,99.072ZM404,102.687h14.495v8.846h-2.2V110.39H406.176v1.143H404Zm2.179,5.753H416.29v-3.781H406.176Zm.458-9.845H416a19.061,19.061,0,0,1-4.63-4.234A24.24,24.24,0,0,1,406.634,98.595Z" transform="translate(-372.164 -91.782)" fill="#5792c9"/>
      <path id="Path_4" data-name="Path 4" d="M481.035,94.431h17.8v18.751h-2.223v-1.019H483.214v1.019h-2.179Zm2.179,15.843h13.394V96.34H483.214Zm1.142-12.316h11.069v1.79h-4.61v2.115h4.257v1.786h-4.257v3.178h2.844c-.706-.808-1.348-1.455-1.91-1.993l1.142-1c.707.6,1.351,1.206,2.038,1.911l-1.227,1.081h1.973v1.806H484.149v-1.806h4.589V103.65h-4.007v-1.786h4.007V99.749h-4.382Z" transform="translate(-421.754 -93.431)" fill="#5792c9"/>
      <path id="Path_5" data-name="Path 5" d="M324.142,159.239l1.289-.371c.5,1.348.974,2.741,1.328,3.967l-1.371.477C324.994,161.9,324.641,160.714,324.142,159.239Zm4.8,10.009v7.477h-1.847v-6.855a20.759,20.759,0,0,1-2.263,4.134c-.188-.831-.478-1.722-.665-2.325a17.831,17.831,0,0,0,2.8-5.5h-2.513v-1.808h2.637V157.29h1.847v7.081h2.472v1.808h-2.472v2.013l.79-.665c.812.874,1.62,1.808,2.349,2.7l-1.413,1.206C330.1,170.683,329.522,169.956,328.938,169.249Zm.189-6.414c.582-1.456,1.017-2.619,1.432-3.988l1.328.416c-.393,1.286-.955,2.782-1.432,4.05Zm6.687,5.689h-1.559v5.482c.957-.353,2.264-.87,3.345-1.287,0,.6-.021,1.432.02,2.076l-3.488,1.309a12.032,12.032,0,0,0-1.455.707l-1.078-1.623a1.9,1.9,0,0,0,.686-1.6V159.222h4.05c-.166-.623-.354-1.227-.52-1.808l2.263-.228c.188.663.374,1.371.521,2.036h3.965v9.3h-4.775a10.962,10.962,0,0,0,1.2,2.532c1.121-.746,2.327-1.578,3.408-2.386l1.286,1.452c-1.079.686-2.3,1.475-3.592,2.242a11.736,11.736,0,0,0,3.861,2.243c-.393.644-.809,1.351-1.077,1.911C338.783,174.65,337.059,172.655,335.814,168.524Zm-1.559-5.5h6.334v-1.991h-6.334Zm6.334,3.718V164.7h-6.334v2.034Z" transform="translate(-324.08 -132.499)" fill="#5792c9"/>
      <path id="Path_6" data-name="Path 6" d="M410.872,173.2c-.018.725-.018,1.328,0,1.972-1.722.291-3.633.705-4.8.978a9.9,9.9,0,0,0-1.682.58l-1.038-1.662a1.857,1.857,0,0,0,.75-1.7v-9.574c-.647.29-1.311.582-2.016.874-.271-.562-.687-1.227-1.038-1.85,4.734-1.745,7.558-3.593,9.406-5.96l2.533.187-.516.665c2.366,2.345,4.753,3.573,8.513,4.714-.333.624-.665,1.306-.933,1.952-.812-.292-1.539-.582-2.225-.872v6.685l1.227,1.269c-1.061.6-2.14,1.139-3.219,1.68,1.369.521,2.741,1.019,4.069,1.538l-.957,1.783C416.293,175.357,413.551,174.234,410.872,173.2Zm.79-10.342h4.756a18.393,18.393,0,0,1-5.214-3.781,20.721,20.721,0,0,1-5.253,3.781h4.57c-.209-.6-.5-1.373-.769-1.972l2.014-.334a21.217,21.217,0,0,1,.789,2.119Zm-5.482,3.116h9.575v-1.538H406.18Zm0,3.01h9.575v-1.559H406.18Zm4.653,4.216c-.874-.333-1.725-.686-2.575-1l.891-1.475c1.5.52,2.991,1.037,4.463,1.579,1.164-.6,2.182-1.166,3.159-1.745H406.18v3.632C407.594,173.9,409,173.611,410.833,173.2Z" transform="translate(-371.96 -132.292)" fill="#5792c9"/>
      <path id="Path_7" data-name="Path 7" d="M482.585,176.733a24.163,24.163,0,0,0,5.919-2.824,18.682,18.682,0,0,1-4.007-6.375,18.218,18.218,0,0,1-4.672,11.046c-.5-.58-1.08-1.224-1.6-1.721,3.012-3.49,4.009-6.128,4.3-12.088.043-.665.062-1.579.083-2.492H479.43v-2.014H494.4V162.4l-2.221,3.447h4.132v1.931a20.119,20.119,0,0,1-4.3,6.168,18.2,18.2,0,0,0,5.96,2.43l-1.227,2.162a21.6,21.6,0,0,1-6.5-3.116,28.452,28.452,0,0,1-6.4,3.364C483.6,178.374,483,177.316,482.585,176.733Zm2.119-11.838.706-.537a19.465,19.465,0,0,0,4.838,8.2,14.965,14.965,0,0,0,3.53-4.756H489.5v-1.954l2.283-3.57H484.81C484.787,163.151,484.768,164.025,484.7,164.894Z" transform="translate(-420.004 -134.416)" fill="#5792c9"/>
      <path id="Path_8" data-name="Path 8" d="M333.218,230.016a17.321,17.321,0,0,1-2.594,3.592h.872V238.7c.914-.333,3.073-1.2,4.506-1.747a20.451,20.451,0,0,0,.166,2.263c-1.494.5-3.572,1.309-4.86,1.871a6.318,6.318,0,0,0-1.556.874l-1.309-1.828a2.461,2.461,0,0,0,.85-2.2v-3.011a31.092,31.092,0,0,1-4.235,3.2c-.291-.667-.687-1.393-1.081-2.1,4.57-2.721,7.04-5.648,8.328-9.221h-4.715v2.925h-2.2v-4.942h7.516a16.382,16.382,0,0,0,.417-2.534h2.345c-.145.873-.311,1.724-.5,2.534H342.9v4.3h-2.2V226.8h-6.1a4.428,4.428,0,0,1-.145.456,20.41,20.41,0,0,0,2.179,5.231c1.351-.87,2.869-1.887,4.072-2.823l1.515,1.62c-1.2.87-2.718,1.867-4.34,2.886A18.114,18.114,0,0,0,344,238.385c-.561.747-1.038,1.452-1.39,2.014C337.229,237.491,334.838,234.748,333.218,230.016Z" transform="translate(-323.978 -173.003)" fill="#5792c9"/>
      <path id="Path_9" data-name="Path 9" d="M401.983,239.093h5.9V223.019h2.2v16.074h3.1V223.019h2.2v16.074h5.938v2.138H401.983Zm.439-11.858,1.951-.684c1.079,2.761,2.179,5.751,3.093,8.369l-2.076.727C404.5,232.947,403.437,229.955,402.422,227.235Zm13.227,7.558c.955-2.076,2.283-5.379,3.3-8.2l2.014.725c-1.1,2.99-2.326,6.066-3.323,8.306Z" transform="translate(-372.54 -173.483)" fill="#5792c9"/>
      <path id="Path_10" data-name="Path 10" d="M478.641,234.04a5.844,5.844,0,0,0,1.434-1.373c.539-.685,1.2-1.577,1.848-2.532a26.629,26.629,0,0,0-2.991.269l-.539-1.893a5.17,5.17,0,0,0,1.119-1.429,39.469,39.469,0,0,0,2.7-4.945l2.2.727c-1.183,1.931-2.534,3.988-3.656,5.5.687-.023,1.6-.041,2.368-.1.394-.624.77-1.247,1.141-1.891l1.933.851c-1.558,2.347-3.344,4.8-4.736,6.563,1.187-.125,2.534-.249,3.843-.415-.062.644-.1,1.266-.124,1.89a55.569,55.569,0,0,0-5.921.7Zm-.186,4.172q3.112-.374,6.976-.934a15.691,15.691,0,0,0-.082,1.7H486.7v-15.8h9.866v15.8H498.1v1.973H484.851V239.4c-1.931.249-4.092.6-6.066.936Zm10.4-9.739h5.564v-3.385h-5.564Zm0,5.231h5.564v-3.383h-5.564Zm0,5.276h5.564v-3.4h-5.564Z" transform="translate(-420.109 -172.935)" fill="#5792c9"/>
      <path id="Path_11" data-name="Path 11" d="M555.853,234.121A5.308,5.308,0,0,0,557.017,233a33.371,33.371,0,0,0,2.034-2.8,30.2,30.2,0,0,0-3.052.292l-.541-1.87a5.9,5.9,0,0,0,1.124-1.432,28.439,28.439,0,0,0,2.614-5.048l2.225.727c-1.206,2.057-2.43,3.988-3.553,5.586.665-.02,1.558-.042,2.326-.082.375-.623.727-1.247,1.08-1.891l1.953.833c-1.475,2.283-2.992,4.442-4.589,6.56l3.674-.331c-.063.665-.1,1.289-.1,1.87-2.869.209-4.383.394-5.734.6Zm-.29,4.318c2.013-.29,4.383-.644,6.812-1.04-.021.667-.042,1.372-.021,2.037-2.181.331-4.528.725-6.42,1.1Zm6.146,1.91a39.968,39.968,0,0,0,4.2-5.44l1.908,1.079a68.989,68.989,0,0,1-4.276,5.712Zm1.912-16.9h10.3v10.424h-10.3Zm2.18,8.453h5.941v-6.479H565.8Zm3.716,4.11,1.807-1.1c1.494,1.953,2.7,3.551,3.926,5.274l-1.931,1.287C572.219,239.791,570.953,237.943,569.517,236.01Z" transform="translate(-468.085 -172.935)" fill="#5792c9"/>
    </g>
  </g>
</svg>
