<svg xmlns="http://www.w3.org/2000/svg" width="156.033" height="51" viewBox="0 0 156.033 51">
  <g id="FAO_ZH_Black_2Lines" transform="translate(-83.029 -82.686)">
    <g id="Group_12" data-name="Group 12" transform="translate(83.03 82.686)">
      <path id="Path_12" data-name="Path 12" d="M108.53,133.686a25.5,25.5,0,1,1,25.5-25.5A25.529,25.529,0,0,1,108.53,133.686Zm-.1-35.556c.032,0,2.071,2.186,2.071,3.931a2.151,2.151,0,0,1-1.975,2.345c-.025,0-.054,0-.087,0h-.018c-.033,0-.066,0-.087,0a2.152,2.152,0,0,1-1.975-2.345C106.363,100.316,108.4,98.13,108.434,98.13Zm-19.2,11.476h2.326v-4.3h3.909v-1.8H91.557v-2.388h4.037V99.327H89.231Zm21.311-11.166H113L110.144,88.16h-3.136l-2.954,10.281h2.271l.653-2.3h2.974ZM109.521,94.4h-2.136l1-4.471h.163Zm10.774,10.063c0,3.018,1.4,5.313,4.357,5.313s4.379-2.3,4.379-5.313-1.415-5.315-4.379-5.315S120.295,101.447,120.295,104.467Zm2.477,0c0-1.975.484-3.577,1.88-3.577s1.9,1.6,1.9,3.577-.5,3.58-1.9,3.58S122.772,106.44,122.772,104.467Zm-15.329,26.372a34.527,34.527,0,0,0,.271-4.461v-.316c0-2.631-.1-3.521-1.854-4.1-2.714-.9-3.823-3.929-3.229-7.7l-9.08-23.088a22.668,22.668,0,0,0,13.892,39.667Zm1.077-14.721c-3.612-.84-4.953-4.132-4.953-7.057l-7.95-19.507q-.778.539-1.51,1.14c1.749,4.142,9.6,22.764,9.606,22.792,1.388,3.343,3.916,2.235,4.526,5a6.012,6.012,0,0,1,.157.959h.27a5.566,5.566,0,0,1,.156-.959c.611-2.764,3.132-1.656,4.521-5,.011-.028,7.859-18.65,9.605-22.792-.487-.4-.989-.78-1.511-1.14l-7.946,19.507c0,2.925-1.344,6.217-4.957,7.057Zm0-5.887a4.979,4.979,0,0,1-3.69-3.821,8.776,8.776,0,0,1-.051-2.435L97.808,88.2c-.562.3-1.108.63-1.645.979,2.084,4.683,8.452,18.983,8.457,19,1.007,2.123,2.776,2.166,3.386,3.428a4.121,4.121,0,0,1,.406,1.477h.233a4.2,4.2,0,0,1,.405-1.477c.613-1.263,2.38-1.305,3.385-3.428.006-.015,6.377-14.315,8.457-19-.528-.349-1.08-.677-1.644-.979l-6.959,15.769a8.358,8.358,0,0,1-.061,2.435,4.981,4.981,0,0,1-3.68,3.821Zm.1-2.679.108-.862c.439-2,1.889-1.749,2.894-3.71a.233.233,0,0,0,.018-.028c.03-.071,4.957-10.645,7.014-15.061a22.647,22.647,0,0,0-20.232,0c2.055,4.416,6.982,14.989,7.022,15.061,0,0,.01.021.014.028,1,1.961,2.448,1.715,2.889,3.71l.1.862Zm22.6.635a22.646,22.646,0,0,0-7.7-17.015l-9.088,23.088c.6,3.771-.513,6.8-3.227,7.7-1.758.581-1.854,1.471-1.854,4.1v.316a35.7,35.7,0,0,0,.271,4.461A22.708,22.708,0,0,0,131.212,108.186Zm-38.2,6.7s.336.713.609,1.222.641,1.115.641,1.115l-.6.349s-.454-.757-.871-1.633c-.115.058-.832.431-.951.489.071.128.8,1.546.8,1.546l-.605.349s-.745-1.447-.811-1.572l-1.675.862-.37-.736,3.786-1.97Zm2.394,3.883.527.637-3.313,2.766-.536-.635,3.282-2.743Zm3.069,2.9.656.469-.85,4.567-.752-.432s.19-.93.211-1.019c-.036-.03-.473-.293-.9-.593s-.851-.654-.891-.682l-.913.544-.643-.551,4.039-2.275Zm-1.914,1.942c.077.065.357.29.648.5s.59.4.678.442c.042-.192.344-1.694.407-1.97C98.05,122.727,96.737,123.506,96.563,123.611Zm4.645-.262a14.969,14.969,0,0,0,1.693.689,16.859,16.859,0,0,0,1.818.544l-.2.656a13.428,13.428,0,0,1-1.416-.361c-.049.143-1.189,3.4-1.189,3.4l-.78-.272s1.135-3.26,1.186-3.4a12.659,12.659,0,0,1-1.387-.608Zm13.638.872a1.249,1.249,0,0,1,.6.786,1.522,1.522,0,0,1,.077.454c0,.6-.423,1.08-1.185,1.316l-.5.156c.044.137.5,1.6.5,1.6l-.757.2-1.284-4.158,1.148-.357A1.822,1.822,0,0,1,114.847,124.221Zm-1.6.784c.037.126.354,1.141.391,1.265.16-.047.5-.155.5-.155a.856.856,0,0,0,.515-.39.561.561,0,0,0,.064-.263.8.8,0,0,0-.038-.223.562.562,0,0,0-.274-.332,1.037,1.037,0,0,0-.743-.033Zm4.178-2.6,3.744,2.742-.665.467s-.753-.569-.827-.628c-.044.026-.431.3-.848.544-.391.236-.817.45-.859.474.018.095.165,1.013.165,1.013l-.716.342-.629-4.591Zm.43,2.9c.111-.053.4-.208.69-.382a5.793,5.793,0,0,0,.568-.372c-.151-.113-1.321-1-1.564-1.188C117.6,123.675,117.821,125.125,117.851,125.312Zm3.848-6.682,3.266,2.913-.589.689s-3.061-.9-3.526-1.021c.345.333,2.244,2.333,2.244,2.333l-.573.52-3.077-3.128.723-.645s2.955.882,3.419,1c-.344-.326-2.384-2.079-2.384-2.079Zm1.493-2.173,3.781,2.19-.387.665-3.8-2.2Zm1.637-3.629.649.337-.066.075a1.838,1.838,0,0,0-.4.677.753.753,0,0,0-.01.572.4.4,0,0,0,.259.215c.287.1.535-.153.821-.446a1.551,1.551,0,0,1,1.694-.635c.811.275,1.087,1,.752,1.982a3.066,3.066,0,0,1-.459.792l-.04.052-.67-.312.067-.077a2.587,2.587,0,0,0,.465-.747.682.682,0,0,0-.344-.916c-.358-.124-.63.155-.944.479-.383.4-.822.856-1.548.608a1.164,1.164,0,0,1-.691-.578,1.549,1.549,0,0,1-.018-1.187,2.807,2.807,0,0,1,.45-.839Z" transform="translate(-83.03 -82.686)" fill="#555"/>
    </g>
    <g id="Group_13" data-name="Group 13" transform="translate(143.412 97.132)">
      <path id="Path_13" data-name="Path 13" d="M325.067,141.888h5.488v1.21h-.7v7.153l.949-.179c-.013.494-.013.865-.013,1.251l-.936.165v2.531h-1.209v-2.31c-1.129.2-2.256.412-3.508.658l-.194-1.333.826-.124V143.1h-.7Zm1.926,2.957h1.651V143.1h-1.651Zm0,2.821h1.651v-1.734h-1.651Zm1.651,2.79v-1.7h-1.651v1.981Zm2.214-6.574h3.354a30.91,30.91,0,0,0,1.527-2.751l1.307.51c-.454.729-.935,1.512-1.4,2.242h1.842v1.265h-2.763v1.693a3.628,3.628,0,0,1-.014.4h3.162v1.28h-3.094a5.917,5.917,0,0,0,3.233,4.1c-.288.44-.537.839-.811,1.32a7,7,0,0,1-3.151-3.919c-.44,1.583-1.293,2.641-3.108,4.016-.22-.3-.591-.785-.921-1.2,2.063-1.335,2.929-2.544,3.2-4.319H330.5v-1.28h2.82c0-.026.013-.068.013-.109l.013-1.981h-2.488Zm.344-2.173,1.127-.579c.413.592.963,1.4,1.389,2.078l-1.2.592C332.11,143.1,331.656,142.383,331.2,141.71Z" transform="translate(-324.847 -140.966)" fill="#555"/>
      <path id="Path_14" data-name="Path 14" d="M401.139,145.3v.963h-7.265v-.894q-.968.621-2.1,1.238c-.219-.4-.522-.867-.81-1.307a13.892,13.892,0,0,0,6.051-4.828l1.719.138-.371.549a13.556,13.556,0,0,0,5.666,3.92c-.274.413-.548.867-.824,1.347A20,20,0,0,1,401.139,145.3Zm-8.445,2.394h9.6v5.857h-1.458V152.8h-6.7v.754h-1.443Zm1.443,3.809h6.7V149h-6.7Zm.3-6.52h6.2a12.579,12.579,0,0,1-3.067-2.806A15.978,15.978,0,0,1,394.439,144.983Z" transform="translate(-374.36 -140.471)" fill="#555"/>
      <path id="Path_15" data-name="Path 15" d="M459.61,143.113H471.4v12.418h-1.473v-.672h-8.87v.672H459.61Zm1.445,10.5h8.87v-9.23h-8.87Zm.755-8.157h7.331v1.183h-3.054v1.4h2.819v1.183h-2.819v2.1h1.885c-.468-.538-.9-.964-1.265-1.321l.757-.661c.467.4.894.8,1.347,1.266l-.811.716h1.305v1.2h-7.633v-1.2h3.039v-2.1h-2.655v-1.183h2.655v-1.4h-2.9Z" transform="translate(-425.848 -142.452)" fill="#555"/>
      <path id="Path_16" data-name="Path 16" d="M522.759,142.216l.853-.247c.33.894.647,1.817.881,2.628l-.909.316C523.324,143.978,523.089,143.193,522.759,142.216Zm3.177,6.63V153.8h-1.223v-4.539a14.1,14.1,0,0,1-1.5,2.737c-.124-.55-.317-1.142-.441-1.539a11.83,11.83,0,0,0,1.855-3.646h-1.663v-1.2h1.747v-4.691h1.223v4.691h1.638v1.2h-1.638v1.333l.524-.439c.535.579,1.072,1.2,1.554,1.787l-.937.8C526.706,149.794,526.322,149.314,525.935,148.846Zm.124-4.249c.384-.962.675-1.734.949-2.64l.881.274c-.263.854-.632,1.844-.949,2.682Zm4.429,3.769h-1.032V152c.634-.234,1.5-.579,2.215-.854,0,.4-.013.95.013,1.376l-2.31.867a7.914,7.914,0,0,0-.963.467l-.716-1.073a1.258,1.258,0,0,0,.454-1.059V142.2h2.682c-.11-.413-.236-.813-.344-1.2l1.5-.152c.124.441.247.909.344,1.349h2.627v6.161H531.8a7.317,7.317,0,0,0,.8,1.678c.742-.5,1.542-1.046,2.256-1.583l.852.963c-.716.455-1.527.977-2.38,1.485a7.8,7.8,0,0,0,2.558,1.485c-.263.426-.536.895-.715,1.265A7.364,7.364,0,0,1,530.489,148.365Zm-1.032-3.645h4.2V143.4h-4.2Zm4.2,2.462v-1.348h-4.2v1.348Z" transform="translate(-473.209 -140.759)" fill="#555"/>
      <path id="Path_17" data-name="Path 17" d="M595.169,151.351c-.014.481-.014.882,0,1.306-1.142.193-2.407.468-3.177.646a6.757,6.757,0,0,0-1.115.387l-.687-1.1a1.235,1.235,0,0,0,.5-1.129v-6.339c-.426.192-.867.385-1.334.578-.179-.371-.454-.811-.687-1.224,3.136-1.155,5.006-2.38,6.231-3.947l1.678.124-.344.439a12.293,12.293,0,0,0,5.64,3.124c-.221.413-.441.865-.62,1.291-.536-.192-1.018-.385-1.471-.576v4.429l.811.839c-.7.4-1.418.757-2.132,1.114.908.344,1.815.673,2.7,1.018l-.634,1.183C598.758,152.781,596.942,152.04,595.169,151.351Zm.523-6.848h3.15a12.164,12.164,0,0,1-3.452-2.5,13.77,13.77,0,0,1-3.481,2.5h3.027c-.138-.4-.331-.909-.508-1.308l1.334-.22a14.183,14.183,0,0,1,.523,1.4Zm-3.631,2.063H598.4v-1.018H592.06Zm0,1.995H598.4v-1.033H592.06Zm3.08,2.791c-.578-.219-1.141-.455-1.705-.66l.591-.977c.99.344,1.981.688,2.958,1.045.771-.4,1.443-.771,2.091-1.155H592.06v2.407C592.995,151.82,593.93,151.627,595.141,151.351Z" transform="translate(-522.637 -140.513)" fill="#555"/>
      <path id="Path_18" data-name="Path 18" d="M657.728,154.845a15.959,15.959,0,0,0,3.919-1.872,12.377,12.377,0,0,1-2.654-4.221,12.068,12.068,0,0,1-3.095,7.317c-.33-.385-.714-.812-1.059-1.142,1.995-2.31,2.654-4.058,2.846-8,.028-.44.042-1.045.056-1.649h-2.1v-1.335h9.915v1.417l-1.471,2.282h2.737v1.28A13.34,13.34,0,0,1,663.973,153a12.133,12.133,0,0,0,3.946,1.609l-.812,1.43a14.224,14.224,0,0,1-4.3-2.063,18.991,18.991,0,0,1-4.237,2.228C658.4,155.931,658,155.229,657.728,154.845Zm1.4-7.841.466-.357a12.881,12.881,0,0,0,3.206,5.434,9.92,9.92,0,0,0,2.338-3.151h-2.833v-1.293l1.513-2.364H659.2C659.185,145.85,659.172,146.428,659.131,147Z" transform="translate(-572.269 -143.071)" fill="#555"/>
      <path id="Path_19" data-name="Path 19" d="M330.68,211.069a11.553,11.553,0,0,1-1.718,2.381h.576v3.369c.607-.22,2.037-.8,2.986-1.156a13,13,0,0,0,.11,1.5c-.99.332-2.366.867-3.218,1.238a4.193,4.193,0,0,0-1.033.577l-.867-1.21a1.624,1.624,0,0,0,.565-1.46v-1.994a20.419,20.419,0,0,1-2.805,2.119c-.193-.439-.454-.92-.716-1.39,3.026-1.8,4.662-3.74,5.517-6.106h-3.124v1.94h-1.458V207.6h4.979a10.717,10.717,0,0,0,.275-1.677H332.3c-.1.576-.206,1.141-.332,1.677h5.118v2.849h-1.458v-1.515h-4.045a2.528,2.528,0,0,1-.1.3,13.565,13.565,0,0,0,1.445,3.465c.893-.576,1.9-1.251,2.7-1.869l1,1.073c-.8.578-1.8,1.238-2.874,1.912a11.983,11.983,0,0,0,4.058,2.791c-.371.5-.687.964-.921,1.337C333.335,216.02,331.754,214.2,330.68,211.069Z" transform="translate(-324.56 -189.562)" fill="#555"/>
      <path id="Path_20" data-name="Path 20" d="M391.565,217.338h3.9V206.693h1.458v10.645h2.05V206.693h1.457v10.645h3.933v1.418h-12.8Zm.289-7.852,1.293-.454c.714,1.829,1.443,3.809,2.048,5.543l-1.374.482C393.229,213.268,392.528,211.287,391.854,209.486Zm8.762,5.007c.633-1.375,1.512-3.563,2.185-5.434l1.335.483c-.728,1.98-1.542,4.015-2.2,5.5Z" transform="translate(-374.814 -190.138)" fill="#555"/>
      <path id="Path_21" data-name="Path 21" d="M457.134,213.695a3.848,3.848,0,0,0,.949-.908c.358-.454.8-1.046,1.223-1.678a18.058,18.058,0,0,0-1.979.179l-.358-1.252a3.358,3.358,0,0,0,.742-.949,26.166,26.166,0,0,0,1.79-3.274l1.457.481c-.784,1.278-1.678,2.641-2.421,3.644.454-.013,1.06-.026,1.568-.068.263-.412.51-.825.757-1.251l1.279.562c-1.032,1.556-2.215,3.179-3.137,4.347.785-.082,1.68-.163,2.547-.273-.042.424-.07.836-.085,1.25a36.567,36.567,0,0,0-3.919.469Zm-.124,2.763q2.063-.246,4.622-.617a10.454,10.454,0,0,0-.056,1.128h.9V206.5H469v10.467h1.017v1.307h-8.775v-1.033c-1.28.166-2.711.4-4.017.621Zm6.891-6.451h3.686v-2.242H463.9Zm0,3.467h3.686v-2.241H463.9Zm0,3.494h3.686v-2.256H463.9Z" transform="translate(-423.866 -189.478)" fill="#555"/>
      <path id="Path_22" data-name="Path 22" d="M523.292,213.75a3.543,3.543,0,0,0,.77-.743,21.89,21.89,0,0,0,1.349-1.857,20,20,0,0,0-2.022.193l-.359-1.238a3.892,3.892,0,0,0,.744-.949,18.8,18.8,0,0,0,1.732-3.343l1.473.481c-.8,1.362-1.608,2.641-2.353,3.7.442-.014,1.033-.028,1.542-.056.248-.412.48-.825.716-1.251l1.292.551c-.977,1.513-1.981,2.942-3.039,4.347l2.435-.219c-.042.438-.068.852-.068,1.237-1.9.137-2.9.262-3.8.4Zm-.192,2.86c1.333-.193,2.9-.426,4.511-.687-.013.442-.028.908-.013,1.348-1.446.22-3,.48-4.252.728Zm4.071,1.265a26.461,26.461,0,0,0,2.778-3.6l1.265.714a46.255,46.255,0,0,1-2.832,3.784Zm1.266-11.2h6.822v6.905h-6.822Zm1.443,5.6h3.934v-4.293H529.88ZM532.342,215l1.2-.729c.99,1.293,1.788,2.352,2.6,3.493l-1.279.853C534.131,217.5,533.292,216.28,532.342,215Z" transform="translate(-473.413 -189.478)" fill="#555"/>
    </g>
  </g>
</svg>
