<?xml version="1.0" encoding="UTF-8"?>
<svg width="512px" height="512px" viewBox="0 0 512 512" version="1.1" xmlns="http://www.w3.org/2000/svg" xmlns:xlink="http://www.w3.org/1999/xlink" style="background: #C5E7EB;">
    <!-- Generator: Sketch 47.1 (45422) - http://www.bohemiancoding.com/sketch -->
    <title>tucan</title>
    <desc>Created with Sketch.</desc>
    <defs>
        <radialGradient cx="72.3930413%" cy="8.12771696%" fx="72.3930413%" fy="8.12771696%" r="110.074%" gradientTransform="translate(0.723930,0.081277),scale(1.000000,0.835356),translate(-0.723930,-0.081277)" id="radialGradient-1">
            <stop stop-color="#FFFFFF" stop-opacity="0" offset="0%"></stop>
            <stop stop-color="#FFFFFF" stop-opacity="0.25" offset="54.978%"></stop>
            <stop stop-color="#008860" offset="100%"></stop>
        </radialGradient>
        <radialGradient cx="72.3930413%" cy="8.12771696%" fx="72.3930413%" fy="8.12771696%" r="110.074%" gradientTransform="translate(0.723930,0.081277),scale(1.000000,0.827256),translate(-0.723930,-0.081277)" id="radialGradient-2">
            <stop stop-color="#FFFFFF" stop-opacity="0" offset="0%"></stop>
            <stop stop-color="#FFFFFF" stop-opacity="0.25" offset="54.978%"></stop>
            <stop stop-color="#008860" offset="100%"></stop>
        </radialGradient>
    </defs>
    <g id="Page-1" stroke="none" stroke-width="1" fill="none" fill-rule="evenodd">
        <g id="tucan" fill-rule="nonzero">
            <g transform="translate(42.000000, 126.000000)">
                <g id="Group" transform="translate(0.000000, 358.707361)" fill="#008860">
                    <path d="M89.9516129,52.6212747 L159.145161,7.02262118 L148.558548,0 L62.945371,52.6212747 L28.1271774,52.6212747 C28.1271774,52.6212747 0,63.2035907 0,82.9443447 C0,82.9443447 15.6308226,59.671544 33.033,59.671544 L33.8148871,59.671544 C26.4596129,64.7795332 18.7514516,72.5970377 18.7514516,82.9443447 C18.7514516,82.9443447 33.1160323,61.6207361 49.6325323,59.8443447 C42.3672097,64.959246 34.8251129,72.7214542 34.8251129,82.9443447 C34.8251129,82.9443447 48.4354839,62.2082585 69.1935484,62.2082585 L96.8709677,62.2082585 L89.9516129,52.6212747 Z M179.903226,54.5082585 L214.5,34.2352783 L203.698887,27.6481149 L154.156306,54.5082585 L118.632339,54.5082585 C118.632339,54.5082585 89.9516129,64.4339318 89.9516129,82.9443447 C89.9516129,82.9443447 105.893806,61.12307 123.648871,61.12307 L124.437677,61.12307 C116.944016,65.9131059 109.07671,73.2467684 109.07671,82.9443447 C109.07671,82.9443447 123.724984,62.9478456 140.573613,61.2820467 C133.162984,66.0789946 125.468661,73.3573609 125.468661,82.9443447 C125.468661,82.9443447 138.387097,62.2082585 159.145161,62.2082585 L186.822581,62.2082585 L179.903226,54.5082585 L179.903226,54.5082585 Z" id="Shape"></path>
                </g>
                <g id="a-link" transform="translate(26.947236, 0.000000)" fill="#3E2500">
                    <path d="M339.837365,555.37931 C331.934491,558.813793 325.712787,554.317241 320.96555,547.082759 C326.022838,567.268966 326.870313,590.324138 308.184529,598.427586 C289.498745,606.531034 257.818348,580.634483 257.818348,580.634483 C238.698491,588.937931 227.67443,543.082759 227.088777,539.675862 C226.510013,536.262069 192.087381,415.427586 192.087381,415.427586 C-40.4996459,355.606897 1.56403872,183.2 5.28465947,163.013793 C27.4016828,43.1034483 93.1670996,0 145.434931,0 C197.709653,0 196.393655,21.6551724 196.393655,21.6551724 C196.393655,21.6551724 209.408938,103.841379 195.980253,110.813793 C158.918736,130.068966 180.291636,148.613793 179.533731,148.613793 C284.076284,242.627586 262.110842,389.724138 262.110842,389.724138 C262.110842,389.724138 331.431518,487.634483 341.125803,504.386207 C346.513813,513.696552 351.39196,525.875862 351.39196,536.268966 C351.39196,544.565517 348.284552,551.724138 339.837365,555.386207 L339.837365,555.37931 Z" id="a"></path>
                </g>
                <g id="Group" transform="translate(47.427136, 14.003591)">
                    <g id="d-link" fill="#FFFFFF">
                        <path d="M166.06837,1.28229803 C166.06837,1.28229803 80.4776728,-9.68617594 17.2499971,127.016445 C-45.9707955,263.719066 93.3214397,246.539031 123.655031,230.868797 C153.974856,215.198564 170.418456,175.785135 162.200097,133.84158 C162.200097,133.84158 149.858793,107.761293 183.275989,95.0279354 C214.49061,83.1149731 199.065701,0 171.932727,0 C170.026123,0 168.07822,0.413644524 166.06837,1.28229803" id="d"></path>
                    </g>
                    <g id="d-link" fill-opacity="0.8" fill="url(#radialGradient-2)">
                        <path d="M166.06837,1.28229803 C166.06837,1.28229803 80.4776728,-9.68617594 17.2499971,127.016445 C-45.9707955,263.719066 93.3214397,246.539031 123.655031,230.868797 C153.974856,215.198564 170.418456,175.785135 162.200097,133.84158 C162.200097,133.84158 149.858793,107.761293 183.275989,95.0279354 C214.49061,83.1149731 199.065701,0 171.932727,0 C170.026123,0 168.07822,0.413644524 166.06837,1.28229803" id="d"></path>
                    </g>
                </g>
                <path d="M178.929648,30.7001795 C178.929648,36.3519265 183.51423,40.9335727 189.169598,40.9335727 C194.824966,40.9335727 199.409548,36.3519265 199.409548,30.7001795 C199.409548,25.0484325 194.824966,20.4667864 189.169598,20.4667864 C183.51423,20.4667864 178.929648,25.0484325 178.929648,30.7001795" id="Shape" fill="#008860"></path>
                <path d="M206.954774,14.8594715 L210.84245,85.7862478 C210.84245,85.7862478 204.434344,112.314848 249.456809,105.944674 C294.479274,99.5676072 355.584151,95.0381659 355.584151,95.0381659 C355.584151,95.0381659 419.181835,100.201867 426.563586,109.874327 C431.790887,91.8530794 433.213376,-25.5125349 206.954774,14.8594715" id="Shape" fill="#FFCC2F"></path>
                <path d="M428.46029,102.333932 C414.967548,90.7765645 397.177887,84.4179658 379.706516,79.5330337 C361.965284,74.7219278 343.809438,71.5449202 325.472613,70.0428933 C316.325226,69.0058686 307.05329,68.971756 297.878226,68.3918408 C288.640887,68.3440831 279.431226,67.9620214 270.200806,67.7982807 L242.454194,67.4230415 C233.189177,67.4912668 223.910323,67.5117344 214.555355,67.1364952 L214.5,66.5019998 C223.713532,65.1060037 232.960606,63.9344458 242.232774,62.9883964 C251.525468,62.1287575 260.873516,61.9581943 270.214645,61.4192143 C279.555774,61.3168764 288.910742,61.6443578 298.251871,62.0809998 C307.558403,63.0770893 316.913371,63.5205538 326.157629,64.9737529 C344.722258,67.1160276 363.065468,71.0458053 380.792855,76.50383 C398.271145,82.2893362 415.887823,89.5075738 429,101.931402 L428.46029,102.333932 L428.46029,102.333932 Z" id="Shape" fill="#EF6B2F"></path>
            </g>
        </g>
    </g>
</svg>