<svg width="512" height="512" viewBox="0 0 512 512" xmlns="http://www.w3.org/2000/svg" style="background:#c5e7eb"><title>tucan</title><defs><radialGradient cx="72.393%" cy="8.128%" fx="72.393%" fy="8.128%" r="110.074%" gradientTransform="matrix(1 0 0 .82726 0 .014)" id="a"><stop stop-color="#FFF" stop-opacity="0" offset="0%"/><stop stop-color="#FFF" stop-opacity=".25" offset="54.978%"/><stop stop-color="#008860" offset="100%"/></radialGradient></defs><g fill-rule="nonzero" fill="none"><path d="M131.952 537.33l69.193-45.6-10.586-7.023-85.615 52.622H70.127S42 547.91 42 567.65c0 0 15.63-23.273 33.033-23.273h.782c-7.355 5.107-15.064 12.924-15.064 23.272 0 0 14.366-21.324 30.883-23.1-7.266 5.115-14.808 12.877-14.808 23.1 0 0 13.61-20.736 34.37-20.736h27.676l-6.918-9.587zm89.95 1.886l34.598-20.273-10.8-6.588-49.544 26.86h-35.524s-28.68 9.926-28.68 28.437c0 0 15.942-21.822 33.697-21.822h.788c-7.494 4.79-15.36 12.124-15.36 21.822 0 0 14.647-19.997 31.496-21.663-7.41 4.796-15.105 12.075-15.105 21.662 0 0 12.917-20.736 33.675-20.736h27.678l-6.92-7.7z" fill="#008860"/><path d="M408.785 681.38c-7.903 3.434-14.125-1.063-18.872-8.297 5.057 20.186 5.905 43.24-12.78 51.345-18.687 8.103-50.367-17.794-50.367-17.794-19.12 8.304-30.144-37.55-30.73-40.958-.58-3.414-35-124.248-35-124.248C28.447 481.608 70.51 309.2 74.23 289.014 96.35 169.104 162.114 126 214.382 126c52.275 0 50.96 21.655 50.96 21.655s13.014 82.186-.415 89.16c-37.06 19.254-15.688 37.8-16.446 37.8 104.544 94.013 82.578 241.11 82.578 241.11s69.32 97.91 79.015 114.66c5.388 9.312 10.266 21.49 10.266 31.884 0 8.296-3.108 15.454-11.555 19.116v-.007z" fill="#3E2500"/><path d="M255.496 141.286s-85.59-10.97-148.82 125.734c-63.22 136.703 76.073 119.523 106.406 103.852 30.32-15.67 46.764-55.083 38.545-97.027 0 0-12.34-26.08 21.076-38.813 31.215-11.913 15.79-95.028-11.343-95.028-1.907 0-3.855.413-5.864 1.282" fill="#FFF"/><path d="M166.068 1.282S80.478-9.686 17.25 127.016C-45.97 263.72 93.32 246.54 123.655 230.87c30.32-15.67 46.763-55.085 38.545-97.028 0 0-12.34-26.08 21.076-38.814C214.49 83.115 199.066 0 171.933 0c-1.907 0-3.855.414-5.865 1.282" fill-opacity=".8" fill="url(#a)" transform="translate(89.427 140.004)"/><path d="M220.93 156.7c0 5.652 4.584 10.234 10.24 10.234 5.655 0 10.24-4.582 10.24-10.234s-4.585-10.233-10.24-10.233c-5.656 0-10.24 4.58-10.24 10.233" fill="#008860"/><path d="M248.955 140.86l3.887 70.926s-6.408 26.53 38.615 20.16c45.022-6.378 106.127-10.908 106.127-10.908s63.598 5.164 70.98 14.836c5.227-18.02 6.65-135.387-219.61-95.015" fill="#FFCC2F"/><path d="M470.46 228.334c-13.492-11.557-31.282-17.916-48.753-22.8a301.165 301.165 0 0 0-54.234-9.49c-9.148-1.038-18.42-1.072-27.595-1.652-9.237-.048-18.447-.43-27.677-.594l-27.746-.375c-9.265.068-18.544.09-27.9-.287l-.054-.634a574.157 574.157 0 0 1 27.733-3.514c9.292-.86 18.64-1.03 27.982-1.57 9.34-.1 18.696.226 28.037.663 9.306.997 18.66 1.44 27.906 2.894 18.564 2.142 36.907 6.072 54.635 11.53 17.478 5.785 35.095 13.004 48.207 25.427l-.54.404z" fill="#EF6B2F"/></g></svg>